<svg xmlns="http://www.w3.org/2000/svg" width="140" height="60.923" viewBox="0 0 140 60.923"><g fill="#F8C963" stroke="#FFF" stroke-width=".5"><path d="M99.442 38.927l-5.622-2.815a3.64 3.64 0 0 0-.854-.296 3.607 3.607 0 0 0-.744-.505L81.52 29.956a15.988 15.988 0 0 1-2.779-.356c-3.605-.799-6.561-2.754-8.334-5.202l-.086-.04.01.091-6.923.723-.252 1.325a6.164 6.164 0 0 1-7.267 4.806l-2.01-.411c-.085-.019-.166-.045-.25-.066l.692-3.374 1.788-8.712.099-.02-.014-.042 4.152-.834 4.614-.98-.009.052 4.334-.872c.002-.01.007-.017.011-.026l.054.014.099-.021.005.043 4.298.949-1.308-4.135-.101-.011.011-.042-4.173-.397-4.738-.501.016.053-4.564-.433v.04l-14.629 4.871-3.408-1.587-9.578 20.368 4.133 2.141a8.412 8.412 0 0 0 3.699 5.509 3.517 3.517 0 0 1 .371-1.759l1.247-2.494a3.55 3.55 0 0 1 4.767-1.585 3.55 3.55 0 0 1 1.584 4.762l-1.249 2.496a3.575 3.575 0 0 1-1.244 1.385l2.804 1.4a3.515 3.515 0 0 1 .362-1.822l2.956-5.897a3.548 3.548 0 0 1 4.763-1.586 3.552 3.552 0 0 1 1.586 4.762l-2.955 5.899a3.513 3.513 0 0 1-1.238 1.385l2.484 1.243a3.52 3.52 0 0 1 .362-1.82l3.647-7.288a3.553 3.553 0 0 1 4.766-1.584 3.556 3.556 0 0 1 1.585 4.764l-3.646 7.283a3.548 3.548 0 0 1-1.242 1.387l2.485 1.242a3.53 3.53 0 0 1 .363-1.824l1.247-2.495a3.553 3.553 0 0 1 6.356 3.178l-1.251 2.496a3.49 3.49 0 0 1-1.185 1.347c.188.071.376.138.568.194l4.699 2.35a3.545 3.545 0 0 0 4.763-1.581 3.551 3.551 0 0 0-.373-3.77c.205-.27.392-.56.566-.861l3.012 1.508a3.55 3.55 0 1 0 3.176-6.35l-2.985-1.497.309-.615 7.02 3.516a3.55 3.55 0 1 0 3.179-6.351l-7.053-3.528a8.77 8.77 0 0 0 .233-.652l3.092 1.549c.277.139.565.231.854.293.222.196.471.366.747.507l5.624 2.815a3.55 3.55 0 0 0 4.764-1.586 3.56 3.56 0 0 0-1.59-4.768z"/><path d="M69.683 49.146a3.553 3.553 0 0 0-4.767 1.584l-1.247 2.495a3.554 3.554 0 0 0 1.588 4.766 3.555 3.555 0 0 0 4.764-1.587l1.251-2.496a3.55 3.55 0 0 0-1.589-4.762zM45.496 37.039a3.55 3.55 0 0 0-4.767 1.585l-1.247 2.494a3.548 3.548 0 0 0 1.583 4.765 3.557 3.557 0 0 0 4.766-1.586l1.249-2.496a3.55 3.55 0 0 0-1.584-4.762zM64.124 40.373a3.553 3.553 0 0 0-4.766 1.584l-3.647 7.288a3.551 3.551 0 0 0 6.352 3.175l3.646-7.283a3.556 3.556 0 0 0-1.585-4.764zM55.472 37.776a3.548 3.548 0 0 0-4.763 1.586l-2.956 5.897a3.55 3.55 0 0 0 1.589 4.763c1.75.88 3.884.17 4.761-1.585l2.955-5.899a3.552 3.552 0 0 0-1.586-4.762zM108.2 11.993l-22.787 7.584-15.959-3.525-.005-.043-.099.021-.054-.014c-.004.01-.009.017-.011.026l-4.334.872.009-.052-4.614.98-4.152.834.014.042-.099.02-2.48 12.086c.084.021.165.048.25.066l2.01.411a6.163 6.163 0 0 0 7.267-4.806l.252-1.325 6.923-.723-.019-.178c.912 1.297 2.154 2.459 3.648 3.394l.032.019c.163.1.324.199.492.293.024.014.052.027.076.04.154.091.311.173.468.254.042.021.083.04.124.062.145.069.293.145.444.213.058.026.12.05.178.077a15 15 0 0 0 .411.179l.235.091c.125.049.246.098.375.145.099.036.203.068.303.103.109.038.217.075.324.107.133.042.265.079.396.118.087.021.169.049.255.073.221.057.442.11.666.162.229.052.459.095.69.134.029.006.06.01.089.015.204.034.407.066.609.093l.051.006c.218.028.436.051.651.069h.005c.231.017.459.031.682.04h.002l10.703 5.354c.274.138.524.312.744.505.287.062.575.157.854.296l5.478 2.741 16.065-5.344-7.162-21.515z"/></g><path fill="#CCCBCA" d="M105.811 42.342l16.242-5.404 1.054-33.944-26.704 11.089z"/><path fill="#3F4A5A" d="M109.505 47.206L140 34.855 128.396 0 97.899 12.35z"/><path fill="#CCCBCA" d="M34.671 42.832L7.109 32.999l9.546-28.672 27.56 9.833z"/><path fill="#3F4A5A" d="M31.115 47.206L0 36.188 11.604 1.333 42.719 12.35z"/><circle fill="#CCCBCA" cx="27.83" cy="40.665" r="2.058"/><circle fill="#CCCBCA" cx="113.588" cy="39.978" r="2.058"/></svg>