<svg xmlns="http://www.w3.org/2000/svg" width="98.809" height="122.974" viewBox="0 0 98.809 122.974"><path fill="#FAD97F" d="M21.665 23.095C9.697 23.097 0 32.794 0 44.762 0 51.1 2.727 56.803 7.063 60.767c.205.172.411.351.624.538 3.385 3.088 5.51 7.528 5.51 12.468v1.885H30.132v-1.885c0-4.939 2.12-9.38 5.517-12.468.206-.188.412-.366.618-.538 4.331-3.964 7.063-9.667 7.063-16.005 0-11.968-9.696-21.665-21.665-21.667z"/><g fill="#FFF"><path d="M21.665 58.947a.747.747 0 0 1-.645-.372l-7.765-13.45a.744.744 0 0 1 .644-1.116h5.438l.726-2.249a.744.744 0 0 1 1.415-.001l1.08 3.341.186-.575a.744.744 0 0 1 .707-.516h5.979a.746.746 0 0 1 .645 1.116l-7.766 13.45a.744.744 0 0 1-.644.372zm-6.478-13.451l6.479 11.221 6.478-11.221h-4.151l-.727 2.249a.743.743 0 0 1-1.414.001l-1.08-3.34-.186.574a.743.743 0 0 1-.708.516h-4.691z"/><path d="M20.921 58.203h1.487v17.454h-1.487z"/></g><path fill="#CCCBCA" d="M21.668 92.012l-5.858-3.496h11.715z"/><path fill="#333C49" d="M31.312 87.138a1.38 1.38 0 0 1-1.378 1.378h-16.54a1.38 1.38 0 0 1-1.378-1.378v-11.48h19.296v11.48z"/><path fill="#3F4A5A" d="M12.017 77.085h19.296v1.423H12.017zM12.017 79.946h19.296v1.428H12.017zM12.017 82.798h19.296v1.428H12.017zM12.017 85.654h19.296v1.436H12.017z"/><g><path fill="#E5E8EC" d="M53.115 49.999l5.233 24.238 5.235 44.881H42.649l5.232-44.881z"/><path fill="#CDD5D7" d="M53.115 43.211l3.646 26.618 3.648 49.289H45.821l3.647-49.289z"/><path fill="#E5E8EC" d="M53.115 49.999l1.079 24.238 1.078 44.881h-4.319l1.08-44.881z"/><path fill="#CDD5D7" d="M98.809 117.739c0-6.561-5.319-11.664-11.882-11.664-3.471 0-6.586 1.606-8.759 3.979-1.834-2.311-5.003-3.791-8.613-3.791-1.607 0-3.122.338-4.478.879-1.562-4.402-6.502-7.607-12.366-7.607-6.409 0-11.707 3.852-12.709 8.881-.413.061-.819.137-1.22.226a12.8 12.8 0 0 0-7.633-2.521c-5.556 0-10.271 3.517-12.086 8.437a12.862 12.862 0 0 0-4.394-.783c-5.491 0-10.167 3.437-12.028 8.271 1.139.877 2.555.897 4.096.929 0 0 0-.512.004-.512H79.21c.006 0 .01.496.015.486.132.008.255-.145.386-.145.453 0 .883-.342 1.297-.342h16.711c.753-1 1.19-2.873 1.19-4.723z"/><g><path fill="#3F4A5A" d="M52.81 50.127c-3.626 0-6.566 4.883-6.566 10.904 0 .765.049 1.51.139 2.228h12.855c.09-.718.137-1.463.137-2.228-.001-6.021-2.939-10.904-6.565-10.904z"/><path fill="#3F4A5A" d="M46.61 24.004c0 11.617-5.951 21.726-14.732 26.965l-.775.714c-1.622 1.481-1.094 8.479-1.094 8.479h16.687V19.678c0 .626-.054 1.415-.15 2.323.038.663.064 1.33.064 2.003zM58.305 24.004c0 11.617 5.951 21.726 14.732 26.965.265.243.896.978 1.109 1.244 1.457 1.822 1.53 7.949 1.53 7.949H58.22V19.678c0 .626.054 1.415.151 2.323-.039.663-.066 1.33-.066 2.003z"/><path fill="#E5E8EC" d="M73.854 53.794c-.274-.23-.801-.295-1.09-.539-6.088-3.307-10.896-8.398-13.896-14.74V18.308c0-3.831-2.807-16.261-6.5-18.308-3.691 2.047-6.5 14.477-6.5 18.308v20.207c-2 6.342-7.365 11.607-13.453 14.915-.289.244-.473.134-.75.364-1.084.904-1.193 3.668-1.191 5.668h44.673c0-2-.209-4.764-1.293-5.668z"/></g></g><g fill="#3F4A5A"><path d="M47.918 8.548h9.346C56.089 4.682 54.447 1.029 52.591 0c-1.857 1.029-3.498 4.682-4.673 8.548zM56.834 15.48c-.269.611-1.158.381-2.202-.01a5.109 5.109 0 0 0-3.718 0c-1.043.389-1.933.621-2.202.01-.275-.596.375-2.041 1.732-2.567a6.411 6.411 0 0 1 4.658 0c1.358.523 2.006 1.968 1.732 2.567zM39.474 50.127c-1.586 0-2.871 4.883-2.871 10.904 0 .765.02 1.51.059 2.228h5.625c.039-.718.06-1.463.06-2.228-.001-6.021-1.287-10.904-2.873-10.904zM66.146 50.127c-1.586 0-2.873 4.883-2.873 10.904 0 .765.022 1.51.061 2.228h5.625c.039-.718.06-1.463.06-2.228-.001-6.021-1.287-10.904-2.873-10.904z"/></g></svg>