<svg xmlns="http://www.w3.org/2000/svg" width="131.654" height="101.686" viewBox="0 0 131.654 101.686"><path fill="#FAD97F" d="M53.047 55.65c0 14.644-11.872 26.524-26.526 26.524C11.871 82.175 0 70.293 0 55.65c0-14.642 11.871-26.52 26.521-26.52 14.654.001 26.526 11.879 26.526 26.52z"/><path fill="#F0CA67" d="M52.236 55.65c0 14.199-11.511 25.722-25.716 25.722C12.32 81.372.807 69.851.807 55.65S12.32 29.941 26.52 29.941c14.206 0 25.716 11.507 25.716 25.709z"/><path fill="#FAD97F" d="M46.771 55.65c0 11.188-9.062 20.246-20.251 20.246-11.183 0-20.25-9.06-20.25-20.246 0-11.181 9.067-20.247 20.25-20.247 11.189 0 20.251 9.067 20.251 20.247z"/><path fill="#F0CA67" d="M25.095 67.541c-1.334-.124-2.567-.449-3.673-.997a10.082 10.082 0 0 1-2.866-2.058l.887-1.364a.844.844 0 0 1 .336-.295.854.854 0 0 1 .454-.123c.21 0 .445.111.71.313.271.217.602.454.991.729.387.266.854.539 1.394.8.538.246 1.188.424 1.941.508l.617-8.862a24.14 24.14 0 0 1-2.291-.794 7.639 7.639 0 0 1-2.027-1.146 5.285 5.285 0 0 1-1.428-1.794c-.361-.711-.55-1.615-.55-2.705 0-.811.165-1.603.479-2.382a6.291 6.291 0 0 1 1.391-2.062c.6-.605 1.347-1.101 2.246-1.479.883-.389 1.913-.589 3.065-.589l.165-2.436c.024-.21.105-.394.25-.562a.737.737 0 0 1 .582-.249h1.104l-.229 3.302c1.164.145 2.172.444 3.016.897a10.742 10.742 0 0 1 2.273 1.654l-.72 1.098c-.222.345-.482.506-.771.506-.155 0-.341-.069-.572-.21a18.774 18.774 0 0 0-.832-.482 11.12 11.12 0 0 0-1.108-.549 5.935 5.935 0 0 0-1.452-.394l-.556 8.073c.805.248 1.588.518 2.372.809.773.282 1.48.66 2.1 1.117a5.206 5.206 0 0 1 1.509 1.722c.393.684.581 1.541.581 2.564a7.922 7.922 0 0 1-.5 2.831 6.941 6.941 0 0 1-1.458 2.328 7.57 7.57 0 0 1-2.352 1.632c-.936.421-1.991.631-3.184.631l-.195 2.981a.903.903 0 0 1-.267.563.772.772 0 0 1-.569.242h-1.104l.241-3.768zm-2.696-18.068c0 .535.099 1.003.286 1.394.187.398.444.739.784 1.041.336.305.719.565 1.164.787.444.221.934.427 1.448.604l.509-7.523c-.727.06-1.348.207-1.887.428-.517.224-.96.499-1.302.832a3.417 3.417 0 0 0-.755 1.126 3.542 3.542 0 0 0-.247 1.311zm9.258 11.078c0-.551-.099-1.029-.308-1.426a3.188 3.188 0 0 0-.843-1.038 5.344 5.344 0 0 0-1.256-.754c-.475-.21-.984-.407-1.529-.589l-.567 8.31a5.863 5.863 0 0 0 1.925-.475 4.453 4.453 0 0 0 1.417-.959c.388-.386.676-.844.872-1.36a4.8 4.8 0 0 0 .289-1.709z"/><path fill="#CDD5D7" d="M88.884 46.071l.004-.003c-.009.007-.013.008-.004.003zM121.706 57.139l.003.001c-.053-.037-.061-.042-.003-.001zM118.145 56.129c-.095.193.506.608.557.516.05-.098-.079-.574-.188-.68-.107-.104-.274-.029-.369.164zM85.595 39.224c-.093.085-.012.516.163.525.177.013.455-.645.668-.517.214.137.36.187.325.114-.035-.069-.646-.336-.723-.386-.074-.043-.34.18-.433.264z"/><path fill="#42A5F5" d="M105.166 29.837c-14.605 0-26.492 11.886-26.492 26.488 0 14.607 11.887 26.487 26.492 26.487 14.604 0 26.488-11.88 26.488-26.487.001-14.602-11.883-26.488-26.488-26.488z"/><g fill="#81CF9B"><path d="M130.507 63.527c-.35.009-.803.172-.809.29-.009.119-.488.339-.65.4-.156.064-.466.555-.533.718-.065.163-.459.114-.605.179-.146.066-.442.307-.443.45 0 .146-.083.128-.18-.038l-.192.202-.227.252c-.131.407-.561.916-.71.966-.146.04-.174.756-.174 1.041 0 .29.113.646.251.79l.026.23.053.453c-.079.353.186.666.266.729.075.06.733-.118.982-.18.104-.023.234-.082.356-.145a26.37 26.37 0 0 0 2.729-6.326.49.49 0 0 0-.14-.011zM86.768 64.204c-.036.073.438.56.622.724.181.166.572.963.65 1.222.08.264.033.688.008.79-.024.1.088.321.104.411.019.093-.16.872-.092 1.187.067.312-.368 1.291-.357 1.773.013.488.229 1.122.319 1.075.087-.049.118.439-.03.497-.146.061-.32.448-.235.467.082.021-.006.402.018.554.021.154.149 1.162.179 1.411.027.255.386.865.462 1.072.076.21.151.604.183.662a.742.742 0 0 0 .07.125c.003.003.295.109.377.174.089.062.653.021.839-.017.185-.036.016-.208-.069-.298-.084-.095-.155-.54-.254-.589-.095-.041-.136-.612-.052-.738.085-.126.422-.325.462-.435.035-.105.045-.604-.044-.671-.093-.067.025-.67-.043-.97-.069-.298.519-.571.554-.81.033-.238.671-.491.815-.611.144-.118.268-.798.202-.945-.07-.145.231-.264.371-.264.135 0 .285-.099.339-.099.054-.001.214-.301.301-.368.087-.072.268-.79.424-.906.162-.12.29-.553.29-.68s.241-.507.321-.619c.079-.114.674-.387.784-.435.102-.041.264-.995.307-1.338.04-.345.217-.804.23-.914.011-.115.203-.21.235-.245.038-.038.18-.475.271-.574.09-.101.42-.52.43-.612.006-.09.054-.329.107-.528v-.233l.005-.37c-.106-.29-.426-.647-.506-.569-.082.079-.45-.255-.639-.326-.188-.067-.656-.128-.773-.128-.12 0-.529-.335-.713-.392-.183-.058-.651-.149-.737-.203-.083-.055-.199-.751-.576-.979s-1.039-.759-1.112-.952c-.069-.194-.796-.605-1.021-.729-.224-.123-.562-.152-.602-.105-.044.041-.325-.378-.467-.498-.145-.118-.578-.217-.598-.11-.021.108-.31.053-.378-.038-.064-.092-.289.035-.396.07-.104.032-.465.583-.629.718-.168.129-.365-.125-.473-.173-.109-.046-.524.084-.639.164-.112.079-.374-.584-.313-.889.06-.306-.274-.911-.531-.928-.259-.014-.34-.651-.288-.889.054-.233-.465-.382-.595-.396-.13-.019-.452.314-.505.475-.059.156-1.229-.217-1.09-.921.135-.702.69-1.426.83-1.517.139-.084.893-.129 1.058-.032.168.1.318-.003.346-.044.028-.045.645.005.826.083.184.073.447.784.635.87.192.087.262-.459.294-.592.028-.133-.094-.472-.138-.566-.048-.095.305-.954.592-1.1.286-.148.59-.627.564-.713-.026-.083.229-.149.298-.188.07-.032-.012-.729.104-.88.112-.151.651-.471.822-.543.169-.069.299-.512.239-.588-.062-.077.441-.508.7-.59.261-.08.486.15.423.186.052-.025.41-.214.567-.313.178-.12.001-.443-.115-.542-.114-.092-.044-.473.093-.505.14-.035.26-.361.226-.434-.037-.069.575.059.809-.116.228-.173.066.416-.105.655-.169.233.125.457.234.413.11-.046.227.126.249.191.021.063.259-.067.41-.003.153.066.246-.21.259-.337.012-.129-.37-.396-.427-.552-.062-.153-.084-1.05-.093-1.235s-.257-.483-.337-.429c-.08.051-.24-.478-.368-.594-.127-.114-.156-.369-.15-.453.005-.086-.437-.546-.541-.759-.105-.212-.254-.169-.262-.073-.015.1-.316.113-.444.1-.126-.01-.228-.496-.228-.681 0-.182-.571-.213-.663-.361-.092-.146-.462-.078-.522-.179-.058-.104-.386-.196-.446-.159-.068.037-.038 1.354-.099 1.709-.064.354-.363.669-.477.659-.109-.007-.044.255.034.23.074-.024-.217.389-.254.659-.038.269-.312-.016-.354-.258-.047-.245-.312-.575-.362-.493-.053.086-.234-.1-.317-.047-.079.053-.585-.295-.791-.408-.2-.104-.317-.734-.436-.791-.117-.053-.018-.131-.021-.226-.006-.095.395-.459.516-.603.119-.145.558-.718.73-.839.176-.123.31-.447.28-.51-.028-.06.741-.303.952-.374.21-.071.394-.655.418-.823.031-.166-.13-.486-.227-.529-.098-.038.291-.053.421.014.132.062.528-.121.688-.036.156.083.477.271.704.42l-.05.427-.094.727c-.609.254-.784.691-.572.681.214-.009 1.19.425 1.465.621.272.195.36-.286.44-.446.082-.16.055-.625-.008-.719-.068-.094.314-.061.422.044.11.103.235-.106.319-.146s.123-.437.17-.517c.044-.081-.186-.164-.188-.262-.009-.104-.446-.291-.587-.359-.146-.068-.18-.37-.106-.42.067-.055-.05-.44-.121-.565-.064-.128-.523-.231-.677-.231-.152 0-.311-.355-.396-.404-.088-.048-.674-.114-.82-.071-.146.041-.41-.416-.655-.277-.245.141-.499-.162-.607-.225-.114-.06-.686.559-.683.988.009.434.226.852.315.864.089.013-.021.401-.121.516-.098.108-.34-.118-.249-.217s-.248-.55-.366-.734c-.084-.135-.384-.253-.585-.333-.118.127-.231.261-.346.392.044.158.096.361.044.517-.085.264-.304.303-.321.191-.004-.054-.115-.091-.246-.107a26.388 26.388 0 0 0-5.956 13.846c.128.146.273.319.312.442.073.232.478.384.553.433.075.046.104-.445.049-.571-.054-.128.1-.206.096-.112-.003.096.38.53.505.685.125.157.257 1.165.378 1.383.121.22 1.288.668 1.663.747.376.077.85.499.924.619.072.121.571.183.677.23.11.05.364.388.47.459.105.07.188.272.188.325s.659.301.821.479c.157.173.423.124.472.052.05-.073.181.352.251.494.065.148.08.509.031.565-.055.056-.148.719-.259.851-.114.134-.346 1.097-.298 1.286.051.192.36.584.494.646.134.056.076.261-.027.274-.105.016-.057.934.191 1.069.249.136.458.544.422.612zM88.076 36.898c.316-.054.843-.142.879-.23.026-.071.029-.29-.028-.366.049.003.108.006.153.006.12 0 .319-.66.447-.812.125-.155.851-.384 1.023-.485.173-.104.549-.471.696-.512.146-.044.357-.386.322-.452-.029-.067.492-.384.691-.467.197-.086.301-.318.226-.331-.048-.001-1.152.577-2.167 1.15a26.812 26.812 0 0 0-3.258 2.614c.319-.022.807-.08 1.016-.115zM107.235 69.867c.339-.201.911-1.054 1.103-1.229.188-.18.326-.825.369-.968.037-.138.325-.367.432-.397.107-.032.448-1.459.752-1.771.302-.312.655-1.822.619-2.365-.039-.541.192-1.579.265-1.828.071-.244.45-.688.569-.777.116-.095.844-1.172 1.077-1.559.231-.387.456-1.235.412-1.432-.046-.201-.554-.337-.646-.242-.094.099-.573.18-.723.18-.157 0-.505-.815-.722-.983-.218-.169-.411-1.104-.536-1.281a9.51 9.51 0 0 0-.584-.729c-.108-.104-.129-.6-.153-.734-.026-.136.212.089.252.285.042.197.6.994.774 1.265.174.271.632 1.126.747 1.393.12.269 1.136.133 1.467-.022.33-.156.743-.422.758-.512.017-.094.54-.335.688-.453.146-.117.276-.729.369-.826.098-.103-.073-.685-.185-.858-.109-.174-.638-.312-.744-.245-.108.071-.335-.388-.419-.56-.078-.171-.482-.377-.525-.493-.044-.116.106-.298.174-.338.062-.04.806.482 1.022.743.211.26.456.738.499.82.037.083.627.127.759.027.13-.097.282-.068.333.056l.187-.031.645-.102c.307.331.396.616.388.685-.009.062.188.333.311.358.125.031.216.452.254.557.039.104.407.737.483 1.004.077.267.389.784.462.922.078.143.14.543.14.653 0 .107.234.327.381.315.146-.01.442-.938.514-1.278.067-.344.307-.63.37-.63.069 0 .123-.189.123-.266 0-.071.373-.062.406-.16.032-.093.144-.704.276-.796.134-.093.605-.402.772-.46.167-.059.592.308.687.479.093.169.18.604.143.675-.035.071.225.444.451.439.225-.007.297.287.301.394.011.105.309.407.369.544.059.135.04.504 0 .586-.04.085-.013.566.033.706.04.134.733.838.997 1.052.258.212.383-.435.248-.639-.133-.202-.588-.67-.691-.812-.107-.141-.125-.703-.086-.859.038-.16.396.087.544.199.148.113.344.368.351.451.005.087.938-.437.967-1.001.036-.566.345-1.205.373-1.354.034-.151-.09-.355-.169-.359-.078-.009.138-.433.4-.427.26.009.889-.693 1.037-.969.148-.278.446-.506.481-.543.037-.031.244-.688.281-.96.036-.271-.152-.698-.177-.838-.021-.141-.247-.464-.307-.566-.057-.102-.112-.48-.076-.553.035-.07.269-.146.296-.208.024-.063.295-.349.273-.48-.021-.124.167.164.293.271.121.104.254.78.407.854.151.074.77-.716.694-1.224-.074-.513.181-1.164.328-1.224.113-.044.403-.457.598-.751a26.45 26.45 0 0 0-6.521-10.284.285.285 0 0 1-.101-.002l-.228-.048c-.38-.082-.601-.488-.536-.583.021-.028.017-.097-.002-.178-.214-.19-.431-.378-.647-.563-.182-.004-.37 0-.48-.004-.229-.009-.721-.172-.81-.26-.09-.088-.388.079-.404.243-.02.165-.538.24-.587.364-.054.128-.318.137-.37.063-.053-.069-.533.169-.772.206-.239.033-.683.228-.792.273-.104.047-.359.295-.4.397-.039.104-.347.277-.445.314-.101.039-.077.483.048.55.126.062-.234-.053-.395-.136-.164-.081-.342.188-.392.283-.053.093-.197-.058-.19-.19.006-.133-.396-.24-.45-.133-.054.104-.333-.036-.446-.094-.115-.062-.616.457-.799.642-.186.188-1.07.33-1.233.261-.167-.067-.329.396-.187.424.139.028-.361-.023-.636.006-.273.022-1.075.344-1.264.483a.207.207 0 0 1-.346-.139c0-.109-.303-.209-.396-.241-.087-.029-.266.598-.422.719-.16.121-.352-.489-.726-.591-.371-.102-.953-.461-1.12-.503-.165-.046-.496-.392-.592-.491-.09-.104-.57-.187-.723-.187-.153 0-.646.284-.777.396-.134.11-.334.089-.397.13-.067.039-.623.582-.841.757-.217.171-.596.908-.717 1.084a.512.512 0 0 1-.375.212c-.071.006-.132.199-.132.271 0 .073-.64.407-.707.697-.067.291.063.955.063 1.191s.233.705.412.714c.179.007.087.4.041.509-.048.113.11.233.104.328-.001.092-.448.225-.586.277-.137.051-.359.361-.389.479-.023.1-.452.172-.594.309.035-.099.082-.234.117-.309.084-.158-.027-.428-.096-.483-.065-.056-.098-.826-.204-.992a3.626 3.626 0 0 0-.446-.499c-.064-.051.045-.255.085-.343.035-.084-.357-.136-.468-.067-.11.061-.168.82-.213 1.029-.046.208.197.529.263.543.067.02.046.395-.091.405-.141.013-.271.563-.199.687.072.127-.099.371-.183.43-.082.056.54.021.821.015.28-.007.499.119.472.145-.027.022-.541.099-.632.219-.089.122-.438.354-.504.447-.068.093.113.301.262.291.146-.012.313.508.429.601.111.097.07.365.024.439-.055.069-.743-.054-1.006.015-.263.065-.594.618-.616.827-.023.212.042.812.079.979.027.164.579.267.688.35.114.08.641.004.749.054.105.051.461-.532.533-.804.066-.272.629-.77.746-.955.115-.183.718-.161.863-.258.149-.095.068.46.139.761.072.307.648.266.564-.02-.084-.281.057-.408.078-.305.028.1.581.329.688.49.103.158.073.501-.048.495-.128-.004-.131.375.003.417.128.039.302-.428.439-.496.144-.067.258-.361.188-.38-.061-.025.12-.285.2-.199.078.087-.298-.567-.533-.805-.235-.238-.071-.133.371.235l.305.426c.061.076.141.312.188.396l.071.125c.062.15.115.561.115.669 0 .111.237.329.382.319.145-.011.254.067.229.076-.033.004.094.286.238.292.144.007.208-.364.061-.375-.145-.008-.123-.544-.141-.777-.018-.235.104-.427.152-.427.052 0-.004.479-.003.593.003.108.063.328.131.482l.151.114.334.257c.479-.143 1.123-.032 1.1.064-.023.101.354.123.376-.035.023-.157.039.003.039.114 0 .105-.312.537-.362.732-.054.199-1.162.066-1.639.027-.477-.037-1.179.125-1.234.27-.049.143-.793-.327-1.138-.473-.342-.143-.605-.663-.678-.729-.072-.071.062-.236.027-.338-.033-.104-.812-.125-1.037-.041-.228.083-1.394.205-1.669.326-.276.125-.693-.007-.823-.029-.129-.023-.438.358-.594.428-.16.069-.355.606-.441 1.201l-.214.414-.13.267c-.385.291-.811 1.271-.938 1.467-.125.194-.226 1.603-.226 2.077 0 .476.415 1.479.529 1.755.118.274.832.887 1.07 1.035.238.144 1.015.162 1.271.16.252 0 .545-.241.643-.535l.373.037.173.02c.008.206.561.375.693.446.134.074.495.021.605-.013.105-.032.229.939.148 1.222-.077.281.19 1.27.271 1.564.082.297.418 1.108.45 1.4.034.291-.196 1.26-.234 1.6-.039.341.423 1.289.547 1.618.119.324.217 1.026.217 1.188 0 .166.504 1.146.618 1.55.122.406 1.387.506 1.73.306zM129.069 57.844c.035.071.353-.183.543-.211.19-.029.311-.543.161-.579-.148-.041-.337-.436-.445-.481-.107-.049-.319.17-.31.324.008.156-.346.22-.415.348-.062.131-.062.225.012.211.071-.017.424.315.454.388zM128.681 60.623c.094-.033-.012-.541-.209-.582-.199-.042-.75.665-.645 1.074.104.404.22.381.276.294.056-.085.386.057.48.09.096.032.096-.067 0-.218-.093-.149.002-.623.098-.658zM127.597 60.129c.023-.179.058-.746.087-.855.031-.113-.308-.438-.475-.496-.163-.059-.699 1.103-1.084 1.306-.383.207-.521.914-.421 1.076.104.163.901.248 1.041.373.141.121.295-.021.38-.041.084-.022.059-.074.025-.097-.032-.021.279-.35.325-.561.044-.205.098-.524.122-.705zM125.419 62.061c-.301-.116-.652.062-.68.18-.031.114 1.154.305 1.55.409.394.105.638.144.547.074-.091-.065-1.115-.551-1.417-.663zM127.823 54.353c.096-.132-.132-.753-.245-.611-.113.139-.033.502.004.629.038.123.148.113.241-.018zM128.541 55.683c.066-.158-.089-.338-.346-.39-.256-.053-.217.719-.104.813.111.101.379-.262.45-.423zM129.873 60.461c.307.212.988.115 1.011-.301-.303-.195-1.039-.165-1.011.301zM129.706 51.008c-.128.088-.193.315-.154.408l-.054-.002c-.102 0-.113.403-.005.473.104.069.362-.314.501-.407.134-.089.405-.146.445-.118.04.029.277-.042.531-.157.043-.021.095-.088.146-.181-.06-.295-.13-.587-.199-.876-.129.094-.272.192-.34.254-.133.12-.704.492-.871.606z"/><path d="M124.615 60.917c-.111-.251-.479-.676-.814-.944l-.131-.21-.138-.23c-.129-.256-.506-.45-.539-.525-.032-.075-.152.221-.283.135.067.049.209.149.409.288.355.257 1.041 1.98 1.195 2.104.155.121.41-.367.301-.618zM111.142 67.345c.023.205.441.368.562.334.122-.034.457-.653.505-.832.048-.181.083-.562.083-.653s.058-.297.104-.321c.043-.023.122-.234.17-.469.044-.234-.254-1.318-.26-1.513-.006-.191-.224.099-.278.291-.059.193-.598.587-.72.752-.118.164-.252.72-.207.817.047.094-.045.472-.101.579-.053.104.119.81.142 1.015zM91.611 74.875h.366c.065-.394-.384-.327-.366 0zM101.322 33.889c-.154.019-.552-.061-.617-.134-.068-.072-.66-.135-.833-.063-.169.072-.053-.417.187-.472.237-.05.033-.387-.216-.388-.254-.003-.88-.093-1.026-.062-.148.032-.434-.101-.539-.117-.104-.015-.856.228-1.209.207-.354-.014-1.227.021-1.414.073-.192.05-.329.419-.301.55.026.132-.844.129-1.115.136-.276.003-1.736.312-2.118.523-.382.206-.679.742-.554.755.126.009-.211.313-.418.384-.204.07-.69.105-.808.22-.114.111.124.193.167.271.046.076.186-.066.313.008.125.07.554.105.664.149.118.046-.36.136-.583.15-.225.017-.173.453.006.515.186.062.652.126.7.051.048-.077.557.082.787.108.228.024.401.599.472.723.071.125.087.562.069.688-.017.128.403.358.48.275.074-.077.053.2-.114.185-.17-.014-.062.473.147.543.209.067.065.368-.055.46-.12.087-.053.374-.178.476-.121.104.435 1.069.431 1.567-.002.496.31.9.429.9.116 0 .525.102.577.206.058.104.254-.073.33-.156.076-.079.244-.318.369-.528.125-.211.405-1.206.444-1.314.037-.106.507-.039.61-.094.104-.055.411-.297.499-.368.089-.071.754-.354.938-.484.18-.132.483-.696.625-.816.141-.121-.074-.086-.251-.203-.175-.117-.1-.26-.047-.312.053-.06.588.087.776.16.185.07.536-.184.401-.283-.137-.099-.062-.097 0-.053.067.039.135-.327.063-.396-.069-.07.546-.521.436-.944-.105-.424.171-.86.335-.861.165-.009.116-.481-.081-.524-.195-.045-.014-.087.062-.155.074-.066.168-.491.127-.572-.047-.08.301-.176.358-.27.063-.098.461-.288.602-.316.143-.045.223-.416.073-.398zM104.769 34.234c-.188-.062-.568.147-.521.266.049.119-.312-.153-.562-.022-.253.131-.32.574-.207.632.118.059.198.407.203.476.004.067.486.021.615-.083.122-.104.105.356-.019.48-.122.123.049.371.182.392.136.021.318.337.458.337.143-.006.378-.54.43-.74.056-.199.519-.042.732.022.211.062.289-.737.059-.859-.229-.119-.515-.062-.61-.149a.752.752 0 0 0-.367-.192c-.102-.023-.206-.496-.393-.56zM106.62 34.618c.372.052.794-.256.885-.342.092-.085-1.037-.314-1.465-.329-.433-.016-.774.045-.771.129s.976.488 1.351.542zM99.801 44.728c-.097-.043-.151.328-.128.468.021.144.363.132.511.103.148-.021.261-.141.255-.264-.005-.12-.213-.67-.298-.67-.083-.002-.242.403-.34.363zM100.909 40.43c-.076-.137-.664-.121-.808-.131-.144-.006-.582-.152-.665-.246-.081-.091-.143.361-.277.42-.136.06.063.146.12.096.054-.047-.004.234-.064.332-.059.099.39.164.439.312.051.146.236.241.413.211.18-.027.532-.211.657-.223.127-.014.261-.636.185-.771zM113.219 37.071c.202-.202 1.031-.476 1.124-.684.096-.209-.059-.38-.141-.38-.085 0-.188.104-.207.138-.02.033-.971.261-1.264.399-.295.14-.63.354-.755.481-.121.124-.325 1.064-.394 1.17-.071.109.314.492.489.601.17.104.405.05.471.029.066-.021-.087-.679-.177-.908-.09-.228.655-.645.854-.846zM112.2 34.613c.314.312.483-.137.829-.093-.004-.631-.858-.415-.829.093zM118.285 34.732c-.01.115.867.209 1.122.164.256-.045-.053-.442-.427-.42-.374.024-.683.139-.695.256zM88.833 55.758c0 .068.38.06.441-.058.062-.116.031-.211-.073-.211-.1.001-.368.194-.368.269zM87.136 55.129c.183-.034.095.261.139.365.044.105.482.191.569.264.089.068.312-.133.489-.113.173.022-.06-.604-.354-.588-.293.023-.525-.264-.595-.299a4.666 4.666 0 0 1-.509-.317c-.095-.075-.841-.144-1.101-.144-.251 0-.531.257-.57.342-.04.088.403.144.531.078.124-.067.718.075.84.217.123.14.375.23.561.195zM86.334 55.758c0 .068.386.024.479.03.094 0 .092-.064-.008-.145-.097-.074-.471.04-.471.115zM86.606 53.773c-.1-.04-.18.116-.18.192 0 .075.056.135.123.135s.159-.288.057-.327zM87.415 53.838c-.033-.076-.198-.138-.249-.138-.05 0-.083.129-.074.281.009.159.357-.073.323-.143zM87.996 54.732c.154-.075.175-.264.083-.253-.094.011-.265-.267-.363-.308s-.183.166-.183.256c0 .091.058.153.126.135.069-.016.18.242.337.17zM131.03 60.781c-.077.043-.467.088-.521.013-.049-.077-.127.158-.211.192-.08.04-.035.243.089.18.086-.043.455.162.753.351.06-.298.111-.594.16-.896-.108.057-.219.136-.27.16z"/></g><path fill="#D1ECFB" d="M87.955 34.359c-.027-.025-.138.055-.088.104.024.034.133-.047.088-.104zM90.891 43.104c-.02-.028-.134.054-.093.104.027.03.14-.052.093-.104z"/><path fill="none" d="M-84.978 78.601l.005-.008h-36.664l.004.008zM-122.202 78.741c-.009-.053-.034-.1-.053-.148h-1.359c-.02.049-.044.096-.053.148h1.465zM-3.117 78.741c-.009-.053-.034-.1-.053-.148h-1.358c-.02.049-.044.096-.053.148h1.464zM-82.943 78.741c-.009-.053-.034-.1-.053-.148h-1.358c-.02.049-.044.096-.053.148h1.464zM-42.377 78.741c-.009-.053-.034-.1-.053-.148h-1.358c-.02.049-.044.096-.054.148h1.465zM-5.154 78.601l.005-.008h-36.664l.004.008zM-44.436 78.601h.023"/><path fill="#3F4A5A" d="M-2.519 78.603h-.015c.002.021.013-.002.015 0zM-44.43 78.636c0 .012-.006-.035-.006-.035h-.051c.017 0 .039.002.057.035zM-2.529 78.601h.035c-.01 0-.024-.012-.035 0z"/><path fill="none" d="M-82.372 78.601h.018M-124.264 78.599h.024"/><path fill="#3F4A5A" d="M-82.346 78.601h.026c-.01 0-.023-.012-.035 0-.001.002-.003 0-.004.002.001.021.013-.002.013-.002zM-124.256 78.632c-.002.012-.008-.033-.008-.033h-.049c.018 0 .038 0 .057.033z"/><path fill="none" d="M-23.483 20.487c-.023.01-.049.021-.07.037a.15.15 0 0 1-.075-.085l-.073-.218-.025.075a.278.278 0 0 0 .322.362.236.236 0 0 0 .069-.039l-.001-.003a.25.25 0 0 0-.147-.129zM-23.773 22.254v.015l.014.001c-.001-.007-.014-.01-.014-.016zM-23.087 20.193c.031.019.062.037.092.06-.018-.021-.032-.04-.051-.06h-.041z"/><path fill="#3F4A5A" d="M126.665 74.687c-.002 0-.006-.006-.008-.008h-.416l-19.727-59.34h-.072c1.002-.452 2.688-1.858 2.688-3.535 0-.5-.396-.907-.896-.907a.918.918 0 0 0-.92.907c0 .662-.875 1.243-.875 1.579v-.697h-2v.937c0-.183-1-.737-1-1.441v-1.256c-9-3.986-21.662-6.512-35.415-6.764.175-.584.392-1.168.564-1.75.194-.577-.163-1.649-.989-2.026a4.441 4.441 0 0 0-3.613 0c-.828.377-1.2 1.449-1.007 2.026.176.583.541 1.167.716 1.75-13.731.258-26.257 2.78-35.257 6.764v.836c0 .016-.301.028-.301.044 0 .874-.699 1.604-1.699 1.817v-.937h-1v.697c-1-.336-1.011-.917-1.011-1.579 0-.5-.479-.907-.979-.907s-.796.407-.796.907c0 1.648.764 3.03 2.681 3.506h-.023L5.573 74.679H4.98l-.006.006h-.002c.166 1 .355.779.566 1.092.07.105.149.275.227.381.185.256.383.539.597.785.091.105.182.229.277.332.266.285.549.574.851.846.051.045.096.098.146.143.351.307.73.607 1.128.896.127.092.262.18.394.271.29.199.591.395.901.582.156.096.312.189.475.283.35.197.71.389 1.081.574.121.059.235-.076.358-.018.021.01.04-.168.062-.168h.012c1.063 1 2.207 1 3.427 2H36.32c5.028-1.998 8.846-4.998 10.497-7.998h.023c-.002 0-.006-.006-.008-.008h-.352L26.743 15.31h.418c1.489-.447 2.167-1.687 2.298-3.189 9.81-2.512 21.979-4.025 33.979-4.161v40.038c0 .398-.523.936-.859 1.623-1.21 2.434-.598 9.93.08 14.096.207 1.355.469 2.709.657 4.061-.385.48-.502 1.127-.365 1.531.276.918.3 1.838.574 2.758.041.125-.087.242-.087.355v2.486c-1 5.91-5.479 10.617-11.302 12.084-.018.301.107.699.107 1.004 0 .199.146.689.155.689h-1.962v2h-3.324c-1.152 0-2.676 1.018-2.676 2.17v4.83h-1v4h44v-4h-1v-4.83h.002c0-1.152-.783-2.17-1.938-2.17h-4.062v-2h-1.223c.008 0 .02-.49.02-.689 0-.139-.008-.324-.012-.463.008.061.012.139.012-.055 0-.305-.107-.176-.125-.477-5.825-1.465-10.672-6.184-11.672-12.096v-2.486c0-.113.225-.23.266-.355.053-.18.154-.357.21-.537.002-.008.03-.014.032-.02.224-.738.458-1.48.682-2.221.005-.014.005-.035.009-.051.027-.107.04-.229.032-.357a2.033 2.033 0 0 0-.439-1.104c.189-1.352.385-2.705.592-4.061.679-4.17 1.152-11.66-.056-14.096a8.033 8.033 0 0 0-.323-.594c-.025-.043-.054-.078-.081-.121a7.167 7.167 0 0 0-.269-.395c-.024-.031-.049-.057-.073-.088a5.545 5.545 0 0 0-.301-.35c-.018-.016-.13-.029-.147-.045-.012-.012-.132-.021-.132-.033V7.958c13.001.133 24.169 1.643 33.978 4.149.145 1.733 2.023 3.124 3.023 3.35v.04h.588L85.355 74.679h-.545c-.002.002-.006.008-.008.008h-.004c.168 1 .357.779.566 1.092.072.105.148.273.225.377.188.26.387.543.602.791.09.105.18.227.275.328.266.287.551.578.854.852.049.043.094.094.143.137.354.311.732.609 1.131.898.125.092.258.18.389.268a18.916 18.916 0 0 0 1.375.867c.355.203.723.396 1.102.584.113.057.223-.082.34-.025.02.012.041-.166.062-.166h.014c1.062 1 2.207 1 3.426 2h20.846c5.031-2 8.848-5 10.498-8h.035c0-.002.002 0 .004-.002h-.02zm-81.5.14h-.361c.01-.053.033-.1.053-.148h-.619l-.004.008H7.578l-.004-.008h-.618c.02.049.044.096.053.148h-.114l19.136-57.511 19.134 57.511zm78.897-.148l-.004.008H87.404c-.002 0-.004-.008-.006-.008h-.617c.02.049.045.096.055.148h-.16l19.127-57.482 19.125 57.482h-.297c.008-.053.033-.1.053-.148h-.622z"/></svg>