<svg xmlns="http://www.w3.org/2000/svg" width="85.717" height="119.998" viewBox="0 0 85.717 119.998"><path fill="#3F4A5A" d="M3.957 7.912A3.94 3.94 0 0 0 1.16 9.07 3.945 3.945 0 0 0 0 11.867v104.176c0 1.014.387 2.023 1.16 2.797a3.938 3.938 0 0 0 2.797 1.158H81.76a3.94 3.94 0 0 0 2.797-1.158 3.94 3.94 0 0 0 1.16-2.797V11.867a3.939 3.939 0 0 0-1.16-2.797 3.938 3.938 0 0 0-2.797-1.158H3.957z"/><path fill="#FFF" d="M9.231 7.912h67.255v102.855H9.231z"/><path fill="#CCCBCA" d="M16.285 72.586h53.149v4.438H16.285zM16.285 81.461h53.149v4.434H16.285zM16.285 90.332h26.574v4.438H16.285z"/><path fill="#3F4A5A" d="M28.312 28.223h29.092v4.436H28.312z"/><g fill="#81CF9B"><path d="M19.42 65.562l-3.135-3.134 13.908-13.91 6.171 6.171L48.706 42.35l6.169 6.168 10.774-10.774 3.135 3.137-13.909 13.908-6.169-6.168-12.342 12.34-6.171-6.172z"/><path d="M69.434 47.689h-4.435v-6.16h-6.161v-4.433h10.596z"/></g><path fill="#3F4A5A" d="M50.77 7.912A7.91 7.91 0 0 0 42.859 0a7.909 7.909 0 0 0-7.912 7.912h-6.594v9.229h29.01V7.912H50.77zm-11.302 0a3.398 3.398 0 0 1 3.392-3.395 3.397 3.397 0 0 1 3.391 3.395h-6.783z"/></svg>