<svg xmlns="http://www.w3.org/2000/svg" width="111.295" height="136.334" viewBox="0 0 111.295 136.334"><path fill="#FFF" d="M89.133 44.3c0 18.264-14.81 33.07-33.071 33.07-18.263 0-33.072-14.807-33.072-33.07S37.8 11.228 56.062 11.228c18.261 0 33.071 14.808 33.071 33.072z"/><g fill="#CCCBCA"><path d="M6.974 10.391C3.106 10.391 0 14.078 0 18.625h13.985c0-4.547-3.146-8.234-7.011-8.234zM11.188 4.494c0 2.486-1.882 4.494-4.218 4.494-2.293 0-4.175-2.008-4.175-4.494C2.796 2.02 4.678 0 6.971 0c2.336 0 4.217 2.02 4.217 4.494zM27.577 10.391c-3.867 0-6.974 3.688-6.974 8.234h13.984c.001-4.547-3.146-8.234-7.01-8.234zM31.791 4.494c0 2.486-1.881 4.494-4.217 4.494-2.293 0-4.174-2.008-4.174-4.494C23.4 2.02 25.281 0 27.574 0c2.336 0 4.217 2.02 4.217 4.494zM84.681 10.391c-3.867 0-6.975 3.688-6.975 8.234h13.985c0-4.547-3.147-8.234-7.01-8.234zM88.894 4.494c0 2.486-1.881 4.494-4.217 4.494-2.293 0-4.174-2.008-4.174-4.494C80.503 2.02 82.384 0 84.677 0c2.336 0 4.217 2.02 4.217 4.494zM104.283 10.391c-3.866 0-6.974 3.688-6.974 8.234h13.985c.001-4.547-3.146-8.234-7.011-8.234zM108.498 4.494c0 2.486-1.882 4.494-4.218 4.494-2.293 0-4.175-2.008-4.175-4.494 0-2.475 1.882-4.494 4.175-4.494 2.336 0 4.218 2.02 4.218 4.494zM6.974 31.934C3.106 31.934 0 35.619 0 40.168h13.985c0-4.549-3.146-8.234-7.011-8.234zM11.188 26.035c0 2.486-1.882 4.494-4.218 4.494-2.293 0-4.175-2.008-4.175-4.494 0-2.473 1.882-4.492 4.175-4.492 2.337 0 4.218 2.019 4.218 4.492zM104.283 31.934c-3.866 0-6.974 3.686-6.974 8.234h13.985c.001-4.549-3.146-8.234-7.011-8.234zM108.498 26.035c0 2.486-1.882 4.494-4.218 4.494-2.293 0-4.175-2.008-4.175-4.494 0-2.473 1.882-4.492 4.175-4.492 2.336 0 4.218 2.019 4.218 4.492z"/><g><path d="M6.974 53.475C3.106 53.475 0 57.162 0 61.709h13.985c0-4.547-3.146-8.234-7.011-8.234zM11.188 47.578c0 2.486-1.882 4.494-4.218 4.494-2.293 0-4.175-2.008-4.175-4.494 0-2.475 1.882-4.492 4.175-4.492 2.337 0 4.218 2.018 4.218 4.492z"/></g><g><path d="M104.283 53.475c-3.866 0-6.974 3.688-6.974 8.234h13.985c.001-4.547-3.146-8.234-7.011-8.234zM108.498 47.578c0 2.486-1.882 4.494-4.218 4.494-2.293 0-4.175-2.008-4.175-4.494 0-2.475 1.882-4.492 4.175-4.492 2.336 0 4.218 2.018 4.218 4.492z"/></g><g><path d="M6.974 75.018C3.106 75.018 0 78.705 0 83.252h13.985c0-4.547-3.146-8.234-7.011-8.234zM11.188 69.119c0 2.486-1.882 4.496-4.218 4.496-2.293 0-4.175-2.01-4.175-4.496 0-2.473 1.882-4.492 4.175-4.492 2.337 0 4.218 2.019 4.218 4.492z"/></g><g><path d="M27.577 75.018c-3.867 0-6.974 3.688-6.974 8.234h13.984c.001-4.547-3.146-8.234-7.01-8.234zM31.791 69.119c0 2.486-1.881 4.496-4.217 4.496-2.293 0-4.174-2.01-4.174-4.496 0-2.473 1.881-4.492 4.174-4.492 2.336 0 4.217 2.019 4.217 4.492z"/></g><g><path d="M84.681 75.018c-3.867 0-6.975 3.688-6.975 8.234h13.985c0-4.547-3.147-8.234-7.01-8.234zM88.894 69.119c0 2.486-1.881 4.496-4.217 4.496-2.293 0-4.174-2.01-4.174-4.496 0-2.473 1.881-4.492 4.174-4.492 2.336 0 4.217 2.019 4.217 4.492z"/></g><g><path d="M104.283 75.018c-3.866 0-6.974 3.688-6.974 8.234h13.985c.001-4.547-3.146-8.234-7.011-8.234zM108.498 69.119c0 2.486-1.882 4.496-4.218 4.496-2.293 0-4.175-2.01-4.175-4.496 0-2.473 1.882-4.492 4.175-4.492 2.336 0 4.218 2.019 4.218 4.492z"/></g></g><path fill="#333C49" d="M52.354 82.594h7.413v8.844h-7.413z"/><path fill="#3F4A5A" d="M56.059 6.334c-21.298 0-38.553 17.256-38.553 38.547 0 21.297 17.255 38.553 38.553 38.553 21.291 0 38.555-17.256 38.555-38.553C94.613 23.59 77.35 6.334 56.059 6.334zm-.006 69.393c-17.027 0-30.839-13.805-30.839-30.846 0-17.037 13.812-30.84 30.839-30.84 17.037 0 30.855 13.803 30.855 30.84 0 17.041-13.818 30.846-30.855 30.846zM63.352 94.943v34.109a7.283 7.283 0 0 1-7.291 7.281c-4.029 0-7.292-3.262-7.292-7.281V94.943h14.583z"/><path fill="#E6E5E5" d="M63.348 94.939H48.773v-.898a2.605 2.605 0 0 1 2.596-2.604h9.383a2.605 2.605 0 0 1 2.596 2.604v.898z"/><g fill="#42A5F5"><path d="M56.021 46.816c-7.426 0-13.394 6.617-13.394 14.777H69.49c0-8.159-6.044-14.777-13.469-14.777zM64.118 36.234c0 4.461-3.614 8.064-8.102 8.064-4.403 0-8.019-3.604-8.019-8.064 0-4.439 3.615-8.062 8.019-8.062 4.488 0 8.102 3.623 8.102 8.062z"/></g></svg>