<svg xmlns="http://www.w3.org/2000/svg" width="120" height="111.462" viewBox="0 0 120 111.462"><path fill="#3F4A5A" d="M99.369 42.091v19.59c5.41 0 9.796-4.385 9.796-9.795 0-5.412-4.386-9.795-9.796-9.795z"/><path fill="#D9D8D7" d="M113.407 50.893H120v1.978h-6.593zM112.722 56.342l6.093 2.523-.757 1.828-6.093-2.524zM109.995 61.11l4.66 4.663-1.398 1.398-4.661-4.662z"/><path fill="#FFF" d="M105.653 64.477l2.52 6.092-1.825.756-2.521-6.092z"/><path fill="#D9D8D7" d="M118.049 43.076l.757 1.827-6.093 2.524-.757-1.828zM113.245 36.594l1.401 1.4-4.658 4.667-1.402-1.399z"/><path fill="#FFF" d="M106.34 32.445l1.827.755-2.52 6.096-1.828-.756z"/><path fill="#E6E5E5" d="M27.729 105.466a5.98 5.98 0 0 0 1.756 4.24 5.98 5.98 0 0 0 4.24 1.756h4.496a5.977 5.977 0 0 0 4.238-1.756 5.977 5.977 0 0 0 1.757-4.24V76.239H27.729v29.227z"/><path fill="#F67656" d="M44.217 85.981h1.499c.768 0 1.534-.293 2.119-.879a2.985 2.985 0 0 0 .879-2.119v-6.744h-4.497v9.742z"/><path fill="#E6E5E5" d="M89.933 9.715c-3.456 11.384-14.021 19.674-26.534 19.688H48.714v44.966h14.657-.003c12.528 0 23.105 8.295 26.564 19.689V9.715z"/><path fill="#3F4A5A" d="M48.714 27.528H24.356a24.28 24.28 0 0 0-17.222 7.135A24.278 24.278 0 0 0 0 51.886v-.002a24.28 24.28 0 0 0 7.135 17.224 24.285 24.285 0 0 0 17.222 7.134h24.357V27.528z"/><path fill="#42A5F5" d="M100.424 5.247A5.24 5.24 0 0 0 95.179 0a5.233 5.233 0 0 0-3.71 1.536 5.233 5.233 0 0 0-1.536 3.711v93.277c0 1.342.512 2.684 1.536 3.709a5.233 5.233 0 0 0 3.71 1.536 5.239 5.239 0 0 0 5.245-5.245V5.247z"/></svg>