<svg xmlns="http://www.w3.org/2000/svg" width="127.679" height="138.576" viewBox="0 0 127.679 138.576"><path fill="#3F4A5A" d="M127.679 98.418c0 22.178-17.98 40.158-40.158 40.158-22.18 0-40.159-17.98-40.159-40.158 0-22.182 17.979-40.16 40.159-40.16 22.178 0 40.158 17.978 40.158 40.16z"/><path fill="#FFF" d="M120.591 98.418c0 18.264-14.809 33.07-33.07 33.07-18.264 0-33.073-14.807-33.073-33.07s14.809-33.072 33.073-33.072c18.262 0 33.07 14.808 33.07 33.072z"/><path fill="#CCCBCA" d="M107.562 120.463l-2.004-2.004 1.002-1.004c5.088-5.088 7.891-11.85 7.891-19.037 0-14.85-12.082-26.932-26.93-26.932-14.85 0-26.931 12.082-26.931 26.932 0 7.188 2.802 13.949 7.891 19.037l1.002 1.004-2.004 2.004-1.002-1.004c-5.625-5.625-8.721-13.096-8.721-21.041 0-16.414 13.352-29.766 29.765-29.766 16.412 0 29.764 13.352 29.764 29.766 0 7.945-3.097 15.416-8.721 21.041l-1.002 1.004z"/><g fill="#CCCBCA"><path d="M86.103 70.07h2.834v3.117h-2.834zM93.483 70.67l2.74.735-.807 3.012-2.74-.735zM100.473 73.157l2.453 1.417-1.56 2.699-2.453-1.418zM81.551 70.667l.809 3.012-2.74.735-.809-3.01zM74.572 73.157l1.56 2.7-2.455 1.418-1.559-2.701zM68.475 77.37l2.204 2.205-2.004 2.004-2.204-2.205zM63.678 83.013l2.701 1.559-1.416 2.453-2.7-1.558zM60.507 89.71l3.013.807-.734 2.741-3.013-.807zM59.169 97.002h3.119v2.834h-3.119zM62.788 103.58l.733 2.74-3.013.807-.733-2.741zM64.961 109.81l1.417 2.455-2.702 1.56-1.417-2.456zM68.678 115.257l2.003 2.004-2.206 2.207-2.004-2.004z"/></g><g fill="#CCCBCA"><path d="M86.103 70.07h2.834v4.725h-2.834zM68.477 77.37l3.34 3.34-2.003 2.004-3.34-3.34zM59.172 97h4.726v2.834h-4.726zM69.815 114.118l2.004 2.004-3.341 3.341-2.004-2.004z"/></g><path fill="#F67656" d="M87.521 104.559a6.11 6.11 0 0 1-4.344-1.797 6.15 6.15 0 0 1 0-8.688 6.103 6.103 0 0 1 4.344-1.799 6.1 6.1 0 0 1 4.342 1.799c1.161 1.158 1.799 2.703 1.799 4.344s-.638 3.182-1.799 4.342a6.1 6.1 0 0 1-4.342 1.799zm0-9.45c-.885 0-1.715.344-2.34.969a3.313 3.313 0 0 0 0 4.678c1.25 1.248 3.429 1.248 4.678 0a3.288 3.288 0 0 0 .969-2.338c0-.885-.344-1.717-.969-2.34a3.284 3.284 0 0 0-2.338-.969z"/><circle fill="#3F4A5A" cx="87.521" cy="98.416" r="1.417"/><path fill="#F67656" d="M97.877 86.055l2.004 2.004-8.018 8.018-2.004-2.004z"/><g fill="#F67656"><path d="M107.562 120.463l-2.004-2.004 1.002-1.004c5.088-5.088 7.891-11.85 7.891-19.037 0-7.189-2.803-13.951-7.891-19.041l-1.002-1.002 2.004-2.004 1.002 1.002c5.624 5.625 8.721 13.098 8.721 21.045 0 7.945-3.097 15.416-8.721 21.041l-1.002 1.004z"/><path d="M106.562 77.369l2.004 2.004-3.341 3.34-2.004-2.003zM111.142 96.999h4.725v2.834h-4.725zM105.226 114.118l3.34 3.34-2.003 2.004-3.341-3.34z"/><g><path d="M111.356 83.015l1.416 2.453-2.7 1.558-1.415-2.453zM114.54 89.706l.733 2.739-3.012.805-.733-2.738zM112.26 103.568l3.012.808-.736 2.74-3.012-.808zM110.072 109.799l2.703 1.56-1.417 2.454-2.702-1.56z"/></g></g><path fill="#3F4A5A" d="M77.599 109.617h19.842v2.834H77.599z"/><path fill="#D9D8D7" d="M72.849 66.891c0-13.107-6.932-24.592-17.333-30.996a1.364 1.364 0 0 0-.148-.094 1.53 1.53 0 0 0-.719-.176c-.84 0-1.53.68-1.53 1.523v31.768c0 1.033-.39 1.74-1.18 2.529-.789.789-1.819.854-2.852.854H23.803c-1.032 0-2.389-.064-3.178-.854s-1.506-1.496-1.506-2.529V37.148c0-.844-.363-1.523-1.202-1.523-.263 0-.342.062-.556.176-.051.027-.021.059-.067.094C6.892 42.299 0 53.783 0 66.891c0 15.457 9.655 28.301 23.241 33.584l-.473 28.824h27.356l-.493-28.824c13.584-5.284 23.218-18.127 23.218-33.584z"/><g><path fill="#3F4A5A" d="M36.461 0L21.38 8.707l-.001 17.416 15.082 8.709 15.077-8.709.006-17.416L36.461 0zm0 24.707a7.293 7.293 0 1 1 .001-14.583 7.293 7.293 0 0 1-.001 14.583z"/><path fill="#333C49" d="M36.445 8.574a8.84 8.84 0 0 0-8.841 8.842 8.841 8.841 0 1 0 8.841-8.842zm0 14.041a5.2 5.2 0 1 1-.001-10.401 5.2 5.2 0 0 1 .001 10.401z"/></g></svg>