<svg xmlns="http://www.w3.org/2000/svg" width="70.73" height="130" viewBox="0 0 70.73 130"><path fill="#3F4A5A" d="M61.673 0H9.063C4.076 0 0 4.076 0 9.076v111.855c0 5 4.076 9.068 9.063 9.068h52.609c4.987 0 9.058-4.068 9.058-9.068V9.076c0-5-4.07-9.076-9.057-9.076z"/><path fill="#81CF9B" d="M5.128 19.66h60.475v90.711H5.128z"/><path fill="#333C49" d="M37.873 9.848a2.498 2.498 0 0 1-2.514 2.506 2.503 2.503 0 0 1-2.502-2.506 2.518 2.518 0 0 1 2.502-2.514c1.4 0 2.514 1.135 2.514 2.514z"/><path fill="#3F4A5A" d="M36.276 9.848c0 .494-.406.9-.911.9s-.911-.406-.911-.9c0-.504.406-.918.911-.918s.911.414.911.918z"/><g><path fill="#FFF" d="M57.661 65.016c0 12.309-9.981 22.297-22.296 22.297S13.07 77.324 13.07 65.016c0-12.312 9.98-22.299 22.295-22.299s22.296 9.986 22.296 22.299z"/><path fill="#3F4A5A" d="M31.277 76.471l-9.82-9.821 3.272-3.271 6.548 6.545 14.725-14.725 3.271 3.272z"/></g></svg>