<svg xmlns="http://www.w3.org/2000/svg" width="101.595" height="120" viewBox="0 0 101.595 120"><g fill="#E6E5E5"><circle cx="38.466" cy="4.11" r="4.11"/><circle cx="46.687" cy="4.11" r="4.11"/><circle cx="54.907" cy="4.11" r="4.11"/><circle cx="63.126" cy="4.11" r="4.109"/><path d="M34.356 4.11c0 14.682 7.361 26.584 16.44 26.584 9.078 0 16.439-11.902 16.439-26.584H34.356z"/></g><path fill="#E6E5E5" d="M100.082 111.183a5.142 5.142 0 0 0-3.652-1.514h-2.584V71.786c0-11.018-4.203-22.035-12.607-30.44-8.406-8.407-19.424-12.609-30.441-12.609-11.016 0-22.033 4.202-30.439 12.609C11.953 49.751 7.75 60.769 7.75 71.786v37.883H5.166a5.145 5.145 0 0 0-3.653 1.514A5.142 5.142 0 0 0 0 114.835c0 1.32.504 2.645 1.513 3.651A5.149 5.149 0 0 0 5.166 120h91.263a5.145 5.145 0 0 0 3.652-1.514 5.15 5.15 0 0 0 1.514-3.651 5.15 5.15 0 0 0-1.513-3.652z"/><path fill="#3F4A5A" d="M62.414 27.478a2.284 2.284 0 0 1-2.277 2.277H41.458a2.283 2.283 0 0 1-2.276-2.277 2.283 2.283 0 0 1 2.276-2.277h18.678a2.284 2.284 0 0 1 2.278 2.277z"/><path fill="#81CF9B" d="M68.017 74.371c0 9.519-7.703 17.22-17.216 17.22-9.52 0-17.223-7.701-17.223-17.22 0-9.515 7.703-17.226 17.223-17.226 9.513.001 17.216 7.711 17.216 17.226z"/><g fill="#FFF"><path d="M52.611 75.884H48.98a5.739 5.739 0 0 1-5.746-5.748c0-1.531.596-2.975 1.68-4.061a5.724 5.724 0 0 1 4.065-1.686h7.864v3.029h-7.864a2.71 2.71 0 0 0-1.925.799 2.697 2.697 0 0 0-.792 1.918 2.716 2.716 0 0 0 2.717 2.72h3.631v3.029z"/><path d="M52.611 84.349h-7.863V81.32h7.863c.725 0 1.406-.283 1.922-.798a2.7 2.7 0 0 0 .797-1.921 2.717 2.717 0 0 0-2.719-2.718H48.98v-3.028h3.631c1.527 0 2.969.595 4.059 1.677a5.727 5.727 0 0 1 1.689 4.069 5.71 5.71 0 0 1-1.686 4.063 5.705 5.705 0 0 1-4.062 1.685z"/><path d="M49.281 62.008h3.029v25.084h-3.029z"/></g></svg>