<svg xmlns="http://www.w3.org/2000/svg" width="96.581" height="109.714" viewBox="0 0 96.581 109.714"><g stroke-width="2" stroke-miterlimit="10"><g fill="#42A5F5" stroke="#FFF"><path d="M10.658 14.443C5.303 14.443 1 19.214 1 25.098h19.368c0-5.884-4.358-10.655-9.71-10.655zM16.495 6.813c0 3.217-2.606 5.814-5.841 5.814-3.175 0-5.781-2.598-5.781-5.814C4.873 3.612 7.479 1 10.654 1c3.235 0 5.841 2.612 5.841 5.813z"/></g><g fill="#42A5F5" stroke="#FFF"><path d="M35.729 14.443c-5.355 0-9.658 4.771-9.658 10.654h19.368c0-5.883-4.358-10.654-9.71-10.654zM41.565 6.813c0 3.217-2.606 5.814-5.841 5.814-3.175 0-5.781-2.598-5.781-5.814C29.944 3.612 32.55 1 35.725 1c3.234 0 5.84 2.612 5.84 5.813z"/></g><g fill="#3F4A5A" stroke="#3F4A5A"><path d="M60.799 14.443c-5.354 0-9.658 4.771-9.658 10.654H70.51c0-5.883-4.358-10.654-9.711-10.654zM66.636 6.813c0 3.217-2.606 5.814-5.841 5.814-3.175 0-5.781-2.598-5.781-5.814C55.014 3.612 57.621 1 60.795 1c3.235 0 5.841 2.612 5.841 5.813zM85.871 14.443c-5.354 0-9.657 4.771-9.657 10.654h19.367c0-5.883-4.358-10.654-9.71-10.654zM91.708 6.813c0 3.217-2.605 5.814-5.842 5.814-3.174 0-5.78-2.598-5.78-5.814 0-3.201 2.606-5.813 5.78-5.813 3.236 0 5.842 2.612 5.842 5.813zM10.658 42.315C5.303 42.315 1 47.086 1 52.97h19.368c0-5.884-4.358-10.655-9.71-10.655zM16.495 34.685c0 3.217-2.606 5.815-5.841 5.815-3.175 0-5.781-2.599-5.781-5.815 0-3.2 2.606-5.812 5.781-5.812 3.235-.001 5.841 2.611 5.841 5.812zM35.729 42.315c-5.355 0-9.658 4.771-9.658 10.654h19.368c0-5.883-4.358-10.654-9.71-10.654zM41.565 34.685c0 3.217-2.606 5.815-5.841 5.815-3.175 0-5.781-2.599-5.781-5.815 0-3.2 2.606-5.812 5.781-5.812 3.235-.001 5.841 2.611 5.841 5.812zM60.799 42.315c-5.354 0-9.658 4.771-9.658 10.654H70.51c0-5.883-4.358-10.654-9.711-10.654zM66.636 34.685c0 3.217-2.606 5.815-5.841 5.815-3.175 0-5.781-2.599-5.781-5.815 0-3.2 2.606-5.812 5.781-5.812 3.235-.001 5.841 2.611 5.841 5.812zM85.871 42.315c-5.354 0-9.657 4.771-9.657 10.654h19.367c0-5.883-4.358-10.654-9.71-10.654zM91.708 34.685c0 3.217-2.605 5.815-5.842 5.815-3.174 0-5.78-2.599-5.78-5.815 0-3.2 2.606-5.812 5.78-5.812 3.236-.001 5.842 2.611 5.842 5.812zM10.658 70.188C5.303 70.188 1 74.959 1 80.842h19.368c0-5.883-4.358-10.654-9.71-10.654zM16.495 62.558c0 3.217-2.606 5.815-5.841 5.815-3.175 0-5.781-2.599-5.781-5.815 0-3.2 2.606-5.812 5.781-5.812 3.235-.001 5.841 2.611 5.841 5.812z"/><g><path d="M35.729 70.188c-5.355 0-9.658 4.771-9.658 10.654h19.368c0-5.883-4.358-10.654-9.71-10.654zM41.565 62.558c0 3.217-2.606 5.815-5.841 5.815-3.175 0-5.781-2.599-5.781-5.815 0-3.2 2.606-5.812 5.781-5.812 3.235-.001 5.841 2.611 5.841 5.812z"/></g><g><path d="M60.799 70.188c-5.354 0-9.658 4.771-9.658 10.654H70.51c0-5.883-4.358-10.654-9.711-10.654zM66.636 62.558c0 3.217-2.606 5.815-5.841 5.815-3.175 0-5.781-2.599-5.781-5.815 0-3.2 2.606-5.812 5.781-5.812 3.235-.001 5.841 2.611 5.841 5.812z"/></g><g><path d="M85.871 70.188c-5.354 0-9.657 4.771-9.657 10.654h19.367c0-5.883-4.358-10.654-9.71-10.654zM91.708 62.558c0 3.217-2.605 5.815-5.842 5.815-3.174 0-5.78-2.599-5.78-5.815 0-3.2 2.606-5.812 5.78-5.812 3.236-.001 5.842 2.611 5.842 5.812z"/></g><g><path d="M10.658 98.06C5.303 98.06 1 102.831 1 108.714h19.368c0-5.883-4.358-10.654-9.71-10.654zM16.495 90.43c0 3.216-2.606 5.815-5.841 5.815-3.175 0-5.781-2.6-5.781-5.815 0-3.2 2.606-5.813 5.781-5.813 3.235-.001 5.841 2.612 5.841 5.813z"/></g><g><path d="M35.729 98.06c-5.355 0-9.658 4.771-9.658 10.654h19.368c0-5.883-4.358-10.654-9.71-10.654zM41.565 90.43c0 3.216-2.606 5.815-5.841 5.815-3.175 0-5.781-2.6-5.781-5.815 0-3.2 2.606-5.813 5.781-5.813 3.235-.001 5.841 2.612 5.841 5.813z"/></g><g><path d="M60.799 98.06c-5.354 0-9.658 4.771-9.658 10.654H70.51c0-5.883-4.358-10.654-9.711-10.654zM66.636 90.43c0 3.216-2.606 5.815-5.841 5.815-3.175 0-5.781-2.6-5.781-5.815 0-3.2 2.606-5.813 5.781-5.813 3.235-.001 5.841 2.612 5.841 5.813z"/></g><g><path d="M85.871 98.06c-5.354 0-9.657 4.771-9.657 10.654h19.367c0-5.883-4.358-10.654-9.71-10.654zM91.708 90.43c0 3.216-2.605 5.815-5.842 5.815-3.174 0-5.78-2.6-5.78-5.815 0-3.2 2.606-5.813 5.78-5.813 3.236-.001 5.842 2.612 5.842 5.813z"/></g></g></g></svg>