<svg xmlns="http://www.w3.org/2000/svg" width="120" height="114.877" viewBox="0 0 120 114.877"><path fill="#EFEFEF" d="M3.531 10.09h112.941v77.648H3.531z"/><path fill="#CCCBCA" d="M57.625 92.488h4.752v9.092h-4.752z"/><path fill="#3F4A5A" d="M60 114.877c-4.326 0-7.846-3.52-7.846-7.846s3.52-7.846 7.846-7.846 7.848 3.52 7.848 7.846-3.522 7.846-7.848 7.846zm0-10.941c-1.707 0-3.094 1.389-3.094 3.096s1.387 3.096 3.094 3.096 3.096-1.389 3.096-3.096-1.389-3.096-3.096-3.096zM2.117 0A2.114 2.114 0 0 0 0 2.117v5.855a2.116 2.116 0 0 0 2.117 2.117h115.764c.545 0 1.084-.205 1.498-.619s.621-.954.621-1.497V2.117c0-.541-.207-1.082-.621-1.496S118.426 0 117.881 0H2.117zM120 89.855a2.114 2.114 0 0 0-2.119-2.117H2.117a2.12 2.12 0 0 0-1.498.619A2.12 2.12 0 0 0 0 89.855v.514a2.116 2.116 0 0 0 2.117 2.119h115.764c.545 0 1.084-.207 1.498-.621s.621-.955.621-1.498v-.514z"/><path fill="#81CF9B" d="M54.797 48.916a15.59 15.59 0 0 1-4.588 11.064l7.906 7.904a26.726 26.726 0 0 0 7.857-18.969H54.797z"/><path fill="#42A5F5" d="M50.205 59.986a15.587 15.587 0 0 1-11.057 4.576c-8.643 0-15.643-7.006-15.643-15.646 0-6.52 3.984-12.104 9.654-14.455l-4.275-10.326c-9.719 4.018-16.561 13.605-16.561 24.783 0 14.812 12.018 26.82 26.822 26.82a26.766 26.766 0 0 0 18.969-7.844l-7.909-7.908z"/><path fill="#F8C963" d="M39.146 33.27V22.09c-3.633 0-7.102.727-10.262 2.045l4.275 10.326a15.605 15.605 0 0 1 5.987-1.191z"/><path fill="#F67656" d="M39.148 33.27c8.646 0 15.648 7.004 15.648 15.646h11.176c0-14.816-12.006-26.826-26.826-26.826v11.18h.002z"/><path fill="#42A5F5" d="M74.434 22.09h4.752v4.75h-4.752z"/><path fill="#F67656" d="M83.934 22.09h4.748v4.75h-4.748z"/><path fill="#81CF9B" d="M93.43 22.09h4.748v4.75H93.43z"/><path fill="#F8C963" d="M102.926 22.09h4.748v4.75h-4.748z"/><g><g fill="#CCCBCA"><path d="M74.434 63.99h33.24v4.748h-33.24zM74.434 54.49h33.24v4.75h-33.24zM74.434 44.992h33.24v4.748h-33.24zM74.434 35.492h33.24v4.75h-33.24z"/></g></g></svg>