<svg xmlns="http://www.w3.org/2000/svg" width="13.324" height="13.213" viewBox="0 0 13.324 13.213"><path fill="#FFF" d="M.009 0h13.315v13.214H.009z"/><path d="M.009 8.808h13.315v4.406H.009z"/><path fill="#D11F26" d="M.009 0h13.315v4.404H.009z"/><path fill="#BF9200" d="M8.169 8.034l-.105-2.489c-.009-.234-.14-.284-.244-.284-.131 0-.28.074-.358.118a.757.757 0 0 1-.428.109 1.01 1.01 0 0 1-.095-.47c.011-.233-.032-.327-.069-.364-.047-.045-.187-.085-.283-.09l-.004-.001c-.021 0-.033.006-.043.018l-.011.017c-.106-.024-.188-.025-.227.001-.036.024-.051.115-.04.146.006.018.016.02.021.02s.01-.002.016-.006a.089.089 0 0 1 .047-.018c.004 0 .008-.002.012-.001.041.001.076.04.1.074.032.048.036.193-.022.382a1.114 1.114 0 0 1-.15.293.774.774 0 0 1-.426-.111c-.077-.043-.228-.117-.359-.117-.104 0-.233.05-.244.284l-.105 2.491c0 .006.004.012.01.014.004.002.01.002.014-.002l.778-.705-.162.568a1.2 1.2 0 0 0-.09-.025c-.031-.008-.06.01-.081.031-.037.005-.074.011-.094.043a.138.138 0 0 0-.009.129c-.004.01-.013.014-.015.023-.043.005-.069.039-.091.067-.014.02-.027.037-.041.039-.017-.002-.039.001-.041.021-.002.014.006.024.02.028.006.002.01.002.016.002.004.003.008.017.014.037.007.032.019.082.072.108 0 .062.01.125.123.146.231.066.627.104 1.088.104s.857-.036 1.087-.106c.113-.021.123-.084.123-.146.053-.027.064-.076.072-.109.006-.018.01-.032.016-.036.004 0 .012 0 .016-.002.013-.005.021-.013.02-.028-.002-.02-.022-.022-.041-.021-.015-.001-.026-.017-.041-.038-.022-.024-.05-.061-.093-.063-.002-.012-.011-.016-.015-.026a.15.15 0 0 0-.012-.127.112.112 0 0 0-.115-.053l-.004-.001c-.003 0-.003-.003-.006-.003l-.002.001c-.012-.005-.016-.021-.027-.021-.008 0-.014 0-.02.003-.021.006-.059.015-.088.024l-.164-.582.04.03.739.688a.015.015 0 0 0 .01.004.014.014 0 0 0 .014-.014c-.001-.002-.001-.004-.003-.004zm-1.564.057a.052.052 0 0 0-.033-.033l.002-.004c.015.006.026.013.033.029l-.002.008zm.112.002c.001-.003-.002-.008-.001-.01a.063.063 0 0 1 .034-.029l.002.004c-.018.007-.027.018-.035.035zm-.087-.024c-.009-.021-.03-.045-.08-.045-.003 0-.006.002-.009.006-.007-.01-.016-.012-.025-.018-.013-.005-.014-.023-.026-.023a.594.594 0 0 1-.108.008l.018-.083.053.052.084-.061.078-.562-.033.554v.006l.08.102.08-.102-.034-.558.078.562.084.06.053-.052.019.083a.567.567 0 0 1-.105-.008c-.014 0-.016.019-.025.024-.012.005-.021.008-.027.018-.002-.006-.006-.008-.012-.008a.084.084 0 0 0-.08.045c-.004.007-.002.017-.004.025l-.025.001-.03-.001c-.003-.008 0-.018-.004-.025zm-.226-3.322c-.006-.004-.011-.011-.017-.013.006.003.011.009.017.013zm.795.747zm-1.247-.057z"/></svg>