<svg xmlns="http://www.w3.org/2000/svg" width="13.324" height="13.213" viewBox="0 0 13.324 13.213"><path fill="#F40" d="M13.324 0H7.93V13.213h5.394z"/><path fill="#009920" d="M-.001 0H7.93v13.213H-.001z"/><path fill="#FFEA00" d="M5.095 4.836v.001zM7.889 9.761c.957-.02 1.776-.4 2.396-.994.438-.42.979-1.373.974-2.432-.102-.885-.294-1.468-.739-2.008-.682-.82-1.666-1.235-2.508-1.256a3.529 3.529 0 0 0-2.266.803c-.659.552-1.115 1.357-1.178 2.517.014 1.026.444 1.784.975 2.383.265.307 1.273 1.006 2.346.987z"/><path fill="#915E36" d="M7.816 9.907h.201c.006 0 .01-.004.01-.01s-.004-.01-.01-.01h-.201c-.004 0-.008.004-.008.01s.004.01.008.01z"/><path fill="#FFF" stroke="#915E36" stroke-width=".02" d="M7.912 8.931c.541 0 1.031-.221 1.389-.576a1.95 1.95 0 0 0 .574-1.38V4.356l-3.922-.003V6.97c0 .538.221 1.023.577 1.381.358.354.843.58 1.382.58z"/><path fill="#F00" stroke="#A60000" stroke-width=".02" d="M6.027 6.976c0 .515.212.981.555 1.321a1.881 1.881 0 0 0 2.656.003c.342-.34.551-.807.553-1.322h-.002v-2.54h-3.76l-.002 2.538zm3.006-1.778v1.785c0 .045-.006.097-.01.141a1.078 1.078 0 0 1-.32.65 1.11 1.11 0 0 1-1.583-.005 1.12 1.12 0 0 1-.33-.791l-.002-1.784 2.245.004z"/><g fill="#FFEA00"><path d="M9.689 5.091H9.13c-.012 0-.021.013-.021.026s.01.025.021.025h.56c.017 0 .021-.013.021-.025 0-.016-.008-.026-.022-.026zM9.68 4.838c.01 0 .021-.011.021-.022a.023.023 0 0 0-.021-.022h-.537c-.013 0-.021.01-.021.022 0 .012.01.022.021.022h.537zM9.688 4.863a.021.021 0 0 0-.021-.022h-.515c-.01 0-.021.011-.021.022 0 .014.012.022.021.022h.01l-.021.203h.133v.001h.271v-.001h.141l-.028-.203h.008c.014 0 .022-.01.022-.022zM9.35 4.571l-.011.221.141-.001-.007-.214v-.006h.014a.018.018 0 0 0 .019-.019v-.065H9.46v.029h-.026v-.029h-.043v.029h-.03v-.029h-.043v.065c0 .011.012.019.021.019h.011zM9.518 4.791h.136l-.004-.114h-.129z"/><path d="M9.496 4.593v.064c0 .011.008.019.02.019h.144c.01 0 .021-.007.021-.018v-.066h-.042v.029h-.03v-.029h-.041v.029h-.029v-.028h-.043zM9.171 4.677l-.005.114h.139l-.007-.114h.013c.01 0 .02-.008.02-.019v-.066h-.046v.03h-.028v-.03h-.041v.03h-.028v-.029h-.042v.065c0 .01.008.019.018.019h.007z"/></g><g fill="#FFEA00"><path d="M8.199 5.091h-.562c-.013 0-.021.013-.021.026s.008.025.021.025h.562c.012 0 .02-.013.02-.025 0-.016-.01-.026-.02-.026zM8.188 4.838c.013 0 .021-.011.021-.022a.021.021 0 0 0-.021-.022H7.65a.021.021 0 0 0-.021.022c0 .012.01.022.021.022h.538zM8.195 4.863c0-.014-.01-.022-.021-.022H7.66c-.012 0-.02.011-.02.022 0 .014.008.022.02.022h.009l-.021.203h.133v.001h.271v-.001h.14l-.026-.203h.009c.011 0 .02-.01.02-.022zM7.857 4.571l-.01.221.141-.001-.008-.214v-.006h.012c.012 0 .021-.008.021-.019v-.065h-.042v.029h-.032v-.029H7.9v.029h-.029v-.029h-.045v.065c0 .011.01.019.021.019h.01zM8.025 4.791h.135l-.004-.114h-.127z"/><path d="M8.003 4.593v.064c0 .011.011.019.021.019h.144c.013 0 .021-.007.021-.018v-.066h-.046v.029h-.03v-.029h-.039v.029h-.032v-.028h-.039zM7.68 4.677l-.005.114h.136l-.004-.114h.01a.018.018 0 0 0 .019-.019v-.066h-.045v.03h-.027v-.03h-.041v.03h-.03v-.029h-.041v.065c0 .01.01.019.021.019h.007z"/></g><g fill="#FFEA00"><path d="M6.681 5.088l-.025-.203h-.498l-.021.203zM6.688 5.142c.012 0 .021-.013.021-.025 0-.016-.01-.026-.021-.026h-.561c-.013 0-.021.013-.021.026s.01.025.021.025h.561z"/><path d="M6.688 5.142c.012 0 .021-.013.021-.025 0-.016-.01-.026-.021-.026h-.561c-.013 0-.021.013-.021.026s.01.025.021.025h.561zM6.676 4.838c.012 0 .021-.011.021-.022 0-.013-.009-.022-.021-.022H6.14c-.013 0-.021.01-.021.022 0 .012.009.022.021.022h.536zM6.662 4.885c.013 0 .021-.01.021-.022 0-.014-.009-.022-.021-.022H6.15c-.011 0-.02.011-.02.022 0 .014.009.022.02.022h.512zM6.317 4.487v.065c0 .011.01.019.019.019h.146a.018.018 0 0 0 .019-.019v-.065h-.042v.029H6.43v-.029h-.042v.029h-.029v-.029h-.042z"/><path d="M6.469 4.571h-.124l-.01.221.144-.001-.01-.214zM6.518 4.677l-.004.114h.136l-.004-.114zM6.491 4.593v.064c0 .011.01.019.02.019h.144c.009 0 .019-.007.019-.018v-.066h-.042v.029h-.029v-.029h-.04v.029h-.03v-.028h-.042zM6.142 4.593v.065c0 .01.009.019.02.019h.144a.019.019 0 0 0 .018-.019v-.066h-.043v.03h-.029v-.03h-.039v.03h-.029v-.029h-.042zM6.163 4.791H6.3l-.006-.114h-.128z"/><path d="M6.394 4.646v.051h.028v-.051c0-.023-.029-.023-.028 0zM6.569 4.718v.04h.026v-.04c.002-.021-.026-.02-.026 0zM6.217 4.718v.04h.026v-.04c.001-.021-.026-.02-.026 0zM6.405 4.888c-.003 0-.133.027-.134.201h.27c-.004-.163-.134-.201-.136-.201z"/><path d="M6.405 4.948s-.074.029-.074.14h.152c0-.109-.078-.14-.078-.14z"/></g><g fill="#FFEA00"><path d="M6.688 6.621h-.562c-.012 0-.021.012-.021.025 0 .015.01.026.021.026h.562c.012 0 .021-.013.021-.026 0-.015-.01-.025-.021-.025zM6.675 6.369c.013 0 .021-.011.021-.024a.02.02 0 0 0-.021-.021h-.536a.022.022 0 0 0-.021.021c0 .014.01.024.021.024h.536zM6.683 6.394c0-.015-.009-.023-.021-.023h-.513c-.01 0-.019.01-.019.023s.009.021.019.021h.009l-.022.203h.135v.001H6.68l-.024-.204h.006a.02.02 0 0 0 .021-.021zM6.345 6.103l-.01.219.143-.001-.009-.215v-.003h.013c.01 0 .018-.006.018-.018v-.066h-.042v.029H6.43v-.029h-.042v.029h-.029v-.029h-.042v.066c0 .009.009.018.019.018h.009zM6.514 6.321h.136l-.004-.114h-.128z"/><path d="M6.491 6.123v.065c0 .01.009.018.02.018h.144c.009 0 .019-.006.019-.018v-.065h-.043v.028h-.028v-.028l-.04-.001v.029h-.03v-.028h-.042zM6.166 6.207l-.004.114h.137l-.005-.114h.012a.018.018 0 0 0 .018-.019v-.065h-.043v.028h-.029v-.028h-.041v.028h-.027v-.027h-.042v.064c0 .011.009.019.02.019h.004z"/></g><g fill="#FFEA00"><path d="M6.858 8.214l.001.001.19-.191h-.001l.099-.098-.161-.127-.352.35.129.161zM7.186 7.924c-.011-.01-.023-.012-.033-.003l-.396.396c-.009.009-.007.023.004.034.01.01.023.012.032.004l.395-.396c.011-.01.009-.024-.002-.035zM6.965 7.72c-.011-.009-.023-.009-.031-.001l-.362.362-.018.018c-.008.007-.007.021.003.03.009.009.021.011.031.001l.37-.37.009-.009c.008-.008.008-.022-.002-.031zM6.987 7.763c-.009-.01-.021-.01-.029-.003l-.362.363c-.008.007-.007.021.002.03.01.01.021.011.029.003l.007-.007.356-.356c.007-.008.007-.021-.003-.03zM6.536 7.804l.104-.103c.007-.009.008-.019.001-.025l-.047-.047-.029.028.021.021-.021.021-.021-.021-.028.03.02.021-.021.021-.021-.021-.029.03.047.047c.006.006.02.006.024-.002z"/><path d="M6.633 7.71l-.089.087.149.162.1-.101-.157-.145zM6.735 7.753l.09-.091-.085.086.078.086.096-.099-.084-.078.006-.006c.007-.006.008-.021 0-.023l-.048-.047-.026.027.02.021-.02.021-.022-.02-.027.028.021.021-.021.021-.021-.021-.03.028.047.046c.008.008.021.007.026 0zM6.582 7.906l-.005.006.012-.013c.007-.005.007-.017.001-.023l-.049-.048-.028.028.021.021-.021.02-.022-.02-.028.028.021.021-.021.02-.02-.021-.028.03.048.046c.006.008.018.007.024 0l.004-.005.081.085.095-.098-.085-.077z"/></g><g fill="#FFEA00"><path d="M8.861 7.726c-.008.008-.01.021-.002.029l.379.38a.02.02 0 0 0 .032-.002c.01-.01.01-.022.002-.03l-.379-.379c-.009-.01-.022-.009-.032.002z"/><path d="M8.837 7.767c-.01.01-.01.022-.004.03l.007.007-.158.127-.007-.006c-.01-.008-.025-.007-.032.004-.013.009-.013.024-.004.033l.396.396c.008.008.021.007.031-.004.012-.009.014-.024.004-.033l-.252-.254.007.008.239.238.127-.16-.114-.114.122.121c.008.007.019.007.029-.003.01-.008.01-.022.002-.029l-.364-.363c-.007-.009-.018-.007-.029.002zM9.314 7.81l.047-.047-.031-.032-.02.021-.021-.021.022-.021-.029-.027-.02.021-.022-.021.021-.021-.029-.029-.046.048a.015.015 0 0 0 0 .024l.104.103c.004.007.017.007.024.002zM9.033 7.862l.101.101.147-.162-.088-.088-.002.005zM9.085 7.752l-.091-.09-.082.078.095.096zM9.115 7.758l.047-.047-.027-.028-.022.021-.02-.021.019-.021-.028-.029-.022.02-.021-.02.021-.021-.025-.028-.047.048a.015.015 0 0 0 0 .024l.101.101c.007.008.018.008.024.001zM9.383 7.931l-.022.021-.02-.021.02-.021-.028-.028-.021.021-.021-.021.021-.022-.027-.027-.049.047c-.006.008-.006.017.002.023l.101.102c.007.008.019.008.024.001l.047-.047-.027-.028z"/><path d="M9.158 7.987l.097.097L9.332 8l-.088-.09z"/></g><g fill="#FFEA00"><path d="M9.689 6.62h-.561c-.012 0-.021.012-.021.025 0 .015.009.026.021.026l.562.001c.015 0 .021-.013.021-.026 0-.015-.01-.026-.022-.026zM9.68 6.369c.01 0 .021-.011.021-.024 0-.012-.012-.021-.021-.021h-.537a.021.021 0 0 0-.021.021c0 .014.01.024.021.024h.537zM9.688 6.394c0-.015-.01-.023-.021-.023h-.515c-.012 0-.021.01-.021.023s.01.021.021.021h.008l-.021.203h.135v.001H9.687l-.029-.204h.008c.012 0 .022-.01.022-.021zM9.348 6.103l-.011.219.143-.001-.01-.215v-.003h.014c.01 0 .02-.006.02-.018v-.066H9.46v.029h-.028v-.029h-.041v.029h-.03v-.029h-.043v.066c0 .009.01.018.021.018h.009zM9.518 6.321h.134l-.004-.114H9.52z"/><path d="M9.494 6.123v.065c0 .01.01.018.021.018h.144c.01 0 .021-.006.021-.018v-.065h-.046v.028h-.029v-.028l-.041-.001v.029h-.029v-.028h-.041zM9.169 6.207l-.003.114h.137l-.005-.114h.013a.019.019 0 0 0 .018-.019v-.065h-.04v.028h-.034v-.028h-.043v.028h-.028v-.027h-.039v.064c0 .011.01.019.021.019h.003z"/></g><path fill="#04C" d="M7.921 6.953c.065 0 .129-.03.175-.079a.262.262 0 0 0 .071-.187v-.356h-.494v.356c0 .073.025.14.072.188a.246.246 0 0 0 .176.078zM7.917 7.806a.242.242 0 0 0 .176-.08.266.266 0 0 0 .072-.188v-.355h-.494v.355c0 .072.027.14.072.188.044.048.109.08.174.08zM6.986 6.688c0 .072.027.14.072.188a.239.239 0 0 0 .176.078c.07 0 .131-.03.174-.078a.264.264 0 0 0 .074-.188v-.354l-.495-.001-.001.355zM8.357 6.688c0 .071.025.14.074.188a.23.23 0 0 0 .174.078.24.24 0 0 0 .176-.077.274.274 0 0 0 .072-.188v-.355l-.496-.001v.355zM7.921 6.094a.25.25 0 0 0 .175-.077.277.277 0 0 0 .071-.188v-.357h-.494v.354c0 .073.025.14.072.188.046.049.109.08.176.08z"/><circle fill="#FFF" cx="8.059" cy="7.587" r=".049"/><circle fill="#FFF" cx="7.787" cy="7.587" r=".049"/><circle fill="#FFF" cx="7.921" cy="7.45" r=".049"/><circle fill="#FFF" cx="8.746" cy="6.737" r=".049"/><circle fill="#FFF" cx="8.479" cy="6.737" r=".049"/><circle fill="#FFF" cx="8.607" cy="6.599" r=".049"/><circle fill="#FFF" cx="8.746" cy="6.467" r=".049"/><circle fill="#FFF" cx="8.479" cy="6.467" r=".049"/><circle fill="#FFF" cx="8.062" cy="6.735" r=".049"/><circle fill="#FFF" cx="7.787" cy="6.736" r=".049"/><circle fill="#FFF" cx="7.923" cy="6.597" r=".049"/><circle fill="#FFF" cx="8.062" cy="6.466" r=".049"/><circle fill="#FFF" cx="7.787" cy="6.465" r=".049"/><circle fill="#FFF" cx="7.373" cy="6.737" r=".049"/><circle fill="#FFF" cx="7.106" cy="6.737" r=".049"/><circle fill="#FFF" cx="7.236" cy="6.599" r=".049"/><circle fill="#FFF" cx="7.373" cy="6.467" r=".049"/><circle fill="#FFF" cx="7.787" cy="7.317" r=".049"/><circle fill="#FFF" cx="7.787" cy="5.606" r=".049"/><circle fill="#FFF" cx="8.057" cy="5.606" r=".049"/><circle fill="#FFF" cx="7.916" cy="5.738" r=".049"/><circle fill="#FFF" cx="8.057" cy="5.876" r=".049"/><circle fill="#FFF" cx="7.787" cy="5.876" r=".049"/><circle fill="#FFF" cx="7.106" cy="6.467" r=".049"/></svg>