<svg xmlns="http://www.w3.org/2000/svg" width="151" height="77.647" viewBox="0 0 151 77.647"><path fill="#2196F3" d="M9.824 72.352a3.53 3.53 0 0 1-3.53-3.529v-60a3.53 3.53 0 0 1 3.53-3.53h59.999a3.53 3.53 0 0 1 3.53 3.53v60a3.53 3.53 0 0 1-3.53 3.529H9.824z"/><linearGradient id="a" gradientUnits="userSpaceOnUse" x1="-156.971" y1="253.93" x2="-44.256" y2="365.683" gradientTransform="translate(178 -233.678)"><stop offset="0" stop-opacity=".1"/><stop offset="1" stop-opacity="0"/></linearGradient><path fill="url(#a)" d="M20.901 57.264V20.381h8.309l15.451 15.452 5.802-15.452h8.283l14.607 14.607v33.835a3.53 3.53 0 0 1-3.529 3.529H35.989L20.901 57.264z"/><path fill="none" d="M58.746 20.381v36.883h-6.384V45.105l.633-16.264-10.893 28.423h-4.584L26.652 28.868l.634 16.237v12.158h-6.385V20.381h8.309l10.638 28.271 10.616-28.271h8.282z"/><path fill="#FFF" d="M58.746 20.381v36.883h-6.384V45.105l.633-16.264-10.893 28.423h-4.584L26.652 28.868l.632 16.237v12.158h-6.383V20.381h8.309l10.638 28.271 10.616-28.271h8.282z"/><path fill="none" d="M1 38.823C1 17.381 18.382-.001 39.823-.001c21.442 0 38.824 17.382 38.824 38.824 0 21.442-17.382 38.824-38.824 38.824C18.382 77.647 1 60.265 1 38.823z"/><path fill="none" d="M1 38.823C1 17.381 18.382-.001 39.823-.001c21.442 0 38.824 17.382 38.824 38.824 0 21.442-17.382 38.824-38.824 38.824C18.382 77.647 1 60.265 1 38.823z"/><path fill="none" d="M1-.001h77.647v38.824H1z"/><path fill="none" d="M1 38.823V-.001h77.647v38.824H1z"/><path fill="none" d="M1 38.823V-.001h77.647v38.824H1z"/><path fill="none" d="M1 38.823V-.001h77.647v38.824H1z"/><path fill="none" d="M1 38.823V-.001h77.647v38.824H1z"/><path fill="none" d="M1-.001h77.647v38.824H1z"/><path fill="none" d="M1 38.823V-.001h77.647v38.824H1z"/><path fill="none" d="M1 38.823V-.001h77.647v38.824H1z"/><path fill="none" d="M1 38.823V-.001h77.647v38.824H1z"/><path fill="none" d="M1 38.823V-.001h77.647v38.824H1z"/><g><path fill="#673AB7" d="M82.177 72.352a3.53 3.53 0 0 1-3.53-3.529v-60a3.53 3.53 0 0 1 3.53-3.53h59.999a3.53 3.53 0 0 1 3.53 3.53v60a3.53 3.53 0 0 1-3.53 3.529H82.177z"/><linearGradient id="b" gradientUnits="userSpaceOnUse" x1="-82.093" y1="254.737" x2="22.823" y2="367.451" gradientTransform="translate(178 -233.678)"><stop offset="0" stop-opacity=".1"/><stop offset="1" stop-opacity="0"/></linearGradient><path fill="url(#b)" d="M97.152 57.744V19.9h6.576l8.017 8.016 6.697-8.016h7.951l19.312 19.313v29.61a3.53 3.53 0 0 1-3.53 3.529H111.76L97.152 57.744z"/><path fill="none" d="M108.019 41.395l-4.291 4.548v11.801h-6.576V19.9h6.576v17.754l3.64-4.498L118.441 19.9h7.953l-14.062 16.766 14.87 21.08h-7.797l-11.386-16.351z"/><path fill="#FFF" d="M108.019 41.395l-4.291 4.548v11.801h-6.576V19.9h6.576v17.753l3.64-4.497L118.441 19.9h7.953l-14.062 16.766 14.87 21.08h-7.797l-11.386-16.351z"/><path fill="none" d="M73.353 38.823c0-21.442 17.382-38.824 38.824-38.824C133.618-.001 151 17.381 151 38.823c0 21.442-17.382 38.824-38.823 38.824-21.442 0-38.824-17.382-38.824-38.824z"/><path fill="none" d="M73.353 38.823c0-21.442 17.382-38.824 38.824-38.824C133.618-.001 151 17.381 151 38.823c0 21.442-17.382 38.824-38.823 38.824-21.442 0-38.824-17.382-38.824-38.824z"/><path fill="none" d="M73.353 38.823c0-21.442 17.382-38.824 38.824-38.824C133.618-.001 151 17.381 151 38.823c0 21.442-17.382 38.824-38.823 38.824-21.442 0-38.824-17.382-38.824-38.824z"/><path fill="none" d="M73.353-.001H151v38.824H73.353z"/><path fill="none" d="M73.353 38.823V-.001H151v38.824H73.353z"/><path fill="none" d="M73.353 38.823V-.001H151v38.824H73.353z"/><path fill="none" d="M73.353 38.823V-.001H151v38.824H73.353z"/><path fill="none" d="M73.353 38.823V-.001H151v38.824H73.353z"/><path fill="none" d="M73.353-.001H151v38.824H73.353z"/><path fill="none" d="M73.353 38.823V-.001H151v38.824H73.353z"/><path fill="none" d="M73.353 38.823V-.001H151v38.824H73.353z"/><path fill="none" d="M73.353 38.823V-.001H151v38.824H73.353z"/><path fill="none" d="M73.353 38.823V-.001H151v38.824H73.353z"/><path fill="none" d="M73.353-.001H151v38.824H73.353z"/><path fill="none" d="M73.353 38.823V-.001H151v38.824H73.353z"/><path fill="none" d="M73.353 38.823V-.001H151v38.824H73.353z"/><path fill="none" d="M73.353 38.823V-.001H151v38.824H73.353z"/><path fill="none" d="M73.353 38.823V-.001H151v38.824H73.353z"/></g></svg>