<svg xmlns="http://www.w3.org/2000/svg" width="1468.527" height="1633.678" viewBox="0 0 1468.527 1633.678"><path fill="#EFC99A" d="M1468.526 1633.089c-63.719-176.041-127.324-370.094-142.033-404.152-2.715-6.287-3.418-12.951-4.432-17.451-1.789-7.953-1.539-15.523-2.5-20-3.662-17.088-7.012-32.801-10.232-47.762-1.002-4.646-1.99-9.217-2.975-13.734-8.947-31.824-14.432-64.861-22.646-97.594a813.236 813.236 0 0 0-4.279-17.789 172.176 172.176 0 0 0-5.314-13.301l-164.111 23.068c1.002 9.676 1.996 19.504 2.742 29.59a426.363 426.363 0 0 0-1.143 30.643 374.16 374.16 0 0 0-.552 7.693c-.051.822-.094 1.648-.139 2.477a385.46 385.46 0 0 0-.311 7.01c-.02.521-.043 1.047-.061 1.568a333.597 333.597 0 0 0-.066 3.459c-.02.934-.041 1.861-.051 2.793-.012 1.107-.01 2.217-.01 3.322 0 .973-.004 1.943.004 2.916.012 1.078.031 2.156.053 3.236.016.846.027 1.688.051 2.533l.01.445c.029 1.102.07 2.199.109 3.299l.029.791c.029.732.055 1.469.086 2.201.051 1.037.105 2.074.16 3.109.061 1.059.119 2.119.189 3.178.064 1.041.141 2.082.217 3.123.049.648.102 1.297.15 1.945.031.393.061.783.094 1.176.086 1.027.176 2.053.271 3.078.012.145.027.291.041.438a420.736 420.736 0 0 0 .585 5.738c.094.84.197 1.68.297 2.52l.092.764c.121.988.24 1.979.371 2.965.057.426.115.854.176 1.277.096.699.189 1.398.291 2.1.133.936.264 1.869.406 2.805.135.895.279 1.791.426 2.686l.127.795c.145.896.285 1.791.438 2.684.207 1.213.434 2.42.652 3.629.152.834.301 1.668.459 2.5.027.146.061.293.088.438.236 1.211.48 2.416.73 3.623.143.686.271 1.371.418 2.055a338.16 338.16 0 0 0 1.359 6.074 274.956 274.956 0 0 0 1.568 6.289 266.68 266.68 0 0 0 3.898 13.572c.006.014.014.027.021.041l.014.021a362.868 362.868 0 0 1 9.943 20.943 591.003 591.003 0 0 1 6.338 14.938c.049.117.098.232.146.354.119.295.229.564.33.82a712.9 712.9 0 0 1 1.162 2.861c4.154 8.771 9.943 25.32 14.393 36.721.463 1.17.926 2.338 1.393 3.51.664 1.633 1.352 3.346 2.059 5.107 4.219 10.404 8.725 20.924 13.834 31.59a1791.885 1791.885 0 0 1 10.359 20.164 380.488 380.488 0 0 0 3.695 6.559c4.314 7.455 9.957 19.779 16.699 35.945 9.48 21.211 15.055 36.537 21.439 54.115a6968.144 6968.144 0 0 1 17.236 45.504c.619 1.543 1.248 3.105 1.9 4.715 1.641 4.039 2.699 7.268 4.131 11.373l5.08 13.578c0 .004.002.008.004.012 2.467 6.152 5.367 13.201 9.637 25.789 2.234 5.979 4.496 12.025 6.783 18.135l.002.004c6.363 14.113 19.873 52.867 22.479 59.725.025.07.049.127.074.193 1.695 4.477 3.398 8.963 5.115 13.467h169.996v-.004h.006zm-187.631-69.272zm1.689 5.782zm1.577 5.752l.314 1.182c-.105-.397-.209-.792-.314-1.182zm.357 1.336c.1.373.199.748.299 1.127l-.299-1.127zm.34 1.283c.104.381.203.764.305 1.15l-.305-1.15zm.336 1.273l.314 1.201c-.105-.402-.211-.802-.314-1.201zm.371 1.416l.291 1.121-.291-1.121zm.369 1.424c.207.795.412 1.598.619 2.406l-.619-2.406zm.844 3.287l.129.502-.129-.502zm1.152 4.559c.008.033.018.068.025.104-.007-.034-.017-.069-.025-.104z"/><path opacity=".2" fill="#333" d="M1306.354 1129.987c.982 4.52 1.971 9.09 2.973 13.734-28.293 10.387-54.863 30.072-79.832 45.625-14.834 9.236-29.561 18.686-44.125 28.418 3.566 6.047 1.195 17.613 2.859 25.082 1.516 6.803 17.271 70.107 21.434 75.633 33.664 95.059 41.92 82.666 54.416 170.668 1.553 10.912 13.994 65.516 16.816 74.67 5.186 16.822 18.266 70.828 12.486 55.709-.043-.111-.084-.225-.127-.334-2.795-7.418-16.09-45.518-22.393-59.488l-.002-.004c-2.287-6.107-4.549-12.156-6.781-18.135-4.271-12.586-7.17-19.635-9.639-25.787a29654.803 29654.803 0 0 0-5.084-13.592c-1.43-4.105-2.488-7.332-4.131-11.371a923.567 923.567 0 0 1-1.898-4.719c-6.064-16.146-11.828-31.396-17.236-45.504-6.387-17.574-11.959-32.9-21.441-54.111-6.742-16.168-12.385-28.49-16.699-35.947a345.221 345.221 0 0 1-3.693-6.561 1883.074 1883.074 0 0 0-10.361-20.162c-5.107-10.666-9.615-21.184-13.834-31.59a1213.59 1213.59 0 0 0-2.057-5.107c-.469-1.17-.932-2.342-1.395-3.51-4.447-11.398-10.236-27.947-14.391-36.721-.385-.955-.773-1.908-1.162-2.863-.104-.254-.211-.521-.33-.818-.051-.119-.102-.234-.148-.355a591.322 591.322 0 0 0-6.338-14.936 364.166 364.166 0 0 0-9.943-20.943c-.004-.006-.008-.014-.014-.021l-.02-.041c-.416-1.305-.793-2.615-1.186-3.922 57.545-35.42 115.969-68.906 177.406-95.854 1.819 7.672 3.745 15.301 5.87 22.857z"/><path fill="#EFC99A" d="M358.053 1107.401c-.021-1.152-.037-2.307-.068-3.459-.016-.523-.041-1.047-.059-1.57a360.622 360.622 0 0 0-.309-7.008c-.047-.826-.09-1.652-.141-2.477l-.15-2.355a347.988 347.988 0 0 0-.402-5.338 425.273 425.273 0 0 0-1.141-30.643c.746-10.086 1.738-19.914 2.74-29.592l-164.109-23.066a170.2 170.2 0 0 0-5.316 13.301 813.236 813.236 0 0 0-4.279 17.789c-8.217 32.729-13.697 65.768-22.646 97.594-.982 4.52-1.971 9.09-2.975 13.734-3.223 14.961-6.57 30.674-10.232 47.762-.959 4.475-.711 12.047-2.5 20-1.012 4.5-1.717 11.164-4.434 17.451C127.325 1263.585 63.719 1457.636 0 1633.677h169.994c1.727-4.533 3.439-9.053 5.148-13.562a.684.684 0 0 0-.025.072c.02-.061.043-.109.064-.172 2.605-6.855 16.115-45.609 22.479-59.725l.002-.004c2.285-6.107 4.549-12.156 6.781-18.135 4.271-12.586 7.172-19.637 9.639-25.787l.006-.014 5.08-13.58c1.428-4.104 2.488-7.332 4.129-11.371.65-1.605 1.283-3.172 1.9-4.717 6.062-16.146 11.826-31.396 17.234-45.504 6.389-17.576 11.959-32.902 21.441-54.113 6.742-16.168 12.385-28.488 16.697-35.945a339.962 339.962 0 0 0 3.695-6.561c3.162-6.254 6.6-12.947 10.361-20.162 5.107-10.666 9.613-21.184 13.834-31.59.707-1.764 1.395-3.477 2.057-5.109.467-1.17.93-2.34 1.393-3.508 4.447-11.398 10.236-27.949 14.393-36.721.385-.955.771-1.908 1.162-2.863.104-.254.211-.521.332-.82.049-.117.098-.232.145-.354a594.655 594.655 0 0 1 6.34-14.938 364.045 364.045 0 0 1 9.941-20.941c.004-.006.008-.014.014-.021.006-.014.016-.027.021-.043a261.42 261.42 0 0 0 3.898-13.57c.543-2.092 1.07-4.186 1.568-6.289.473-2.02.926-4.043 1.357-6.072.146-.686.277-1.371.42-2.057.248-1.207.492-2.412.729-3.623.029-.146.062-.291.088-.438.16-.832.309-1.668.459-2.5.225-1.209.445-2.418.654-3.629.152-.893.293-1.787.438-2.684l.127-.795c.146-.896.291-1.789.428-2.688.141-.936.27-1.869.402-2.803.102-.699.197-1.4.291-2.102a144.925 144.925 0 0 0 .549-4.242l.09-.762c.102-.84.203-1.68.299-2.52.107-.996.215-1.994.314-2.992.096-.914.186-1.83.271-2.746l.041-.439c.096-1.023.186-2.051.271-3.076.033-.393.062-.783.094-1.178.051-.646.104-1.297.15-1.943.076-1.041.15-2.082.219-3.123a398.182 398.182 0 0 0 .348-6.285c.031-.734.057-1.471.086-2.203l.031-.791c.039-1.1.08-2.199.107-3.299.006-.148.008-.297.01-.445.021-.846.037-1.688.053-2.535.02-1.078.041-2.156.051-3.234.008-.975.004-1.943.004-2.916 0-1.107.002-2.217-.008-3.32-.002-.927-.025-1.857-.043-2.789zm-183.179 513.403l.016-.033c-.007.011-.011.021-.016.033zm-.424.998c.002 0 .002-.002.002-.004l-.002.004zm.201-.455l.006-.016a.138.138 0 0 1-.006.016zm.535-7.772l.014-.068-.014.068zm.223-1.045a.201.201 0 0 0 .008-.037c-.002.014-.006.026-.008.037zm.232-1.072l.033-.154c-.009.05-.023.103-.033.154zm.244-1.113c.021-.094.043-.189.062-.281-.019.093-.042.189-.062.281zm.254-1.141c.033-.148.068-.307.104-.461l-.104.461zm.266-1.183c.049-.209.1-.426.146-.639l-.146.639zm.273-1.198c.062-.275.129-.559.193-.84-.066.282-.13.565-.193.84zm.285-1.242l.191-.824-.191.824zm.299-1.283l.201-.855c-.068.285-.136.572-.201.855zm.301-1.289c.074-.316.15-.643.229-.965-.079.322-.155.646-.229.965zm.311-1.315zm.966-4.041c2.824-11.67 6.188-24.568 8.402-31.965-2.212 7.397-5.577 20.295-8.402 31.965z"/><path opacity=".2" fill="#333" d="M162.17 1130.577c-.982 4.52-1.973 9.09-2.975 13.734 28.295 10.387 54.865 30.072 79.832 45.625 14.834 9.236 29.562 18.686 44.125 28.418-3.564 6.047-1.193 17.613-2.855 25.082-1.518 6.803-17.271 70.107-21.438 75.633-33.662 95.059-41.918 82.666-54.416 170.668-1.551 10.912-13.992 65.516-16.812 74.67-5.189 16.822-18.27 70.828-12.488 55.709l.127-.334c2.795-7.418 16.092-45.518 22.391-59.488l.002-.004c2.287-6.107 4.551-12.156 6.783-18.135 4.271-12.586 7.17-19.635 9.637-25.787l.008-.012c1.713-4.582 3.404-9.109 5.078-13.58 1.43-4.105 2.488-7.332 4.131-11.371a1540.2 1540.2 0 0 0 1.9-4.719c6.062-16.146 11.826-31.396 17.234-45.504 6.389-17.574 11.959-32.9 21.439-54.111 6.744-16.168 12.385-28.49 16.699-35.947a339.962 339.962 0 0 0 3.695-6.561c3.162-6.254 6.6-12.945 10.359-20.162 5.109-10.666 9.615-21.184 13.834-31.59.707-1.764 1.396-3.477 2.059-5.107.467-1.17.93-2.342 1.393-3.51 4.447-11.398 10.236-27.947 14.391-36.721.387-.955.773-1.908 1.162-2.863.105-.254.211-.521.332-.818a591.399 591.399 0 0 1 6.486-15.291 362.734 362.734 0 0 1 9.941-20.943c.004-.006.008-.014.014-.021l.02-.041c.416-1.305.793-2.615 1.186-3.922-57.545-35.42-115.967-68.906-177.406-95.854-1.817 7.672-3.743 15.301-5.868 22.857z"/><path fill="#FFF" d="M1319.739 1098.745c-84.271 34.432-162.547 81.859-240.168 130.779L974.833 976.017l32.303-215.375s131.979 28.301 227.404 156.418a326.911 326.911 0 0 1 7.455 10.57 706.803 706.803 0 0 1 7.188 13.826 352.125 352.125 0 0 1 6.311 12.807c2.016 4.268 3.92 8.58 5.754 13a741.737 741.737 0 0 0 3.309 9.32c1.125 3.109 2.273 6.219 3.439 9.346 8.914 43.236 40.797 72.934 56.6 111.438a22.726 22.726 0 0 0-4.857 1.378zM452.373 754.641s-131.979 28.301-227.402 156.418a323.81 323.81 0 0 0-7.455 10.57 706.803 706.803 0 0 0-7.188 13.826 350.497 350.497 0 0 0-6.311 12.807 293.236 293.236 0 0 0-5.754 13 741.89 741.89 0 0 1-3.311 9.32 995.56 995.56 0 0 1-3.438 9.346c-1.494 7.246-3.646 14.104-6.244 20.693-.369.936-.74 1.865-1.127 2.789a166.692 166.692 0 0 0-2.16 5.781c-1.49 5.883-19.282 46.207-20.653 52.182-11.567 23.715-4.983 11.632-16.317 34.965 61.439 26.947 135.771 65.812 193.316 101.23 13.91 8.562 27.768 17.23 41.605 25.953l104.74-253.51-32.301-215.37z"/><path fill="#673AB7" d="M990.87 713.336c-7.635-2.388-16.031-3.139-23.285-4.588-9.379-1.874-55.771-7.98-105.238-12.451-13.16 68.161-62.893 138.229-140.281 122.813-61.479-11.973-89.268-66.29-100.812-123.852-55.035 4.621-110.764 11.916-121.232 13.488-8.805 1.324-15.867 2.889-24.268 4.588 0 0-254.562 52.514-314.422 348.04l184.447 74.186a5055.844 5055.844 0 0 0 3.307 36.723c2.441 26.227 14.951 390.896 26.957 461.396h715.524c12.008-70.502 24.516-435.17 26.957-461.396 1.146-12.316 2.279-24.701 3.342-37.131l183.432-73.775C1245.432 765.848 990.87 713.336 990.87 713.336z"/><path fill="#4527A0" d="M709.372 855.038c97.609 19.443 160.342-70.319 176.938-156.292-67.928-7.102-139.93-8.406-162.135-.193-20.018-7.4-80.648-4.883-141.965.271 14.57 72.602 49.619 141.113 127.162 156.214z"/><path fill="#512DA8" d="M1006.143 1175.788l-90.664 51.824-90.664-51.824v-153.031h181.328z"/><path fill="#4527A0" d="M824.815 1022.757h181.328v20.65H824.815z"/><path fill="#EFC99A" d="M862.301 639.74c-.158-8.349.832-16.599-.119-24.667-1.332-10.333-1.596-17.16-4.449-27-2.604-8.975-5.271-22.113-9.551-29.837-4.191 9.952-17.58 19.24-23.617 25.687-9.373 10.119-21.146 17.007-33.805 21.886-37.695 15.604-81.217 14.276-119.697.294-14.256-5.312-27.428-12.999-37.947-24.726-5.725-6.368-10.895-13.985-15.303-23.141-3.676 7.739-6.322 16.069-8.199 24.722a259.189 259.189 0 0 0-3.688 37.549c.229 23.424 2.156 49.667 7.316 75.27 11.562 57.326 39.379 111.421 100.918 123.344 77.467 15.355 127.252-54.427 140.426-122.311 1.629-8.391 3.701-16.347 4.93-25.067 1.027-10.983 2.51-20.567 2.785-32.003z"/><path fill="#EFC99A" d="M973.688 344.242c0 108.999-88.723 293.288-192.791 337.606-14.83 6.317-29.998 9.797-45.258 9.797-14.182 0-28.287-3-42.131-8.505-95.047-37.793-177.998-193.504-193.363-304.461-1.676-12.08-2.547-23.636-2.547-34.438 0-69.546 0-168.729 41.424-242.79 2.771-4.92 5.707-9.75 8.842-14.433 17.283-25.854 40.531-47.845 71.789-63.245C650.096 8.763 688.124.007 735.639.007c63.789 0 110.479 15.771 144.654 41.241 21.934 16.364 38.711 36.722 51.547 59.477 5.957 10.555 11.053 21.604 15.438 33.027 17.525 45.695 23.424 97.094 25.4 143.981 1.01 23.767 1.01 46.375 1.01 66.509z"/><path fill="#CCB39B" d="M761.305 422.957c-.68-3.817-1.553-7.427-2.656-10.71-4.332 16.92-13.223 20.306-20.619 23.145-.74.245-1.492.46-2.242.644-2.252.552-4.514.816-6.713.732a19.479 19.479 0 0 1-2.611-.274c-3.584-.898-7.432-1.935-11.121-4.101a25.024 25.024 0 0 1-5.367-4.217c-1.715-1.771-3.338-3.947-4.818-6.655-1.479-2.707-2.812-5.944-3.953-9.835-.949 3.29-1.635 6.831-2.148 10.513-2.975 21.213-2.551 47.338 2.146 67.02 5.23 21.918 15.523 33.463 25.49 35.507 8.689 1.78 17.795-3.339 24.953-15.929 3.381-5.948 6.25-13.607 8.309-22.535 4.391-19.076 4.932-43.206 1.35-63.305z" opacity=".1"/><path fill="#EFC99A" d="M897.073 515.238c-35.73-13.751-47.877-70.31-27.131-126.328 20.75-56.017 66.535-90.278 102.268-76.528 35.73 13.755 47.877 70.312 27.131 126.328-20.749 56.017-66.538 90.28-102.268 76.528zM496.319 312.23c35.73-13.751 81.518 20.51 102.268 76.521 20.742 56.018 8.596 112.573-27.137 126.324-35.73 13.751-81.516-20.51-102.264-76.525-20.746-56.011-8.598-112.568 27.133-126.32z"/><g fill="#333"><path d="M956.665 467.359c5.723-29.22 17.031-90.831 17.031-123.117 0-69.771 0-169.379-41.852-243.519C899.006 42.5 840.354 0 735.645 0 639.346 0 582 35.957 547.87 87.015c-3.143 4.687-6.066 9.513-8.84 14.434-41.424 74.062-41.424 173.247-41.424 242.789 0 10.802.867 22.358 2.547 34.437 4.455 32.179 19.982 93.563 24.34 110.513-5.271-21.958-15.232-81.961-17.514-98.347l-.262-5.601s-9.115-155.962 32.309-230.019c2.77-4.922 5.939-9.588 8.844-14.433 60.816-101.557 90.305-22.841 186.604-22.841 104.703 0 125.436-89.845 197.365 36.546 42.105 73.984 28.943 237.546 28.943 237.546.017 20.312-.389 50.896-4.117 75.32zM524.495 489.19c.422 1.726.807 3.221 1.152 4.439.002.001-.418-1.6-1.152-4.439z"/><path d="M956.665 467.359c-1.965 9.949-3.268 16.151-3.268 16.151 1.303-4.887 2.381-10.345 3.268-16.151z"/></g><g><path fill="none" d="M735.305 482.491c-37.121 0-67.209-8.281-67.209 27.468 0 35.752 30.084 36.503 67.209 36.503 37.115 0 67.207-.751 67.207-36.503 0-35.75-30.092-27.468-67.207-27.468z"/><path fill="#333" d="M925.895 481.667c-12.889 13.146-51.688 46.81-95.439 67.887-.066-8.472-.182-31.728-.182-38.332 0-56.748-38.107-62.136-93.793-62.136-55.68 0-94.947 5.388-94.947 62.136 0 6.416-.016 29.394.094 37.566-43.104-20.751-81.135-54.14-93.873-67.116-39.363-40.136-38.312-78.72-37.271-52.515 2.545 64.478 18.791 137.306 47.822 166.904 33.635 34.279 90.123 85.722 144.221 103.885 10.809 4.959 22.352 6.965 34.311 6.607 11.957.355 23.492-1.648 34.314-6.607 54.1-18.163 110.572-69.604 144.193-103.885 29.051-29.601 45.27-102.428 47.828-166.904 1.046-26.21 2.101 12.37-37.278 52.51zm-190.59 64.8c-37.121 0-67.209-.752-67.209-36.504 0-35.75 30.084-27.468 67.209-27.468 37.115 0 67.207-8.28 67.207 27.468 0 35.752-30.092 36.504-67.207 36.504z"/></g><g><path fill="none" d="M838.784 259.82c-2.314 0-4.58.037-6.791.124-2.389.093-4.736.241-7.021.446-.01-.005-.023-.01-.029-.019-29.578 2.543-48.551 14.324-51.209 44.549a88.584 88.584 0 0 0-.309 7.613c0 2.562.1 5.08.299 7.541a85.877 85.877 0 0 0 1.383 10.035c.314 1.554.67 3.094 1.066 4.604 7.549 28.817 30.291 47.916 62.609 47.916 40.018 0 66.189-29.284 66.189-70.096.002-40.812-26.172-52.713-66.187-52.713zM695.28 320.495c.23-2.593.352-5.246.352-7.96 0-2.52-.105-4.946-.301-7.253-2.574-30.254-21.883-42.183-51.342-44.857-4.623-.421-9.473-.609-14.561-.609-8.062 0-15.518.49-22.293 1.594-18.004 2.963-31.213 10.327-37.955 24.625-.02.003-.031.008-.051.016-3.314 7.047-5.051 15.771-5.051 26.485 0 40.806 25.318 70.094 65.35 70.094 32.074 0 55.25-18.794 63.205-47.258a69.74 69.74 0 0 0 1.146-4.673 81.795 81.795 0 0 0 1.501-10.204z"/><path fill="#1A1A1A" d="M914.221 294.227s15.818-26.624 15.818-31.445c0-7.801-6.225-14.993-13.867-14.993-4.576 0-39.105-.921-66.221-.921h-.045c-.574 0-1.143.807-1.693.839-3.098-.181-6.256.09-9.492.09-42.023 0-70.82 15.309-74.68 54.084-.303 2.955-.461 6.236-.461 9.494 0 1.22.035 2.487.082 3.695-10.514-4.385-21.125-7.006-28.381-7.006-7.352 0-19.861 2.715-28.287 7.206v.004c0-1.274-.736-2.581-.736-3.88 0-3.191-.555-6.225-.848-9.117-3.893-38.943-33.77-54.927-75.85-54.927-3.523 0-7.174-.482-10.523-.482h-.033c-27.121 0-61.646.921-66.221.921-7.652 0-13.562 6.823-13.562 14.623 0 4.823 16.123 31.771 16.123 31.771v.023c0 5.206-1.965 10.923-1.965 17.144 0 46.086 30.934 81.958 76.133 81.958 39.199 0 67.543-26.684 74.412-63.728 10.764-4.779 22.887-8.109 30.596-8.109 7.584 0 19.709 2.761 30.602 7.524 6.564 36.806 34.309 64.229 73.625 64.229 45.201 0 77.244-35.68 77.244-81.766-.014-6.258-.635-12.002-1.77-17.231zM629.42 382.633c-40.031 0-65.35-29.282-65.35-70.095 0-10.716 1.742-19.437 5.051-26.482.018-.005.033-.014.049-.019 6.744-14.299 19.945-21.662 37.959-24.625 6.773-1.103 14.234-1.593 22.291-1.593 5.088 0 9.938.188 14.561.61 29.459 2.674 48.77 14.598 51.34 44.855a86.18 86.18 0 0 1 .305 7.252c0 2.716-.115 5.367-.35 7.961a78.95 78.95 0 0 1-1.504 10.203 78.52 78.52 0 0 1-1.143 4.673c-7.961 28.465-31.134 47.26-63.209 47.26zm209.364 0c-32.32 0-55.062-19.094-62.611-47.916a79.7 79.7 0 0 1-1.064-4.602 85.422 85.422 0 0 1-1.385-10.035 93.669 93.669 0 0 1-.299-7.542c0-2.651.1-5.194.309-7.612 2.66-30.226 21.643-42.011 51.211-44.55.004.005.02.009.029.019 2.283-.207 4.633-.357 7.02-.444a171.13 171.13 0 0 1 6.791-.126c40.018 0 66.189 11.902 66.189 52.719-.001 40.8-26.175 70.089-66.19 70.089z"/></g></svg>