<svg xmlns="http://www.w3.org/2000/svg" width="722.333" height="294.896" viewBox="0 0 722.333 294.896"><path fill="none" d="M-39.323 99.139h6.426l-.043-.296h-6.383zM-163.007 39.905l-2.849-.522v11.75h15.141c0-.001-.981-6.419-12.292-11.228zM-31.13 99.139h4.264v8.432h10.689v-8.728h-14.996zM-197.253 127.401l-.17-.034-.104-.239-.025.122-.268.009c-.09.005-.204-.015-.309-.027.296.575.626 1.23.991 1.99.481.986.966 1.952 1.45 2.904l.122.231.161.311c.288.562.576 1.092.867 1.639v-6.339a99.22 99.22 0 0 0-1.729-.362c-.345-.074-.675-.138-.986-.205zM107.614 102.35v1.721l1.035-1.721zM110.075 102.35l-2.461 4.089v6.942h3.8v-9.551l-.892-1.48z"/><path fill="none" d="M-163.007 39.905l-2.849-.522v11.75h15.141c0-.001-.981-6.419-12.292-11.228zM107.614 102.35v1.721l1.035-1.721zM-197.253 127.401l-.17-.034-.104-.239-.025.122-.268.009c-.09.005-.204-.015-.309-.027.296.575.626 1.23.991 1.99.481.986.966 1.952 1.45 2.904l.122.231.161.311c.288.562.576 1.092.867 1.639v-6.339a99.22 99.22 0 0 0-1.729-.362c-.345-.074-.675-.138-.986-.205zM110.075 102.35l-2.461 4.089v6.942h3.8v-9.551l-.892-1.48z"/><path fill="none" d="M110.075 102.35l-2.461 4.089v6.942h3.8v-9.551l-.892-1.48zM107.614 102.35v1.721l1.035-1.721zM-163.007 39.905l-2.849-.522v11.75h15.141c0-.001-.981-6.419-12.292-11.228z"/><path fill="none" d="M110.075 102.35l-2.461 4.089v6.942h3.8v-9.551l-.892-1.48zM107.614 102.35v1.721l1.035-1.721zM-163.007 39.905l-2.849-.522v11.75h15.141c0-.001-.981-6.419-12.292-11.228z"/><path d="M722.333 234.132h-9.27v6.345h-3.312v-27.334h-4.287v-8.536h-22.305v12.232h-4.309v-33.885h-5.822V178.2H665.19v4.754h-4.041V178.2h-7.838v4.754h-5.82v24.311h-12.834v48.512h-2.371v-27.668h-4.361v-24.562c.023.004.043 0 .07.004l.053.007c.02.005.039.01.057.013 1.199.188 2.207.755 2.463 1.382l.004.011a.83.83 0 0 1 .061.296v.067l.158.021.02-.065c.203-.704 1.506-1.096 2.963-.883.98.146 1.863.547 2.301 1.049l.184.207-.043-.272a20.732 20.732 0 0 0-5.357-10.987 20.634 20.634 0 0 0-2.93-2.592v-42.84h-5.705v-3.801h-6.359l-1.242-19.642-1.236 19.642h-6.363v3.801h-2.264l-.57-9.126-.576 9.126h-2.295v44.543c-1.85 1.746-3.408 3.785-4.518 6.109l-.119.246.234-.146c.564-.356 1.525-.488 2.506-.34.76.109 1.428.366 1.896.69v46.597h-4.191v-8.353h-.639V193.95h-2.852v-7.366h-2.098v-69.15h-6.32v-14.718h-28.714v14.718h-6.317v66.301h-3.121v2.851h-4.586v-48.167h-7.15l-14.76-16.871v16.871h-3.775v-16.871h-5.004v-4.114h-18.137v4.114h-5.008v102.936h-1.295v-20.145h-7.367v.014h-.002v2.834h-7.363v12.357h-10.375v-3.022h-1.188v-18.531h-2.558l-1.27-20.156-1.271 20.156h-4.537l-1.178-25.263-1.174 25.263h-4.17v5.12h-.004v13.41h-2.213v-1.253h-5.228v-3.802h-3.328v-4.278h-6.649v.014h-.004v11.672h-2.611v-10.596H412.98v22.245h-.713v-31.408h-6.65v31.408h-6.182v-6.204h-4.021v-4.223H382.33v-12.908h-1.897v-11.057h-2.531v-27.864h-4.068v-27.864h-6.592v-23.154h-2.203V75.125l-2.753-.401V61.463h-1.647V40.885h-.723L359.374.001l-.533 40.884h-.721v20.578h-1.654v13.261h-.713v19.693h-2.039v22.828h-2.202v51.018h-3.296v27.864h-2.442v33.755l-3.833-1.764v-.012h-6.358v-30.761h-15.956v6.18h-2.131v-14.147h-.817v-2.416h-.818v-8.974h-.817v-6.905h-1.804v-6.211l-2.979-4.04-.646-13.001-.602 13.004-2.98 4.037v6.211h-1.801v6.905h-.821v8.974h-.82v2.416h-.816v14.147H300.6v-4.416h-.459v-9.616l-1.061 9.616h-2.758v5.227h-3.798v6.217h-.003v15.903h-3.8v-2.143h-2.853v-2.873h-2.659V202.9h-2.665v-15.329h-1.024v-2.615h-1.021v-9.72h-1.024v-7.483h-2.26v-6.728l-3.729-4.379-.803-14.086-.748 14.09-3.73 4.375v6.728h-2.254v7.483h-1.022v9.72H261.9v2.615h-1.023V202.9h-2.662v39.449h-5.139V199.11h-3.803v-32.318h-3.328v-2.851h-3.322v-24.233h-1.428v-3.324H228.366v3.323h-1.902v24.234h-2.852v25.542h-.002v9.626h-3.323v.013h-.003v40.85h-7.6v.018h-.001v4.852h-8.554v-29.577h-2.375V191.031h-4.275v-5.228h-12.834v.014h-.002v5.214h-4.273v.014h-.003v24.22h-2.372v.018h-.002v8.899h-10.66v3.63h-2.408v8.729h-10.689v-8.432H123.667v-3.793h-9.249v-45.104h-2.021v-4.751h-2.908l-1.014-16.869-.783 16.869h-3.135v4.751h-5.822v22.835h-.002v18.531H85.907v.017h-.003v31.444h-2.375v-27.67H72.125v.017h-.003v27.654h-3.321v-15.298h-4.277v-6.35H53.118V242.923h-4.751v-8.347H47.18c-.582-11.539-2.349-26.682-7.144-40.51h2.41v-1.142h-2.818c-.206-.572-.42-1.145-.636-1.712h2.171v-.857h-2.5c-3.938-9.961-9.598-18.976-17.713-25.089l-5.854-3.221-1.759-17.365v45.675H9.926v.857h3.411v1.712H9.926v1.142h3.411v30.303h-.371v.017h-.004v4.487h-7.84V252.04L0 253.148v41.747h722.333v-60.763zM15.246 180.1v-11.75l2.85.522c11.311 4.81 12.292 11.228 12.292 11.228H15.246zm273.47 51.219h1.034l-1.034 1.721v-1.721zm3.8 11.03h-3.8v-6.941l2.461-4.089h.446l.893 1.479v9.551z"/></svg>