<svg xmlns="http://www.w3.org/2000/svg" width="358.642" height="146.036" viewBox="0 0 358.642 146.036"><path fill="#231F20" d="M355.951 127.61v-3.225h-.241v-2.455h.131v-.74h-.131v-2.386l-.184-.231v-.854l-.241-.289v-4.321l.436-.672v-.204h.126l.104-.215v-.168l-.11-.073v-.703h.059v-.241h-.068v-.315l-.084-.104v-.393h-.115v.382l-.074.074v.168l-.425-.105v-.226h.063v-.341h-.095v-1.836l.095-.277v-.241h-.105v-1.181l-.168-.724h-.073v-.241l-.22-1.148h-.095l-.126 1.001h-.105v-.188l.053-.109v-.163h-.094v-.724l.23-.221v-.142l.204-.251v-.242l-.11-.23v-.734h.053v-.204h-.078v-.572l-.068-.277h-.089l-.068.262v.431l-.608-.211v-.691h.084v-.211l-.163-.587v-1.384h.079v-.288h-.09v-.403l-.067-.792-.126-.179v-.341l-.189-.151v.151l-.272-.278v-.268l-.062-.141v-.977l.104-.099v-.436l-.221-.473v-.529h-.073v.188l-.272-.288v-.473l.126-.142v-.131l-.1-.126v-.346l-.268-.352v-.152l-.115-.199v-.199l.115-.084v-.136l-.137-.169v-1.777l-.089-.157-.09.157v1.777l-.141.169v.136l.115.084v.199l-.115.199v.152l-.263.352v.346l-.099.126v.131l.12.142v.473l-.272.288v-.188h-.074v.529l-.226.473v.436l.116.099v.977l-.065.141v.268l-.272.278v-.151l-.189.151v.341l-.125.179-.068.792v.403h-.09v.284h.074v1.384l-.158.587v.211h.084v.691l-.607.211v-.431l-.063-.262h-.089l-.079.277v.572h-.073v.204h.052v.734l-.11.23v.242l.211.251v.142l.23.221v.724h-.105v.163l.059.109v.188h-.11l-.121-1.001h-.099l-.216 1.148v.241h-.079l-.162.724v1.181h-.11v.241l.1.277v1.836h-.1v.341h.068v.226l-.425.105v-.168l-.079-.074v-.382h-.104v.393l-.09.104v.315h-.067v.011l-3.356-5.309v-.257h.125v-.251h-.251v-2.597l-.252-.378v2.057h-.567v-.451h-.251v.451h-5.843l.204-.189v-.142l.204-.251v-.242l-.104-.23v-.734h.052v-.204h-.079v-.572l-.073-.277h-.089l-.068.262v.431l-.604-.211v-.691h.084v-.211l-.168-.587v-1.384h.084v-.283h-.094v-.403l-.063-.792-.131-.179v-.341l-.183-.151v.151l-.273-.278v-.268l-.068-.141v-.977l.11-.099v-.436l-.22-.473v-.529h-.074v.188l-.273-.288v-.473l.127-.142v-.131l-.111-.126v-.346l-.256-.352v-.152l-.115-.199v-.199l.115-.084v-.136l-.147-.169v-1.777l-.084-.157-.083.157v1.777l-.147.169v.136l.115.084v.199l-.115.199v.152l-.263.352v.346l-.104.126v.131l.126.142v.473l-.268.288v-.188h-.078v.529l-.216.473v.436l.11.099v.977l-.068.141v.268l-.272.278v-.151l-.184.151v.341l-.131.179-.068.792v.403h-.084v.284h.073v1.384l-.162.587v.211h.089v.691l-.608.211v-.431l-.073-.262h-.084l-.079.277v.572h-.073v.204h.058v.734l-.115.23v.242l.21.251v.142l.204.189h-11.911v-5.665h.199v-.462h-.179v-1.117h.179V96.3h-.199v-1.521l.199-.661v-.458l-.226-.226v-2.922h.152v-.314h-.126l-.283-3.273-.278-.304v-.356l.278-.482v-.409l-.356-.378v-.692h.104v-.377h-.126V81.89l.126-.408v-.452h-.157v-1.652l-.226-.258v.258h-.257v-1.574l-.608-1.348v-.199l.115-.146v-.23l-.188-.231-.21-4.841h-.168L318.717 73l-.372-.305v-3.257l.126-.21v-.268l-.319-.115v-2.271h-.311v.288l-.456-.535v-3.073l-.571-.63V61.36l-.242-.771v-.451l-.141-.262v-.314l-.152-.185v-.781l.126-.257v-.425l.167-.262v-.268l-.293-.299v-.283l-.105-.074v-1.211l-.104-.11-.104.11v1.211l-.105.074v.283l-.293.299v.268l.172.262v.425l.121.257v.781l-.146.185v.314l-.146.262v.451l-.242.771v1.264l-.572.63v3.073l-.455.535v-.288h-.305v2.271l-.319.115v.268l.131.21v3.257l-.387.305-.231-2.192h-.173l-.21 4.841-.184.231v.23l.111.146v.199l-.609 1.348v1.574h-.252v-.257l-.23.258v1.652h-.152v.451l.131.408v2.036h-.131v.377h.1v.692l-.355.378v.409l.277.482v.356l-.277.304-.279 3.273h-.131v.314h.158v2.922l-.231.226v.461l.204.661v1.521h-.204v.562h.179v1.117h-.179v.462h.204v5.665h-11.911l.2-.189v-.142l.209-.251v-.242l-.104-.23v-.734h.053v-.204h-.079v-.572l-.078-.277h-.085l-.067.262v.431l-.608-.211v-.691h.089v-.211l-.168-.587v-1.384h.079v-.285h-.089v-.403l-.063-.792-.137-.179v-.341l-.183-.151v.151l-.268-.278v-.268l-.068-.141v-.977l.109-.099v-.436l-.22-.473v-.529h-.073v.188l-.273-.288v-.473l.126-.142v-.131l-.104-.126v-.346l-.263-.352v-.152l-.115-.199v-.199l.115-.084v-.136l-.147-.169v-1.777l-.083-.157-.084.157v1.777l-.147.169v.136l.121.084v.199l-.121.199v.152l-.257.352v.346l-.104.126v.131l.121.142v.473l-.273.288v-.188h-.068v.529l-.225.473v.436l.109.099v.977l-.062.141v.268l-.273.278v-.151l-.184.151v.341l-.131.179-.062.792v.403h-.09v.284h.079v1.384l-.168.587v.211h.089v.691l-.607.211v-.431l-.068-.262h-.09l-.073.277v.572h-.079v.204h.059v.734l-.115.23v.242l.209.251v.142l.199.189h-5.837v-.451h-.258v.451h-.556v-2.057l-.258.378v2.597h-.256v.251h.131v.257l-3.362 5.309v-.011h-.068v-.315l-.078-.104v-.393h-.115v.382l-.073.074v.168l-.426-.105v-.226h.063v-.341h-.095v-1.836l.095-.277v-.241h-.11v-1.181l-.157-.724h-.084v-.241l-.215-1.148h-.1l-.12 1.001h-.11v-.188l.058-.109v-.163h-.1v-.724l.23-.221v-.142l.21-.251v-.242l-.11-.23v-.734h.053v-.204h-.073v-.572l-.079-.277h-.084l-.062.262v.431l-.619-.211v-.691h.089v-.211l-.162-.587v-1.384h.073v-.285h-.09v-.403l-.057-.792-.137-.179v-.341l-.184-.151v.151l-.273-.278v-.268l-.068-.141v-.977l.11-.099v-.436l-.215-.473v-.529h-.078v.188l-.268-.288v-.473l.126-.142v-.131l-.105-.126v-.346l-.268-.352v-.152l-.109-.199v-.199l.109-.084v-.136l-.136-.169v-1.777l-.089-.157-.085.157v1.777l-.146.169v.136l.116.084v.199l-.116.199v.152l-.262.352v.346l-.101.126v.131l.121.142v.473l-.272.288v-.188h-.073v.529l-.221.473v.436l.109.099v.977l-.067.141v.268l-.272.278v-.151l-.184.151v.341l-.132.179-.062.792v.403h-.084v.284h.073v1.384l-.162.587v.211h.089v.691l-.614.211v-.431l-.068-.262h-.083l-.079.277v.572h-.073v.204h.058v.734l-.115.23v.242l.21.251v.142l.23.221v.724h-.1v.163l.058.109v.188h-.115l-.121-1.001h-.094l-.221 1.148v.241h-.078l-.084.398h-.828v.787h-2.76l-.707.713h-1.496v-1.18h-.803l-1.049-24.415-.551-.787-.708-11.34h-.634l-.787-16.968-.672-1.772h-.587l-.394 1.022-.75-2.244v-1.61l-1.06-.714-.115-1.757h.503v-.367h-.523l-.095-1.479h.503v-.373h-.523l-.096-1.479h.51v-.366h-.53l-.1-1.479h.514v-.367h-.534l-.095-1.479h.515v-.364h-.541l-.089-1.485h.514v-.361h-.54l-.095-1.479h.524v-.366h-.54l-.1-1.479h.524v-.373h-.545l-.095-1.479h.524v-.367h-.546l-.094-1.484h.524v-.367h-.545l-.095-1.479h.519v-.367h-.545l-.09-1.479h.525v-.367h-.546l-.1-1.479h.53v-.367h-.546l-.104-1.483h.535v-.362h-.552l-.099-1.479h.534v-.372h-.556l-.095-1.484h.535v-.362h-.556l-.095-1.479h.534v-.367h-.561l-.314-5.046.414-.362v-.707h-.535l-.094-1.458.671-.409v-.3l.745-.235v-.75l-1.08-.493v-.709l-.32-.509V3.095l-.278-.472v-.336l.42-.451V1.4l-.278-.352V.613L260.136 0l-.556.613v.436l-.272.351v.436l.419.451v.336l-.283.472v1.852l-.314.509v.708l-1.081.493v.75l.745.235v.3l.671.409-.094 1.458h-.535v.702l.415.362-.32 5.046h-.562v.367h.541l-.101 1.479h-.55v.362h.529l-.09 1.484h-.556v.372h.53l-.095 1.479h-.556v.362h.535l-.09 1.483h-.557v.367h.525l-.095 1.479h-.545v.367h.529l-.1 1.479h-.545v.367h.524l-.095 1.479h-.546v.367h.524l-.094 1.484h-.546v.367h.525l-.095 1.479h-.546v.373h.52l-.095 1.479h-.54v.366h.52l-.095 1.479h-.54v.361h.514l-.094 1.485h-.53v.366h.509l-.095 1.479h-.534v.367h.514l-.095 1.479h-.535v.366h.515l-.095 1.479h-.53v.373h.504l-.094 1.479h-.52v.367h.498l-.11 1.757-1.06.714v1.61l-.755 2.244-.388-1.022h-.588l-.672 1.772-.791 16.968h-.625l-.713 11.34-.551.787-.535 12.409h-5.213l-5.749-11.466-16.727-1.222-.655-2.832.152-.236v-1.416h-.174v-.808l-.115-.557v-.839l-.221-.314-.215.314v.839l-.12.557v.808h-.173v1.416l.157.236-.63 2.69-6.005-.441V75.46h.341v-.724h-.341l-.341-.882h-.398l-.132.882h-.394v.818h.478l-.478 6.619-.588.708s-1.851-.194-2.559.949c-.713 1.138-.824 3.304-.824 3.304l-1.105 1.186v.546l.555.157v2.486l-3.529 5.155h-.299l-2.14-7.327.199-.724.965-.493v-.398l-.179-.173.116-.331v-2.56l-.252-.361v-.33l-.708-.373v.824l-.478-.294v-.394h-.236l-1.122-4.825.157-.236v-1.416h-.173v-.808l-.121-.557v-.839l-.215-.314-.221.314v.839l-.115.557v.808h-.178v1.416l.156.236-1.122 4.825h-.23v.394l-.482.294v-.824l-.702.373v.33l-.252.361v2.56l.115.331-.179.173v.398l.965.493.2.724-2.146 7.327h-.718v.525h.188l-.498 3.047h-.394v.682l.414.314v.473l.268.235v3.961l-.179.188v1.018h.179v2.312h-4.474l-.477-.865h-5.246v-.367h-.996v-1.993h-.367v1.836l-1.316.472h-19.37l-.204-.005v-1.065l.336-.492v-.557h-.257l-.472-.409v-1.216l.236-.242v-.372l-.608-.199v-.33s.351-.221.55-.692c.194-.467-.157-.866-.157-.866l-.671-.571v-.965l-.178-.551v-1.453l.293-.299v-.551l-.314-.529v-.456l-.367-.273v-1.044l-.284-.352v-1.836l-.209-.472v-.98l.209-.352v-.398l-.315-.314v-.356l-.116-.179-.114.179v.356l-.315.314v.398l.221.352v.98l-.221.472v1.836l-.278.352v1.044l-.373.273v.456l-.314.529v.551l.294.299v1.453l-.179.551v.965l-.666.571s-.352.399-.162.866c.199.472.556.692.556.692v.33l-.608.199v.372l.235.242v1.216l-.477.409h-.252v.557l.335.492v.924l-1.521-.042v-.882l.336-.492v-.557h-.257l-.477-.409v-1.216l.236-.242v-.372l-.608-.199v-.33s.356-.221.551-.692c.194-.467-.157-.866-.157-.866l-.671-.571v-.965l-.178-.551v-1.453l.298-.299v-.551l-.319-.529v-.456l-.373-.273v-1.044l-.277-.352v-1.836l-.21-.472v-.98l.21-.352v-.398l-.31-.314v-.356l-.121-.179-.116.179v.356l-.314.314v.398l.21.352v.98l-.21.472v1.836l-.278.352v1.044l-.373.273v.456l-.314.529v.551l.293.299v1.453l-.178.551v.965l-.671.571s-.352.399-.158.866c.199.472.556.692.556.692v.33l-.608.199v.372l.23.242v1.216l-.473.409h-.251v.557l.33.492v.745l-1.689-.052v-2.802l.346-.44v-.451h.499v-.346s-1.972-1.228-2.182-2.224c-.205-1.002-1.164-1.144-1.164-1.144v-.692l-.199-.157v-.766s.414.062.414-.865c0-.924-.708-1.023-.708-1.023v-1.793h.808v-.372h-.808v-1.458l-.221-.257-.214.257v1.458h-.803v.373h.803v1.793s-.708.1-.708 1.023c0 .928.419.865.419.865v.766l-.204.157v.692s-.95.142-1.17 1.144c-.21.996-2.171 2.224-2.171 2.224v.346h.493v.451l.346.44V108h-6.498l-.524.22a22.828 22.828 0 0 0-.562-2.465h-.43v-1.474h.262v-.865h-.829s-.729-1.511-3.368-4.669c-2.644-3.157-6.451-3.965-6.451-3.965v-.236l.241-.173v-.199l.22-.335v-1.605l-.152-.241-.362.52v.478h-.336v-.501l-.199-.372v-2.812l.157-.226v-.414h-.115v-.756l.283-.188v-.241h.21v-.246l-.525-.184s-.503-1.532-1.054-2.041c-.551-.498-1.469-.562-1.469-.562l-.073-.188v-1.342s.31-.305.31-.578c0-.272-.31-.419-.31-.419v-2.518l-.158-.189-.157.189v2.518s-.298.146-.298.419.298.578.298.578v1.342l-.073.188s-.918.063-1.474.562c-.545.509-1.049 2.041-1.049 2.041l-.524.184v.246h.21v.241l.289.188v.756h-.121v.414l.157.226v2.812l-.199.372v.499h-.336v-.478l-.356-.52-.147.241v1.605l.21.335v.199l.236.173v.236s-3.803.808-6.446 3.965c-2.639 3.158-3.368 4.669-3.368 4.669h-.829v.865h.262v1.474h-.43s-.562 1.898-.74 3.808c-.173 1.898-.173 3.85-.95 4.07v.598h.431v.566l.43.347v1.992h-1.594l-2.429 1.643h-.907v.645h-1.384l-.257-.514h-.698l-4.064-3.897h-3.058l-.289-29.261h.142l.079-.325h.603l.063-.278h.235l.593-.236v-.241h-.193l-.163-.372h-.508l-.178-.173.099-.672h.273v-1.888l-.236-.137v-.241l.121-.21v-.336l-1.102-.1v-.398l.352-.152v-.241l-.441-.157v-.409l.262-.115v-.913l-.314-.178V67.314l-.215-.22-.22.22v10.663l-.315.178v.913l.268.115v.409l-.44.157v.241l.351.152v.398l-1.102.1v.336l.121.21v.241l-.236.137v1.888h.272l.1.672-.173.173h-.514l-.157.372h-.199v.241l.593.236h.236l.062.278h.608l.073.325h.136l-.283 29.261h-3.289v-.696h-.105v-.295h.105v-.733h-.105v-.289h.105v-.734h-.105v-.288h.105v-.734h-.105v-.294h.105v-.734h-.105v-.283h.105v-.739h-.105v-.289h.105v-.734h-.105v-.288h.105v-.739h-.105v-.283h.105v-.734h-.105v-.294h.105v-.734h-.105v-.288h.105v-.729h-.105v-.294h.105v-.733h-.105v-.283h.105v-.74h-.105v-.288h.105v-.734h-.105v-.289h.105v-.739h-.105v-.283h.105v-.734h-.105v-.293h.105v-.739h-.105v-.284h.105v-.739h-.105v-.288h.105v-.734h-.105v-.289h.105v-.739h-.105v-.283h.105v-.733h-.105v-.294h.105v-.729h-.105v-.294h.105v-.729h-.105v-.294h.105v-.734h-.105v-.294h.105v-.729h-.105v-.288h.105v-.735h-.105v-.288h.105v-.74h-.105v-.282h.105v-.734h-.105v-.297h.105v-.734h-.105v-.288h.105v-.735h-.105v-.288h.105V83.6h-.105v-.294h.105v-.733h-.105v-.283h.105v-.74h-.105v-.289h.105v-.734h-.105v-.288h.105v-.729h-.105v-.294h.105v-.733h-.105v-.294h.105v-.729h-.105v-.289h.105v-.733h-.105v-.289h.105v-.739h-.105v-.283h.105v-.739h-.105V74.1h.105v-.734h-.105v-.289h.105v-.739h-.105v-.283h.105v-.734h-.105v-.294h.105v-.734h-.105v-.283h.105v-.739h-.105v-.288h.105v-.735h-.105v-.288h.105v-.74h-.105v-.294h.105v-.733h-.105v-.283h.105v-.74h-.105v-.288h.105v-.734h-.105v-.283h.105v-.734h-.105v-.294h.105v-.734h-.105v-.288h.105v-.734h-.105v-.289h.105v-.733h-.105v-.294l-.32-.315V39.133l-.309-.314V17.235h-.349v15.52l-.1.236v5.99h-.299V17.235h-.351v15.336l-.336.367v6.168l-.66 1.154-9.237 9.504h-2.208v.682h-.734v-.524h-3.462v6.09h-2.575l-.63.996v1.422h-.472v15.697h.739v2.256h-.739v46.45H63.9v-.026l.21-.179v-.425h-.887l.173-.398v-.467l-1.201-.771v-.356l-.314-.288v-.646l.314-.236v-.834l-.404-.199v-.288l.11-.105v-.456l-.277-.262-.299.304v.414l.083.121v.272l-.43.199v.809l.43.319v.588h-.362l-.839-.646v-.787h.315v-.393l.262-.236v-.514h.262v-.378h-1.012l-.399-.31h-.314v-.236l.352-.356v-.319h.293l.209-.194v-.776h-2.161v-.21l-.231-.146v-.252l-.294-.252v-.43l.294-.194v-.336l-.163-.168v-.352l-.425-.435-.425.435v.352l-.163.168v.336l.294.194v.43l-.294.252v.252l-.23.146v.21h-2.156v.776l.21.194h.299v.319l.341.356v.236h-.31l-.398.31h-1.007v.378h.257v.514l.262.236v.393h.31v.787l-.829.646h-.366v-.588l.43-.319v-.809l-.43-.199v-.272l.084-.121v-.414l-.294-.304-.284.262v.456l.105.105v.288l-.398.199v.834l.314.236v.646l-.314.288v.356l-.714.457-.236-13.915h.158v-.593l.32-.499h.598l.032-.629h.247v-.215l.309-.179v-.435h-.194l-.33-.305v-.566l.293-.451.446-.053v-.215l-.199-.162h-.697l-.482.409-.131.472h-.378v-.436l-.246-.163v-2.365l.125-.215h.121v-.268l-.833-1.358h-.199l-.236-.844h-.409V97.3l-.179-.178-.185.178v.74h-.41l-.236.844h-.199l-.833 1.358v.268h.12l.126.215v2.365l-.247.163v.436h-.377l-.131-.472-.478-.409h-.703l-.199.162v.215l.451.053.283.451v.566l-.325.305h-.195v.435l.311.179v.215h.246l.037.629h.592l.32.499v.593h.152l-.299 17.816h-.708v-.361h-2.119v-.283h-1.18l-1.148-1.008v-3.938l.682-.646v-.545l-.257-.462v-1.794l-.32-.319v-1.4l-.467-.682v-.756h-.319v1.06h-.236l-.377-.367.257-.509v-.97h-.216s.173-1.112-1.29-4.123c-1.469-3.011-4.967-4.206-4.967-4.206v-.252l-.288-.215v-1.422l.288-.262v-1.312l-.325-.357v-1.332h-.268v.851l-.409-.289v-1.022l-.43-.414v-.32l-.577-.63V96.3l.11-.236v-.439l-.257-.504v-.611h.451v-.367h-.44v-.398l-.168-.168-.167.168v.398h-.441v.367h.446v.608l-.247.504v.439l.105.236v.341l-.572.63v.32l-.43.414v1.022l-.414.289v-.851h-.273v1.332l-.32.357v1.312l.289.262v1.422l-.289.215v.252s-3.493 1.195-4.967 4.206c-1.469 3.011-1.285 4.123-1.285 4.123h-.215v.97l.247.509-.378.367h-.23v-1.06h-.32v.756l-.467.682v1.4l-.326.319v1.794l-.246.462v.545l.677.646v3.938l-1.144 1.008h-1.186v.283h-2.113v.361h-.714l-.299-17.816h.152v-.593l.325-.499h.587l.037-.629h.246v-.215l.315-.179v-.435h-.2l-.325-.305v-.566l.289-.451.446-.053v-.215l-.199-.162h-.698l-.488.409-.121.472h-.378v-.436l-.251-.163v-2.365l.125-.215h.125v-.268l-.844-1.358h-.189l-.236-.844h-.414V97.3l-.178-.178-.178.178v.74h-.414l-.236.844h-.2l-.839 1.358v.268h.126l.131.215v2.365l-.257.163v.436h-.372l-.131-.472-.477-.409h-.703l-.194.162v.215l.446.053.289.451v.566l-.325.305h-.2v.435l.304.179v.215h.257l.037.629h.588l.325.499v.593h.152l-.235 13.915-.714-.457v-.356l-.31-.288v-.646l.31-.236v-.834l-.398-.199v-.288l.105-.105v-.456l-.284-.262-.293.304v.414l.089.121v.272l-.436.199v.809l.436.319v.588h-.362l-.839-.646v-.787h.314v-.393l.262-.236v-.514h.263v-.378h-1.018l-.393-.31h-.32v-.236l.351-.356v-.319h.299l.21-.194v-.776H8.083v-.21l-.231-.146v-.252l-.293-.252v-.43l.293-.194v-.336l-.162-.168v-.352l-.425-.435-.43.435v.352l-.157.168v.336l.294.194v.43l-.294.252v.252l-.231.146v.21H4.286v.776l.209.194h.294v.319l.352.356v.236h-.31l-.403.31H3.415v.378h.262v.514l.262.236v.393h.309v.787l-.833.646h-.362v-.588l.436-.319v-.809l-.436-.199v-.272l.084-.121v-.414l-.294-.304-.277.262v.456l.1.105v.288l-.399.199v.834l.315.236v.646l-.315.288v.356l-1.196.771v.467l.173.398H.357v.425l.205.179v.288H.84v2.329H.163v.346l.608.624v3.877l-.347.388v.718H.163v.614h.288v1.395l-.288.252v1.002l.262.646v8.313l-.425.611v.325h.284v1.5h5.129v-6.955h.21v-.571h-.32s-.33-2.648 1.962-2.648 1.951 2.648 1.951 2.648h-.31v.571h.205v6.955h46.24v-6.955h.21v-.571h-.314s-.336-2.648 1.951-2.648c2.297 0 1.962 2.648 1.962 2.648h-.315v.571h.21v6.955h299.588v-16.065l-2.692-2.361zm-38.22-20.833h-1.17v-8.261c0-1.038.257-1.878.582-1.878.32 0 .588.84.588 1.878v8.261zm-2.062-38.518c.012-.247.399-.451.399-.451s.394.204.404.451c.005.251 0 3.436 0 3.436h-.803c0-.001-.01-3.185 0-3.436zm-.135 8.575c0-.629.225-1.133.503-1.133h.062c.284 0 .504.504.504 1.133v5.717h-1.069v-5.717zm.534 10.065a1.496 1.496 0 1 1 0 2.994 1.494 1.494 0 0 1-1.495-1.494c0-.829.672-1.5 1.495-1.5zm-1.657 11.618c0-1.038.262-1.878.587-1.878.315 0 .583.84.583 1.878v8.261h-1.17v-8.261z"/></svg>