<svg xmlns="http://www.w3.org/2000/svg" width="351.289" height="44.224" viewBox="0 0 351.289 44.224"><path d="M350.954 38.8v-.996h-.299v-.234h-.526v-.484h-.665v-.42h-.389v-1.229h-.054v1.24h-.985l-.223.234v.16h-.128v1.65h-.128v-1.767h-.367v-.889l-.133-.123h-.165l-.352-.341h-.267v-.261h-1.282v.101h-.464l-.164-.197h-.634v-.66h-.08v.666l-.372-.293h-2.034v.234h-.446v.676h-.182v-.059h-.139v.777h-.085v.793h-.452v.277l-5.93-.351v-2.55l-.054-.054v-.383l-.234-.117v-.92h-.096v-.394l-.091-.085h-.233v-.373h-2.12v.373h-.106v-.064H328.956v.373h-.234l-.091.09v.394h-.096v.921l-.234.117v.383l-.053.053v.437l-4.253-1.959c-.219-.138-3.29-2.076-8.107-3.992-4.551-1.805-11.636-3.953-19.626-3.995v-.002l-.122.002h-.021v-2.611h-.096v.122l-.564.618.032.423.532-.394v1.841c-7.995.042-15.075 2.19-19.626 3.995-4.817 1.916-7.889 3.854-8.107 3.992l-4.253 1.959v-.437l-.053-.053v-.383l-.234-.117v-.921h-.101V33.2l-.085-.09h-.234v-.373h-2.124v.064h-.101v-.373H258.986v.373h-.234l-.09.085v.394h-.096v.921l-.24.117v.383l-.053.054v2.55l-5.515.266-.543-.937 1.927-2.922s-2.294-.245-4.472.325v-.639l-1.57-.117.708-2.108s-2.347 0-4.093 1.155l-.245-1.591-.724.106-1.139 4.099s1.267-5.515 2.284-7.559c0 0-2.55.596-4.604 2.204l.106-2.677s-7.053.963-10.114 7.777c0 0-.782-.101-1.411-.011 0 0-3.257-2.326-8.176-1.134l.916 3.71s-1.821 0-4.333 1.14c0 0-2.886-1.491-7.271-1.161 0 0 1.698 1.682 2.193 2.251-4.035.187-7.767.367-10.886.511V37.9h-2.433v1.512h-.724v.724c-2.193.101-3.886.176-4.908.224v-.378l-1.022-.314h-.34v-2.672l-.548-.234v-1.161h-.234v.676h-.261v-.676h-.341v-.33h-.367v.681l-.181-.181v-1.192h-.432v1.479h-1.245v-1.969h-1.24v-2.821h-.187v1.543l-.271.368v.878h-.288v.899h-1.272v-.628h-.532v.431H182.6l-.404.522h-.17v-.889h-.277v.916h-1.102v-.719h-.325v1.203h-.825v-1.07h-.522l-.835-.868h-2.529v-.181h-2.155V26.7h.048v-.117h-.421s-2.049-.958-3.912-.958c-1.655 0-1.826.934-1.826.934v.362h-.324v6.305h-.271v.458h-.171v-3.337l-.644-.942v-3.779h-.511v-.432h-.335l-.154-.191v-.506h-.373l-.298-.224h-1.128l-.644.205v.157h-.394v.394l-.176.106h-.453v.373h-.453v3.944h-1.006v-1.139l-1.314-.389h-.777v-1.366h-.08v1.382h-.767v.175h-.234v-9.77h-2.949v-.274h-.495v.176h-4.109v-.099h-2.284v.149h-1.884v1.943h-.777v-.333h-.777v.253l-.245.098v.117h-.154v2.582h-.489v-1.57h-.112v1.589h-1.224v-3.17h-.058v3.17h-1.257v-.088h-.154v.724h-.367v.581h-1.049l-.745.373h-.654v2.619h-.804v-5.552h-.384l-.218-.127h-.336v-.128h.501l.138-.255h.069v-.793l-1.874-.58h-.468v-.176h-.128v.16h-1.277l-.884.567v.706l.373.098v.139l-.734.303v11.426h-.857v1.831h-.469v-.463h-.128v.431h-.127v-6.574h-.154v-.728h.08V10.359h-.218v-.746h.08v-.686l-2.592-1.097v-.854h-.176v.42l-.276.237v.266l-6.452.745v.468h.128v.865h-.128v13.361h-.953v-1.333s-.288-.5-1.229-.5h-2.598v-1.118h-.069v1.1h-.618V8.309h-.596v-2.56h-.591V3.817l-1.049.205v-.605l-1.411.25v-.25h-.857v.125L109 3.287V0h-.106v3.875h-.617l-1.219-.402v.735l-.596.08-1.022-.383v.562l-.628.077v1.128l-.569.098v2.422l-.548.117v12.217l-.303-.091v-1.293l-1.188-.295h-.804l-.932-.162h-1.032v-1.166l-1.262-.213-1.905.179V8.703s-3.471 1.176-5.6 3.583c0 0-2.699.564-5.142 2.723l-.745-.13s-.016 1.411.144 3.023c.154 1.605.389 4.317.389 4.317h-.575v.442h-.691l-.091-3.313h.106v-.205h-.106V9.198l-.578-.143V7.958l-.223-.16v-1.24h-.277V5.353l-.224-.078V2.656h-.218v2.632l-.309.21v.41h-.388v.559l-1.464.283v1.432h-.431v.767h-.474l-3.082.776v1.214h-1.027v14.96h.271v.963H74.16v.961l-3.822.373v.985h-.5V17.369h-.575v-.117h-.91l-.096-11.963h-.117v4.532l-2.05-.33-.037-4.852h-.117v6.726l-1.826 3.939h-1.458v.343h-.634v-.096h-.324v.168l-.602.154v5.938l-1.48 3.197h-.011v5.003h-.575l-.149-.149h-.101v.192h-.123v-4.222h-.159v-.245h.144v-1.099l-2.108-.178v-.155l-.618-.09v.176l-2.48-.176-1.932.216v1.131h.127v.213H51.5v4.269h-.34v-.117h-.224v-1.671h.399v-.394h-.383v-4.844h.128v-.474h-.128V18.71h.197l.266-.112v-.25h.346l.261-.176v-.985l.106-.048V16.06h-.388v-.234l-.176-.08v-1.602l-.24-.402h-.649v-.17l-.101-.062v-2.284l.016-.019v-.479l-.038-.087-.037.087v.479l.016.019v2.284l-.101.062v.17h-.649l-.234.402v1.602l-.181.08v.234h-.384v1.081l.102.048v.985l.261.176h.346v.25l.261.112h.203v3.684h-.128v.474h.128v4.844h-.383v.394h.399v1.671h-.474v.096H46.22v-2.981h-1.197v-.833h-.575v-.571l-.309-.216h-.42v-.365h-.213v-.354h-.974v-.538h-.085v-3.016h-.064v3.024h-.106v.481h-.867v.29h-.666v.237h.064v.407l-.437.2v.381h-.74v.66h-.67l-1.528.365v4.408h-.176v-.176h-.554v.234h-.489v-.197h-.144v.176h-.373v3.769h-.798v-2.374h-.479v-.096h-.734v-1.405h-.149v.202h-.442v-1.155h-.085v.602l-.325.202v.149h-1.906v.197h-.447v2.305h-.192l-.224.378v.442h-1.022V33.61h-1.022v.117h-1.006v1.804h-.17v-.133h-.979v.958l-.655.277v.17H23.78l-.144.245h-4.588l-.309.309h-.868v-1.538h-3.337l-.208.208v3.62h-.303v-.373h-.963v.197h-1.272v1.507H8.017l-.836.649v.266H4.407v.649h-.495v-1.645h-.921v.234H1.293v2.225H.559L0 43.915v.309h264.039v-.873c.41-.421 2.486-2.491 5.76-4.94 12.786-1.075 26.189-.798 26.344-.793 0 0 13.562-.282 26.349.793 3.273 2.449 5.345 4.519 5.76 4.94v.873h23.038V38.8h-.336zM60.528 25.008h-.655l.655-1.408v1.408zm.565-1.903h-.335l.335-.732v.732zm3.896-7.801h-.618l.618-1.333v1.333zm.948.415h-.703v-.416h-.09v-1.671l.037-.083.756-.112v2.282zm0-2.438l-.676.099.676-1.458v1.359zm1.405 4.849h-.431v.157h-.282v-1.081l.713.115v.809zm.799-.878h-.245l-1.267-.205v-1.328h-.484l-.006-.41 2.002.325v1.618zm0-1.86l-2.002-.319-.016-1.621 2.018.324v1.616zm0-1.858l-2.018-.324-.011-1.621 2.028.33v1.615zm0-1.855l-2.034-.33-.011-1.621 2.044.327v1.624zm143.051 28.627l-.335.373-.309-.34.644-.033zm-1.858.085l-.33.373-.298-.341.628-.032zm-.83.043l.394.447-.628.708c-.165.005-.33.016-.495.021l-.511-.57.505-.575c.245-.01.49-.015.735-.031zm-.932 1.187c-.288.01-.575.026-.862.037l.447-.5.415.463zm-.021-1.144l-.394.447-.362-.404c.25-.017.506-.027.756-.043zm-.958.053l.458.511-.559.628c-.187.005-.373.01-.554.021l-.522-.585.484-.543.693-.032zm-.858 1.171c-.298.011-.591.021-.883.037l.458-.516.425.479zm-.052-1.129l-.373.416-.34-.384.713-.032zm-.916.043l.437.49-.569.639c-.176.01-.352.021-.527.021l-.543-.602.458-.511c.244-.016.494-.027.744-.037zm-.863 1.16c-.309.016-.617.032-.926.042l.479-.543.447.501zm-.106-1.117l-.34.383-.309-.346c.212-.011.431-.022.649-.037zm-.852.048l.41.458-.597.666-.431.016-.612-.681.367-.42c.289-.013.576-.024.863-.039zm-6.009 1.794v.127h-.628v.453h-3.061v-.421c.575-.021 1.857-.08 3.689-.159zm-3.295-.278l.575-.644.532.596c-.367.016-.734.033-1.107.048zm1.863-.079l.564-.633.521.585-1.085.048zm2.651-.399h-.511l.271-.298.24.266v.032zm3.156-.128l.298-.341.517.58c-.271.011-.543.021-.814.038v-.277zm.554-.863l-.256.287-.229-.261c.16-.005.32-.015.485-.026zm-.357.41l-.197.213v-.431l.197.218zm-3.353.314l-.138-.149.138-.149v.298zm0-.532l-.24.266-.218-.245c.149-.01.298-.016.458-.021zm-.66.032l.314.351-.373.416h-.5v.335c-.048.005-.096.005-.144.005l-.623-.692.33-.362c.314-.021.645-.037.996-.053zm-1.22.064l-.207.234-.197-.218c.133-.006.266-.016.404-.016zm-.601.026l.288.325-.682.756c-.106.011-.218.016-.33.021l-.628-.708.303-.341c.314-.016.661-.032 1.049-.053zm-1.267.064l-.191.213-.17-.192c.111-.005.233-.015.361-.021zm-.564.032l.267.298-.687.771c-.059 0-.117.005-.176.011V41.19c.149-.005.351-.016.596-.027zm10.758 2.603h-2.976v-.958h-.313v-.49l4.791-.208.016.021.026-.021c.586-.027 1.187-.048 1.794-.08l.032.037.037-.037 1.208-.048-4.615 1.784zm3.886-2.183l.516-.585.484.543c-.335.011-.665.021-1 .042zm1.847-.319l-.224.123v.123c-.139.011-.282.016-.421.021l-.58-.649.447-.5.788-.032.404.453-.414.461zm.415-.228l.106-.117.032.037-.138.08zm.282-.155l-.069-.08.447-.506.75-.032-1.128.618zm46.656-2.31l-.298.293-.293-.288c.203-.005.4-.005.591-.005zm.011.937h-.617l.309-.309.308.309zm-.479-.479l-.394.404-.399-.404.399-.394.394.394zm-.649.479h-.618l.309-.309.309.309zm-.027-.926l-.282.282-.276-.271c.191-.006.377-.011.558-.011zm-1.145.021l-.266.261-.256-.256c.177-.005.352-.005.522-.005zm-.436.426l-.394.404-.399-.404.399-.394.394.394zm-.915-.405h.202l-.202.197v-.197zm0 .623l.266.261h-.266v-.261zm1.149 3.87h-.489v-2.48l-.085-.112h-.676v-.416h.102v-.042c.404-.016.788-.038 1.149-.054v3.104zm-.372-3.609l.309-.309.309.309h-.618zm.474-.479l.399-.394.394.394-.394.404-.399-.404zm2.975 4.088h-2.486v-3.125c.996-.048 1.837-.08 2.486-.112v3.237zm0-3.609h-.064l.064-.064v.064zm0-.4l-.319.325-.399-.404.399-.394.319.319v.154zm0-.484l-.054-.053h.054v.053zm66.815-4.141l1.885.867-.725 1.603c-.346-.032-.734-.059-1.16-.096v-2.374zm0 3.593l.639.048-.148.341-.49-.048v-.341zm-2.22-4.748c.591.346.916.548.927.559l.01.005.959.441-1.353 2.406c-.176-.016-.356-.026-.543-.042v-3.369zm-2.22-1.198c.767.389 1.405.735 1.9 1.011l-1.9 3.236V32.13zm-2.213-1.065c.687.309 1.32.618 1.884.894l-1.884 2.96v-3.854zm1.979 1.187v4.2a60.36 60.36 0 0 0-1.208-.798c-.229-.149-.458-.288-.687-.431l1.895-2.971zm-1.979 3.38c.186.117.372.234.553.346.277.181.554.362.82.538-.442-.021-.899-.048-1.373-.069v-.815zm-2.22-5.525c.665.271 1.293.543 1.879.804l-1.879 2.73v-3.534zm1.985 1.07v3.849a56.69 56.69 0 0 0-1.885-1.107l1.885-2.742zm-1.985 3.135c.697.394 1.357.788 1.985 1.171v.953c-.634-.032-1.294-.059-1.985-.09v-2.034zm-.235-4.104v3.523a48.719 48.719 0 0 0-1.874-.984l1.874-2.539zm-1.98-.947a58.178 58.178 0 0 1 1.863.708l-1.863 2.523v-3.231zm0 3.88c.687.341 1.347.692 1.98 1.043v2.156c-.634-.026-1.294-.059-1.98-.08v-3.119zm-2.22-4.631c.639.202 1.251.404 1.831.612l-1.831 2.379V28.51zm1.986.799v3.269a57.976 57.976 0 0 0-1.852-.862l1.852-2.407zm-1.986 2.789c.682.298 1.342.606 1.985.926v3.231c-.639-.027-1.299-.048-1.985-.069v-4.088zm-2.214-4.248c.623.176 1.229.352 1.814.532l-1.814 2.204V27.85zm1.98.703v3.002a38.39 38.39 0 0 0-1.852-.75l1.852-2.252zm-1.98 2.63c.676.261 1.336.532 1.979.809v4.189c-.639-.016-1.299-.037-1.979-.053v-4.945zm-2.219-3.889c.623.146 1.234.295 1.825.45l-1.825 2.087v-2.537zm1.985.631v2.736c-.154-.053-.309-.112-.463-.165a65.804 65.804 0 0 0-1.378-.474l1.841-2.097zm-1.985 2.48c.676.218 1.336.447 1.985.692v5.025c-.645-.016-1.31-.032-1.985-.042v-5.675zm-2.215-3.577c.618.117 1.229.242 1.826.375l-1.826 1.924v-2.299zm1.98.551v2.525a48.922 48.922 0 0 0-1.885-.543l1.885-1.982zm-1.98 2.377c.671.176 1.331.367 1.98.575v5.744c-.645-.016-1.304-.026-1.98-.037v-6.282zm-2.22-3.298a51.94 51.94 0 0 1 1.799.292l-1.799 1.919v-2.211zm1.981.439v2.379a54.815 54.815 0 0 0-1.842-.415l1.842-1.964zm-1.981 2.348c.671.128 1.331.282 1.98.447v6.345l-1.98-.032v-6.76zm-2.214-3.058c.639.063 1.272.138 1.895.226l-1.895 1.948v-2.174zm1.98.476v2.124c-.596-.106-1.192-.213-1.788-.293l1.788-1.831zm-1.98 2.204c.666.091 1.331.203 1.98.325v6.813l-1.98-.016v-7.122zm-2.22-2.85c.601.035 1.197.077 1.783.13l-1.783 1.969v-2.099zm1.98.263v2.156a32.616 32.616 0 0 0-1.783-.181l1.783-1.975zm-1.98 2.353c.665.048 1.325.117 1.979.202v7.154c-.644-.005-1.304-.011-1.979-.011v-7.345zm-2.214-2.678c.596 0 1.192.013 1.778.04l-1.778 2.036v-2.076zm1.98.17v2.097a39.668 39.668 0 0 0-1.772-.074l1.772-2.023zm-1.98 9.848v-7.431a35.01 35.01 0 0 1 1.98.074v7.356l-1.98.001zm-.24-10.018v2.076l-1.783-2.036a39.12 39.12 0 0 1 1.783-.04zm-1.98.17l1.772 2.023c-.591.01-1.176.037-1.772.074v-2.097zm0 2.492a35.046 35.046 0 0 1 1.98-.074v7.431h-1.98v-7.357zm-.234-2.6v2.1l-1.788-1.969c.59-.054 1.186-.097 1.788-.131zm-1.986.263l1.789 1.975c-.596.042-1.192.106-1.789.181V26.28zm0 2.555a34.629 34.629 0 0 1 1.985-.202v7.346c-.676 0-1.336.005-1.985.011v-7.155zm-.234-2.648v2.174l-1.9-1.948a45.685 45.685 0 0 1 1.9-.226zm-1.98.476l1.783 1.831c-.591.08-1.187.187-1.783.293v-2.124zm0 2.529a39.281 39.281 0 0 1 1.98-.325v7.123l-1.98.016v-6.814zm-.24-2.734v2.211l-1.793-1.919a56.85 56.85 0 0 1 1.793-.292zm-1.98.439l1.842 1.964c-.607.127-1.224.266-1.842.415v-2.379zm0 2.795c.649-.165 1.31-.319 1.98-.447v6.761l-1.98.032v-6.346zm-.234-2.864v2.3l-1.821-1.924a53.1 53.1 0 0 1 1.821-.376zm-1.98.551l1.885 1.982c-.628.17-1.257.346-1.885.543v-2.525zm0 2.952c.649-.208 1.31-.399 1.98-.575v6.281c-.676.011-1.336.021-1.98.037v-5.743zm-.235-3.037v2.537l-1.826-2.087a67.93 67.93 0 0 1 1.826-.45zm-1.985.631l1.836 2.097a67.72 67.72 0 0 0-1.374.474c-.159.053-.309.112-.463.165v-2.736zm0 3.172a43.26 43.26 0 0 1 1.985-.692v5.674c-.681.011-1.341.026-1.985.042v-5.024zm-.234-3.247v2.736l-1.815-2.204c.585-.18 1.192-.356 1.815-.532zm-1.98.703l1.853 2.252c-.618.229-1.235.484-1.853.75v-3.002zm0 3.439a56.66 56.66 0 0 1 1.98-.809v4.945c-.681.016-1.341.037-1.98.053v-4.189zm-.24-3.482v2.992l-1.831-2.379a55.181 55.181 0 0 1 1.831-.613zm-1.98.799l1.853 2.406a59.06 59.06 0 0 0-1.853.862v-3.268zm0 3.715a43.263 43.263 0 0 1 1.98-.926v4.088c-.681.021-1.341.042-1.98.069v-3.231zm-1.969-3.108a58.178 58.178 0 0 1 1.735-.655v3.231l-1.869-2.523c.048-.021.091-.037.134-.053zm-.245.292l1.874 2.539c-.628.314-1.251.639-1.874.984v-3.523zm0 3.977a48.48 48.48 0 0 1 1.98-1.043v3.12c-.687.021-1.347.053-1.98.08v-2.157zm-.24-4.078v3.535l-1.874-2.73a66.185 66.185 0 0 1 1.874-.805zm-1.98 1.07l1.885 2.741c-.628.352-1.257.724-1.885 1.107v-3.848zm0 4.306a68.724 68.724 0 0 1 1.98-1.171v2.033c-.687.032-1.347.059-1.98.09v-.952zm-.235-4.418v3.854l-1.89-2.96c.571-.276 1.204-.585 1.89-.894zm-1.985 1.187l1.895 2.97c-.223.144-.453.282-.681.431-.415.266-.82.532-1.214.798v-4.199zm1.985 3.38v.814c-.474.021-.932.048-1.373.069.271-.176.543-.356.825-.538l.548-.345zm-2.219-3.502v4.248l-1.895-3.236a57.45 57.45 0 0 1 1.895-1.012zm-1.98 1.336l1.821 3.103c-.649.042-1.257.075-1.821.117v-3.22zm-2.215 1.193l1.177 2.092-1.177.09v-2.182zm-2.219 1.048l.569 1.272c-.202.016-.394.032-.569.048v-1.32zm0 2.523c.319-.021.687-.053 1.091-.085l.154.346c-.416.048-.835.091-1.246.139v-.4zm-1.182 4.567v-2.992l.91 2.119c-.388.363-.697.66-.91.873zm.947-1.389l-.947-2.198v-.202c.314-.042.628-.075.947-.112v2.512zm0-2.752c-.319.038-.633.075-.947.117v-.437c.229-.021.548-.053.947-.085v.405zm0-1.608c-.41.043-.724.075-.947.096v-1.213l.947-.431v1.548zm.235 4.631v-2.815c.447-.048.895-.102 1.347-.144l.575 1.283a57.23 57.23 0 0 0-1.922 1.676zm1.98-2.118l-.389-.873c.133-.011.261-.021.389-.037v.91zm0-1.144l-.484.048-.154-.341.639-.048v.341zm0-1.56c-.426.037-.814.063-1.166.096l-.719-1.603 1.885-.867v2.374zm.239 2.906v-1.134c.538-.059 1.081-.106 1.624-.154-.585.447-1.128.878-1.624 1.288zm1.981-1.554h-.006c-.665.059-1.32.117-1.975.181v-.33c.559-.043 1.171-.091 1.831-.139l.149.261v.027zm0-1.512c-.187.016-.368.026-.543.042l-1.353-2.406.958-.441.01-.005c.011-.011.33-.213.927-.559v3.369zm.234 1.331V37.9l.197-.016-.197.144zm.5.117c.139-.106.282-.208.426-.309 6.233-.416 15.841-.884 25.562-.713 9.725-.17 19.333.298 25.562.713.148.101.287.202.426.309-12.639-1.043-39.334-1.043-51.976 0zm52.48-.117c-.063-.048-.133-.096-.196-.144l.196.016v.128zm0-1.341c-.563-.042-1.171-.075-1.82-.117l1.82-3.103v3.22zm2.215 3.076a51.913 51.913 0 0 0-1.624-1.288c.543.048 1.086.096 1.624.154v1.134zm0-1.373c-.655-.064-1.315-.123-1.975-.181h-.006v-.027l.144-.261c.66.048 1.277.096 1.837.139v.33zm0-1.549c-.362-.027-.756-.059-1.177-.09l1.177-2.092v2.182zm.239 1.81c.128.016.256.026.384.037l-.384.873v-.91zm1.98 3.028a53.174 53.174 0 0 0-1.927-1.677l.58-1.283c.452.042.899.096 1.347.144v2.816zm0-3.05c-.415-.048-.83-.09-1.246-.139l.154-.346c.405.032.772.064 1.092.085v.4zm0-1.602a41.641 41.641 0 0 0-.569-.048l.569-1.272v1.32zm1.182 5.77a29.569 29.569 0 0 0-.916-.873l.916-2.119v2.992zm0-3.588l-.947 2.198v-2.512c.319.037.633.069.947.112v.202zm0-.436c-.314-.042-.628-.08-.947-.117v-.404c.394.032.713.064.947.085v.436zm0-1.629a94.43 94.43 0 0 1-.947-.096V35.5l.947.431v1.213zm11.689 2.252l-.362-.367.362-.362v.729zm-.228-.825l-.299.293-.303-.293h.602zm-1.129 0l-.298.293-.298-.293h.596zm-.463.458l-.399.404-.399-.404.399-.394.399.394zm-.666-.458l-.298.293-.298-.293h.596zm-1.128 0l-.298.293-.299-.293h.597zm.011.937h-.617l.309-.309.308.309zm-.475-.479l-.398.404-.399-.404.399-.394.398.394zm-.654.479h-.617l.309-.309.308.309zm-.011-.937l-.298.293-.298-.293h.596zm-1.186 0h.059l-.059.053v-.053zm0 .383l.324-.319.399.394-.399.404-.324-.325v-.154zm0 .49l.068.064h-.068v-.064zm2.491 3.673h-2.491V39.88h2.491v3.237zm-.31-4.088l.399-.394.399.394-.399.404-.399-.404zm.964.17l.309.309h-.617l.308-.309zm1.384 3.918h-1.453V39.88h1.453v3.237zm-.564-3.609l.31-.309.309.309h-.619zm.474-.479l.398-.394.399.394-.399.404-.398-.404zm.963.17l.309.309h-.617l.308-.309zm-.281 3.918V39.88h.809v3.236h-.809z"/></svg>