<svg xmlns="http://www.w3.org/2000/svg" width="361.463" height="133.496" viewBox="0 0 361.463 133.496"><path fill="#231F20" d="M359.892 121.151v-2.83h.233v-2.753h-.233v-9.504h.233v-.404h-.317v-4.366l-.519-1.936v-2.777l-.523-3.094v-1.299l-.375-.291v-8.415h-.135v-.867l-.424-.095v-1.986l-.272-.558-.325.499v1.198h-.291v-2.565h.138v-.729l-.177-.178v-2.253h.211v-.172h-.92l-.619-.559h-1.021l-1.177.73h-.887v1.061h-.135v.521h-.443v-.447h-.807v.582h-.559v-.617h-.312v-.346h-.769v.325h-.292v.232h-.674v.345h-1.135v-.402h-.369v-.711h-1.519v2.367h-.235v.31h.138v1.812l-.365-.268h-.175l-.189 2.388h-.138v9.359h-.201v1.32l-.638 2.657h-.333v-1.849h-.201v1.849h-.245v.867h.087v2.056l-.923-1.09v-2.717h-.297v-1.864h-.214v1.849h-.272v1.071l-.954-1.169V93.27h.216v-.754h-.206v-1.503l-.19-.208v-.833h-.108v.15h-.367l-.098-1.838-.093-.119V87l-.113-.074v-.627h.113v-.153h-.153v-.225l-.071-.087-.066.087v.225h-.153v.153h.111v.627l-.113.074v1.166l-.098.119-.096 1.838h-.367v-.15h-.106v.833l-.189.208v1.503h-.212v.754h.22v2.168l-.955 1.169v-1.071h-.277v-1.849h-.215v1.864h-.288v2.717l-.926 1.09v-2.056h.091v-.867h-.249v-1.849h-.204v1.849h-.33l-.635-2.657v-1.32h-.204V83.1h-.135l-.192-2.388h-.175l-.365.268v-1.812h.133v-.31h-.228V76.49h-1.523v.712h-.365v.402h-1.14v-.344h-.675v-.232h-.285v-.325h-.774v.346h-.307v.617h-.559v-.582h-.812v.447h-.444v-.521h-.132v-1.061h-.89l-1.174-.73h-1.021l-.616.559h-.926v.172h.212v2.253l-.172.178v.729h.132v2.565h-.291v-1.198l-.325-.499-.27.558v1.986l-.426.095v.867h-.132v8.415l-.378.291v1.299l-.519 3.094v2.777l-.017.05-2.592-.5v-.325l-1.852-.212v-4.048h-.29V92.12h-1.132l-1.825-1.653v-3.282l-.695-.756v-1.415h-1.174v.241h-.394v.259l-.89.479v.413h-5.455v-.523h-.286v-5.39l.263-.151v-.762l.259-.129v-.35h-.344v-1.762l.585-.346h.565v-.413l-1.827-1.544v-1.891h.547l-.24-.72h-.675c-.629-2.496-2.453-2.716-2.453-2.716v-.519h-.266v-.282h.266v-.786l-.416-.347v-.305h.416v-.539l-.395-.045v-4.197h-.307v4.197l-.344.105v.479h.344v.283l-.344.395v.779h.171v.371h-.324v.459c-2 .628-2.296 2.889-2.296 2.889h-.611l-.229.722h.494v1.77l-1.652 1.624v.463h.434l.638.205v1.593h-.362v.336l.216.214v.695l.463.172v5.538h-.229v.582h-3.682v-.93l-1.446-3.218v-1.449h-.41v1.449l-1.242 2.869V83.02h-3.799v-.842h-.406V79.54l-.783-.172v-1.595h-.259v1.595l-.667.234v2.576h-.32v.958h-3.504v-.78l-.522-3.134-.317 3.16v.814h-2.148v2.288h-2.809v-.725l-.381-.32v-1.19h-.343v1.163l-.347.348v.812h-2.536V84.02h-.249v.452l-.407.201-.175-.768v-2.173h.379v-.421l-.899-1.274-.275-6.935-.18 6.955-.849 1.22v.412h.302v2.237l-.259.675-.39-.177v-.432h-.22v1.544h-3.628v.39l.519.367V87.6h-3.583l-.437.192v.873h-1.063v-2.827h-.455v.368h-.37v-.325h-.391v2.088h-1.895c-.042 0 0-.349 0-.349h-.954v.37h-3.239c-.13 0 0 .41 0 .41h.428v1.489l-.754.347v.437h-1.261l-.307-.871h-1.446v-.972h-.363v-.376h.291v-.32h-1.84s-.249-.65-.929-1.433-1.841-1.2-1.841-1.2l-.129-.844-.495-1.314-.421 1.356-.129.786s-1.378.33-2.451 1.448c-1.071 1.116-.961 3.078-.961 3.078l-1.261.696v.261h.499V93.6h-.782v1.779h-1.369V94.4h-.26v1.111h-.237v-.368h-.438l-2.459-3.916h-.91v-.692l.283-.111-.065-.389-.37-.195v-.609l.171-.153.154-1.285.436-.235v-.325l-.674-.325-.328-.938-.283.957-.669.307.019.325.37.28.066 1.325.214.088v.59l-.344.237-.042.327.288.151v.695h-.579l-1.944 2.925h-1.478s-.579-.753-1.243-1.475c-.667-.728-2.047-1.42-2.047-1.42h-5.43v-.834l-.071-.468v-.315l.082-.081v-2.507h-.547v-2.178l-.328.032v-4.388h-.238l-.042.048V79.41s.093-1.471-1.534-1.471v-.138l.159-.105v-.306l-.201-.082v-.122h-.186v.122l-.203.082v.307l.156.105v.138c-1.624 0-1.528 1.471-1.528 1.471v1.182l-.045-.048h-.241v2.029a5.854 5.854 0 0 0-1.925-2.523c-.969-.729-1.902-1.044-1.902-1.044v-.164l-.267-.105v-.382h-.051l-.143-.333h-.172v-.525h-.065v.09h-.104v-.339l.031-.062v-.142l-.055-.066c0-.568-.077-.907-.35-1.265-.486-.64-1.068-.64-1.068-.64v-.13l-.047-.037v-1.361h.312l.105-.099-.111-.081h-.298v-.357l-.075-.056-.079.056v.357h-.296l-.111.081.111.099h.302v1.361l-.042.037v.13s-.583 0-1.069.64c-.271.357-.354.696-.354 1.265l-.051.066v.142l.032.062v.339h-.104v-.09h-.066v.525h-.171l-.146.333h-.053v.382l-.262.105v.164s-.936.314-1.901 1.044a5.815 5.815 0 0 0-1.928 2.523v-2.029h-.243l-.04.048V79.41s.096-1.471-1.534-1.471v-.138l.161-.105v-.306l-.206-.082v-.122h-.182v.122l-.201.082v.307l.155.105v.138c-1.623 0-1.53 1.471-1.53 1.471v1.182l-.043-.048h-.243v4.388l-.325-.032v2.178h-.548v2.507l.083.081v.315l-.046.288h-1.829v.344h.261v.701h-1.274v-1.076h-1.103v1.129l-.725.029v-4.274h-.389v-.898h-.19l-.928-6.865h-.495v.608h-.692v-4.002l.262-.492v-.982l.431-.582v-1.622h-.841v-3.974h.178v-.582l.523-.432v-1.679h-.76l-.259-2.09.177-.317v-.523h-.152v-.293l.428-.429v-2.29h-.64v-6.334l.446-.116v-1.272h.193v-.341h-.728l-.016-.17h.318v-.277h-.35l-.048-.381h.283v-.248h-.314l-.045-.407h.246v-.22h-.275l-.056-.439h.223v-.189h-.241l-.056-.467h.18v-.166h-.197l-.032-.235v-2.364h-.186V48.4l-.031.251h-.199v.166h.181l-.053.467h-.244v.189h.223l-.053.439h-.283v.22h.26l-.046.407h-.322v.248h.293l-.042.381h-.365v.277h.334l-.024.186h-.753v.333h.172v1.147l.468.188v.901l-.812-.785v-.26l.172-.259v-.35h-.172v-2.288l.375-.522V49.3h-.291v-4.345l.669-.641V42.69h.172v-1.098h-.172v-1.448h.172v-.495l-.29-.175v-1.478h-.317v1.507l-.26.23v.465h.201v.725h-.232v-.349h-.202v-4.691l.202-.495h.785v-.404h-1.003V28.81h-.462v.174h-.302v.176h-.394l-.308-2.246h.275v-.457h-.336l-.389-2.854h.285v-.46h-.344l-.391-2.854h.291v-.455h-.352l-.39-2.856h.302v-.455h-.365l-.389-2.853h.31v-.461h-.368l-.325-2.382.259-.233v-.519l-.579-.322V7.565l.304-.753.274-.204v-.42l-.331-.129V4.884l-.655-.462v-.884l.132-.307V1.293l-.27-.118V.373L180.077 0l-.368.373v.802l-.267.118v1.938l.13.307v.884l-.653.462v1.175l-.333.129v.421l.275.204.307.753v2.188l-.582.322v.519l.259.233-.322 2.382h-.373v.461h.312l-.389 2.853h-.362v.455h.302l-.389 2.856h-.357v.455h.296l-.389 2.854h-.346v.46h.283l-.386 2.854h-.341v.457h.281l-.307 2.246h-.395v-.176h-.305v-.175h-.465v6.175h-.997v.404h.783l.204.495v4.691h-.204v.349h-.233v-.725h.204v-.465l-.262-.23v-1.507h-.316v1.478l-.292.175v.495h.178v1.448h-.178v1.098h.178v1.624l.661.641V49.3h-.286v.437l.378.522v2.288h-.177v.35l.177.259v.26l-.814.785v-.899l.463-.188v-1.147h.175v-.333h-.754l-.021-.186h.336v-.277h-.364l-.045-.381h.293v-.25h-.326l-.047-.407h.259v-.22h-.283l-.051-.439h.221v-.189h-.239l-.055-.467h.185v-.166h-.204l-.029-.251v-2.349h-.188v2.364l-.026.235h-.201v.166h.18l-.056.467h-.238v.189h.215l-.053.439h-.275v.22h.251l-.053.407h-.312v.248h.286l-.048.381h-.349v.277h.314l-.021.167h-.722v.341h.188v1.272l.45.116v6.334h-.638v2.29l.429.429v.293h-.153v.523l.171.317-.259 2.09h-.753v1.679l.523.432v.582h.171v3.974h-.84v1.622l.436.582v.982l.26.492v4.002h-.695v-.608h-.495l-.733 5.461-1.322-.929v-.812l-.434-.146v-.46l.291-.404V81.4l-.666-.32-.728.465v.434l.404.492v.35l-.404.285v.785l-2.058.754V83.08h-.754v2.407l-.431.549v.233h.317v.666h-3.538v-7.13h-.577v-.986h.347v-.375h-2.232v.375h.347v.96h-.576v6.752h-.353l-.867-5.45-.785 5.593h-1.217v-1.796l.265-.316v-1.568l1.126-1.302v-.378h-1.418l-4.609-3.448v-.984l-.577-.669v-.754l.577-.494v-.635l-.783-.581-.23-.755-.232.845-.728.605.032.64.696.489v.582l-.667.727v1.04l-2.753 2.289h-1.449l-.233 1.045h-.782v-1.621h-.315v-1.044h.315v-.349h-2.087v.433h.259v1.045h-.259v5.477l-.667 1.101h-.783v.436h-4.406l-.838-9.766-.317 6.233h-.323l-.347-.841h-1.335v-1.918h.265v-.462h-.349v-1.825h.667l.81-.899h.465v-.55h-1.737s-2.93-3.247-5.331-4.752c-2.41-1.508-5.506-1.362-5.506-1.362v-.842l-.582-.728v-2.031l.434-.519v-.407l-1.073-.809-1.071.809v.35l.581.637v2.087l-.608.725v.666c-4.204 0-7.16 2.291-7.16 2.291h-.58v-.347h-.838v1.272h-3.276l-4.406 2.406h-.547l-2.613 1.886-1.476 4.839H97.08v-1.856s.027-.582-.727-1.824c-.754-1.246-2.375-1.399-2.375-1.399V74.84l.497-.282v-.455l.566-.238v-.436h-.851l-4.932-3.824v-.678l-.762-.412v-.434l.436-.481v-.389l-.785-.455-.759.434v.479l.455.497v.395l-.632.455v.607l-5.212 3.695h-.653v.372l.5.26v.542l.412.373v2.803H79.65v-.152h-3.284l-.434.523h-4.176l-5.302 3.606-5.028 13.408H55.13v.283l.828.83v3.147h.156v2.137c-.002-.009-.011-.011-.016-.019-.138-.252-.275-.664-.275-.664h.104v-1.183l-.172-.265-.444-.423v-1.319l.235-.235v-.169l-.235-.101v-.249h-.275v-.192h-1.121v.192h-.275v.249l-.232.101v.169l.232.235v1.319l-.441.423-.172.265v.048h-1.901v-.235h-1.103v.344H39.924v-1.045l.108-.185v-.376l-.293-.119v-.164l-1.229-.285.302-.386-.442-.413-.45-.108v-.159l-.116-.042v-.103l.19-.251-.106-.146-.399-.053-.103.219.077.212.026.267-.185-.018s-.732-.331-.965-1.23c-.228-.904-.172-1.414-.172-1.414h.304V93.6h.159v-.129h.084v-.117h-.693v-.809l-.714-.479v-.331h-1.611l-.007-.106-.042-.605.068-.18.151-.785.552-.153.606.127.014.619-.236.137-.013.26.262-.024.153-.415v-.813l-.55-.312-.032-.209.032-.413-.307-1.394.662.043.068-.043-.04-.095.167-.317-.138-.193-.18.045-.483-.24-.204-.26-.638.373-.328.249.413-.096v.177s-.249-.013-.289-.013c-.042 0-.209.314-.209.314l.249.071-.454.111-.151.537.495.082.265.066-.5.443-.302-.016-.714.275-.32-1.116.016-.481.222.071.083-.322-.186-.138-.171-.799-.175-.074-.251.22-.319-.391-.077-.019-.447-.379-.232-.111.021-.245.137-.212-.055-.322-.275-.09-.259.254v.177l.095.111v.108l-.468-.085-.111-.11-.505-.009v-.431l-.228-.347-.275-.103-.031-.19.114-.178-.156-.339-.249.057-.111.211.022.182.103.096.087.18-.307.142-.405.08-.494-.331v-.111l-.082-.061v-1.793l-.048-.164v-.13l-.056-.237h-.116v.504l-.735.752-.019.434.228.429.011.83.082.09-.368.561s-.103.074-.137.082c-.034.008 0 .166 0 .166l-.558 1.09v.452l-.362.81v.356s-.008.413 0 .469c.014.056-.145-.063-.145-.063v-.211l.055-.435-.138-.302v-.322l-.274-.556-.199-.362-.298.04-.051.322-.248.09h-.096l-.212.193.111.22.251.1.09.112-.028.835-.238.379-.063.521-.122.13v.33l.066.164.056.77-.056.082v.198c0 .034.249 0 .249 0l.064-.15-.064-.108v-.717h.227l.178.386.35 1.138.032.378h-1.201v.331l-.716.479v.809h-.698v.117h.09v.129h.159v.342h.304s.056.51-.175 1.414a1.907 1.907 0 0 1-.968 1.23l-.18.018.026-.267.077-.212-.103-.219-.404.053-.104.146.193.251v.103l-.117.042v.159l-.452.108-.439.413.302.386-1.23.285v.164l-.293.119v.376l.111.185v1.045H8.24v-.344H7.143v.235H5.241v-.048l-.172-.269-.439-.423v-1.319l.23-.235v-.169l-.23-.101v-.249h-.28v-.192H3.231v.192h-.274v.249l-.235.101v.169l.235.235v1.319l-.445.423-.171.265v1.183h.1s-.137.412-.272.664c-.142.245-.663.274-.663.274v2.225h-.93l-.293.045v.148l.192.103v.18H.64v.37h.762v.441l.114.063v.439l.098.119v1.451l-.246.122v.153l.108.111v.446h.077v.294h.1v.344l-.148.254-.016.423.293.24-.204 14.947-.235.241v.254h.1v.312l-.251.252v2.872l-.156.118v.302H.584v.13l-.132.137v1.077l-.452.139v.891h.138v.836l-.104.193v1.118h7.521v-2.44h.148v-.937h-.251v-.802l-.293-.991v-2.396h.23v-.42l-.243-.212v-7.799l.079-.19v-.264h-.13v-.22l.354-.148v-.193l.191-.18v-.177h-.558s-.101-2.356 1.6-4.01c1.377-1.346 3.559-1.603 3.559-1.603v.119h.579v-.119s2.188.257 3.565 1.603c1.695 1.653 1.595 4.01 1.595 4.01h-.556v.177l.193.18v.193l.352.148v.22h-.127v.264l.076.19v7.799l-.243.212v.42h.233v2.396l-.296.991v.802h-.254v.937h.153v2.44h6.644v-2.44h.153v-.937h-.256v-.802l-.292-.991v-2.396h.228v-.42l-.243-.212v-7.799l.08-.19v-.264h-.13v-.22l.355-.148v-.193l.192-.18v-.177h-.558s-.098-2.356 1.597-4.01c1.378-1.346 3.565-1.603 3.565-1.603v.119h.574v-.119s2.187.257 3.564 1.603c1.695 1.653 1.598 4.01 1.598 4.01h-.556v.177l.19.18v.193l.354.148v.22h-.129v.264l.082.19v7.799l-.249.212v.42h.23v2.396l-.291.991v.802h-.256v.937h.15v2.44h6.646v-2.44h.153v-.937h-.254v-.802l-.291-.991v-2.396h.228v-.42l-.248-.212v-7.799l.084-.19v-.264h-.132v-.22l.354-.148v-.193l.193-.18v-.177h-.558s-.101-2.356 1.597-4.01c1.381-1.346 3.565-1.603 3.565-1.603v.119h.574v-.119s2.187.257 3.565 1.603c1.698 1.653 1.6 4.01 1.6 4.01h-.558v.177l.193.18v.193l.352.148v.22h-.13v.264l.08.19v7.799l-.243.212v.42h.227v2.396l-.291.991v.802h-.254v.937h.15v2.44H361.46v-11.9l-1.568-.445zm-335.2-29.949l-.082.153-.093.381h-.209l.016-.783.066-.138-.017-.521h.144l.174.331v.577zm.074.534l-.018-.066.082-.056.074.122h-.138zm1.579-4.242v-.147h.167l-.122.455.122.121-.193.331-.193-.495.219-.265zm-.804 4.242l-.019-.243.203.011.066.232h-.25zm.502 0l-.071-.272.677-.053.011.325h-.617zm.86 0l.037-.148.138-.095.01.243h-.185zm.146-6.648l-.193.37-.108-1.225.373.426h.452l-.524.429zm1.499 1.034l.137-.209.045-.412.22.065.185-.065.244.065-.244 1.285-.256.396.072.125.1-.083.085.648h-.406v-.29l-.249-.345.067-1.18zm1.515 5.614H28.577l.042-.286.356.125.159-.138.973.096-.044.203zm.801-3.934l-.373.192-.153-.429.127-.383-.193-.704-.18-.192.207-.399.457.301.368.275v.286l-.22.404-.04.649zm1.281 3.934h-.974l-.087-.188.056-1.423.04-.204.566-.193.291.677v.604l.235.331-.127.396zm1.351-.407l-.098.164-.026.193.018.05h-.77l-.119-.396.638-1.143.357-.127-.016.677.016.582zm141.549-32.515h-.308v.302h.153v.545h-.613V55.9l.915-1.328-.147 4.242zm10.837.847h-.613v-.545h.153v-.302h-.307l-.154-4.242.921 1.328v3.761z"/></svg>