<svg xmlns="http://www.w3.org/2000/svg" width="802.832" height="219.562" viewBox="0 0 802.832 219.562"><path fill="#231F20" d="M799.5 215.322v-1.967h-3.232v-1.068l-3.029-6.758h-8.127v-1.467h-1.959l-4.207-1.863v-19.094h-.688v19.094h-4.016v-12.238h-5.283v-1.768h-2.256v-1.166h-1.561v.781h-3.234v1.562h-2.646v-1.068h-.98v-20.955h-7.928l-.879-1.865h-3.137v.688h-4.701l-.484-3.332H738.8v1.021h-5.195v-1.402h-2.152v4.008h-1.658l-.986 2.939h-2.096v-4.305h-.547v2.641h-1.908v-1.229h-.781v.98h-.93l-.248 2.596h-4.303v1.029h-1.178v1.076h-1.27v-.639h-1.42v.686h-3.137v1.467h-2.838l-1.275.885v3.912s-8.223-1.467-20.949-4.111c-10.488-2.18-28.268-19.873-30.615-22.482-2.352-2.611-19.059-24.809-38.902-28.199-19.844-3.398-50.654-39.427-54.301-42.557-3.66-3.134-25.848-13.316-37.348-16.973-11.482-3.655-39.156-23.236-39.156-23.236s-10.443-8.356-12.41-9.009c-1.951-.65-3.912-4.177-4.818-5.222-.176-.196-.514-.366-.943-.517l-.02-.21h-.377l-.592-6.119-.416-.177v-.586l-1-.396h-.033l-.289-4.087.301-.206-.158-1.939.158-.462-.355-5.588h.068l1.562-.668 1.713.048.438-.314.756-1.295.582-.041.965-.162.379-.109h.377l.123-.1.23-.079.029-.167.094-.062v-.103l-.08-.092-.65-.007-.188-.229-.926.027-.566.359-.166.059-.041-.075h-.367l-.242.124h-.984l-.104-.048-1.262.048v-.087l-.398-.281h-1.068l-.189-.096-1.289-.062s-.123-.088-.145-.108c-.02-.027-.342.048-.342.048l-.076-.812-.074-.058-.068-1.381h-.131V.508l-.273-.425-.445-.082-.445.082-.273.425v.195h-.123l-.068 1.381-.082.058-.076.812s-.322-.075-.336-.048c-.021.021-.15.108-.15.108l-1.289.062-.189.096h-1.062l-.404.282v.083l-1.273-.048-.096.048h-.992l-.242-.124h-.361l-.047.075-.166-.059-.566-.359-.926-.027-.188.229-.65.008-.072.092v.102l.088.062.025.167.24.079.115.1h.377l.379.109.973.162.574.041.756 1.295.439.314 1.711-.048 1.562.668h.295c-.033.716-.156 2.724-.156 2.724l.301.221v.335l.219.232-.066 1.374.191.456-.391 6.942h-.09l-1.01.396v.586l-.416.177-.59 6.119h-.369l-.098.869c-.334.478-.73 1.057-1.041 1.554-.648 1.042-1.961 7.181-1.961 7.181s-1.17.525-2.219 1.436c-1.043.915 0 2.484 0 2.484s-.781 4.173-1.953 6.784c-1.188 2.611 0 11.619 0 11.619s-8.752 3.005-10.709 4.701c-1.963 1.699-5.744 8.748-7.047 10.964-1.301 2.22-3.262 3.92-4.701 5.352-1.438 1.44-1.301 2.484-1.822 4.177-.525 1.699-5.881 9.792-5.881 9.792s-2.479-.126-5.09 0c-2.611.132-3.262 2.611-4.701 3.396-1.432.784-2.611.911-4.691 1.956-2.092 1.045-6.923 5.612-6.923 5.612s-3.791 2.223-5.48 2.743c-1.7.521-1.179 5.226-1.179 5.226s-4.181 1.691-7.963 6.531c-3.791 4.822-13.712 10.305-16.448 11.348-2.74 1.049-5.742 0-6.66.918-.912.912-1.439 2.084-3.659 2.604-2.213.521-8.347 5.359-8.347 5.359h-3.783v1.432h-3.536c-.521 0 0-.91 0-.91h-1.693l-1.171 1.178s-3.002.385-4.962 0c-1.959-.398-3.659-1.438-6.521-1.316-2.879.139-3.271 1.316-4.318 2.619-1.041 1.303-1.959.26-4.563-.52-2.618-.783-20.887 8.084-26.891 11.742-6.002 3.66-17.762 14.104-17.762 14.104l-12.396.713-1.047 1.701h-2.481l-.782-.783h-2.809l-1.111 1.111h-3.914v2.09h-3.789c-1.041 0 0 1.693 0 1.693h-2.083l-19.715-6.004h-4.311l-5.222 1.438h-6.522v-4.316h-2.097v2.742h-2.084v.525h-7.564l-1.961-1.568v-2.406h-2.418v2.996h-3.322l-9.21-2.996-2.344.846-6.661-4.512s-.398-2.738-8.415-16.836c-8.031-14.096-28.596-23.889-32.119-23.889-3.529 0-10.771 13.123-11.553 15.467-.788 2.352-23.107 17.035-26.636 18.996-3.526 1.961-9.728 19.586-9.728 19.586h-1.856v-1.521H76.75l-.979.592h-1.125v.836h-1.829v-24.676h-2.974l-.426-.723v-.85h.692v-.85H58.488v.781h.391v1.639H56.63l-.945 1.074v34.471h-1.81v-4.002l.24-.248v-.391l-.226-.227v-1.109h-3.235v-1.762h-2.933v.65h-1.303v1.207h-1.055l-1.301.885v6.062l-.521.232v10.055H39.82v-12.863h-2.611c-.26 0 0-1.303 0-1.303h-1.631v.975h-.72v-.451h-1.179v-.783h-.909v.658h-.918l-.644 1.043h-2.029v12.725h-4.502v-12.861h-1.5v-.852h-1.172v-.713h-1.241v1.371h-1.576v-.588h-.843v-.783h-.912v2.021h-1.24v12.404H7.442v-.721H5.229v-.719H3.002L1.7 195.64H0V219.559h802.831V215.321H799.5v.001z"/></svg>