<svg xmlns="http://www.w3.org/2000/svg" viewBox="0 0 361.464 183.72"><path d="M358.909 172.833v-7.998l-1.238-1.238v-1.98h-2.144V147.1l-2.31-2.804h-5.444v-4.949h-2.253v-21.718h-1.32v-5.169h-10.777v5.719l-1.759.879v12.536h-9.348v-2.089h-6.158v9.239h-2.529v-4.839h-1.32v-13.417h-12.647v-15.175h-1.1v.77h-5.609v-4.948l-.55-.551v5.389h-.66V91.346h-1.099v14.736h-3.628l-4.4 1.979v.88h.991v1.208h-1.209v22.765h-10.007v11.217h-2.969l-2.751-5.83v-1.539h-10.996v3.409h-4.179v2.97h-1.65v2.419h-2.309v1.209h-2.53v2.474h-3.215v2.97h-1.815v-1.65h-.907l-2.887-3.96h-7.507v.495h-3.132v1.32h.74v1.897h-4.863v1.567h-1.979v3.958h-.661v5.667h-1.566v-.228h.153v-1.197h-.153v-.285h.153v-1.196h-.153v-.285h.153v-1.198h-.153v-.206h-2.146v-.743h-1.155v-2.31h-1.257v-.161h-1.862v.161h-.399v-.161h-1.861v.161h-.399v-.161h-1.86v.161h-.403v-.161h-1.86v.161h-.399v-.161h-1.861v.161h-.208v-.988h-6.68v1.484h-.577v-2.228h-.743v-9.733h.743v-2.391h-4.289v-1.65h-1.321v-.741h-20.702l-1.318 1.979v.123h-.204v.512h.204v.314h-.204v.512h.204v.315h-.204v.512h.204v.312h-.204v.515h.204v.312h-.204v.514h.204v.312h-.204v.514h.204v.312h-.204v.515h.204v.313h-.204v.512h.204v.314h-.204v.513h.204v.312h-.204v.515h.204v.312h-.204v.512h.204v.314h-.204v.515h.204v.313h-.204v.512h.204v.313h-.204v.514h.204v.313h-.204v.513h.204v.312h-.204v.513h.204v.314h-.204v.513h.204v.314h-.204v.513h.204v.314h-.204v.512h.204v.313h-.204v.512h.204v.313h-.204v.514h.204v.313h-.204v.514h.204v.313h-.204v.513h.204v.314h-.204v.512h.204v.312h-.204v.513h.204v.314h-.204v.513h.204v.314h-.204v.513h.204v.313h-.204v.511h.204v.314h-.204v.514h.204v.313h-.204v.512h.204v.313h-.204v.514h.204v.313h-.204v.514h.204v.313h-.204v.512h.204v.315h-.204v.511h.204v.315h-.204v.513h.204v.312h-.204v.146h-1.117v2.804h-1.897v-.414h-1.319v1.321H159.4v3.297h-1.164v-38.683h-1.976v-2.887h-.25l-2.141-55.506 3.145-.257 1.134-1.426v-.476l-.549-.769v-.328h-.511l1.424-1.462v-1.939h-.255v-.476h.513v-.915l-2.341-2.668v-1.901h.218v-.804h-3.453v-1.885l.309-.31v-1.792l-1.059-.805-.282-20.149.721-1.207v-1.098l-.75-.657v-1.062l-.549-.438V22.472l-.286-.334v-5.644l-.24-.281V9.776l-.271-.317V3.803l-.167-.194V.537L150.282 0l-.332.537v3.072l-.168.194v5.656l-.272.317v6.436l-.238.281v5.644l-.288.334V35.9l-.545.438V37.4l-.752.657v1.098l.719 1.207-.278 20.149-1.062.805v1.792l.312.31v1.885h-3.457v.804h.217v1.901l-2.339 2.668v.915h.512v.476h-.255v1.939l1.426 1.462h-.512v.328l-.548.769v.476l1.134 1.426 3.145.257-3.079 79.804-.359-.168h-3.572v2.015h-2.812v1.977h-3.495v-.608h-2.358v.685h-1.216v-23.485l-2.888-1.9h-1.824v-2.812h-3.953v2.126h-.456v-1.063h-.76v1.9h-.683v-.608h-.683v.532h-1.521l-.38 20.671s-12.237-8.738-27.74-8.738c-15.504 0-26.525 7.675-26.525 7.675v-6.84h-9.424v13.528l-1.445.988v.913h-1.899v.685H47.73V152.85h-5.552v-.165h-5.045v.165h-.198v-3.669h-.171v3.669h-.229v-.849h-.826v.849h-.52v.519h-.135v1.369h.135v.599h-.135v1.367h.135v.598h-.135v1.369h.135v.598h-.135v1.369h.135v.598h-.135v1.369h.135v.598h-.135v1.37h.135v.598h-.135v1.369h.135v.598h-.135v1.369h.135v.598h-.135v1.304h-1.461v-26.524h-5.32v-.76h-.835v-1.141h-.913v1.064h-.685v-.683h-3.951v-.381h-1.292v.685h-1.37l-1.215 1.216h-.911v6.004h-5.092v1.292h-1.9v-.305H6.231v-.457H.685v27.515H0v1.062h.685v4.726h360.779v-10.887h-2.555zM218.78 162.195h-1.566v-.323h1.566v.323z"/></svg>