<svg xmlns="http://www.w3.org/2000/svg" viewBox="0 0 358.418 159.07"><path d="M355.702 132.017v-1.4h-6.562l-.779-.545v-7.915l-.312-.305v-3.073l.297-.378v-.702h-.131v-.641h.248v-.398l.381-.052v-.944h-.725l-1.447-.725v-.545l.272-.293v-.819h.521v-.587h.34v-.378h-.34v-.388l-5.241-2.533v-2.371l-.313-.557v-2.602l.176-.173.025-.514-.168-.223s.225-.125.446-.907c.217-.78-.649-1.463-1.097-1.823-.438-.362-.621-.986-.621-.986v-1.814l.201-.305-.201-.404.291-.486-.309-.252v-1.022h.348l.111.083.215-.052.115-.189-.115-.178-.199-.053-.119.115h-.412v-.078l.115-.101v-.366l-.233-.147-.235.147v.366l.121.101v.078h-.418l-.117-.115-.193.053-.127.178.127.189.207.052.115-.083h.346v1.022l-.307.252.293.486-.203.404.203.305v1.814s-.184.624-.623.986c-.443.36-1.312 1.043-1.094 1.823.221.782.442.907.442.907l-.162.223.021.514.174.173v2.602l-.312.557v.688l-1.559-.75-.123-.174s.213-.126.431-.881c.216-.756-.635-1.427-1.062-1.771-.428-.348-.605-.967-.605-.967v-1.762l.196-.294-.196-.394.286-.478-.302-.241v-.997h.338l.113.084.201-.053.119-.178-.119-.179-.191-.059-.112.109h-.403v-.072l.112-.095v-.356l-.231-.143-.225.143v.356l.109.095v.072h-.401l-.114-.106-.191.059-.064.094-.029-.03s.359-.2.713-1.459c.355-1.248-1.047-2.354-1.754-2.938-.715-.576-1.002-1.583-1.002-1.583l-.082-1.857.242-.367-.242-.481.35-.582-.369-.3V87.96h.418l.135.096.25-.063.145-.22-.145-.222-.233-.067-.142.141h-.498v-.095l.145-.115v-.43l-.285-.185-.281.185v.43l.144.115v.095h-.491l-.145-.142-.232.067-.145.222.145.22.251.063.136-.096h.414v1.217l-.371.3.352.582-.24.481.24.367-.08 1.857s-.289 1.007-.997 1.583c-.714.583-2.112 1.688-1.761 2.938.357 1.259.711 1.459.711 1.459l-.193.262a8.373 8.373 0 0 0-.33-.272c-.441-.356-.619-.985-.619-.985v-1.814l.199-.305-.199-.397.291-.487-.312-.258v-1.019h.353l.112.079.207-.048.121-.188-.121-.179-.192-.062-.119.115h-.416v-.073l.121-.095v-.367l-.236-.151-.236.151v.367l.117.095v.073h-.411l-.12-.115-.193.062-.125.179.125.188.209.048.113-.079h.348v1.019l-.309.258.293.487-.201.397.201.305v1.814s-.181.629-.621.985c-.443.362-1.316 1.05-1.094 1.826.221.78.438.906.438.906l-.162.221.023.51.176.178v2.603l-.312.557v3.398l-.595.372-.104-.18v-2.533l.168-.173.025-.498-.162-.21s.219-.126.434-.887c.213-.755-.635-1.427-1.062-1.777-.434-.347-.607-.955-.607-.955v-1.763l.192-.299-.192-.395.287-.472-.304-.252v-.986h.335l.115.074.203-.053.117-.179-.117-.179-.189-.053-.117.115h-.404v-.084l.121-.084v-.361l-.233-.142-.226.142v.361l.111.084v.084h-.404l-.113-.115-.192.053-.12.179.12.179.208.053.109-.074h.338v.986l-.301.252.279.472-.193.395.193.299v1.763s-.173.608-.604.955c-.426.352-1.275 1.022-1.061 1.777.215.761.426.887.426.887l-.16.21.025.498.172.173v2.533l-.31.541v2.15l-.226.199-3.644 2.899v.409l-.198.226v.294h.225v.293h.541v3.373l-.949.562v.283l.408.314.019.473h.522v2.213l-.227.613v.636h.227v.54l-.65.305v-1.317l-2.363-2.328h-2.826v-.462l-.571-.336v-.976h-.487v.976l-.627.398v1.139h-4.973v-.741l-5.342.566v-6.86h-.588v-4.259l-1.814-7.506-.58-.907v-2.267h-.585v1.878l-.646.514v1.429l-8.799.192-4.143-3.234-41.32.612v-8.024l.417-.515V90.76l-.375-.179v-.923h.907v-.229l-1.852-2.603-.199-1.018v-.546l.104-.146v-.356l-.119-.114-.082-.852h-.145l-.098.871-.135.131v.343l.135.178v.481l-.209.661h-1.299l-1.973-2.392v-1.375h-.393v.851l-5.396-6.235v-.684l-.159-.377v-1.102l.159-.138v-.377l-.388-.355v-3.073l-.121-.011-.098.115c-.242.03-1.387-.104-1.387-.104s-.18.965-.093 1.139c.084.174 1.479.048 1.479.048v1.908l-.278.356V75l.168.157v1.08l-.241.439v.577l-4.369 4.83-.605-3.64h-.385v3.52l-.854-.582-2.522-36.354-3.189 36.028h-.156l-.182-.729h-.404l-.209-1.992h-.129l-.375 1.814-4.248-7.764v-.691l-.302-.389v-.199l.188-.179v-.193l-.199-.194-.154-2.202.154-.163-.162-.215-.121-1.385-.098 1.385-.154.222.154.156-.138 2.193-.221.22v.18l.208.188v.188l-.317.413v.667l-7.86 12.729v-1.186l-.19-.398v-.923h-.246v.472l-.485-.733v-1.998h-1.043v2.014s-.533.75-.533.708v-.378h-.221v.871l-.275.439v1.848l-.174.188v.451h.174v3.032l-.287.318v.278h.176v1.164l-.436.436v1.139l.652.607v11.287h-.265v.432l-1.335 1.897h-1.436v1.699l-1.988 2.738h-.743v.262l.435.436v.503l.311.175v.859l-.756.87.199.194v3.204l-.514.487h-.559l-.41-.413v-.877h-.268v1.363h-.391v.751l-.605.22v.804h-3.14v-.325h-1.485v.325h-.466v-.121h-1.511v.121h-.484v.184h-.205v-.305h-1.511v.305h-.688v-.305h-1.512v.305h-.363v1.091h-1.543l-1.604 1.596-1.697.052v-.408h-1.092l-1.502-1.002v-4.233h.302l-.302-.934h-1.414v-.319l-.91-1.212h-.366v-1.013h.152v-.351h-.152v-.913h.181v-.252l-.577-.582v-1.411h-.215l-.44-1.604v-.258l.184-.162-.26-.672v-.262h-.149v.294l-.26.618.121.157v.283l-.394 1.584h-.215v1.4l-.533.487v.24h.215v1.023h-.109v.32h.152v1.521l-6.709-3.242v-5.023h.139v-.562l.168-.09v-.3l-.674-.535v-3.913h.157v-.313l-.356-.552v-.943h.142v-.394l-.335-.179-1.37-5.434v-.246l.21-.273-.406-.666-.333.635.181.241v.294l-1.51 5.418-.289.105v.312h.168v.918l-.394.54v-.514h-.123V99.57h.152v-.157l-1.002-1.064v-2.466h.226v-.408h.157v-.258h.283v-.367l-5.219-.87h-.59v-1.699h.988v-.079h-.988v-1.105h-.184v1.105h-.994v.079h.994v1.699h-.596l-5.218.87v.366h.288v.258h.157v.408h.226v2.466l-1.005 1.064v.157h.152v1.332h-.126v.514l-.394-.54v-.918h.168v-.312l-.289-.105-1.507-5.418v-.294l.183-.241-.333-.635-.414.666.216.273v.246l-1.372 5.434-.331.179v.394h.137v.943l-.354.552v.313h.154v3.913l-.668.535v.304l.167.09v.562h.137v5.023l-6.714 3.242V114.1h.157v-.32h-.11v-1.023h.216v-.24l-.535-.487v-1.4h-.21l-.396-1.584v-.282l.12-.158-.257-.618v-.294h-.152v.262l-.263.672.189.162v.258l-.445 1.604h-.213v1.411l-.577.582v.252h.179v.913h-.152v.351h.152v1.013h-.362l-.91 1.212v.319h-1.419l-.296.935h.296v5.065l-.296.368v.388h.296v3.042h-.854v.524h-1.148v-1.28h-.265v4.039l-2.4 2.885v-.713l-3.336-.859v-1.386h-2.426v.479h-5.675v-1.427h-4.956l-1.38-1.862V125h-.431v1.433h-1.664v-1.238h-3.478v1.427h-6.339v-.577h-1.191v1.271L92.3 129.96h-.145l.078-77.872-.534-.85.534-11.408-1.208-.582.358-7.249h-.715l.268-12.976-.803 2.191V9.841l-.627-2.555-1.164 3.451V7.873l-.494-1.883L87.046 0h-.941s-2.594 5.009-3.446 5.009c-.85 0-3.621 1.434-3.621 1.434s-5.101 10.202-5.696 13.663c-.601 3.456-4.178 10.735-5.253 12.048-1.07 1.315-4.075 20.786-5.759 27.426-1.036 4.104-.907 5.424-1.565 2.654-.108-.462-1.92 3.614-2.396 3.577-1.018-.068-.522-4.941-.85-3.978-1.598 4.731-2.995 11.571-3.801 15.914.016 1.741-1.018 10.4-2.348 12.362a4.106 4.106 0 0 1-.915.97c-.087.263-.833 4.443-1.185 5.45.115 3.116.225 6.236.358 9.347.124.692.224 1.385.247 2.118.008.305.008.604.014.908l.039-2.628.08-.137.176 12.378.182-12.944.186-8.066.123 8.933.13-9.341.149-.241.159 11.686.171-12.215c.025-.059.103-.194.21-.395l.112 8.286.121-8.722c.062-.121.129-.247.199-.378l.152 11.198.16-11.791c.072-.137.146-.283.225-.43l.105 7.898.112-8.319c.079-.156.16-.304.241-.467l.149 10.899.147-11.481c.081-.151.16-.304.235-.462l.108 7.627.104-8.046c.089-.179.179-.356.265-.535l.142 10.741.149-11.329.244-.503.1 7.511.105-7.931c.092-.205.188-.404.279-.604l.14 10.777.147-11.401c.086-.188.167-.384.246-.562l.097-1.836.11 1.044c.105-.272.202-.524.275-.745l.145 11.234.168-13.145c.05-.619.117-1.385.184-2.233l.139 11.065.191-14.922c.034-.346.065-.691.102-1.026l.231 18.456.273-21.776.223 17.461.236-18.95h.005l.265 21.636.272-21.846h.003l.217 17.523.219-17.565h.021l.252 20.461.246-20.429h.047l.194 16.106.199-16.045c.01 0 .021.012.034.012l.229 19.17.23-19.061c.031.005.062.017.086.021l.176 14.723.163-13.338.071.362.19 16.38.173-14.45.21 1.122.11 9.017.095-7.957.157.839.131 10.826.107-9.571.338 1.788.045 3.468.035-3.063.19 1.002.092 8.324.087-7.396.098.53.025 2.286.023-2.019.25 1.295.008.99.012-.881.035.179.257-1.332v.36l.008-.402c.016-.096.036-.188.056-.288l.039 3.367.047-3.804c.021-.142.053-.289.082-.445l.07 5.969.073-6.719c.112-.566.233-1.206.364-1.89l.053 4.291.045-4.013.055 4.685.07-6.095c.231-1.17.482-10.386.756-11.76l.09 7.868.104-8.85c.043-.229.096-.462.137-.691l.074 6.271.084-7.054c.217-1.086.442-2.219.676-3.362l.131 11.172.145-12.536.286-1.385.123 10.439.134-11.697c.189-.923.386-1.841.574-2.758l.181 15.204.194-16.982c.126-.577.249-1.147.37-1.715l.179 15.221.195-16.946c.155-.707.311-1.405.463-2.082l.23 19.778.257-21.908c.131-.576.265-1.139.394-1.674l.236 20.325.256-22.333c.127-.467.239-.908.347-1.312l.286 24.399.312-26.383c.053-.168.108-.325.157-.461.071-.184.15-.383.229-.599L72.3 63.48l.31-26.214c.081-.231.168-.462.26-.708l.322 27.677.344-29.455c.118-.315.232-.64.359-.96l.33 28.274.352-30.054c.058-.146.115-.293.173-.444l.367 31.255.386-33.154c.089-.215.178-.44.268-.666l.383 32.571.401-34.448c.023-.06.05-.116.073-.179l.411 35.383.438-37.313c.021-.053.05-.114.076-.173l.433 37.329.442-37.785.449 38.54.059-5.135.062 5.387.442-37.785.448 38.54.063-5.479.079 6.341.438-37.796.448 38.546.063-5.345.078 6.697.438-37.778.449 38.528.056-4.705.076 6.467.441-37.79.448 38.535.042-3.588.068 5.644.438-37.779.448 38.535.023-1.972.05 4.23.44-37.674.476 40.79.408-35.062.443 38.184.031-2.728.006.355.341-29.257.401 34.644.07-5.801.042 3.535.263-22.622.322 27.72.11-9.352.084 7.274.175-14.976.231 19.591.155-13.442.136 11.66.073-6.357.121 10.291.173-14.744.188 16.401.039-3.241v.188l.071-5.963.116 10.075.039-3.168.039 3.546.126-10.658.097 8.318.171 2.654.194 16.396.105-9.199.119 10.271.037-3.179.042 3.556.052-4.489.793 21.158h-2.421v-.624H84.82l-.956 1.432h-6.957v-.859h-.949l-.81-1.521H64.424v1.049h-2.572v-.481h-6.719l-1.12-1.112h-2.407l-3.719 2.785v.949h-3.188l-2.67 2.77-5.575-3.481h-1.238v-.525h-5.004v.578h-8.337v-.672h-1.001v-1.049H17.49v.477H6.722v4.434h-.666v.808h-2.72v10.154h-.905l-1.667 1.332H0v12.683h358.418v-27.054h-2.717v-.005zm-213.83-11.938h-6.549s-.112-1.897 2.502-4.063c1.61-1.332 3.91-1.297 3.91-1.297v.823l-.136.185v.394l.136.143v.378h.137v3.437zm28.372 0h-6.553v-3.439h.136v-.379l.137-.142v-.394l-.137-.185v-.823s2.303-.035 3.91 1.297c2.62 2.167 2.507 4.065 2.507 4.065zm165.217-20.077l-.301.241.284.478-.192.394.192.294v1.762s-.173.619-.604.966c-.055.042-.113.096-.18.146v-4.08l.281-.278.034-.822-.021-.032.055.021.113-.084h.338v.994z"/></svg>