<svg xmlns="http://www.w3.org/2000/svg" width="640.416" height="197.428" viewBox="0 0 640.416 197.428"><path fill="#231F20" d="M634.799 138.164v-.633h-1.258l-1.137-1.895h-4.145v-9.344l.297-.25.22-.536h.627v-.442l-.333-.314v-.412l-.956-.473c-1.143-4.228-8.292-6.375-8.292-6.375v-2.933l.554-.254v-.349l-.849-.379s-.038-.44-.775-1.418c-.731-.979-1.771-.949-1.771-.949V110.2l-.272-.41v-.316h.272v-.377h-.365v-.793l-.181-.344-.186.344v.793h-.373v.377h.284v.316l-.284.41v1.008s-1.026-.029-1.765.949c-.738.978-.776 1.418-.776 1.418l-.849.379v.349l.554.254v2.933s-5.013 1.508-7.312 4.481h-1.605v-.601l-2.27-8.771-.382 8.771h-22.528l-1.642-9.781-.818 9.72h-4.798v.758h-3.22v2.778l.627.439v1.387h.636v3.473l-7.138 1.705v-1.137l-3.215-.125v.757h-5.24v-2.337l-4.166-1.514-9.404 2.336h-33.83l-10.353 2.521h-3.53v-1.828l1.453-.693v-.945h1.258v-.445l.819-.945h-4.542v-1.324h-1.365v-.82l-.297-.292v-1.81l.63-.34v-.379l-.312-.433v-.726l-.384-.282v-.854l-.913-.79.061-.345h.603v-.476l-.728-1.766v-1.199h-.535l.017 1.246-.646.645v-1.734l.377-.443v-.727l-.22-.503v-1.009l.312-.508v-.471h-.345v-.82l.377-.601h.508v-.345h.471v-.35l-1.547-.916v-.635h.252v-.344l-.597-.316v-.754l-.382-.252v-.41h.382l-.476-1.073v-.761h-.535v.635l-.63 1.229h.312v.381l-.504.219v.66l-1.043-.441v-4.069l.284-.347h.35v-.348l-2.623-1.514-.635-1.232v-.409h.351l-.438-.884v-.948h-.509v.948l-.441.884h.349v.409l-.633 1.232-2.619 1.514v.348h.352l.277.347v4.069l-1.038.441v-.658l-.503-.219v-.38h.316l-.633-1.229v-.635h-.536v.761l-.478 1.073h.378v.411l-.378.25v.754l-.595.317v.345h.252v.635l-1.553.914v.351h.475v.345h.51l.383.602v.82h-.355v.469l.316.509v1.009l-.219.503v.728l.379.442v1.734l-.646-.646.011-1.246h-.534v1.201l-.721 1.764v.246l-.465-.383h-.3v-1.809h-.372v-4.271h1.195v-.25h-1.195v-1.098h-.383v1.098h-1.197v.25h1.197v4.271h-.312v1.809h-.315l-.071.063-.698-1.69v-1.201h-.536l.018 1.246-.646.646v-1.734l.378-.442v-.728l-.22-.503v-1.009l.317-.509v-.469h-.351v-.82l.377-.602h.508v-.345h.472v-.351l-1.542-.914v-.635h.251v-.345l-.602-.317v-.754l-.382-.25v-.411h.382l-.475-1.073v-.761h-.531v.635l-.634 1.229h.316v.38l-.514.219v.662l-1.038-.442v-4.069l.284-.347h.351v-.348l-2.618-1.514-.634-1.232v-.409h.344l-.438-.884v-.948h-.503v.948l-.447.884h.351v.409l-.636 1.232-2.617 1.514v.348h.345l.29.347v4.069l-1.045.442v-.662l-.502-.219v-.38h.316l-.634-1.229v-.635h-.536v.761l-.471 1.073h.372v.411l-.372.25v.754l-.601.317v.345h.252v.635l-1.549.914v.351h.471v.345h.51l.376.602v.82h-.344v.469l.311.509v1.009l-.219.503v.728l.378.442v1.734l-.645-.646.011-1.246h-.536v1.201l-.721 1.764v.477h.596l.064.346-.911.789v.854l-.385.283v.725l-.315.432v.381l.633.338v1.811l-.294.292v.667L451 127.815v.628l-3.219 1.393v1.008l-3.187.798v-2.629l.661-.252v-.502l.47-.351v-.758l-1.163-.757v-.944l.376-.158.164-.729-.382-.314s-.853-4.924-2.366-8.363c-1.515-3.439-5.57-5.992-5.57-5.992v-1.184h-2.432l-.805-.383.303-.203.143-.631-.378-.33.187-3.946.315-.427.101-.359-.536-.461s-.1-1.025-.907-2.051c-.804-1.024-2.044-1.071-2.044-1.071v-.237l.307-.172v-.29l-.341-.487v-2.064h.838v-.396h-.902v-.645l-.092-.225-.1.225v.645h-.896v.396h.836v2.064l-.337.487v.29l.306.172v.237s-1.246.047-2.056 1.071c-.799 1.025-.896 2.051-.896 2.051l-.536.461.094.359.312.427.189 3.946-.377.33.143.631.307.203-.81.383h-2.433v1.184s-4.057 2.553-5.569 5.992c-1.52 3.439-2.366 8.363-2.366 8.363l-.376.314.157.729.378.158v.944l-1.171.757v.758l.476.351v.502l.663.252v3.345h-3.019v-1.006h-2.186v-1.348h-.93v-2.439h-.592v-3.957l.428-1.348h.584v-1.43h-.836v-2.523h-.591V91.624h.673v-1.262h-.509v-3.28h.93v-1.014l1.094-.587.088-1.769h1.289V81.45h-.82v-.473h-1.194v-.376h.501v-.667l-.945-.188-.787.35h-.447l-.312-.538V76.56l.662-1.229v-.728h-.41v-1.074h-1.076l.065-.533-.503-.505v-.284l.408-.188.028-.76-.755-3.785.382-.568.028-.538-.284-.602V53.902l.945-.508v-4.009h.567v-1.071l.854-.473v-1.104h-2.459v-1.17l-.159-.439v-1.64l.378-.161v-1.321h-.35v-.474l-.756-.253s.351-.599.383-.949c.032-.344-.602-.69-.602-.69s.1-.477-.219-.949c-.316-.47-1.579-.975-1.579-.975v-1.769l.503-2.399h-2.017s-.477-.697-1.051-1.609c-.562-.918-2.519-1.831-2.519-1.831v-.599l-.913-.635v-.344h.568v-.443h-.95v-.564l-1.171-.446v-4.763l.351-.505v-1.011s.692-.632.944-1.355c.258-.727-1.479-.981-1.479-.981s.251-.406 0-1.042c-.252-.631-2.176-1.07-2.176-1.07l-.1-.41.761-.535-.574-8.551s.434-.257.434-.759c0-.507-.651-.729-.651-.729v-.727l.219-.284v-.408l-.151-.35V1.735h1.452v-.38h-1.52V.348L394.189 0l-.22.348v1.008h-1.52v.38h1.454v1.861l-.159.35v.407l.225.284v.727s-.65.222-.65.729c0 .502.427.759.427.759l-.562 8.551.755.535-.101.41s-1.924.439-2.176 1.07c-.25.635 0 1.042 0 1.042s-1.736.255-1.479.981c.251.725.945 1.354.945 1.354v1.012l.351.505v4.763l-1.169.446v.564h-.952v.443h.568v.344l-.913.635v.599s-1.956.912-2.524 1.831c-.568.912-1.044 1.608-1.044 1.608h-2.017l.503 2.4v1.769s-1.263.505-1.574.975c-.323.473-.225.949-.225.949s-.635.347-.603.69c.034.351.384.949.384.949l-.754.253v.473h-.351v1.322l.384.161v1.64l-.165.439v1.17h-2.459v1.104l.853.473v1.071h.567v4.008l.939.508v11.865l-.283.602.038.538.378.568-.761 3.785.033.76.409.188v.284l-.503.505.061.533h-1.07v1.074h-.41v.728l.662 1.229v2.998l-.317.538h-.443l-.786-.35-.944.188v.667h.507v.376h-1.201v.473h-.819v2.263h1.289l.088 1.769 1.094.587v1.014h.929v3.28h-.509v1.262h.672v19.523h-2.647v-1.26h.375v-.633h-.982v-1.242l-.235-.21v-.231h.553l-.723-3.45.781-.926-.038-1.2-1.016-1.492h-.482v-.465l.209-.713-.504-.421-.655.336.154.694-.045.377-.633.231-.355 1.369-.252.377v.822l-.302.879-.246 3.16-.315.251.332.4-.059 1.432h-.864v.633h.339v1.112h-.339s-2.114 3.862-6.688 2.914-10.521-4.299-10.729-9.309c-.209-5.009 0-13.005 0-13.005l.886-.673v-.844l-.339-.376v-.673l-.252-.21.333-.887s-.672-1.47-.376-2.229c.295-.754 1.219-1.345 1.219-1.345h1.011l.459-1.223h.383v-1.812h-.635l-.583-.754h-1.308l-4.296-1.643v-.798h-.372v-3.998h.637v-.926h-.265v-.295h-.372l-.402-.798-.549-.377v-.443l.568-.254.109-.399-.678-4.227.209-.317v-.456h-.838v.423l.215.399-1.1 4.102.213.481.502.295v.402l-.522.333-.443.947h-3.679l-.469-.841-.438-.295v-.546l.694-.358.257-.438-.825-4.08.251-.276v-.546h-.819v.587l.19.254-1.055 3.788.127.439.484.486v.713l-.484.272-.373.82h-.338v.357h-.318v.483h.606v1.304l-5.848-2.573-.535.188-6.723-2.714v-.819l-.411-.757.252-3.757h.316v-.628l-.316-.473v-.445l-.186-.188-.066-.916-.568-.633v-.377h.535l-.119-3.691-.766-1.769h-1.484V54.47l.633-.629h1.361v-.822h-1.264l-.503-.569v-1.2H324.073v1.2l-.502.569h-1.268v.822h1.354l.633.629v1.104h-1.485l-.754 1.769-.127 3.691h.536v.377l-.567.633-.063.916-.188.188v.445l-.315.473v.629h.315l.252 3.757-.409.757v.819l-6.722 2.714-.537-.188-5.849 2.573v-1.304h.613v-.483h-.32v-.357h-.336l-.377-.82-.483-.272v-.714l.483-.486.126-.439-1.05-3.788.188-.254v-.587h-.824v.546l.253.276-.817 4.08.255.438.694.358v.547l-.445.295-.465.841h-3.681l-.441-.947-.526-.333v-.404l.51-.295.207-.481-1.094-4.102.209-.399v-.423h-.844v.462l.213.317-.672 4.227.102.399.57.254v.443l-.546.377-.403.798h-.379v.295h-.248v.926h.627v3.998h-.379v.798l-4.291 1.643H293.5l-.591.755h-.629v1.812h.378l.462 1.223h1.011s.924.591 1.223 1.345c.291.76-.381 2.229-.381 2.229l.336.887-.254.21v.673l-.336.376v.844l.887.673s.209 7.996 0 13.005c-.211 5.01-6.156 8.359-10.732 9.309s-6.689-2.914-6.689-2.914h-.336v-1.113h.336v-.632h-.861l-.064-1.432.34-.4-.316-.251-.254-3.16-.292-.879v-.822l-.252-.377-.357-1.369-.634-.231-.038-.377.146-.694-.654-.336-.503.421.212.713v.465h-.484l-1.014 1.492-.039 1.2.775.926-.715 3.449h.547v.232l-.229.21v1.243h-.987v.632h.377v1.26h-2.65v-19.53h.675v-1.262h-.507v-3.28h.926v-1.014l1.092-.587.088-1.769h1.291V81.45h-.818v-.473h-1.202v-.376h.503v-.667l-.939-.188-.791.35h-.445l-.313-.538V76.56l.663-1.229v-.728h-.409v-1.074h-1.073l.062-.533-.504-.505v-.284l.409-.188.033-.76-.758-3.785.381-.568.029-.538-.286-.602V53.902l.947-.508v-4.009h.571v-1.071l.85-.473v-1.104h-2.459v-1.17l-.16-.439v-1.64l.383-.161v-1.321h-.35v-.474l-.761-.253s.348-.599.38-.949c.033-.344-.602-.69-.602-.69s.098-.477-.219-.949c-.312-.47-1.576-.975-1.576-.975v-1.769l.504-2.399h-2.021s-.47-.697-1.039-1.609c-.571-.918-2.531-1.831-2.531-1.831v-.599l-.909-.635v-.344h.566v-.443h-.945v-.564l-1.17-.446v-4.763l.348-.505v-1.011s.696-.632.947-1.355c.254-.727-1.484-.981-1.484-.981s.253-.406 0-1.042c-.25-.631-2.174-1.07-2.174-1.07l-.095-.41.76-.535-.571-8.551s.429-.257.429-.759c0-.507-.648-.729-.648-.729v-.727l.219-.284v-.408l-.155-.35V1.735h1.45v-.38h-1.514V.348L255.088 0l-.225.348v1.008h-1.511v.38h1.452v1.861l-.158.35v.407l.217.284v.727s-.646.222-.646.729c0 .502.428.759.428.759l-.567 8.551.754.535-.095.41s-1.927.439-2.175 1.07c-.254.635 0 1.042 0 1.042s-1.739.255-1.487.981c.257.725.952 1.354.952 1.354v1.012l.346.505v4.763l-1.169.446v.564h-.946v.443h.565v.344l-.915.635v.599s-1.955.912-2.523 1.831c-.568.912-1.041 1.608-1.041 1.608h-2.023l.509 2.4v1.769s-1.266.505-1.579.975c-.315.473-.225.949-.225.949s-.629.347-.598.69c.033.351.382.949.382.949l-.762.253v.473h-.344v1.322l.379.161v1.64l-.158.439v1.17h-2.461v1.104l.853.473v1.071h.565v4.008l.947.508v11.865l-.284.602.031.538.38.568-.758 3.785.029.76.413.188v.284l-.505.505.062.533h-1.071v1.074h-.413v.728l.665 1.229v2.998l-.314.538h-.445l-.787-.35-.946.188v.667h.506v.376h-1.203v.473h-.817v2.263h1.292l.083 1.769 1.095.587v1.014h.926v3.28h-.506v1.262h.676v26.678h-.59v2.523h-.842v1.43h.587l.42 1.348v3.957h-.586V130h-.926v1.348h-2.19v2.355h1.178l.422 1.853h.759l1.178 3.03v2.604h-.76v1.771l.76.588v1.43l.462.462v3.767h-7.296v-9.557h-1.558v-8.111s.667.334.667 0v-3.556l1.111-1.11v-1h-1.111v-4.557H212.62l-1.331 1.336h-7.166v-6.113h-12.501v6.113H116.174l-1.33-1.336H95.839v4.557h-1.108v1l1.108 1.11v3.556c0 .334.667 0 .667 0v8.111h-1.017v-.392h-.51v-4.47h-.646v4.442h-.648v1.937h-.536v-6.729h.342v-4.649h-.898v-1.92h.142v-1.33h-.249v-.791h.145v-.844h-.271v-.932h.142v-.646h-.251v-.97h-.307v.97h-.216v.646h.093v.915h-.396v.772h.109v1.004h-.216v1.186h.142v1.902h-.771v4.594h.284v6.861h-.499v-2.155h-.432v-4.274h-.574v4.311h-.576v2.334c0 .216-.432 0-.432 0v-.539h-.713v4.67h.322v3.654h-4.017l-4.408-7.836v-3.498h.484v-1.078h-1.131v-1.077h.231v-.403h-.256v-.501h-.405v.501h-.323v.348h.323v1.092h-.984v1.074h.645v3.595l-4.418 7.784h-.104v-17.983l1.006-.933V129h-1.006v-2.299h-.86v-10.988h.86l-.719-5.383h-.932l-1.221-8.759s-.826 7.001-1.006 7.179c-.181.182-1.077 0-1.077 0v-9.479L67.01 88.682l-1.366-1.005v-1.293l-.771-1.76v-4.225l.699-.432.038-.971h1.293v-.57l.607-.396-3.151-1.005-2.165-1.582V61.062l-.442-.593v-.968l-.989-2.334.557-.611v-.828l-.762-.895v-.753l.382-.216v-1.077l-.499-.467v-1.505l.499-.254v-.648l-.767-1.038v-1.041l.53-.359v-.646l-.53-.718v-1.328l.268-.287v-.79l-.532-1.078v-2.691l-.268-.289-.265.289v2.691l-.53 1.077v.79l.267.287v1.328l-.533.718v.646l.533.359v1.041l-.771 1.038v.648l.503.254v1.505l-.503.467v1.077l.383.216v.754l-.765.895v.828l.56.611-.986 2.334v.968l-.442.593v1.082H42.609v-1.082l-.442-.593v-.968l-.99-2.334.56-.611v-.828l-.768-.895v-.754l.385-.216v-1.077l-.5-.467v-1.505l.5-.254v-.648l-.768-1.038v-1.041l.53-.359v-.646l-.53-.718v-1.328l.268-.287v-.79l-.533-1.077v-2.691l-.268-.289-.265.289v2.691l-.527 1.077v.79l.263.287v1.328l-.528.718v.646l.528.359v1.041l-.765 1.038v.648l.502.254v1.505l-.502.467v1.077l.382.216v.754l-.768.895v.828l.56.611-.989 2.334v.968l-.44.593v14.377l-2.17 1.582-3.147 1.005.609.396v.571h1.292l.033.97.703.433v4.225l-.771 1.759v1.293l-1.366 1.006-1.738 10.591v9.479s-.899.183-1.08 0c-.178-.178-1.005-7.178-1.005-7.178l-1.222 8.758h-.932l-.719 5.383h.864V126.7h-.864v2.299h-1.005v1.293l1.005.932v18.167l-4.522-7.968v-3.594h.645v-1.074h-.981v-1.094h.323v-.347h-.323v-.501h-.405v.501h-.257v.403h.229v1.076h-1.131v1.08h.483v3.498l-5.441 9.672h-2.979v-5.491h.323v-4.671h-.722v.539s-.429.217-.429 0v-2.334h-.576v-4.31h-.574v4.274h-.432v2.156h-.5v-6.862h.287v-4.595h-.773v-1.901h.144v-1.187h-.218v-1.002h.111v-.773h-.396v-.915h.087v-.646h-.213v-.971h-.307v.971h-.25v.646h.142v.932h-.268v.845h.145v.791h-.251v1.33h.142v1.918h-.895v4.65h.339v6.73h-.536v-1.938h-.647v-4.443H4.72v4.471h-.511v2.074h-.568v-.621h-.699v4.603h.434v5.729l-1.079.736v1.129h-.433v-.483H1.49v8.026l.429.432v13.854H1.49v3.017H.932v7.396L0 186.514v10.914h640.416v-59.266h-5.617v.002zM254.493 21.02h1.181v7.022h-1.181V21.02zm.591 35.686c3.348.153 3.025 3.273 3.025 3.273v8.419H252.05v-8.419s-.317-3.12 3.034-3.273zm-5.22 45.522h.59v-1.6h-.506s.293-5.599 3.829-5.599v.423h2.61v-.423c3.537 0 3.83 5.599 3.83 5.599h-.507v1.6h.591v11.478h-10.437v-11.478zm-203.65 21.867V95.77h1.94v28.325h-1.94zm5.331 0V95.77h1.938v28.325h-1.938zm3.186-58.573h.79V70.4h-.79v-4.878zm-.385 30.248h1.94v28.325h-1.94V95.77zm-1.375-30.248h.79V70.4h-.79v-4.878zm-1.757 0h.79V70.4h-.79v-4.878zm-1.763 0h.795V70.4h-.795v-4.878zm-1.754 0h.787V70.4h-.787v-4.878zm-1.763 0h.791V70.4h-.791v-4.878zm-1.756 0h.79V70.4h-.79v-4.878zm-.765 30.248h1.94v28.325h-1.94V95.77zM393.6 21.02h1.181v7.022H393.6V21.02zm.591 35.686c3.345.153 3.025 3.273 3.025 3.273v8.419h-6.052v-8.419s-.317-3.12 3.027-3.273zm5.219 56.999H388.976v-11.478h.586v-1.6h-.509s.3-5.599 3.836-5.599v.423h2.608v-.423c3.537 0 3.831 5.599 3.831 5.599h-.507v1.6h.589v11.478zm62.704 7.392h-3.072v-5.91a1.536 1.536 0 0 1 3.072 0v5.91zm2.034-12.347h-1.803v-3.476c0-.498.403-.905.906-.905.491 0 .897.407.897.905v3.476zm3.312 12.347h-3.072v-5.91a1.536 1.536 0 1 1 3.072 0v5.91zm6.394-1.995h.327l.057.314-.384-.314zm6.733 1.995h-3.069v-5.91a1.534 1.534 0 1 1 3.069 0v5.91zm2.033-12.347h-1.803v-3.476c0-.498.404-.905.907-.905.492 0 .896.407.896.905v3.476zm3.307 12.347h-3.069v-5.91c0-.849.688-1.532 1.534-1.532a1.53 1.53 0 0 1 1.535 1.532v5.91z"/></svg>