<svg xmlns="http://www.w3.org/2000/svg" viewBox="0 0 361.463 193.371"><path d="M361.112 179.298h-1.381v-.909h-.664v-.667h.664v-1.26h-.664v-.67h.664v-1.26h-.664v-.666h.664v-1.261h-.664v-.669h.664v-1.26h-.664v-.666h.664v-1.262h-.664v-.668h.664v-1.258h-.664v-.669h.664v-1.26h-.664v-.667h.664v-1.26h-.664v-.666h.664v-1.26h-.664v-.67h.664v-1.259h-.664v-.667h.664v-1.262h-.664v-.665h.664v-1.263h-.664v-.666h.664v-1.26h-.664v-.668h.664v-1.261h-.664v-.667h.664v-1.262h-.664v-.667h.664v-1.259h-.664v-.668h.664v-1.26h-.664v-.668h.664v-1.26h-.664v-.669h.664v-1.261h-.664v-.666h.664v-1.26h-.664v-.67h.664v-1.258h-.664v-.67h.664v-1.26h-.664v-.665h.664v-1.263h-.664v-.666h.664v-1.262h-.664v-12.797h-1.383v-8.033h-.545v-1.633h-.373v-.74h-2.076v.74h-2.15v1.633h-7.434v8.033h-1.502v54.694h-2.67V128.64h-1.379v-6.786h-1.51v-3.561h-.669v3.561h-10.397v6.786h-1.504v40.705h-4.423l-.204-9.024h.524v-.836h-.283v-1.582l1.718-1.715h-1.883v-.79l.503-.421h-.559v-.604h-.523l-.021-.73.158-.188v-1.487l.371-.978h-.709l-.766 1.408-.172.01v.303l-.5.338v-.733l.402-.476v-.326h-.482v-.359l-.834-.832-.027-4.596.221-.384-.172-.035v-.104l1.311-1.219-1.451-.06v-.488l-.349-.291.011-.753-1.456-.014c-.024-.231-.155-.405-.31-.405s-.286.174-.313.399l-2.323-.021c-.035-.208-.158-.364-.308-.364s-.269.152-.308.361l-2.323-.021c-.035-.221-.159-.386-.313-.386a.236.236 0 0 0-.148.058l-.066-9.312h-.21l-.069 9.634-2.172-.02c-.033-.215-.158-.376-.31-.376-.147 0-.269.159-.304.37l-1.609-.014-2.727 2.262-.028.744-1.521 1.178 1.176.838v4.431h-4.832l-.064-7.53h-.152l-.068 7.53h-3.527l-1.613 1.331-.031.436h-3.399v-1.006l.169-.518h-.445v-.105c.098-.035.159-.111.159-.194 0-.104-.097-.19-.228-.218v-.086h-.145v.086c-.132.022-.229.113-.229.218 0 .081.058.151.15.19v.108h-.44l.172.528v.996h-4.569v-1.041l.168-.52h-.449v-.105c.097-.037.162-.109.162-.194 0-.104-.097-.19-.23-.215v-.087h-.143v.087c-.135.022-.23.11-.23.215 0 .083.062.153.152.192v.107h-.441l.172.533v1.027h-5.047l-.031-2.295h.143l.771-1.314-1.033-.389v-.775h-.391v-.23h-.125v-.279l.514-.885-.654-.262.033-.312.17-.185-.342-.451.014-.262-.387-.031v-1.502l.248-.637v-.309l.297-.45-.82-.435.138-.371v-.342h-.466l.062-.852-.404-.248.015-.652h-.338v.637l-.448.466v.663h-.297v.375l.124.279-.772.541.32.322.004.405.207.474v1.672h-.238l-.485.697.192.271v.365h-.316l-.203.356-.562-.681.152-.351-.744-.778.116-.418-.812-.742.089-.338-.848-.791.062-.209-.917-.803.055-.172-1.033-.722-.015-.149-.462-.422-.613-.195-.397-.432-.907-.336-.162-.209-1.083-.419-1.278-.419s.209-.277-.821-.639c-1.034-.357-2.732-.453-2.732-.453s-1.698.096-2.731.453c-1.035.361-.825.639-.825.639l-1.279.419-1.081.419-.162.209-.906.336-.396.432-.616.195-.465.422-.013.149-1.032.722.057.172-.916.803.057.209-.848.791.092.338-.812.742.117.418-.745.778.151.351-.562.681-.2-.356h-.317v-.365l.194-.271-.49-.697h-.239v-1.672l.209-.474.005-.405.321-.322-.776-.541.124-.279v-.375h-.293v-.663l-.45-.466v-.637h-.339l.015.652-.402.248.062.852h-.468v.342l.142.371-.82.435.293.45v.309l.248.637v1.502l-.389.031.017.262-.341.451.172.185.031.312-.652.262.512.885v.279h-.126v.23h-.386v.775l-1.04.389.776 1.314h.139l-.031 2.295h-5.047v-1.027l.172-.533h-.439v-.107c.091-.039.152-.109.152-.192 0-.104-.101-.192-.232-.215v-.087h-.143v.087c-.13.024-.229.112-.229.215 0 .084.065.157.161.194v.105h-.445l.168.52v1.041h-4.564v-.996l.17-.528h-.441v-.108c.091-.039.152-.109.152-.19 0-.104-.101-.195-.232-.218v-.086h-.145v.086c-.131.027-.228.113-.228.218 0 .083.065.159.162.194v.105h-.446l.168.518v1.006h-3.4l-.03-.436-1.612-1.331h-3.529l-.064-7.53h-.154l-.063 7.53h-4.833v-4.431l1.178-.838-1.518-1.178-.032-.744-2.726-2.262-1.606.014c-.035-.211-.159-.37-.31-.37-.149 0-.273.161-.308.376l-2.176.02-.067-9.634h-.21l-.065 9.312a.24.24 0 0 0-.146-.058c-.152 0-.279.166-.312.386l-2.326.021c-.038-.209-.159-.361-.307-.361s-.271.156-.305.364l-2.326.021c-.027-.226-.156-.399-.312-.399-.157 0-.286.174-.312.405l-1.453.014.01.753-.348.291v.488l-1.451.06 1.312 1.219v.104l-.174.035.221.384-.026 4.596-.832.832v.359h-.489v.326l.409.476v.733l-.502-.338v-.303l-.172-.01-.768-1.408h-.708l.372.978v1.487l.162.188-.024.73h-.522v.604h-.557l.498.421v.79h-1.884l1.717 1.715v1.582h-.276v.836h.524l-.291 12.561-.221.479h-.44v1.381h-.465v.549h.208v2.732h-.829v5.21l-.871.005.022-13.283h-2.56v-.609h-2.443v.609h-.336v5.562H188.4l-.13-10.891.509-.213v-.811l-.318-.214v-1.2h.141v-.595h-.141v-1.505l1.671-1.252v-.844h.692v-1.086h-2.338v-1.152h-.379v-2.719l1.062-1.375v-.722h-22.652v-.264h-1.145v-.91h-2.865v-2.312h.608v1.686h.402l.32-1.686-.217-.641.167-1.247-.305-.403.323-.185.149-.692-.05-1.297-.438-.084-1.264 1.381.05.709-1.179.404-.119 1.348.221 1.381-.255.406v1.313h-.874l.016-2.664.305-.606-.187-1.162-.32-.051-.302-2.174-.405-.438-.64.236.083-1.434.084-1.164-.489-.654-.354.217-.605-.59-.456-.101.033-1.162s1.093-.056 1.115-.828c.014-.416-.136-.976-.81-1.01l-.048-.341 1.707-1.328.203-.782-1.936 1.11-.04-.433-.441-.391-.443.391-.024.441-1.936-1.11.202.782 1.708 1.328-.049.341c-.672.034-.824.595-.812 1.01.024.772 1.115.828 1.115.828l.032 1.162-.453.101-.607.59-.353-.217-.488.654.084 1.164.084 1.434-.643-.236-.403.438-.306 2.174-.318.051-.187 1.162.306.606.016 2.664h-.876v-1.313l-.252-.406.219-1.381-.119-1.348-1.179-.405.052-.709-1.264-1.381-.439.084-.051 1.297.154.692.319.185-.305.403.168 1.247-.219.641.319 1.686h.407v-1.686h.605v2.312h-2.864v.91h-1.146v.264h-22.651v.722l1.062 1.375v2.719h-.379v1.152h-2.339v1.086h.696v.844l1.667 1.252v1.505h-.138v.595h.138v1.2l-.315.214v.811l.504.213-.207 13.896h-.598v-11.03h-4.433v-19.963h-.277v-.39h.277v-.833h-.277v-.391h.277v-.834h-.277v-.39h.277v-.834h-.277v-.388h.277v-.834h-.277v-.391h.277v-.834h-.277v-.39h.277v-.833h-.277v-.391h.277v-.834h-.277v-.389h.277v-.834h-.277v-.392h.277v-.833h-.277v-.391h.277v-.832h-.277v-.391h.277v-.834h-.277v-.39h-.445v-.333h-.28v-3.229h-1.055v3.229h-2.558v.333h-1.112l-3.45 4.448v41.674H110v-7.344h-.084v-.389h-.584v.389h-.612v10.399h-.445v-15.209h-.625v-.309h-1.852v.309h-.388v.435h-.508v.849h.508v.339h-.508v.848h.508v.334h-.508v.854h.508v.333h-.508v.855h.508v.332h-.508v.855h.508v.333h-.508v.847h.508v.34h-.508v.848h.508v.333h-.508v.856h.508v.334h-.508v.854h.508v.333h-.508v.855h.508v.332h-.508v.848h.508v.332h-.508v.854h.508v.333h-.508v.855h.508v.332h-.508v.855h.508v.333h-.508v.856h.508v.334h-.508v.854h.508v.333h-.508v.736h-.331v-5.268h-.223v-2.369h-1.117v2.369h-.888v2.153h-1.772v-6.161h.157v-.822l1.132-1.062-1.337-1.733-.728.03v-6.786l.489-2.273h-.562v-2.01l2.17-2.029-2.296-.127v-1.227l.251-.404h-.251v-.364h-.421v-4.205h-.688v-1.267l-.342-.389v-5.599l.373-.761-.373-.262.04-.505.911-1.174-1.022-.877v-1.062l.238-.324-.697-.436v-1.734l-.309-.903-.372.854v.912l-.65-.39s.278-5.431-4.988-6.675v-.184l-.142-.021-.635-.088-.063-1.426-.198-.088v-.569s.721-.224.728-.714c.01-.396-.069-.887-.759-.926v-2.32h-.119v2.32c-.648.016-.809.498-.777.854.042.372.35.728.7.81l.007.543-.223.191v1.322l-.279.097-.086.015v.017l-.229.077-.003.16c-4.619 1.246-4.766 5.791-4.759 6.502-.005.041-.016.076-.019.115l-.63.377v-.912l-.372-.855-.308.902v1.734l-.697.436.236.324v1.062l-1.021.877.912 1.174.029.387-.022.143-.34.238.226.463-.042.271.024.77.164.102v4.754l-.339.387v1.268h-.688v4.205h-.423v.363h-.252l.252.406v.073l-.347.005s-.347-2.305-2.406-2.503v-1.133h-.373v1.126c-.617.046-2.027.389-2.582 2.525l-.246-.024-.277-.586v-7.285l.277-.514v-.365h-.236v-1.172l.862-.743-.974-1.174v-.364l.443-.528-.855-1.148.174-.35-.229-.459-.207-3.342-.586-1.427-.419 1.427-.086 2.652-.39-.055s.895-13.123-13.139-18.146l-.254-.823-.039-3.824s-1.243-1.039-1.496-1.988c-.254-.952-.254-3.294-.254-3.294l-.531-.339-.015-.405s.317-.166.325-.528a.481.481 0 0 0-.365-.492c-.071-.023-.008-.412-.008-.412l.143-.063-.047-3.422-.238-.017-.238.017-.04 3.422.144.063s.063.389-.007.412a.48.48 0 0 0-.366.492c.007.363.324.528.324.528l-.015.405-.531.339s0 2.343-.254 3.294c-.253.949-1.496 1.988-1.496 1.988l-.04 3.824-.253.823C44 130.561 41.585 138.244 41.014 142.369l-.941-48.522h.775V91.47h.173v-.974h-.362v-2.424c3.341-1.219 5.732-4.419 5.732-8.18a8.721 8.721 0 0 0-6.012-8.292v-1.036h1.324V69.43H40.38v-.388h1.364v-1.124h-.111l-.041-.388h.191v-1.133h-.309l-.04-.381h.387v-1.133h-.505l-.04-.37h.482V63.38h-.603l-.038-.381h.641v-1.132h-.76l-.04-.396h.8v-1.124h-.72v-.395h.697v-1.133h-2.36L38.291 0h-1.195l-1.088 58.818h-2.405v1.133h.639v.395h-.617v1.124h.729l-.039.396h-.69v1.132h.571l-.04.381h-.531v1.133h.413l-.04.37h-.309v1.133h.192l-.042.381h-.189v1.133h.071l-.04.388h-.07v1.124h1.291v.388H33.57v1.134h1.331v1.061c-3.453 1.164-5.948 4.42-5.948 8.268 0 3.769 2.392 6.968 5.741 8.187v2.417h-.379v.974h.181v2.375h.784l-1.258 64.632c-.687.465-1.013 1.205-1.161 1.668h-.251v-.364h-.419v-4.203h-.69v-1.268l-.341-.391v-5.6l.372-.76-.372-.26.04-.508.912-1.172-1.022-.879v-1.06l.238-.324-.698-.438v-1.732l-.309-.902-.372.854v.909l-.648-.387s.274-5.406-4.958-6.668l-.005-.158-.028-.008v-.024l-.136-.024-.431-.148v-1.321l-.223-.19.009-.545c.348-.082.656-.437.698-.809.031-.357-.128-.831-.763-.855v-2.121h-.118v2.121c-.704.033-.783.531-.776.926.009.492.729.715.729.715v.568l-.198.088-.062 1.426-.778.111v.182c-5.267 1.246-4.989 6.676-4.989 6.676l-.65.391v-.912l-.372-.855-.316.902v1.734l-.689.436.236.324v1.062l-1.021.877.911 1.174.04.506-.373.262.373.76v5.599l-.348.388v1.268h-.681v4.039H13.17v-4.674l-11.118 3.486v.698h-.728v4.703h.727v.989h-.727v4.701h.727v.992h-.727v4.7h.727v.991h-.727v4.701h.727v.99h-.727v.211H.046L0 193.371h361.437c.192-4.59-.732-9.553-.325-14.073zm-328.357-18.73l-.145-.003v-.017l.251-.402a3.6 3.6 0 0 0-.106.422zm91.836 21.974h-.538v-1.685h.563l-.025 1.685zm11.212 6.661h-.329v.609h-3.265v-4.375h-.89v-13.348h-1.186v-.668h-1.558v-.815h-.524l-.081-5.493h8.192l-.359 24.09zm11.873-.01h-.329v.619h-7.38v-.609h-.328l-.358-24.09h8.755l-.36 24.08zm13.922 0h-.33v.619h-9.426v-.619h-.33l-.358-24.081h10.803l-.359 24.081zm11.872.01h-.328v.609h-7.378v-.619h-.332l-.358-24.081h8.754l-.358 24.091zm11.494-12.127h-1.331v-9.121h-4.67v2.445h-.389v2.17h-.777v6.729h-.279v.725h-.343l-.226-14.911h8.192l-.177 11.963z"/></svg>