<svg xmlns="http://www.w3.org/2000/svg" width="1245" height="197.699" viewBox="0 0 1245 197.699"><path d="M1239.254 185.574h-1.399l-.82-2.146h-.819v-2.779l.492-.578v-1.324l-3.777-4.105h-1.725l-1.222-2.201s1.688-.223 1.527-1.324c-.167-1.082-6.456-3.229-6.456-3.229s-1.427-1.025-1.641-1.848c-.225-.82-.438-1.492-.821-1.828-.392-.316-1.156-1.846-1.156-1.846v-1.271l-.979-1.082s-.551-1.922-1.372-2.295a10.625 10.625 0 0 0-1.698-.615l-.65-4.086-.711-.393h-.551s-.056-1.697-1.855-2.463c-1.81-.766-5.094-1.643-5.803-4.047-.709-2.408-1.314-4.982 0-8.1 1.307-3.135 2.406-4.066 2.406-4.066s3.062-.094 5.096-.709c2.014-.578 2.35-1.252 2.35-1.252s.924-.146 1.036-.65c.11-.504-.439-1.924-.382-2.354.055-.447.651-.539.371-2.201-.288-1.621-.821-3.189-1.521-3.918-.701-.746-1.353-1.902-1.81-2.723-.448-.822-2.053-2.5-1.97-3.49.085-.969.737-3.357.122-4.719-.615-1.346-2.211-4.592-4.061-6.736-1.845-2.127-2.34-2.91-4.393-3.266-2.053-.373-2.669-.709-5.169-.541-2.51.168-5.047-.951-7.678-.037-2.631.896-13.135 2.164-17.725 8.115-4.601 5.953-9.73 14.441-9.571 16.215.167 1.771.251 4.926.868 5.428.614.486 2.088 2.166 2.462 3.473.364 1.324.652 2.426.242 2.762-.409.316-1.147.559-.859 1.268.29.711 1.188 1.605 1.149 2.838-.036 1.18-.648 2.207-1.498 3.193h-.114l-5.836-6.262-39.834-45.584-16.114 16.381-.187-.184v-.369h-.394l-8.64-8.141-46.88-44.09-26.683 28.205-18.856-17.557-49.747 52.574v.336h-1.462v-7.836h-2.435v-.729h.438v-.447h-6.354v1.25h-2.07v5.17h-4.58l-.812 1.994v8.359h-3.405v-1.398l-1.176-3.322h-1.848v-1.996h-1.034v-1.1h-5.327v-4.012h-2.947l-.522-.877h-2.445v-2.52h.449v-.674h-2.511v-.949h-5.252v12.631h-3.096v2.145l-3.07 2.521v1.996h-4.104v-1.062h-.718l-1.223 1.23-2.826-2.838h-13.705V73.066l.457-.781v-8.789h1.587v-.783l1.203-.887v-1.398h-1.67l-.374.699h-.83V49.839h-1.502v-1.055l-1.567-1.361v-2.828l-1.108-.941V42.33l-1.24-.719V23.533l.214-.355v-1.885l-.645-.719-.645.719v1.885l.215.355v18.078l-1.24.719v1.324l-1.11.941v2.828l-1.566 1.361v1.055h-1.492v11.287h-.839l-.375-.699h-1.67v1.398l1.204.887v.783h1.585v8.789l.459.781v54.426h-3.062l-.438-.43-.446.43v5.561l-2.547 2.762h-5.989v-2.445H856.2v-1.771h-12.528l-.886-1.006h-9.312v-11.307h-.997v.67h-2.883v-1.438h-5.989v1.551h-1.437l-.662-1.887h-2.223v-3.992h-3.654v-1.102h-2.771v.896h-3.105v-2.107h-2.332l-.997-1.008v-1.324h-3.211v.877h-1.996V88.07h-2.881v-5.244h-.774v1.1h-4.104v1.121H790.8v3.023h-2.66v26.344h-1.67v.895h-2.547v-1.006h-1.771v1.006h-2.771l-4.217 1.213v6.42h-1.885v3.34h-1.438v-1.66h-3.771v-4.217h-6.66v2.443h-1.212l-1.772-1.885h-3.441l-1.109 1.102h-1.549l-1.55.988v4.74h-2.519v-6.121h-1.698l-.513-2.611h-3.331v-.953l-1.259-1.621h-2.436v.672h-1.259v-1.045H736.5v.82h-.875v-10.281H733.7v-1.176l-2.742-2.369-.438-1.322h-8.349v2.441h-1.187l-1.034.504v1.922l-.672.82v20.617h-2.359v-15.074h-2.436v-.971l-1.707-.877v-3.115h-4.433l-3.105 5.41v29.125l-1.772 1.922v19.646H698v6.512h-5.028v3.975h-12.854v1.492h-2.22l3.105-13.752h-2.732v-.971h1.604v-3.209h-1.604v-1.92h1.604v-3.211h-1.604v-1.922h1.604v-3.209h-1.604v-1.939h1.604v-3.209h-1.604v-1.904h1.604v-3.227h-1.604v-1.922h1.604v-3.209h-1.604v-1.939h1.604V127.4h-1.604v-1.922h1.604v-3.229h-1.604v-1.922h1.604v-3.209h-1.604v-1.922h1.604v-3.229h-1.604v-1.922h1.604v-3.209h-1.604v-1.92h1.604v-3.211h-1.604v-1.922h1.604v-3.209h-1.604v-1.922h1.604v-3.229h-1.604v-1.922h1.604v-3.209h-1.604V84.37h1.604v-3.229h-1.604v-1.902h1.604V76.03h-1.604v-1.941h1.604v-3.207h-1.604V68.96h1.604v-3.211h-1.604V63.83h1.604v-3.217h-1.604v-1.922h1.604v-3.219h-1.604V53.55h1.604v-3.211h-1.604v-1.922h1.604V45.2h-1.604v-1.924h1.604v-3.219h-1.604v-1.922h1.604v-3.209h-1.604v-1.922h1.604v-3.219h-1.604v-1.922h1.604v-3.209h-1.604v-.932l-.561-1.773V6.65h-22.949V3.33h-1.997v1.111h-10.747V2.66h-1.108v1.883h-1.886V0h-.671v6.65h-22.839v15.963l-.734 2.043h-1.699v3.209h1.55v1.922h-1.55v3.219h1.55v1.922h-1.55v3.209h1.55v1.922h-1.55v3.219h1.55v1.924h-1.55v3.217h1.55v1.922h-1.55v3.211h1.55v1.922h-1.55v3.219h1.55v1.922h-1.55v3.217h1.55v1.922h-1.55v3.211h1.55v1.922h-1.55v3.207h1.55v1.941h-1.55v3.209h1.55v1.902h-1.55v3.229h1.55v1.922h-1.55v3.209h1.55v1.922h-1.55v3.229h1.55v1.922h-1.55v3.209h1.55v1.922h-1.55v3.211h1.55v1.92h-1.55v3.209h1.55v1.922h-1.55v3.229h1.55v1.922h-1.55v3.209h1.55v1.922h-1.55v3.229h1.55v1.922h-1.55v3.191h1.55v1.939h-1.55v3.209h1.55v1.922h-1.55v3.227h1.55v1.904h-1.55v3.209h1.55v1.939h-1.55v3.061h-3.77v-3.434l-1.771-.988v-4.775l-1.222-.672V130.72l-.888-.672v-3.881h-3.105v3.547h-.998v1.996h-8.862v2.332h-7.099v-1.662l-3.107-1.008v-11.959h.774v-5.877h-10.858v5.654h-3.219v-1.01h-2.221v1.662h-1.996v-.99h-.774v11.736h-1.437v-.766h-2.444v1.008h-2.099v-3.676h.773v-.988h-3.441v-5.598h-5.654v3.041l-1.438 1.006v2.873h-7.648v1.887h-3.218v-8.807h-2.324l-4.104-2.389v-2.332l-1.222-1.867h-4.104v1.867h-2.994v1.791h-1.886V92.246h-5.206v-1.66l-1.334-.67v-1.773h-10.971l-4.218 4.646h-1.109v2.219h1.109v1.998l-.886 1.342v30.6h-7.313l-1.222-1.457v-21.734l-1.111-1.193v-8.881h-4.431v-3.77h-6.765v3.992H464.74v26.941l-1.11.988v2.557h-2.995v4.758h-8.647v-1.996l-1.549-2.648h-2.221v1.324h-2.211v1.119h-1.67v-2.107l-1.325-2.223h-2.994v-5.986h-5.43v1.438l-.886.895v2.873l-2.445 2.332h-1.111v-4.422h-2.099v.766h-1.445v-1.324h-2.109v3.656l-.551 1.549h-4.216v1.66h-3.321v-2.332l-.56-.988v-6.324h-4.105l-.662.652h-6.315l-1.773-2.314v-2.105h-9.981v-.877h-11.967v1.324h.999v4.531h-8.434v-1.547h-4.646v1.66h-2.78v-1.66h-9.86v4.775h.886v1.996h-2.22v1.549l-1.437-1.455h-10.868v1.455h-5.878v-.896l-1.334-1.436h-3.657v1.885h-4.655v1.771l-2.659.561v2.219h-18.845v-2.666h-1.333l-.999-1.66h-1.66v1.23h-3.545v-9.328h-8.76v10.652l-3.218 3.209v18.846L282.593 153v.203h-1.997v1.439h-.96v-1.439h-3.2v1.439h-.961v-1.439h-3.33v-4.086l.177-.205v-.371h-.336v-1.85h.196v-.391h-.196s-.159-.896-.942-.896c-.784 0-.98.859-.98.859h-.214v.41h.158v1.791h-4.002l-.532-.689h-2.873v-5.934h-.327v5.934h-2.985l-1.063-1.398v-4.424h-.317v4.424h-3.152v-6.719h-.318v6.66h-.69l-2.724-2.609v-2.668h-.317v2.668h-6.615v-3.453h.42v-.484l-3.201-.541-.428-.689-7.119-1.045v-2.275h.159v-.467h-.979v-7.109l.793-.932v-1.531l-1.624-.672v-.373l-1.418-.393v-.84l-.232-.223-.242.223v.84l-1.419.393v.373l-1.623.672v1.531l.802.932v7.109h-.988v.467h.159v1.305l-4.684-.688v-1.064h.429v-.709h-5.55v-.504h.214v-.521h-4.729v-.43h-3.34l-1.101-1.119h-.504l-.634.934h-1.567v.299h.532v.65h-.999l-1.353-1.398h-.886l-1.24 1.307h-1.783v-6.119h.784v-.561l-.821-1.641v-.822h-.354v9.18h-3.566v-5.672l-.476-1.139v-.41l-.513-.559V125l-.718-.262v-.318l.187-.188v-.465l-.084-.262v-19.777h.167v-.484h-.167v-.896l.14-.166v-.822l.476-.297v-1.754l-.214-.412h-.588v-5.559l.14-.58v-.373h-.187v-1.604l.635-.896v-1.568l-.317-.408h-.532v-5.168l.215-.316V81.38l-.215-.225-.718-9.535-.252-.277v-3.508l-.28-.281-.28.281v3.508l-.261.277-.718 9.535-.215.225v1.045l.215.316v5.168h-.532l-.317.408v1.568l.634.896v1.604h-.186v.373l.13.58v5.559h-.579l-.214.412v1.754l.475.297v.822l.13.166v.896h-.158v.484h.158v19.777l-.074.262v.018h-1.064c-.261-2.238-1.912-4.012-3.992-4.291v-.373l-.168-.186v-.262l-.243-.242v-.504l.057-.111v-1.551l-.234-.223-.232.223v1.551l.055.111v.504l-.243.242v.262l-.167.186v.373a4.18 4.18 0 0 0-.961.242c-.514-1.66-1.754-3.021-3.368-3.768v-.615h-.373v-.168l-.251-.449v-3.172l.111-.186v-.486h.14v-.316c0-.41-1.045-.896-1.045-.896v-1.754l-.131-.168-.121.168v1.754s-1.054.486-1.054.896v.316h.149v.486l.103.186v3.172l-.251.449v.168h-.374v.074a9.431 9.431 0 0 0-1.044.168v-3.713h.317v-.561l-1.167-.469V99.937h.159v-.467h-.159v-.877l.14-.186v-.84l.476-.279v-1.773l-.215-.393h-.587v-5.541l.14-.598v-.373h-.187v-1.604l.634-.914v-1.549l-.317-.41h-.531v-5.188l.214-.299v-1.045l-.214-.223-.718-9.535-.261-.279v-3.508l-.28-.279-.28.279v3.508l-.252.279-.718 9.535-.215.223v1.045l.215.299v5.188h-.533l-.326.41v1.549l.644.914v1.604h-.187v.373l.13.598v5.541h-.587l-.206.393v1.773l.476.279v.84l.131.186v.877h-.159v.467h.159v3.77c-1.708-1.939-4.002-3.207-6.559-3.451v-.689l-.401-.131v-.447l-.355-.279v-.449h.206l.232-.074v-.521l-.41-.148v-.262l.075-.094v-.561l-.084-.111v-1.398l-.234-.447-.233.447v1.398l-.075.111v.561l.065.094v.262l-.401.148v.521l.224.074h.206v.449l-.355.279v.447l-.401.131v.689c-4.943.543-8.881 4.945-9.44 10.523l-1.167.541h-.523v.502h.402v1.98l-.104.223v1.045h-1.623v-.242l.234-.148v-.635h-.374v-.188l-.252-.428v-3.172l.112-.207v-.484h.14v-.316c0-.393-1.045-.877-1.045-.877v-1.754l-.131-.17-.121.17v1.754s-1.054.484-1.054.877v.316h.148v.484l.103.207v3.172l-.251.428v.188h-.374v.635l.232.148v2.52a6.6 6.6 0 0 0-3.125 1.754 4.658 4.658 0 0 0-1.661-.598v-.373l-.168-.186v-.244l-.242-.242v-.521l.056-.111v-1.529l-.233-.227-.234.227v1.529l.057.111v.521l-.243.242v.244l-.168.186v.373c-2.015.279-3.62 1.959-3.965 4.066h-.485l-.345.133v.559h.177v2.688h-.233v-.447l-.346-.166v-2.018l-.27-.188v-.635l-.14-.242v-6.66h.14v-.281c-.028-.371-1.12-1.117-1.12-1.117v-.188l-.206-.074v-2.072l-.158-.242-.159.242v2.072l-.205.074v.188s-1.092.746-1.12 1.117v.281h.131v6.66l-.131.242v.635l-.271.188v2.018l-.345.166v.447h-.401v.541l.233.242h.186v11.439l-.727.057v-1.848h.326v-.822h-.289v-.635L122.53 133.6v-4.123l.392-.205v-.242l.383-.299v-2.537h-.354v.225h-.29v-.281h-.298l-.167-.26v-4.199l.224-.242v-1.549h-.391l-.206-.281v-2.236l-.317-.133v-.354s.317-.373.317-.877c0-.541-.923-1.176-.923-1.176v-1.959l-.211-.324-.215.316v1.959s-.932.635-.932 1.176c0 .504.317.877.317.877v.354l-.317.133v2.236l-.196.281h-.401v1.549l.224.242v4.199l-.168.26h-.298v.281h-.28v-.225h-.364v2.537l.383.299v.242l.401.205v3.639l-.215-.037h-.56v1.156h-.419v-1.119h-.374v-.541h-.531v.598l-9.609-1.4h-2.397v.783h-.587v-.596h-.72v.539h-.317v-.596h-.802v1.25h-.429v-1.287h-.476v-.578l-.196-.393h-.784v.934h-.429v.84h-.709v-.84h-.429v1.062h-.645v-2.854h.504v-.859l-2.92-1.268h-5.831v.504h.569v.559h-3.554v-.633h-1.847l-1.754-.766c-.13-.803-.597-2.406-2.304-4.533-3.032-3.77-5.635-4.068-5.635-4.068v-.242l-.354-.188v-1.754l-.29-.373-.279.373v1.754l-.354.188v.242s-2.604.299-5.635 4.068c-1.521 1.883-2.053 3.377-2.248 4.234h-5.477v-.857h-7.555v-5.133h.41v-.391l.448-.393v-1.383l-.196-.613h-.336v.541h-.355v-.523l-.327-.371v-5.281l-.419-.354v-.709l.224-.188v-.857l-.42-.205v-.205l-.233-.168v-3.023l-.308-.299-.298.299v3.023l-.234.168v.205l-.42.205v.857l.225.188v.709l-.43.354v5.281l-.318.371v.523h-.354v-.541h-.335l-.196.613v1.383l.447.393v.391h.402v5.133h-9.114v.484h.634v.578H34.21c-1.987 0-1.987 1.566-1.987 1.566v6.475h-5.691v.783h-4.197l-.57.914H11.307v.934h.569v9.814H5.262l-.494 1.418H2.351v.857l-.924.783v1.697h.495v17.799h-.709v2.689L0 176.617v21.082h1245v-4.326l-5.746-7.799zM874.288 63.009h.746v2.621h.001v.709h-1.018L873 65.63l1.288-2.621zm-1.958 3.209l1.521 1.045v1.363l-1.521.996v-3.404zm2.705 10.242v.709h-1.018L873 76.46l1.288-2.629h.746l.001 2.629zm-2.705.581l1.521 1.045v1.381l-1.521.988v-3.414zm2.705 10.244v.707h-1.018L873 87.285l1.288-2.631h.746l.001 2.631zm-2.705.576l1.521 1.062v1.363l-1.521.988v-3.413zm2.705 10.244v.709h-1.018L873 98.105l1.288-2.611h.746l.001 2.611zm-2.705.598l1.521 1.045v1.361l-1.521 1.008v-3.414zm2.705 10.242v.709h-1.018l-1.017-.709 1.288-2.631h.746l.001 2.631zm-2.705.578l1.521 1.047v1.381l-1.521.986v-3.414zm2.705 10.244v.707h-1.018l-1.017-.707 1.288-2.631h.746l.001 2.631zm-2.705.596l1.521 1.045v1.363l-1.521.988v-3.396zm2.706 3.974l-.001 2.631h-.746l-1.288-2.631 1.018-.689h1.018v.689zm0-10.82l-.001 2.631h-.746l-1.288-2.631 1.018-.709h1.018v.709zm0-10.822l-.001 2.611h-.746l-1.288-2.611 1.018-.709h1.018v.709zm0-10.84l-.001 2.633h-.746l-1.288-2.633 1.018-.689h1.018v.689zm0-10.822l-.001 2.611h-.746l-1.288-2.611 1.018-.709h1.018v.709zm0-10.83l-.001 2.621h-.746l-1.288-2.621 1.018-.699h1.018v.699zm2.722-4.573l.001-2.621h.737l1.296 2.621-1.018.709h-1.017v-.709zm.001 4.573v-.699h1.018l1.017.699-1.296 2.621h-.737l-.002-2.621zm-.001 6.257l.001-2.629h.737l1.296 2.629-1.018.709h-1.017v-.709zm.001 4.573v-.709h1.018l1.017.709-1.296 2.611h-.737l-.002-2.611zm-.001 6.252l.001-2.631h.737l1.296 2.631-1.018.707h-1.017v-.707zm.001 4.57v-.689h1.018l1.017.689-1.296 2.633h-.737l-.002-2.633zm-.001 6.25l.001-2.611h.737l1.296 2.611-1.018.709h-1.017v-.709zm.001 4.59v-.709h1.018l1.017.709-1.296 2.611h-.737l-.002-2.611zm-.001 6.25l.001-2.631h.737l1.296 2.631-1.018.709h-1.017v-.709zm.001 4.572v-.709h1.018l1.017.709-1.296 2.631h-.737l-.002-2.631zm-.001 6.25l.001-2.631h.737l1.296 2.631-1.018.707h-1.017v-.707zm.738 7.201h-.737v-3.32h1.018l1.017.689-1.298 2.631zm1.959-3.209l-1.521-.988v-1.361l1.521-1.045v3.394zm0-10.822l-1.521-.986v-1.383l1.521-1.045v3.414zm0-10.82l-1.521-1.008v-1.361l1.521-1.045v3.414zm0-10.842l-1.521-.988v-1.361l1.521-1.062v3.411zm0-10.82l-1.521-.988v-1.381l1.521-1.045v3.414zm0-10.832l-1.521-.996v-1.363l1.521-1.045v3.404z"/></svg>