<svg xmlns="http://www.w3.org/2000/svg" width="800" height="214.857" viewBox="0 0 800 214.857"><path fill="none" d="M398.027 34.711v10.623h3.946v-9.116h-.009zM401.488-36.377h-.015c-.059-.78-.685-1.396-1.482-1.396-.779 0-1.412.616-1.465 1.396h-.015v3.209h2.977v-3.209zM401.359 25.597h-.015c-.049-.321-.623-.581-1.351-.581-.716 0-1.291.26-1.339.581h-.014v1.334h2.716v-1.334h.003z"/><path fill="none" d="M401.357 25.597h-.012c-.052-.321-.615-.573-1.34-.578h-.031c-.703.005-1.274.257-1.322.578h-.01v1.334h2.714v-1.334zM398.031 59.717h3.938V47.426l-3.938-2.077zM401.486-36.377h-.014c-.058-.771-.672-1.383-1.457-1.393h-.041a1.48 1.48 0 0 0-1.45 1.393h-.012v3.209h2.973v-3.209h.001z"/><path fill="none" d="M401.487-36.377h-.01a1.488 1.488 0 0 0-1.48-1.396c-.784 0-1.42.616-1.471 1.396h-.014v3.209h2.975v-3.209zM400.002-4.865c-2.416 0-4.378 1.894-4.541 4.294h-.04v9.888h9.157V-.571h-.023c-.166-2.4-2.129-4.294-4.553-4.294z"/><path fill="none" d="M399.996-4.543a.81.81 0 0 0-.797.757h-.002v1.737h1.605v-1.737h-.004a.805.805 0 0 0-.802-.757zM399.998 13.265c-1.307 0-2.365 1.025-2.455 2.323h-.018v5.351h4.951v-5.351h-.015a2.474 2.474 0 0 0-2.463-2.323z"/><path fill="none" d="M400.806-3.786h-.006a.809.809 0 0 0-.803-.757.803.803 0 0 0-.793.757h-.01v1.737h1.61l.002-1.737zM399.993 25.016c-.713 0-1.291.26-1.339.581h-.016v1.334h2.723v-1.334h-.015c-.05-.321-.626-.581-1.353-.581z"/><path fill="none" d="M400.806-3.786h-.004a.807.807 0 0 0-.795-.754h-.02a.805.805 0 0 0-.785.754h-.008v1.737h1.61l.002-1.737zM400 38.685c-2.207 0-3.995.787-4.146 1.783h-.034v4.104h8.359v-4.104h-.025c-.148-.996-1.939-1.783-4.154-1.783z"/><path d="M384.692 87.212v23.312h30.617V87.212l4.344-3.655h-4.196l-1.519-18.479c.474-.118.824-.571.824-1.129 0-.572-.38-1.061-.89-1.146l-.094-3.065h.762v-.558h-.793l-.029-1.146-.03 1.146h-.793v.558h.758l-.094 3.065c-.504.085-.912.572-.912 1.146 0 .558.373 1.011.853 1.129l-.92 11.164h-.634c.101-.225.164-.451.164-.686 0-1.337-1.69-2.532-4.34-3.329V53.381h-.217a10.19 10.19 0 0 0 .217-2.052c0-3.275.135-6.132-2.162-7.682l-5.178-30.62c.883-.219 1.541-1.067 1.541-2.087 0-1.074-.729-1.955-1.678-2.111l-.191-5.688h1.438V2.112h-1.472L400 0l-.07 2.113h-1.473v1.028h1.436l-.186 5.688c-.949.156-1.678 1.037-1.678 2.111 0 1.021.657 1.869 1.54 2.087l-5.18 30.619c-2.297 1.549-2.159 4.405-2.159 7.683 0 .708.082 1.395.213 2.052h-.209v18.846c-2.656.794-4.347 1.993-4.347 3.33 0 .233.064.461.168.686h-1.333l-.836-11.164c.438-.118.757-.571.757-1.129 0-.572-.348-1.061-.812-1.146l-.09-3.065h.696v-.558h-.721l-.03-1.146-.027 1.146h-.727v.558h.695l-.086 3.065c-.459.085-.834.572-.834 1.146 0 .558.349 1.011.775 1.129l-1.385 18.479h-3.75l4.339 3.655.006-.001zm19.88 20.119h-9.158v-9.888h.04c.162-2.4 2.125-4.294 4.541-4.294 2.424 0 4.387 1.894 4.553 4.294h.022l.002 9.888zm-1.947-45.695h.015a1.481 1.481 0 0 1 1.471-1.396c.791 0 1.427.616 1.479 1.396h.011v3.209h-2.976v-3.209zm-4.108 0h.012a1.481 1.481 0 0 1 1.45-1.393h.041c.785.01 1.4.621 1.457 1.393h.014v3.209h-2.973l-.001-3.209zm-4.117 0h.014c.053-.78.686-1.396 1.465-1.396.799 0 1.425.616 1.483 1.396h.014v3.209H394.4v-3.209z"/><path d="M800 179.469h-2.145v-9.802h-6.527v-8.82h-7.025v8.82h-5.018v-13.236H767.24v6.706h-4.517v16.152h-3.512v-29.22h-12.045v29.22h-2.516v-33.222h-13.545v-43.682h-6.146v-5.019H716.676v5.019H712.412v-5.019h-8.279v5.019h-6.147v43.682h-13.554v33.223h-2.504v-29.22h-4.606V66.49H671.3v-4.017h-6.719l-1.31-20.743-1.305 20.743h-6.723v4.017h-2.391l-.604-9.64-.604 9.64h-2.427v103.178h-4.43v-8.82h-.67v-46.851h-3.012v-7.778h-15.558v-6.774h-9.285v6.774H599.96v-3.01h-8.033v3.01h-7.276v7.777h-6.023v40.833h-1.584v-7.391h-13.051v-10.93h-10.537v-20.074h-3.639v-5.52h-5.896v5.52h-4.518v20.075h-3.765v3.667h-3.762v6.065h-3.015v-21.275h-7.774v3.009h-7.78v13.05h-10.955v-3.191h-1.259V118.26h-2.698l-1.343-21.286-1.342 21.286h-4.787l-1.243-26.677-1.246 26.677h-4.402v19.573h-2.342v-1.324h-5.519v-4.015h-3.517v-4.52h-7.022v11.442h-1.924V123.4l2.349-2.722h-2.349v-12.615l2.349-1.977h-2.966v-3.958h-1.209a.841.841 0 0 0 .095-.371c0-.724-.914-1.371-2.353-1.802V89.762h-.11c.071-.355.11-.729.11-1.11 0-1.772-.836-3.319-2.078-4.156l-1.89-22.986c.476-.119.835-.577.835-1.13 0-.582-.396-1.057-.91-1.141l-.104-3.079h.775v-.558h-.795l-.041-1.143-.031 1.143h-.799v.558h.775l-.101 3.079c-.514.084-.909.559-.909 1.141 0 .553.358 1.011.834 1.13l-1.89 22.984c-1.242.839-2.078 2.384-2.078 4.158 0 .383.039.755.113 1.11h-.113v10.195c-1.438.432-2.35 1.08-2.35 1.804 0 .125.03.249.086.371h-1.205v3.958h-2.966l2.353 1.978h.004v11.382h-4.6v14.782h-24.586v-6.254h-2.646v-12.425l4.344-5.027h-39.308l4.339 5.027v7.548h-3.867v11.13h-35.634v-9.263h-4.309l-.206-1.867v-3.652h-.399l-1.123-10.15v10.15h-2.494v5.521h-5.017v-5.521h-.482v-10.15l-1.126 10.15h-2.907v5.521h-4.017v9.263h-9.743l3.964-1.517h-5.011v-3.037h-2.032c.094-.093.152-.188.152-.284 0-.558-1.543-1.052-3.961-1.384v-7.827h-.196c.124-.271.196-.558.196-.853 0-1.358-1.412-2.548-3.51-3.189l-3.193-43.509c.804-.09 1.406-.442 1.406-.867 0-.445-.662-.811-1.532-.875l-.169-2.362h1.312V68.1h-1.344l-.065-.878-.069.878h-1.343v.429h1.315l-.172 2.362c-.868.064-1.533.43-1.533.875 0 .425.603.777 1.405.867l-3.189 43.505c-2.101.646-3.506 1.833-3.506 3.193 0 .295.065.58.193.853h-.193v7.827c-2.427.33-3.971.826-3.971 1.384 0 .097.058.191.151.284h-2.031v3.037h-4.98v-13.267h-4.014V85.324h-3.514V82.31h-3.513V56.717h-1.509v-3.513h-13.549v3.513h-2.008V82.31h-3.011v37.139h-3.513v43.156h-8.028v5.14h-9.035V136.51h-2.504v-25.594h-4.515v-5.519h-13.556v5.519h-4.515v25.595h-2.508v9.417h-11.279v-8.027l-1.794-3.784-1.796 3.784-1.05-2.215v-2.022l-1.219-1.09-1.227 1.09-.492-.443v-14.485h2.06v-14.203h-2.049v-5.225l-.862-1.571-.822 1.506V94.36h-2.521c-.145-.753-.488-1.403-.957-1.878l-1.029-4.16h.105l-.109-.027-.476-1.919h.162l-.173-.037-.236-.956-.05-1.536-.052 1.522-.237.972-.162.035h.152l-.476 1.922-.109.024h.109l-1.033 4.163a3.572 3.572 0 0 0-.954 1.875h-2.524v4.885l-.822-1.51-.862 1.571v5.224h-2.049v14.202h2.063v14.704l-.252.225h-.247l-1.22-1.09-1.219 1.09v2.781l-.692 1.455h-.36l-1.792-3.783-1.798 3.783V146.065h-26.788V98.437h-2.135v-5.019h-3.073l-1.071-17.815-.826 17.815h-3.31v5.019h-6.151v43.687h-13.548v33.225H102.4v-29.223H90.356v29.223h-3.514V159.19h-4.52v-6.703H70.283v13.233h-5.019v-8.816h-7.026v8.816h-3.013v-19.595H27.874v4.755h-8.279v24.468L.522 179.47H0v35.387h800v-35.388zM285.393 157.73h-3.937v-14.367l3.937 2.076v12.291zm.009-14.383h-3.946v-10.623l3.937 1.507h.01l-.001 9.116zm12.62-19.736h.01c.048-.321.619-.573 1.322-.578h.031c.724.005 1.288.257 1.34.578h.011v1.334h-2.714v-1.334zm-3.757 0h.014c.048-.321.623-.581 1.339-.581.728 0 1.302.26 1.351.581h.014v1.334h-2.717l-.001-1.334zm9.289 18.976h-8.359v-4.104h.034c.151-.996 1.939-1.783 4.146-1.783 2.215 0 4.006.787 4.153 1.783h.025l.001 4.104zm.943-17.642h-2.722v-1.334h.015c.048-.321.626-.581 1.339-.581.728 0 1.303.26 1.354.581h.014v1.334zm150.118-30.718h.008a.806.806 0 0 1 .785-.754h.02a.807.807 0 0 1 .795.754h.004v1.737h-1.61l-.002-1.737zm-2.224 0h.01a.803.803 0 0 1 .793-.757.81.81 0 0 1 .803.757h.006v1.737h-1.611v-1.737h-.001zm5.505 24.726h-4.951v-5.351h.018c.09-1.298 1.148-2.323 2.455-2.323a2.477 2.477 0 0 1 2.465 2.323h.014v5.351h-.001zm.557-22.988h-1.605v-1.737h.002a.81.81 0 0 1 .797-.757c.431 0 .773.336.804.757h.004l-.002 1.737z"/></svg>