<svg xmlns="http://www.w3.org/2000/svg" width="374.937" height="100.237" viewBox="0 0 374.937 100.237"><path d="M374.671 85.474v-3.12l-.188-.589v-1.062l-.106-.282v-4.544l-.236-.448V73.32h.141v-.182l-.285-.167v-2.045h.106v-.192l-.308-.921V67.93l-.236-.32v-.188l-.471-.605v-1.994l.08-.179h.07v-.16l-.051-.055v-.131h-.129v-2.804h.129l-.212-1.043v-1.517l-.208-.653v-.621l.112-.147v-.109h-.153v-.186h-.105v.205h-.145v.096l.145.147v.627l-.184.653v1.511l-.188 1.101h.118v1.869h-.224l-.538-3.495h-.224l-.294-2.01h.096v-.195h-.16v-.221h-.259l-1.169-3.78v-.592h-.108l-.125-.547v-.522h-.067l-.105-.515.049-.058v-.115h-.042v-.083l.099-.09v-.089l-.259-.16v-1.763h.326v-.176h-.326v-.525h-.067v-.896h-.07v.896h-.064v.525h-.326v.176h.326v1.763l-.262.16v.089l.103.09v.083h-.045v.115l.048.058-.105.515h-.064v.522l-.128.547h-.108v.592l-1.165 3.78h-.263v.221h-.16v.195h.097l-.295 2.01h-.224l-.538 3.495h-.224v-1.869h.118l-.188-1.101v-1.511l-.18-.653v-.627l.145-.147v-.096h-.145v-.205h-.108v.186h-.153v.109l.115.147v.621l-.212.653v1.389h-.032v.09l.032.039-.211 1.043h.128v1.677l-.16.921h.112v.205h-.08v.131l-.048.055v.16h.07l.058.128v1.024h-.208l-.486-3.188h-.205l-.269-1.831h.089v-.179h-.146V60.4h-.24l-1.066-3.45v-.538h-.096l-.115-.499v-.477h-.061l-.096-.47.041-.051v-.103h-.038v-.077l.093-.083v-.08l-.236-.144v-1.613h.297v-.157h-.297v-.48h-.062v-.816h-.063v.816h-.061v.48h-.298v.157h.298v1.613l-.237.144v.08l.093.083v.077h-.038v.103l.041.051-.096.47h-.061v.477l-.112.499h-.1v.538l-1.068 3.45h-.237v.198h-.144v.179h.086l-.266 1.831h-.208l-.486 3.188h-.208v-1.703h.112l-.176-1.005v-1.376l-.163-.595v-.57l.131-.134v-.09h-.131v-.186h-.097v.167h-.141v.103l.103.134v.563l-.189.595v1.386l-.195.95h.119v2.554h-.119v.125l-.044.045v.144h.063l.074.167v1.817l-.433.551v.176l-.214.292v1.715l-.282.838v.173h.1V74.5l-.263.153v.164h.131v.518h-18.913v-.221l.076-.141v-.736h-.063v.083h-.074l-.066-.807h.038v-.083h-.035v-.12l.063-.07v-.058c0-.003-.08 0-.08 0v-.089l.02-.058v-.08l-.038-.074-.038.074v.08l.019.058v.089s-.08-.003-.08 0v.058l.064.07v.122h-.035v.083h.038l-.067.807h-.077v-.083h-.063v.736l.077.141v.221h-.358l-.445-.854v-1.798l.077-.138v-.739h-.064v.086h-.073l-.067-.81h.039v-.083h-.036v-.118l.064-.074v-.059h-.077v-.09l.016-.055v-.083l-.035-.07-.041.07v.083l.02.055v.089h-.08v.058l.063.074v.118h-.035v.083h.042l-.07.81h-.074v-.086h-.063v.739l.08.138v1.184l-.605-1.159v-1.469l.077-.141v-.736h-.064v.08h-.07l-.07-.807h.042v-.083h-.042v-.119l.07-.074v-.057h-.08v-.09l.02-.054v-.083l-.041-.07-.039.07v.083l.022.054v.09h-.083v.057l.067.074v.119h-.035v.083h.038l-.07.807h-.07v-.08h-.067v.736l.08.141v.851l-.64-1.226v-.717l-.135-.186v-2.714l.103-.237v-.496l.342-.292v-.272l-.326-.375v-.563l-.138-.256v-.871h-.135v.288h-.137l-.17-1.21h.221v-.275h-.26l-.179-1.274h.211v-.272h-.253l-.179-1.274h.198V59.6h-.233l-.186-1.273h.188v-.275h-.224l-.145-1.031.142-.217-.077-.109-.173-.051-.064-.327.045-.054.013-.138h-.099v-.167l.111-.089v-.109l-.166-.058-.02-.134s.25-.067.25-.292-.295-.301-.295-.301v-1.939l-.051-.054-.051.054v1.939s-.298.077-.298.301.249.292.249.292l-.016.134-.166.058v.109l.108.089v.167h-.096l.013.138.045.054-.064.327-.173.051-.077.109.142.217-.147 1.031h-.227v.275h.188l-.18 1.273h-.236v.272h.198l-.18 1.274h-.249v.272h.211l-.183 1.274h-.259v.275h.221l-.17 1.21h-.138v-.288h-.137v.871l-.135.256v.563l-.326.375v.272l.342.292v.496l.103.237v2.714l-.138.186v.717l-.634 1.226v-.851l.077-.141v-.736h-.064v.08h-.07l-.07-.807h.039v-.083h-.039v-.119l.07-.074v-.057h-.083v-.09l.02-.054v-.083l-.039-.07-.038.07v.083l.02.054v.09h-.084v.057l.067.074v.119h-.035v.083h.038l-.07.807h-.07v-.08h-.063v.736l.077.141v1.469l-.602 1.159v-1.184l.076-.138v-.739h-.064v.086h-.073l-.067-.81h.039v-.083h-.039v-.118l.067-.074v-.061h-.08v-.09l.02-.055v-.083l-.038-.07-.039.07v.083l.02.055v.089h-.08v.058l.064.074v.118h-.035v.083h.038l-.067.81h-.074v-.086h-.063v.739l.077.138v1.798l-.441.854h-.365v-.221l.076-.141v-.736h-.063v.083h-.073l-.067-.807h.038v-.083h-.035v-.12l.064-.07v-.058c0-.003-.08 0-.08 0v-.089l.019-.058v-.08l-.038-.074-.038.074v.08l.019.058v.089s-.08-.003-.08 0v.058l.067.07v.122h-.038v.083h.038l-.067.807h-.073v-.083h-.063v.736l.076.141v.221h-9.332v-.406h-.134v.474l-.928 1.495v-6.63h.461v-.691h-5.626l-.96-.925v-3.703h.282v-.864h-.266v-1.094l.266-.263v-.896h-.109v-.493l.327-.557v-.678h.461v-.679h-1.265l-1.049-2.557h-.285v-7.024h.249v-.88h-.224v-2.128l.224-.576v-.698h-.224v-1.318h.691v-2.474l.746-.394v-.858l.349-.298v-.534h-.275v-1.249h-.519v-1.946l-.621-.182v-.349l.25-.23v-.925l.493-.233v-.97l-.783-1.204v-1.018h-.445v-.717l-.444-.394v-.717h-.346l-.451-.279v-4.739l.15-.352V20.9h-1.092v.88l-.668-.464v-.899l-.275-.739h-.941v.739l-.768-.854V17.41l-.224-.186v-2.243l-.173-.717V12.99l.147-.256v-.762l.25-.186v-.556h-.272s-.077-1.338-.842-2.637c-.768-1.293-1.689-1.594-1.689-1.594v-.323h.198v-.627h-.221l-.583-.288v-.509l-.189-.263v-.326l-.294-.358V2.419h.793v-.255h-.819V0h-.349v2.164h-.816v.256h.793v1.885l-.301.358v.326l-.186.263v.509l-.582.288h-.221v.627h.199v.323s-.919.301-1.687 1.594a6.486 6.486 0 0 0-.845 2.637h-.272v.557l.25.186v.762l.146.256v1.273l-.172.717v2.243l-.224.186v2.154l-.765.854v-.739h-.947l-.272.739v.899l-.669.464v-.88h-1.091v3.284l.15.352v4.739l-.445.279h-.349v.717l-.448.394v.717h-.448V32.4l-.768 1.203v.97l.496.233v.925l.246.23v.349l-.617.182v1.946h-.522v1.249h-.269v.534l.346.298v.857l.743.394v2.474h.695v1.318h-.221v.698l.221.576v2.128h-.221v.88h.247v9.738h-9.783v-1.296h.339v-.522l-3.703-2.128-3.703 2.128v.522h.342v1.296h-10.865v-1.757l.576-.627v-.992h-.531v-1.344l.23-.346v-.902h-.23V52.27h-.464v.672l-1.943-.505c-1.805-4.561-6.151-5.159-6.151-5.159v-.534l-.723-.234v-.39l-.458-.275v-1.159h.205v-.579h-.253c-.441-1.296-2.013-1.526-2.013-1.526v-.208l-.183-.182v-3.959l-.163-.323-.163.323v3.959l-.186.182v.208s-1.571.23-2.013 1.526h-.252v.579h.208v1.159l-.464.275v.39l-.717.234v.534s-4.349.599-6.154 5.159l-1.942.506v-.672h-.464v1.344h-.23v.902l.23.346v1.344h-.528v.992l.576.627v.042l-3.034-1.366-3.149 1.696v.275h.339v1.11h-9.966l-6.842-3.082-3.143 1.696v.275h.339v1.11h-8.564l-6.842-3.082-3.146 1.696v.275h.339v1.11h-1.155c-1.162-1.309-2.531-2.128-2.531-2.128s.125-.602.252-1.088c.125-.486-.108-.621-.505-.925-.403-.298-.422-.97-.422-.97l.253-.278v-.762l-.57-.256v-.621l.147-.164v-.486h-.524c0-1.619-2.045-2.035-2.045-2.035v-.496l-.269-.106v-5.492l-.112-.214-.112.214v5.492l-.266.106v.496s-2.048.416-2.048 2.035h-.528v.486l.147.164v.621l-.566.256v.765l.253.278s-.019.672-.422.97c-.4.304-.634.438-.506.925s.253 1.088.253 1.088-.131.077-.349.224l-2.618-1.178-2.214 1.19v-4.724h-.279v4.874l-.652.355v.275h.339v1.11h-6.225l-8.02-2.531-1.482 1.05v-1.988h.339v-.573l-1.232-2.003h-4.004v-.569l-1.718-.903.186-.115v-.3l-.474-.163V51l-.262-.253v-2.083l.224-.23v-.349l.266-.16v-.371l-1.514-.486c-.266-.854-1.229-.854-1.229-.854v-.304h-.429v-.483l.122-.301v-.646l-.346-.163v-9.23l-.144-.326-.145.326v9.23l-.346.163v.646l.122.301v.483h-.432v.304s-.96 0-1.229.854l-1.514.486v.371l.269.16v.349l.224.23v2.083l-.269.253v.486l-.467.163v.301l.186.115-.835.436-3.731-.599-2.096 1.604v.275h.368v1.914h-4.017c-1.261-.819-2.384-1.011-2.384-1.011v-3.521l.176-.403v-.614h.259v-.525h-.662s-.205-.432-.551-.832c-.346-.403-1.443-.525-1.443-.525V47.8l-.46-.182v-4.384l-.202-.429-.205.429v4.384l-.461.182v.464s-1.094.122-1.44.525c-.349.4-.55.832-.55.832h-.663v.525h.259v.614l.173.403v3.521s-1.863.317-3.476 1.895h-6.593l-.326.291h-3.005v.355h-4.442v.326h-2.218l-.282 1.383h-1.293v5.459h-1.114V66.8l-.832 2.131v6.938l-.448-4.282-2.669-.736v-.211h.346v-.8h-1.338v-1.229l-.905-.307v-1.19l-1.351-.413v-.4s1.738-.858 1.738-2.541c0-2.88-2.913-2.724-2.913-2.724s-2.912-.157-2.912 2.724c0 1.683 1.734 2.541 1.734 2.541v.4l-1.347.413v1.19l-.906.307v1.229h-1.338v.8h.346v.211l-2.669.736-1.242 11.835h-.141v-.563h-.947v-1.242l.445-.179v-.531h-.445V79.25h.208s.087-.563 0-.563h-1.597v-.474h-.298v-2.192l.353-.355h-1.447l-1.334.8-7.579-1.479h-5.715s.236-.387 0-.387h-1.037v.266H60.79l-5.594.742-4.916-1.245v-.384l-.167-.304v-5.428h-.179v6.058h-3.393l-.425-11.864.167-.454v-.474l-.167-.947.365-1.043h.436l.531-.474v-.672l.275-.256v-.179h-.393v-.871l.179-.176v-.298h-.71v-.653l.313-.313v-.333h-.39v-.534l.294-.275v-.198l-.516-.237v-.215h.138v-.301h-.176v-.435l.726-.451v-.65l2.253-.634v-.825l.672-.576v-.313h-.791v-.317l.573-.493v-.259l.336-.134v-.377l-3.457-.788v-.573h-.432v-.753l-.474-.195-.179-1.68-.294-.294L45 41.857l-.864-.278-.634-.669S45 39.841 45 38.58c0-1.264-1.185-2.368-1.185-2.368l-.387-.186.637-1.156 1.862-.387V34.1l-.976-.71 1.6-5.537-.355-.266.115-.653.24.502.621-.502-.176-.887-.534.327.089-.506h-.269l-.502.743-1.274-.595-.441-2.573-1.245-1.069 1.213-1.209.064-.861-1.277-.592-.819 1.037.138.474h-.323l-.502-1.242.688-1.747v.441l.256-.058.49-1.229-.134-.813.077-.755.368-.208.253-.829-.461-.519.058-1.29h-.115l-.208 1.29-.666.372-.09.368.4.8-.359 1.332s-.947 1.437-1.107 1.763c-.164.323-.282.973-.282.973v.742l-1.511.595-.41.928-1.098 1.126.176.358.902.115.918-.857 1.303.057.179.979-.359.205-.013.384.343.445-.195.179-.871.474-.045.429.576.343-.16.71-1.082 2.026-.477 2.429.784.074-.237.682.771.368-.784 1.408.441 1.271.474-.16-.339.768.23.451c-.33.368-.999 1.229-.999 2.18 0 1.261 1.498 2.33 1.498 2.33l-.63.669-.867.278-.397 1.933-.294.294-.179 1.68-.474.195v.752h-.436v.573l-3.45.788v.377l.333.134v.259l.576.493v.317h-.79v.313l.669.576v.825l2.253.634v.65l.729.451v.435h-.179v.301h.141v.215l-.515.237v.198l.298.275v.534h-.395v.333l.313.313v.653h-.71v.298l.179.176v.871h-.397v.179l.279.256v.672l.534.474h.432l.365 1.043-.167.947v.474l.167.454-.422 11.864H34.58v-.71h-3.431v.233l-3.834-1.734v-1.639l-.169-.163V50.648l.202-.105v-.16h-.544v.198l.16.077v1.056l-4.558 15.263s-.131.758.24.947c.368.192 1.287.874 1.242 1.392-.042.519-.105.931-.105.931s.822-.944.931-1.834c.105-.89 1.085-5.287 1.277-5.741.192-.461.372-1.677.339-2.074-.025-.387.025-1.571.634-1.443v11.144l-.298.214v1.639l-5.072 1.798h-7.227L.554 76.753v.669l.275.317v2.291l-.199.193v2.253l.199.198v4.5l-.256.256v5.348L0 93.645v6.593h374.937V85.795l-.266-.321zM45.646 27.187v.31h-.323l-.608 2.605-.163-1.667.281-.375-.31-.474-.086-.816 1.209.417zm286.819 39.978s.109-.921.679-.921c.563 0 .679.921.679.921v2.439h-1.358v-2.439z"/></svg>