<svg xmlns="http://www.w3.org/2000/svg" width="973.096" height="239.051" viewBox="0 0 973.096 239.051"><path d="M922.061 212.754v-6.047a.848.848 0 0 0-.367-1.616l-.73-2.19a.718.718 0 0 0-.548-.692l-.042-1.377c.231 0 .42-.244.42-.547s-.188-.548-.42-.548c0 0-.063-1.461-.14-1.461-.078 0-.141 1.461-.141 1.461-.232 0-.421.245-.421.548s.188.547.421.547l-.043 1.377a.718.718 0 0 0-.547.692l-.73 2.19a.854.854 0 0 0-.854.853c0 .339.202.625.488.763v6.063c-4.194.022-8.327.06-11.986.104v-8.248h1.052l-9.802-27.767v-2.353a.82.82 0 0 0 .637-.791.819.819 0 0 0-.637-.793v-1.409a.197.197 0 0 0-.196-.196.197.197 0 0 0-.195.196v1.409a.82.82 0 0 0-.636.793c0 .39.272.701.636.791v2.351l-9.803 27.769h1.053v7.312h-17.178c-5.059-3.455-11.776-8.125-11.776-8.125h-2.144l-10.709-17.211v-2.313a.124.124 0 0 0-.122-.123.123.123 0 0 0-.122.123v2.314l-9.673 15.548H835.3v-2.838h-2.644v2.838h-7.635v-5.481h-4.449l-8.29-19.945v-5.344a.733.733 0 0 0 .582-.711.736.736 0 0 0-.582-.713v-1.449a.16.16 0 0 0-.162-.162.161.161 0 0 0-.162.162v1.449a.735.735 0 0 0-.582.713c0 .354.252.636.582.711v5.344l-4.116 9.904-1.627-3.912v-2.33a.094.094 0 0 0-.092-.094.095.095 0 0 0-.095.094v2.33l-5.838 14.052h-21.173l-5.762-13.858v-1.691a.076.076 0 0 0-.078-.079.077.077 0 0 0-.077.079v1.693l-1.278 3.074-1.656-3.988v-1.715a.08.08 0 0 0-.077-.08.078.078 0 0 0-.079.08V182l-4.685 11.269v-60.476h-1.332v-4.905h.446l-.05-.437s-.855-.22-1.457-3.789c-.796-4.73-1.692-20.3-1.747-20.297-.056.002-.952 15.567-1.75 20.297-.308 1.84-.685 2.785-.978 3.273-1.297-2.876-2.776-7.608-4.033-15.4-3.673-22.788-7.781-93.662-8.621-104.719a.885.885 0 0 0 .757-.87.888.888 0 0 0-.809-.879V1.654c1.098-.297 2.405.061 2.958-.923-.952.308-2.16.01-2.958.285V.091A.09.09 0 0 0 745.66 0a.093.093 0 0 0-.092.091v1.001c-.317.164-.55.453-.632.977a1.9 1.9 0 0 1 .632-.358v3.358a.892.892 0 0 0-.807.879c0 .446.33.798.757.869-.84 11.057-4.947 81.928-8.62 104.719-1.798 11.132-4.046 16.031-5.571 18.173v-1.822h.612l-.05-.438s-.856-.219-1.457-3.787c-.795-4.731-1.692-20.301-1.747-20.298-.056.002-.952 15.567-1.748 20.298-.602 3.568-1.456 3.787-1.456 3.787l-.051.438h.54v4.904h-1.182v31.891h-9.705v-6.667h1.341l-.045-.288s-.786-.145-1.337-2.492c-.728-3.111-1.553-13.352-1.604-13.352-.05.002-.873 10.24-1.604 13.352-.551 2.348-1.334 2.492-1.334 2.492l-.047.288h1.342v9.065l-7.333 10.504h-4.626l-12.537 18.988-1.823-3v-15.174h.938l-.048-.436s-.856-.219-1.459-3.789c-.793-4.73-1.692-20.301-1.745-20.299-.056.002-.955 15.568-1.75 20.299-.599 3.57-1.454 3.789-1.454 3.789l-.051.436h.697v9.773h-6.328l-7.312 10.502c-2.451-1.794-4.798-3.447-6.387-4.496V165.94h-6.317v4.266h-2.085v-22.91l-30.844-32.83-5.331 3.126v30.366l-11.033 15.405v-22.282l.301-.297v-2.349h-3.671l-.595-.662h-3.306v-2.58h.793v-1.387h-7.408v-7.541h-2.047v.797h-1.458v3.369H580.9v-3.106h.595v-.99h-7.144v-.992h-.99V122.5h-9.787v-12.89h-1.122v.855h-2.646v20.829h-.598v32.095h-1.402v.634h-11.291v-1.848h-.927v1.324h-2.91V95.391h-9.256v-3.572h-4.364v-.662h-4.761v1.059h-1.586v-1.059h-1.586v-1.189h-1.589v1.852h-4.495v1.59h-5.289v-1.59h-9.39v-.793h-6.878v-1.059h-1.721v1.852h-2.379v-.793h-2.248v1.324h-2.646v-3.043h-1.323v2.777h-.79v3.969h-6.085v65.327h-1.323v-1.457h-1.319v1.062h-.172v-2.726s-2.209-.605-4.688-1.682c1.381-.193 2.45-1.416 2.45-2.914 0-1.629-1.262-2.951-2.821-2.951h-.135v-13.359c.397-.348.66-.896.66-1.52 0-1.053-.734-1.908-1.641-1.908h-.582a8.818 8.818 0 0 1-.354-1.195c-.607-2.652-1.278-10.373-1.514-12.854a.899.899 0 0 0 .824-.892.898.898 0 0 0-.814-.889v-3.475c1.092-.264 2.367.058 2.911-.914-.932.302-2.105.028-2.911.262v-.908a.094.094 0 0 0-.094-.093.093.093 0 0 0-.092.093v.97c-.365.157-.629.457-.72 1.031.218-.189.462-.311.72-.393v3.427a.896.896 0 0 0-.814.888c0 .472.361.846.822.891-.233 2.482-.904 10.202-1.512 12.855a8.837 8.837 0 0 1-.354 1.196h-.583c-.905 0-1.64.854-1.64 1.906 0 .625.261 1.174.66 1.521v13.359h-.136c-1.559 0-2.821 1.32-2.821 2.951 0 1.328.844 2.438 1.998 2.809a40.158 40.158 0 0 1-4.983 1.787v4.564h-10.863v-4.976h.229a.434.434 0 0 0 0-.869h-.609a.834.834 0 0 0 .198-.525.845.845 0 0 0-.844-.845h-.247v-.696a.255.255 0 1 0-.511 0v.696h-.155a.845.845 0 0 0-.845.845c0 .203.081.379.198.525h-.609a.434.434 0 1 0 0 .869h.229v5.526l-9.087 9.996h-6.435l-1.29 1.174h-3.212v-3.522h-12.235v4.894h-4.405v-1.174h-1.566v1.174h-9.396v-2.937h-2.447v3.565l-6.559-4.74h-6.656v-4.014h-2.545v4.014h-9.789v-1.076h-3.425v1.076h-2.74v-1.076h-3.426v1.076h-4.502v-1.076h-3.426v1.076h-3.524l-4.613 2.349h-6.972v-7.771s.312.139.502 0c.19-.137.218-6.036 0-6.207-.069-.053-1.269-.086-2.876-.1.008-.062.019-.123.019-.188 0-.725-.587-1.312-1.312-1.312h-2.157v-5.394c.968.534 2.545.839 3.528-.06-1.372.348-2.442-.879-3.528-1.248v-.166a.103.103 0 0 0-.103-.103.101.101 0 0 0-.102.103v6.867h-1.02c-.725 0-1.313.588-1.313 1.312 0 .067.01.132.02.196-1.658.02-2.897.051-2.931.09-.105.121-.157 6.025 0 6.207.156.184.502 0 .502 0v6.5h-5.54V172h-1.272v2.152h-4.267v-9.502c.125-.607.264-1.646-.113-2.115-.55-.688-1.485-.908-2.365-2.394-.641-1.083-.975-3.054-1.158-4.047a.439.439 0 0 0 .291-.41c0-.218-.16-.39-.367-.425v-.117a.291.291 0 0 0 .22-.279.347.347 0 0 1-.22.123v-.57l.209-.125a.065.065 0 0 0 .022-.09.065.065 0 0 0-.092-.023l-.14.082v-.832h.77a.072.072 0 0 0 .073-.073.073.073 0 0 0-.073-.073h-.77v-.22H308c.018 0 .032-.017.032-.037s-.015-.037-.032-.037h-.331v-.165a.074.074 0 0 0-.147 0v.165h-.33c-.018 0-.032.017-.032.037s.014.037.032.037h.33v.22h-.77a.073.073 0 1 0 0 .146h.77v.921l-.208.125a.065.065 0 0 0-.022.091c.019.031.06.042.091.023l.14-.084v.484a.283.283 0 0 1-.22-.125.29.29 0 0 0 .22.279v.117a.432.432 0 0 0-.368.425c0 .188.122.349.291.409-.183.994-.517 2.966-1.158 4.047a5.182 5.182 0 0 1-1.38 1.552c-.028-.063-.053-.13-.093-.181-.483-.604-1.305-.797-2.08-2.104-.563-.951-.856-2.684-1.018-3.556a.384.384 0 0 0 .255-.36.38.38 0 0 0-.322-.373v-.104a.255.255 0 0 0 .194-.245.312.312 0 0 1-.194.108v-.502l.184-.109c.027-.016.036-.053.02-.08s-.053-.038-.081-.02l-.123.072v-.73h.677c.036 0 .064-.029.064-.064s-.029-.062-.064-.062h-.677v-.194h.291c.015 0 .028-.015.028-.032 0-.019-.013-.033-.028-.033h-.291v-.146a.064.064 0 0 0-.064-.063.063.063 0 0 0-.064.063v.146h-.291c-.015 0-.028.015-.028.033 0 .018.013.032.028.032h.291v.194h-.518c.013-.682-.078-1.338-.402-1.743-.913-1.142-2.464-1.507-3.925-3.972-1.065-1.797-1.619-5.064-1.922-6.713a.726.726 0 0 0 .482-.681.723.723 0 0 0-.609-.706v-.193a.48.48 0 0 0 .366-.463c-.104.116-.19.193-.366.217v-.959l.346-.207a.11.11 0 0 0 .037-.151.111.111 0 0 0-.151-.039l-.232.14v-1.381h1.278a.123.123 0 0 0 .122-.123.122.122 0 0 0-.122-.121h-1.278v-.365h.548c.029 0 .053-.027.053-.062 0-.032-.024-.062-.053-.062h-.548v-.272a.122.122 0 0 0-.244 0v.272h-.548c-.029 0-.053.029-.053.062 0 .034.024.062.053.062h.548v.365h-1.277a.122.122 0 0 0-.122.121c0 .067.054.123.122.123h1.277v1.526l-.346.208a.11.11 0 0 0-.038.15.11.11 0 0 0 .152.039l.231-.14v.817c-.174-.018-.259-.077-.365-.221 0 .226.157.407.365.461v.194a.723.723 0 0 0-.608.706c0 .314.202.578.48.68-.304 1.649-.857 4.922-1.92 6.715-1.461 2.465-3.013 2.83-3.925 3.971-.324.404-.416 1.062-.402 1.742h-.354v-.193h.291c.015 0 .027-.016.027-.033s-.013-.031-.027-.031h-.291v-.146a.064.064 0 0 0-.129 0v.146h-.29c-.016 0-.028.014-.028.031s.013.033.028.033h.29v.193h-.676a.064.064 0 0 0-.064.063c0 .036.029.063.064.063h.676v.81l-.183.11a.059.059 0 0 0-.021.08.06.06 0 0 0 .081.021l.123-.073v.426a.253.253 0 0 1-.193-.11c0 .12.083.215.193.245v.104a.38.38 0 0 0-.068.733c-.16.874-.454 2.606-1.017 3.556-.773 1.307-1.596 1.5-2.079 2.104a.853.853 0 0 0-.127.248c-.455-.344-.97-.776-1.469-1.618-.642-1.083-.975-3.054-1.159-4.048a.435.435 0 0 0 .291-.409c0-.218-.16-.39-.366-.425v-.117a.29.29 0 0 0 .22-.279.347.347 0 0 1-.22.123v-.57l.208-.125a.065.065 0 0 0 .023-.09.065.065 0 0 0-.092-.023l-.139.082v-.832h.77c.04 0 .073-.032.073-.073a.073.073 0 0 0-.073-.073h-.77v-.22h.33c.018 0 .031-.017.031-.037s-.014-.037-.031-.037h-.33v-.165c0-.041-.033-.074-.074-.074s-.073.033-.073.074v.165h-.331c-.018 0-.032.017-.032.037s.015.037.032.037h.331v.22h-.77a.073.073 0 1 0 0 .146h.77v.921l-.208.125a.065.065 0 0 0-.022.091c.019.031.06.042.091.023l.14-.084v.484a.282.282 0 0 1-.22-.125.29.29 0 0 0 .22.279v.117a.432.432 0 0 0-.077.834c-.184.994-.517 2.966-1.158 4.048-.88 1.485-1.815 1.705-2.365 2.394-.373.465-.24 1.485-.116 2.096v11.088h-2.296c-.838 0-1.518.68-1.518 1.518 0 .441.19.833.49 1.11v5.008h-3.034v8.224h-5.581v-1.152h2.168l-11.75-16.801V171c0-.098-.07-.178-.155-.178s-.155.08-.155.178v2.598l-11.771 16.828h2.169v1.152H229.2v-3.425h.947l-5.132-7.336v-1.147c0-.043-.03-.078-.068-.078-.037 0-.067.035-.067.078v1.136l-5.14 7.348h.947v3.425h-26.265v-31.951h.182a1.277 1.277 0 1 0 0-2.554h-.51c-.731-2.064-2.894-6.51-8.345-8.507v-6.464h-.76v-9.223c.302-.41.486-.91.486-1.459 0-1.25-.935-2.271-2.142-2.432v-6.427a1.448 1.448 0 0 0-.87-2.542v-1.725a1.638 1.638 0 0 0 1.187-1.571c0-.703-.443-1.298-1.064-1.532-.216-.478-.463-1.264-.674-2.568-.474-2.938-.991-10.68-1.264-14.867.505-.092.89-.533.89-1.064 0-.56-.429-1.016-.974-1.072v-3.897c1.295-.303 2.798.068 3.443-1.081-1.099.355-2.484.038-3.443.3V89.63a.109.109 0 0 0-.108-.109.11.11 0 0 0-.111.109v1.388c-.45.184-.779.541-.888 1.24.268-.234.569-.38.888-.477v3.84a1.082 1.082 0 0 0-.975 1.072c0 .532.385.973.891 1.064-.273 4.187-.79 11.929-1.264 14.867-.21 1.304-.457 2.09-.674 2.568a1.637 1.637 0 0 0-1.064 1.532c0 .748.503 1.372 1.187 1.571v1.725a1.448 1.448 0 1 0-.871 2.542v6.428a2.459 2.459 0 0 0-2.142 2.433c0 .547.185 1.047.487 1.457v9.224h-.76v6.203c-5.344 1.838-7.581 6.606-8.341 8.769h-.515a1.277 1.277 0 1 0 0 2.554h.183v16.703l-6.662 10.988h-22.929l-.068-4.688h1.169v-2.281h-1.215c.347-.438.563-.98.563-1.582a2.545 2.545 0 0 0-1.705-2.398V167.816h.122a.792.792 0 0 0 .792-.792.786.786 0 0 0-.754-.783 1.584 1.584 0 0 0-1.133-2.688h-.274v-4.842c.206-.235.335-.541.335-.877v-1.949c0-.645-.458-1.184-1.065-1.309v-6.109a.758.758 0 0 0 .487-.707.754.754 0 0 0-.684-.745c.009-.198.014-.433.014-.685 0-.707-.041-1.279-.091-1.279-.05 0-.091.572-.091 1.279 0 .252.005.486.016.685a.754.754 0 0 0-.684.745.76.76 0 0 0 .486.707v6.109a1.336 1.336 0 0 0-1.064 1.309v1.949c0 .336.129.641.335.875v4.844h-.273a1.584 1.584 0 0 0-1.133 2.688.787.787 0 0 0 .037 1.575h.122v8.556a2.55 2.55 0 0 0-1.704 2.399c0 .601.216 1.146.563 1.582h-1.128v2.282h1.144l.129 8.904-6.263 8.197 1.704.055v4.806h-2.37l-4.33 2.544s-4.258-1.501-11.701-2.176v-15.453h1.217v-8.124h2.667l-14.455-18.065V160.5a.19.19 0 1 0-.38 0v2.793l-14.48 18.097h2.668v8.124h1.217v16.3c-2.174.349-4.43.785-6.766 1.329C54.742 212.76 0 239.051 0 239.051h973.096s-20.634-18.774-51.035-26.297zm-634.3-57.931c.027-.017.062-.021.086-.048a.245.245 0 0 1-.001.001c-.023.025-.058.03-.085.047zm.076-.551a.059.059 0 0 0 .019-.079.06.06 0 0 0-.081-.021c.028-.019.064-.008.081.02a.058.058 0 0 1-.019.08zm-.184-.757l.001.729.085-.051-.086.053v-.731zm0 .868l.001.499-.001.001v-.5zm0 .638s0-.001 0 0l.001.103a.381.381 0 0 1 .322.373c0 .135-.079.237-.183.306.104-.069.182-.171.182-.304a.383.383 0 0 0-.322-.375v-.103zm.066.837c.001 0 .001-.001 0 0 .11.592.28 1.573.555 2.444v.005c-.275-.872-.446-1.857-.555-2.449zm13.48-.361c0-.066.035-.119.065-.173-.03.053-.064.106-.065.173zm-.463 3.277a8.71 8.71 0 0 0 0 .002v-.002zm.542-2.006a39.85 39.85 0 0 1 0 0zm.014-1.517zm.036-.475s-.001 0 0 0zm.011-.343a.06.06 0 0 0-.021.08.057.057 0 0 1 .021-.08l.183-.11-.183.11zm160.894-7.843a.328.328 0 0 0 .329-.328v.001a.328.328 0 0 1-.328.329c-.127 0-.216-.083-.271-.188.056.104.144.186.27.186zm159.101-30.535l11.407 12.793h-7.043l-8.562-10.383 4.198-2.41zm2.378 12.694h-6.545l-.032-8.901 6.577 8.901zm-157.024 17.513a.328.328 0 1 0 .657 0v-2.87a.323.323 0 0 0 .001.001v2.87a.329.329 0 1 1-.658-.001zm-.448-2.869v2.87a.33.33 0 0 1-.329.329c-.127 0-.216-.083-.271-.188.055.104.144.186.27.186a.328.328 0 0 0 .329-.328l.001-2.869zm-1.944 2.869a.328.328 0 0 0 .658 0v.001a.33.33 0 1 1-.658-.001zm-.597-2.869v2.87a.33.33 0 0 1-.329.329c-.127 0-.216-.083-.271-.188.055.104.144.186.27.186a.328.328 0 0 0 .329-.328l.001-2.869z"/></svg>