<svg xmlns="http://www.w3.org/2000/svg" viewBox="0 0 361.465 175.207"><path d="M0 136.648v38.559h361.465v-51.813h-4.559v10.748h-.5v1.276h.5v1.094h-.541v1.273h.541v1.096h-.592v1.274h.592v1.091h-.637v1.279h.637v1.092h-.682v1.272h.682v1.094h-.727v1.276h.727v1.094h-.771v1.275h.771v1.095h-.82v1.274h.82v1.09h-.864v1.275h.864v1.094h-.912v.819h-2.457v-1.094h-1.139v-1.82h-.502v-2.78h-1.229v2.78h-.319v-5.417l1.76-2.97-1.604-1.765-.079-7.463.522-.939v-3.614h-3.975v7.282h-1.865v3.247l-9.025-6.015v-1.326l-.477-1.563-.064-5.414.541-.542v-.761l-.438-.14v-1.285l.211-.211v-1.033h-.211l.019-7.221h.401l-.039-2.404.259-.387-.021-4.369-.567-.393v-1.593l.688-.694-.121-1.684-.328-.18-.209-2.195-1.055-.602-1.656.633v2.222l-.27.272-.121 1.475.301.361-.059.392-3.941-3.642v-3.941h-.361V97.41l.451-.695v-4.119l-.347-.344V83.24l-1.425-1.424-.665-4.954.573-.753.115-1.294-.9-.42-.42-4.814.541-.959-.631-.394-.451-8.125.361-.6.567-.148-.872-.753-.146-.631.18-.304-.301-.301.029-.872.633-.592-.621-.542-.121-2.042-.121-.042-.122.042-.118 2.042-.624.542.632.592.031.872-.301.301.18.304-.148.631-.871.753.567.148.362.6-.452 8.125-.632.394.542.959-.421 4.814-.906.42.122 1.294.573.753-.672 4.954-1.418 1.424v9.012l-.347.344v4.119l.451.695v2.074h-.36v3.941l-3.938 3.642-.062-.392.301-.361-.116-1.475-.274-.272v-2.222l-1.652-.633-1.059.602-.209 2.195-.334.18-.117 1.684.694.694v1.593l-.577.393-.021 4.369.266.387-.041 2.404h.402l.02 7.221h-.209v1.033l.209.211v1.285l-.439.14v.761l.543.542-.062 5.354-1.185-3.219h-2.922l-4.742 11.744-.598.398-.062-.161v-3.046h-1.227l-.638-1.583v-5.699h-2.293l-.633-1.569-2.969.174-5.121 11.31-2.576-4.86-1.979-.129v-24.77l.201-.229v-6.697l-.027-3.182-.377-21.116-1.489-19.433.171-1.435-.229-3.039-1.488-15.655-.317-7.253.545-1.292-.2-1.776-.514-.6-.316-6.082.397-1.173-.512-1.376s1.862-.973 2.12-1.72c.255-.743.373-1.746-.459-2.896-.832-1.147-2.582-3.124-2.582-3.124s-1.889 2.204-2.233 2.722c-.342.518-1.75 2.41-.715 3.755 1.028 1.35 1.776 1.463 1.776 1.463l-.404 1.318.318 1.091-.862 5.99-.347.55-.198 2.032.721 1.376-2.612 23.293.088.772-.646.087.558 2.021-.604 2.066-3.053-1.036-1.199-14.619.299-1.892-.645-2.408-.604-12.946-.902-3.052-.218-6.151.773-1.805-.945-2.711-.299-6.103.344-.859-.299-.864s2.308-1.2 2.246-2.235c-.054-1.033-.998-2.695-1.718-3.554C270.27.716 269.523 0 269.523 0l-1.775 1.722s-2.15 2.32-1.52 3.494c.629 1.178 1.918 2.208 1.918 2.208l-.285.692.375.973-.488 6.222-.919 2.634.692 1.606-.547 6.478-.648 2.923-1.241 12.302-.605 1.546.558 2.41-1.878 15.597-1.262 22.759-.285 2.526-1.836-.457.113-1.723-.801-.285-.346-11.467-.166-1.95 1.086-.917s.686-1.033.518-1.836c-.178-.806-2.297-2.922-2.297-2.922s-2.24 2.549-2.234 2.748c.059 2.209.891 2.41 1.351 2.755l.054 1.95-.488 1.889.461 1.377-.543 4.444-.404-.114-.745-3.612.146-1.723-.373-.486.658-.917-.804-.143-.8.143.658.917-.373.486.145 1.723-.746 3.612-.402.114-.545-4.444.457-1.377-.485-1.889.057-1.95c.462-.346 1.289-.546 1.351-2.755.002-.199-2.238-2.748-2.238-2.748s-2.121 2.117-2.291 2.922c-.174.803.516 1.836.516 1.836l1.092.917-.178 1.95-.341 11.467-.806.285.119 1.723-1.836.457-.291-2.526-1.256-22.759-1.879-15.597.559-2.41-.6-1.546-1.25-12.302-.644-2.923-.544-6.478.686-1.606-.918-2.634-.486-6.222.373-.973-.287-.692s1.289-1.03 1.918-2.208c.634-1.173-1.518-3.494-1.518-3.494L240.396 0s-.746.716-1.461 1.577c-.718.859-1.666 2.521-1.722 3.554-.058 1.036 2.254 2.235 2.254 2.235l-.304.864.341.859-.296 6.103-.951 2.711.776 1.805-.218 6.151-.899 3.052-.604 12.946-.642 2.408.302 1.892-1.207 14.619-3.054 1.036-.601-2.066.556-2.021-.642-.087.086-.772-2.61-23.293.72-1.376-.203-2.032-.342-.55-.859-5.99.313-1.091-.405-1.318s.746-.114 1.781-1.463c1.033-1.345-.375-3.237-.716-3.755-.347-.518-2.238-2.722-2.238-2.722s-1.749 1.977-2.579 3.124c-.83 1.149-.718 2.153-.459 2.896.26.748 2.122 1.72 2.122 1.72l-.519 1.376.404 1.173-.317 6.082-.515.6-.198 1.776.544 1.292-.317 7.253-1.489 15.655-.228 3.036.174 1.435-1.496 19.433-.369 21.117-.029 3.18v6.699l.197.228v11.741l-.444.717v.624h-.146v.304h.119v.364l-.231.245-.031.289.119.244-.031.437.057.233v1.111h-.306v.928s-1.326.711-2.468 2.412v-17.748h-.486v-.879h-5.732v.879h-1.553v12.781h-4.555v-5.285h-.729v5.285h-.274v1.066h-.519v13.871l-.502 1.256-5.117-12.686h-2.924l-.541 1.467-.016-.791-.971.023-.019-.908-.291.002-.03-1.328.16-.002-.016-.695-.188.002-.021-.866.542-.479.019-.387-.398-.387.018-.957-.285.008-.018-.811.229-.006-.008-.446-.304.005-.024-1.027h.102l-.008-.334-.275.004-.036-1.81-.175.005.039 1.812-.305.003.012.42h.1l.022.897-.364.006-1.43-2.531.021-.926.271-.008-.007-.436-.326-.193-.064-1.839-.611-.581-.031-1.503.367-.386-.055-.506-.432.023-.036-1.461-.272.008.011.619-.228.008-.057-2.347.37-.384-.006-.248-.349.008-.057-1.184-.425-.299-.009-.519-.691-.897-.129-.043-.04-1.777-.159.005.037 1.776-.213.023-.59.879.014.479-.429.356.026 1.244-.375.01.008.404.396.225.054 2.356-.26.009-.021-.943-.267.006.043 1.754-.504.011-.076.509.479.221.037 1.664h-.101l-.021-.809-.26.004.029 1.362-.432.449.02.776-.268.006v-.734l-.711-.507-.068-3.229-.158.004.07 3.244-.66.686.041 1.729-.617.13-.002.42.153.229.042 2.082-.463.056.003.813s-.384.093-.384.15c0 .061.051.377.051.377l.309.24.209 1.021-.229.512-.135-.793-.188.021-.062 1.174-.252.351.018 1.438-.365.203.009.301.22.211.02.762-.906 2.344-.01-.542-.349.009-.092-2.257h-.154l-.055 2.308-.261.047.035 1.693-.323.008.024 1.236-.301.008.013.627-3.52 7.25c-3.269-1.166-9.118-3.133-12.64-3.586v-.436h-.347v-1.865h-.391v.366l-7.47-2.931v-3.432h-.215v3.303h-.152v-2.039h-3.281v-.674h.348v-.873l-.5-.521.092-5.321.213-.301v-.521l-.195-.174.043-.74 1.064-.5v-.871l-1.324-.607v-.908l-.327.022.042-.288.201-.018v-1.303h-.394v-1.978h-1.044s-.391-6.19-6.6-9.97v-.332l.433-.582v-.664h-.478v-1.477l-.196-.197v-1.918l.47-.302v-.333h-.52l-.029-1.535.13-.129v-.478l-.18-.181-1.472-1.906-.043-.576h.146v-.322h-.146v-.457l.108-.111v-.283h-.166l-.114-2.506-.087.016-.087-.016-.115 2.506h-.17v.283l.111.111v.457h-.148v.322h.148l-.045.576-1.467 1.906-.186.181v.478l.131.129-.027 1.535h-.523v.333l.476.302v1.918l-.195.197v1.477h-.478v.664l.43.582v.332c-6.212 3.778-6.598 9.97-6.598 9.97h-1.043v1.978h-.395v1.303l.196.018.045.288-.325-.022v.908l-1.326.607v.871l1.062.5.047.74-.195.174v.521l.215.301.087 5.321-.499.521v.873h.346v.674h-3.279v2.039h-.15v-3.303h-.215v3.432l-7.474 2.931v-.366h-.392v1.865h-.347v.436c-5.083.652-15.533 4.686-15.533 4.686l.032-.607-.671-.922.084-1.758-.462-.766-.032-1.11-.325-.017.151-2.994.324.018.035-.627-.308-.016.064-1.236-.325-.02.082-1.688-.259-.059.008-2.305-.153-.009-.153 2.254-.349-.016-.026.541-.835-2.369.034-.759.23-.206.013-.304-.357-.213.057-1.434-.246-.357-.026-1.178-.188-.023-.153.789-.225-.518.24-1.018.317-.229s.058-.319.062-.375c.003-.059-.385-.163-.385-.163l.028-.812-.462-.065.105-2.085.153-.223.008-.42-.61-.146.087-1.73-.64-.704.161-3.236-.155-.014-.162 3.227-.718.486-.026.741-.267-.016.037-.773-.418-.463.069-1.36-.262-.013-.04.812-.103-.008.087-1.665.485-.209-.062-.51-.505-.021.087-1.752-.259-.011-.048.938-.259-.014.116-2.357.404-.211.021-.403-.378-.021.063-1.242-.42-.369.023-.479-.561-.897-.216-.023.087-1.775-.158-.008-.09 1.775-.133.037-.711.877-.025.523-.434.281-.09 1.184-.347-.021-.013.248.359.396-.117 2.342-.232-.012.033-.619-.275-.018-.074 1.461-.434-.035-.068.5.356.397-.077 1.506-.617.562-.122 1.838-.33.182-.019.436.274.014-.005.928-1.501 2.492-.362-.02.048-.896.099.005.023-.42-.307-.016.09-1.809-.172-.008-.09 1.809-.275-.012-.016.333h.101l-.053 1.03-.304-.016-.019.448.228.011-.04.809-.291-.014-.002.955-.409.371.007.395.526.488-.039.867-.191-.006-.036.689.161.008-.066 1.335-.285-.017-.048.908-.97-.048-.047.912.126.138-.032.633-.171-.006-.023.461.113.006-.061 1.199-.796-.039-.018.361.882 1.521-.023.451-.113-.008-.04.754.188.008-.367 7.424-2.437.054v-4.319h-.243v-1.642h-1.46v1.642h-1.273v-8.02h-1.456v-1.02h-1.884v-7.351h-.666v-.364H75.67v-.24h-.972v.604h-.244v7.351h-.061v1.028h-.303v9.66h-.849v-.729h-.851v-7.408h-2.978v8.139h-.482v.846h-.901v-3.24l.13-.155-.088-.728.722-.404-.026-.377-.959-.547V136h.322v-.727h-.48v-.764l-.274-.274c-.898-4.085-3.837-5.647-3.837-5.647v-.928h-.307v-1.113l.062-.232-.029-.436.114-.246-.026-.289-.233-.244v-.364h.113v-.304h-.145v-.624l-.867-1.388v-.623h.114l-.016-.422h-.156l-.146-2.547-.087.014-.085 2.551h-.119v.375h.104v.669l-.898 1.362v.578h-.119v.326h.175l-.085.451-.254.254.008.342.133.137v.492l.101.097v1.224h-.347v.793c-3.609 1.805-3.68 5.324-3.68 5.324h-.447v.883h-.291v.491h-.163v.278l.163.171v.346l-.866.779v.177l.61.652v.771l.085.082-.104 4.141-3.981 1.636v-1.157h-.262v-.956H51.1v.956h-.301v1.637l-.291-.033-.984-.979v-1.205h-.246v1.215l-1.1.971-.925.178.521.462v.231l-.613.418v1.332h-.996l.971.842v1.246h-.204v.504h.103V152H44.82v-17.492h-3.766v-17.734h-2.793v-.85h-6.65v-.817h-2.37v-3.101h-.819v3.101h-.364v1.667h-.121v32.798h-.608v1.091h-1.123v-40.264h-1.698v-3.945h-1.733v-.55H14.85v.55h-.455v-.82h-.821v3.099h-.364v1.668h-.122v14.043H12.3v2.231h.787v.455h-.835v2.231h.835v.457h-.877v2.229h.877v.455h-.925v2.232h.925v.457h-.972v.682H8.199v5.834H7.29v-1.371h-.365V124.67H2.914v7.832H1.73v4.147L0 136.648zm196.105-5.434l-.047.127-.007-.075.054-.052zm39.622-64.306l-.131 9.372-1.549-.064-.816-8.666 1.267-1.57c-.002 0 1.229.861 1.229.928zm13.843 24.574l-.573 13.846-.545-.461-.056-12.697 1.174-.688zm11.955.687l-.058 12.697-.548.461-.57-13.846 1.176.688zm15.166-24.619l-.818 8.666-1.548.064-.128-9.372c0-.066 1.227-.928 1.227-.928l1.267 1.57z"/></svg>