<svg xmlns="http://www.w3.org/2000/svg" viewBox="0 0 361.463 193.607"><path d="M360.099 160.084v-.546h-.41v-.957h-.318v-3.325h-.184v-1.274h-.683v1.274h-1.731v3.325h-3.324v.957h-4.326v.546h-.775v15.548h-1.82v-.447h-.229v-.297h-3.348v.297h-.432v-15.372h-.487v-8.958l-.546-.328v-3.68h-5.043v.654l-2.914-1.749-8.502 5.103v18.946h-1.411V167.1h-1.458v-1.73h-2.915v1.73h-.319v2.701h-.456v4.769h-1.457v3.492h-1.45v-7.643l-.68-2.432h-4.425s-.34-1.343-1.271-1.908v-1.033l-.371-.645-.305.596h-.195v-2.839l.08-.079v-.485h.151v-.82h-.292v-1.55h-.656v.803l-.492-.312s.819-7.021-5.892-12.234v-.486l-.269-.268v-.328h.109v-.682h-.268v-3.891l.122-.122v-.862h-.226s.236-1.514-1.404-3.52l-.236-2.225h-.127l-.273 2.205s-1.222 1.132-1.312 3.502h-.219v.856l.201.127v3.939h-.22v.547h.183v.535l-.146.304v.462s-3.55 3.343-3.915 5.094h-.389v-2.819l-.159-.158v-1.059l-.765-1.046v-.851l-.243-.243.022-1.75.377-.377-.425-2.906-1.36-1.773s-.099-9.336-9.385-16.146v-.511l-1.291-1.337v-1.823l.194-.049v-.486l-.39-.292v-3.963l.099-.098v-.974l.206-.207-.061-.79-.244-.267v-1.386s-.072-2.213-1.799-3.55l-.328-3.234h-.084l-.33 3.234c-1.726 1.337-1.799 3.55-1.799 3.55v1.386l-.242.267-.062.79.207.207v.974l.097.098v3.963l-.389.292v.486l.193.049v1.823l-1.287 1.337v.511c-9.288 6.81-9.387 16.146-9.387 16.146l-1.36 1.773-.425 2.906.377.377.023 1.75-.244.243v.851l-.766 1.046v1.059l-.158.158v2.819h-.389c-.364-1.751-3.914-5.094-3.914-5.094v-.462l-.146-.304v-.535h.183v-.547h-.218v-3.939l.199-.127v-.856h-.219c-.091-2.37-1.312-3.502-1.312-3.502l-.274-2.205h-.128l-.235 2.225c-1.643 2.006-1.405 3.52-1.405 3.52h-.226v.862l.123.122v3.891h-.269v.682h.11v.328l-.269.268v.486c-6.71 5.215-5.89 12.234-5.89 12.234l-.492.312v-.803h-.657v1.55h-.291v.82h.152v.485l.079.079v2.839h-.194l-.304-.596-.371.645v1.033c-.93.565-1.271 1.908-1.271 1.908h-.611v-8.298h-1.488v8.298h-.122v-6.293h-.456v.939h-5.587v-.638h1.093v-1.64h-1.093v-1.185h1.093v-1.641h-1.093v-1.184h1.093v-1.641h-1.093v-1.185h1.093v-1.641h-1.093v-1.185h1.093v-1.64h-1.093v-1.185h1.093v-1.64h-1.093v-1.186h1.093v-1.64h-1.093v-1.185h1.093v-1.641h-1.093v-1.184h1.093v-1.641h-1.093v-1.185h1.093v-1.64h-1.093v-1.186h1.093v-1.64h-1.093v-1.186h1.093v-1.639h-1.093V128.1h1.093v-1.641h-1.093v-1.185h1.093v-1.641h-1.093v-1.185h1.093v-1.64h-1.093v-1.185h1.093v-1.64h-1.093v-1.186h1.093v-1.64h-1.093v-1.185h1.093v-1.641h-1.093v-1.185h1.093v-1.64h-1.093v-1.185h1.093v-1.64h-1.093v-1.186h1.093v-1.64h-1.093v-1.185h1.093v-1.641h-1.093v-1.093h-9.291v-.789h-5.406v-8.199l-4.008 4.373v3.826h-1.336v.789h-.365v46.641h-3.036v-.729h-.365v-1.032h-2.549v1.032h-2.795v.729h-.363v20.405h-.364v-.851h-8.259v.851h-1.944v10.275c-2.659-4.766-12.459-23.157-12.459-23.157l.364-3.348v-.975h-.213v-4.078h-3.833s-2.081-5.802-3.135-9.129c-1.055-3.327-4.951-18.34-4.951-18.34s.426-.528 1.035-.528l.963-3.286h-.243v-1.399h-2.921s-2.566-17.225-2.972-22.783c-.693-9.507-2.232-33.149-3.489-57.616 0 0-.467-4.078 1.48-6.065v-4.341l-.608-.427v-1.908l-.528-.323v-.872h.365V17.61h-.486s-.203-1.988-2.231-2.396v-1.582h-.528V8.075l-.324-.284L160.733 0h-.162l-.224 7.791-.324.284v5.559h-.527v1.582c-2.029.406-2.231 2.396-2.231 2.396h-.488v1.096h.365v.872l-.527.324v1.908l-.609.426v4.341c1.948 1.988 1.481 6.066 1.481 6.066-1.258 24.467-2.797 48.108-3.49 57.615-.405 5.561-2.972 22.783-2.972 22.783h-2.921v1.4h-.244l.963 3.286c.609 0 1.035.527 1.035.527s-3.895 15.014-4.949 18.341c-1.056 3.326-3.135 9.129-3.135 9.129h-3.834v4.078h-.213v.974l.365 3.348s-4.003 7.514-7.587 14.181V164.7h.139v-.34h.164v-.718h.353v-.29h-.466v-1.7l.057-.059v-.548h.586v-.313l.44-.314v-.416l.366-.391v-.139h-1.26v-.896h-.252v-2.293h.139v-.34l.466-.303v-.453h-.643v-.644h-.718v.416h-2.431v-.379h-.63v.392h-2.432v-.429h-.617v.392h-2.432v-.34h-.705v.39h-2.305v-.415h-.693v.377h-2.596v-.365h-.743v.403h-2.218v-.403h-.743v.365h-2.596v-.377h-.692v.415h-2.306v-.39h-.705v.34H102.6v-.392h-.617v.429h-2.432v-.392h-.629v.379H96.49v-.416h-.718v.644h-.643v.453l.466.303v.34h.138v2.293h-.252v.896h-1.259v.139l.366.391v.416l.44.314v.313h.585v.548l.057.059v1.7h-.466v.29h.353v.718h.164v.34h.139v6.85h-.521v.248l.383.299v1.059h.119v6.85h-.738v-4.493l-3.28-1.822-.851.426v-11.479l-3.521-1.82-1.7.879V146l-6.802-3.644v25.87h-2.915V153.53l-8.988-4.008-9.353 4.008v26.479h-1.335V163.8h-.419v.938h-.67v-2.884h.285v-.554l-.604-.47v-2.866l.47-.554v-.368h-.318v-1.04h-.168v-3.872h.168v-.83h.553v-.352h-.528v-1.71h1.006v-.327h-.629v-2.515h-.326v.854H54.02v-12.221l.213-.213v-2.301h-.255v-1.008h-.738v.938h-.336v-1.407h.369v-1.091h.185v-1.055h-.318v-.789h.369v-.452l-.955-.871h-.889v-.854h-.385l-.436-.872v-1.021h-.201v1.039l-.37.871h-.436v1.309H38.832l-.804.535v.981l-.49.489.012.793v1.223h-.854v2.223h-.428v.577h.352V147h-3.612l-.461-7.064v-1.483h.126v-.554h-.126l-.209-3.637-.211 3.637h-.125v.554h.125v1.483l-.46 7.064h-3.613v-12.925h.353v-.575h-.427v-2.223h-.855v-1.223l.013-.793-.49-.489v-.981l-.805-.535H14.836v-1.309H14.4l-.369-.871v-1.039h-.201v1.021l-.436.872h-.386v.854h-.888l-.956.871v.452h.369v.789h-.318v1.055h.184v1.091h.369v1.407h-.335v-.938h-.737v1.008h-.256v2.301l.214.213v12.221H9.496v-.854h-.327v2.515h-.628v.327h1.006v1.71h-.528v.352h.554v.83h.167v3.872h-.168v1.04h-.319v.368l.47.554v2.866l-.603.47v.554h.285v2.884h-.67v-.94h-.42v15.232H6.923v-.729h-2.55v-2.778h-.486v-5.42H2.004v5.42H0v18.083h361.463v-33.523h-1.364zm-251.363 25.841h.456v2.765h-.456v-2.765zm3.007-3.857h.486v.38h-.486v-.38zm0-.364v-.379h.486v.379h-.486zm0-.743v-.379h.486v.379h-.486zm0-.744v-.379h.486v.379h-.486zm0-.744v-.38h.486v.38h-.486zm0-.744v-.379h.486v.379h-.486zm0-.743v-.38h.486v.38h-.486zm0-.744v-.379h.486v.379h-.486zm.486-.743h-.486v-.38h.486v.38zm-.486 6.313h.486v.35h-.486v-.35zm44.527-60.457h8.764s.772 7.851 3.936 23.188h-16.636c3.165-15.337 3.936-23.188 3.936-23.188zm4.382 38.425s20.206.221 24.549 20.803h-2.343v-.972h-9.96v.972h-3.644v-13.481h-.729v-.668h-7.956v.668h-2.976v15.668h-2.369v-11.295h-.425v-.486h-.426v-.789h-1.943v.789h-2.065v.486h-2.429v6.376h-7.834v3.825h-4.212c3.846-21.667 24.762-21.896 24.762-21.896zm-53.634 12.341h.176v-1.185h.21v-.336h-.387c.624-5.508 5.761-5.59 5.761-5.59.12.201.404.164.404.164s.283.037.403-.164c0 0 5.138.082 5.762 5.59h-.386v.337h.21v1.185h.176v11.85c-.354.354-.569.562-.569.562h.569v2.01l-.244.365v.691h-.681v-4.874h-1.184v3.006h-.212v-14.135h-4.798v3.159h-.486v-.427h-2.55v8.744h-.456v-.638h-1.366v5.254h-.109v-.782l-.244-.365.001-14.421z"/></svg>