<svg xmlns="http://www.w3.org/2000/svg" viewBox="0 0 361.463 158.234"><path d="M149.76 103.318l-.207-.047c.076-.058.138-.123.207-.189v.236z"/><path d="M321.031 103.656l-.083-.122-.098.031a170.72 170.72 0 0 1-10.718-5.969 93.271 93.271 0 0 1-2.087-1.29l-.346-.568-.256.179c-4.035-2.6-6.938-4.82-6.938-4.82v-9.235h1.431V79.78h-1.431v-8.193l-2.729-6.371-.358-5.333h-.78l-.359 5.202-2.274 6.502h-1.692l-.388-1.562h-1.499V64.5h-1.624L281 48.89l-1.251.001-1.182-7.149-.81 7.201-1.485-.002-4.769 12.955-3.579-2.211-3.179 5.592v-3.186h-.981l-.781-8.584-.649 8.584h-1.229v3.771h-1.174v11.382l-.844 1.167v1.562l1.32-.195v2.635l-15.176 7.021v-1.658l-3.316 1.463v1.367l-9.652 4.291v-1.755l-4.099.977v-1.855l-1.562.391v4.877l-3.801 2.05v-3.805l-1.949-.097-3.813-8.001-.429-3.218-.4.098-.436 3.023-1.748.292v2.927l-2.682 3.455v-1.24h.235v-.422h-.235V70.841l.422-1.698v-4.226l.477-.948h-.637V52.475l1.106-.908v-.455l-1.368-.097v-1.344h-.193v-3.219l-.234-1.758-.297 1.619v3.377l-.773-.121v-1.241l.477-.751-.477-.691v-1.914l.379-.693-.566-1.281-.656-.104s-2.57-3.374-3.441-5.03c-.871-1.66-1.381-3.595-1.381-3.595h.394v-2.986h-.249v1.787h-.877v-5.686l.684-.63-.449-.66v-.485h-.477s-2.393-4.71-3.047-6.599c-1.424-4.079-2.377-9.557-2.377-9.557l-.124-1.919h.552v-.976h-.449V4.977l.629-.632-.877-1.028V2.054l.4-.238-.214-.393L197.233 0l-.354 1.37-.208.367.367.237.026 1.291-.719.997.512.715v1.475h-.498v1h.554l-.042 2.054s-1.03 7.346-1.895 9.519c-.871 2.171-2.611 6.2-2.611 6.2l-.588.038v.555l-.358.554.478.436v6.043l-.478.038V31.31h-.428v2.724l.565.573s-.884 2.747-1.672 4.127c-.794 1.383-2.218 3.913-2.218 3.913l-1.299.118-.276.986v1.263l.67.554v4.424H185.7v-2.924l-.318-2.054-.318 2.096v4.501h-1.223v.589l1.34 1.025v10.939h-.703l.904 1.104v4.108l.67 1.816v21.479h-.394v.473h.553v2.134h-.511v.437h.553v10.151l-.283.273v.789h-.234v9.538h-3.041v-.984h.221v-.418h-.221v-.529l-.829-1.563v-.79h.241v-.335h-.241l-.159-2.547-.152 2.469h-.234v.477h.193v.748l-.747 1.481v.63h-.221v.337h.277v.829h-1.735v-8.688h.691l.408-.476h-.982v-3.259l-.297-.988h-.532l-.317.969v1.164h-.532v-9.268h-.263v1.157l-.788-.787v-4.188h-.373v1.235l-.498-.473V89.62l-.58-.634v-2.422h-.477v2.344l-.47.736V92.7l-.477.342v-1.079h-.394v4.241l-.863.866v-1.21h-.373v9.085h-.422v-1.369l-.291-.765h-.421l-.367.815v3.476h-.843l.401.503h.836v8.294h-1.583v-5.163h.318v-.422h-.318v-1.156h.346v-.447h-.346v-8.887h.249v-.619h-.325v-1.106l-.394-.368v-1.687s.291.056.291 0v-.631h-.291v-.461h.221v-.341h-.442v-.739h-.387l-.276-1.38v-.974h.214v-.608h-.249l-.27-2.487-.208 2.5h-.235v.604h.29v.977l-.29 1.291h-.359l.069.774h-.477v.489h.276v.368h-.511v.524h.47v1.87l-.421.302v1.104l-.276-.023v.685h.332v4.581h-.871l-.864-3.633V100l-.193-1.384-.318.811-.373-3.14-.338 3.396h-1.244l-.118-1.323-.428-.906-.125-2.981-.311 2.959-.339 1.028v.752l-.36-.022.021-.479v-1.685s.291.054.291 0v-.635h-.291v-.459h.221v-.342h-.449v-.736h-.38l-.277-1.382v-.977h.214v-.616h-.304l-.214-2.476-.208 2.5h-.235v.606h.283v.975l-.283 1.289h-.359l.069.778h-.477v.487h.276v.365h-.511v.527h.47v1.871l-.415.301v.924h-1.431l.007-.983h.249v-.619h-.325V97.32l-.394-.367v-1.685s.283.052.283 0v-.635h-.283v-.461h.221v-.342h-.449v-.736h-.38l-.276-1.382.006-.968h.208v-.594h-.311l-.208-2.505-.207 2.501h-.235v.605h.283v.976l-.283 1.289h-.359l.062.777h-.47v.486h.276v.368h-.511v.526h.47v1.98h-.352v.967l-.456-1.204-.374 1.876h-1.645l-.248-2.13-.395 1.894c-.007-.004-.007-.005-.014-.007v.366h-2.184v-.71l-.394-.368v-1.688s.291.055.291 0v-.63h-.291v-.459h.221v-.341h-.444v-.737h-.38l-.276-1.383v-.972h.214v-.607h-.249l-.27-2.488-.208 2.5h-.242v.605h.297v.975l-.297 1.292h-.353l.062.775h-.47v.487h.276v.37h-.511v.522h.47v1.872l-.421.299v1.078l-.277-.024v.713h.325v2.837l-.042.126-.822-.559v-.111h.359v-.413h-.359v-1.107l-.428-1.085-.435 1.028-.229.227v.324l.146.145-.035.272h-.083l-2.225-1.512v-.66l-.028-.688.387-.057v-.423h-.373l.014-.157v-.213h.221v-.342h-.449l-.042-.825h-.291l-.317-1.291v-.522c0 .004 0 .007-.007.012v-.546l.214-.015v-.432h-.304l-.214-2.569-.208 2.502h-.235v.606h.283v.975l-.283 1.29h-.359l.062.777h-.47v.487h.276v.367h-.511v.525h.47v.124a48.626 48.626 0 0 1-.822 2.188h-1.714v-1.646l-.394-.368v-1.684s.29.052.29 0v-.635h-.29v-.458h.228v-.34h-.449v-.737h-.38l-.276-1.38v-1.055h.208v-.445h-.304l-.214-2.57-.208 2.504h-.235v.604h.284v.974l-.284 1.293h-.352l.062.772h-.478v.489h.284v.366h-.518v.526h.477v1.87l-.422.304v1.064h-.421v.658h-1.521v-.845l-.56-1.287-.498 1.21v3.107l-.684 1.633-.878.023v-3.088h.256v-.618h-.332v-1.108l-.394-.366v-1.685s.29.053.29 0v-.635h-.29v-.461h.221v-.337h-.442v-.737h-.387l-.276-1.382v-1.054h.214v-.447h-.304l-.207-2.564-.214 2.499h-.235v.605h.291v.974l-.291 1.291h-.359l.069.774h-.477v.489h.277v.367h-.512v.526h.477v1.869l-.421.303v1.107l-.284-.026v.684h.332v8.236h-.435v.533l.456.316v.809h-.297v.514h.214v3.95l-.373-.61v-1.815h-.332v1.796l-.387.382h-1.431v-2.495h.47v-.395h-.47v-1.64h-.553v.233h-.421v-.354h-.767v.277h-.47v-.315h-.753v.335h-.297v-.396h-.339v1.879h-.449v.313h.553v3.316h-2.882v-1.697h-.359v-1.066h.435v-.337h-.256v-1.617h-.926v-2.23h.276v-.97h-.56v-8.933l.18-.173v-.986h-.435V95.99h.207l-.498-2.448-.442 2.158v3.238l-.2-.196V93.04h-.436v.906l-.283-.28v-3.68l-.373-3.027-.207 2.87h-.27l-.255-3.425-.291 3.316v2.479s-.456-.95-.477-1.028c-.028-.076 0-3.053 0-3.053l-.366.709v-9.241h-.318l-.353-.357h-.284V75.4l-.338 2.264h-.636V75.69h.291v-.579l-.871-.553-.366-3.661h.29v-.735h-.29l-1.051-8.399.436-.349v-.415l-.436-.532-.2-1.975-.276 1.933-.312.436v.532l.256.376-.892 8.261h-.367v.844h.291l-.532 3.896-.712.366v.634h.29v1.976h-.601l-.29-1.896v4.001h-.581l-.131.264h-.262v9.295l-.374-1.08v2.817h-.47l-.262-4.425-.291 3.372h-.394l-.291-3.608-.186 3.608v3.448h-.318l-.159-.948-.179 2.45v2.209l-.235 1.396v-3.314l-.374-2.08-.366 2.104v13.587h-.629v-5.688h-.394v-1.578h.401v-.396h-.401v-.502h.27v-.236l-.823-1.554-.207-2.367-.311 2.133-.767 1.633v.368h.166v.466h-.263v.476h.359v1.561h-.574v2.229l-.947-.689v-1.441l-.456-.494v1.423l-1.202-1.204v-5.49h-.415v1.462l-1.168-1.975-.097-2.626h-.275v2.564l-1.188 1.955v-1.56h-.436v.477l-.048 4.991-1.804.34v1.381h-.553v-1.738l-.152-.146v-1.591h.27v-.314h-.27v-.771l-.663-1.346v-2.17h-.394v2.23l-.851 1.163v.751h-.269v.455h.352v1.459l-.179.159h-.276v1.62h-.706v1.086h-.615v-2.607l-.691 1.225v3.457l-1.313-.076v-1.825h-.394v-1.578h.394v-.396h-.394v-.501h.263v-.237l-.815-1.552-.214-2.369-.312 2.135-.767 1.631v.37h.166v.466h-.256v.476h.353v1.559h-.574l-.131 10.214-1.776.061-.767-1.561v-1.934l-.263-.258v-3.812l-.241-.245v-19.45h.331v-.625h-.331v-1.013h.4v-.475h-.443V69.371l.463-.222v-.396h-.463v-3.028h-.253l-.249.685-.193-.19v-2.297l.442-.368-.276-.29V61.09h-.166l-.242.242-1.071-2.927v-2.066l.317-.317.069-.458-.318-.357-.359-1.396-.47 1.37-.339.249.09.581.235.354.014 2.029-1.133 2.881-.263-.423-.2-.01.055 2.474-.352.184.338.382v1.96l-.145.475-.249-.883h-.291v3.174h-.49v.485l.449.159v3.357h-2.488v-1.263h.332v-.436h-.228v-.684l-1.34-.736h-.851v-1.879h-.905v-1.658h.491v-.633l-.228-.226v-1.726l-1.348-2.646-.104-2.152.359-.337v-.477l-.359-.511-.351-1.045-.359 1.047-.311.335v.496l.234.513.076 2.113-1.126 1.893-1.12-3.118.29-.551-.014-1.206-.456-.475V37.011l.38-.408-.055-.513-.56-.896-.387.815v.581l.249.38-.249 20.237-.449.234v1.226l.339.751-.726 1.678-.2-1.479-1.327-2.529V54.64l.276-.275.042-.512-.318-.515-.332-1.264-.359 1.264-.477.315v.554l.463.592-.097 2.172-1.486 2.764v2.312l.353.354v1.897l-.712.81-.173-.928-.297-.042V67.2l-.373.021v.572h.449v2.27h-1.126V67.12h-.311v3.278l-.829 1.146v1.463h-2.412v-3.063h.498v-.594h-.339v-2.88h-.159v.789h-.477v-1.086h-.234v-1.621l.532-.295V61.83l-.532-.021s-1.064-1.935-1.148-2.747c-.076-.809-.117-1.915-.117-1.915l.359-.396.035-.455-.394-.515-.297-1.399-.408 1.382-.359.373.097.574.297.477s-.034 1.382-.083 1.738c-.034.353-1.119 2.902-1.119 2.902h-.477v2.308l.67.473v1.5h-.394v.972h-.552v-.851h-.359v2.884h-.27v.712h.429v11.29h-.429v.603h.401v5.295h-.401v.341l.353.359v15.728l-1.479 3.906h.435v1.124l-.435.689v.555h-1.59c-.47-24.801-4.153-41.636-8.472-52.146v-.004a48.752 48.752 0 0 0-.712-1.695h-.014a55.003 55.003 0 0 0-.339-.751l.021.019c-2.785-5.945-5.957-9.148-6.503-9.676-1.555-1.397-2.992-2.08-4.188-2.08-5.756 0-17.193 15.333-19.743 55.06H0v59.794h361.463v-41.26c0-.002-16.569-1.175-40.432-13.321zm-102.528 41.79h-5.756v-9.239a3.737 3.737 0 0 1 1.729-.438c3.254-.062 4.027 2.406 4.027 3.645v6.032zm41.904-8.701h-2.619v-3.771h-1.956v-6.112h-2.08v6.112h-2.343l-1.432-1.433h-1.686v1.433h-1.825v6.502h-2.474v1.56h-7.145v-5.979h-1.824v5.979h-6.891v-27.57l32.271-10.666v33.946h.004zm45.199-39.557l-2.494 1.714-2.592-4.772c.659.405 2.461 1.521 5.086 3.058zm-.871 7.988a117.785 117.785 0 0 1-3.737-2.921l1.569-1.08 2.168 4.001zm-4.49-8.284l1.576 2.904-1.576 1.085v-3.989zm6.442 39.687l-6.565.297V105.01s2.563 2.111 6.565 4.846v26.723zm0-31.086l-2.826-5.211 2.826-1.945v7.156zm51.224 12.602l-4.395 1.872-4.5-3.726c3.533.85 6.65 1.459 8.895 1.854zm-.317 7.279a142.605 142.605 0 0 1-9.087-1.562l4.747-2.032 4.34 3.594zm-11.499-9.532l5.812 4.818-5.812 2.483v-7.301zm-11.222-3.971a89.197 89.197 0 0 0 6.274 2.21l-2.703 1.61-3.91-3.958c.117.045.228.093.339.138zm8.194 10.735a172.828 172.828 0 0 1-9.072-2.442l4.193-2.503 4.879 4.945zm-11.698-11.865l5.694 5.776-5.08 3.03c-.056-.021-.117-.035-.166-.054l-.448-.662v-8.09zm-1.948-1.177l-3.275 1.602-3.131-4.602a191.06 191.06 0 0 0 6.406 3zm-.027 9.149c-.436-.145-.871-.288-1.313-.438-2.349-.8-4.699-1.802-6.979-2.917l4.513-2.199 3.779 5.554zm-10.028-13.017l.953-.313 4.402 6.472-5.355 2.619v-8.778zm-.815-1.376l-4.679 1.537-3.689-6.045a276.55 276.55 0 0 0 8.368 4.508zm-2.28 8.474a103.99 103.99 0 0 1-6.398-3.979l3.311-1.089 3.087 5.068zm-8.805-14.443l4.878 8.007-4.098 1.349c-.2-.138-.394-.271-.58-.406l-.201-.368.001-8.582zm11.126 37.692l-11.125.5v-26.157c3.103 2.089 6.958 4.463 11.125 6.53v19.127zm0-22.447l-3.891-6.369 3.891-1.274v7.643zm11.989 21.904l-11.215.506v-18.709c2.701 1.304 5.514 2.47 8.326 3.318.968.295 1.935.579 2.889.855v14.03zm0-17.814l-3.553-5.22 3.553-1.734v6.954zm14.732 17.152l-13.944.627v-13.767a266.56 266.56 0 0 0 13.944 3.568v9.572zm0-12.182l-5.742-5.818 3.601-2.149c.72.213 1.431.415 2.142.606v7.361zm15.541 11.481l-14.76.665v-9.354c7.471 1.678 12.998 2.6 14.76 2.88v5.809zm0-8.375c-.116-.011-.241-.021-.4-.038l-5.583-4.634 5.907-2.525c.027.005.043.01.076.013v7.184z"/></svg>