<svg xmlns="http://www.w3.org/2000/svg" width="753.156" height="74.344" viewBox="0 0 753.156 74.344"><path d="M753.156 55.341v-2.627h-8.781l-.317-.133.007-.153h3.056l-1.021-.138.027-.25-.49-.063-.031-.095-.008-.102.019-.17.017-.175.069-.079.072-.121.073-.14.061-.151.046-.156.026-.143.013-.127-.01-.102-.029-.062-.048-.027-.687-.215-1.95-1.627-3.542-2.714-3.707-2.61-3.875-2.508-4.025-2.396-4.178-2.277-4.318-2.159-4.454-2.031-4.583-1.898-4.704-1.768-4.813-1.623-4.937-1.486-2.136-.459-2.154-.373-2.177-.294-2.196-.212-2.206-.132-2.214-.05-2.222.035-2.212.116-2.201.198-2.188.277-2.165.363-2.152.444-4.979 1.462-4.871 1.609-4.77 1.756-4.666 1.896-4.546 2.038-4.418 2.173-4.284 2.301-4.141 2.43-3.987 2.549-3.831 2.658-3.666 2.771-2.148 1.764-1.23.387-.046.027-.022.062-.011.103.019.127.031.148.051.158.062.152.069.144.077.122.079.091.002.007-3.37.424.487.424h-5.883l.005-.276.272-18.685h-.413l.066-4.704.177-.125.227-.159.484-.34-.059-.215-.061-.131-.031-.074-.1-.09-.049-.026-.296-.179-.175-.125-3.667-2.143.004-.291-.219-.045h-.112l.014-1.081.177.003.025-.031v-.146h-.201l.006-.329-.193-.002-.027.031-.002.3-.177-.003-.024.032-.003.146.201.003-.009 1.081h-.029l-.292.037-.053.058-.002.246-4.152 2.438-.061.133-.062.235-.056.328-.023.205-.013.078v.014h.003l.836.529v-.002l-.036 4.777-.243.178-.009 1.325v.185l-1.562-.465.004-.863-.812-2.159-2.062-.009-1.624-.543v-.144l-.233-.038.003-.095-.681-.078.004-3.231.07-.021.77-.23.227-.397.123-.465-7.454-3.461-.002-.386-.014-.065-.355-.431-.088-.037-.156-.029-.171-.011-.007-1.394h.263v-.188l-.004-.045-.259-.002-.002-.379v-.045l-.25-.004.002.428-.262-.002v.188l.005.045.26.002.008 1.391-.196.014-.146.029-.075.037-.356.426v.449l-6.57 2.975-.979.457.244.419.058.075.272.371.762.201.034 3.066-.669.217-.354.041.002.075-.07.022-.247.039v.041l-1.646.535-1.707.045-.981 2.246.012.74-1.918.526-.023-1.489-.303-.18-.006-.002-.09-4.807.854-.529-.015-.094-.031-.203-.07-.332-.075-.234-.077-.133-4.265-2.512-.006-.248-.061-.06-.294-.045-.022-1.088h.204l-.002-.149-.028-.031h-.178l-.005-.301-.033-.035h-.196l.008.334h-.209l.005.147.031.032h.177l.021 1.089h-.152l-.213.039.005.295-3.813 2.13-.311.225-.011.012-.108.062-.054.029-.114.09-.051.106-.05.095-.064.22.556.383.242.166v.002l.142.098.115 4.757h-.486l.049 1.842.437 17.278h-4.913l-.107-17.383.029-.021.293-.202v-.326l-.325-.151-6.733-3.226-.054-.314-.136-.771h-2.034l-.007-3.146-.034-.017-.104-.014-.012-.002-.012-.302-.015-.278-.018-.211-.026-.141-.021-.062h-.504l-.233-.395-.099-.146-.273-.379-.302-.354-.335-.318-.359-.289-.385-.255-.403-.22-.422-.178-.176-.063-.396-.123-.405-.085-.146-.029-.193-.021-.242-.02-.113-.007h-.016v-.687l-.005-.002-.002-.004h-.003l-.005-.002h-.007v-.003h-.014l-.007-.004h-.03v-.002h-.018l-.003-1.461h1.162l.002-.01v-.062l-1.164-.003v-.638h-.06v.638h-1.158v.073h1.158l.002 1.461h-.011v.002H544.783l-.01.004h-.011v.002H544.753l-.006.002-.008.004-.002.002h-.002V23.262l-.111.007-.229.021-.199.021-.151.029-.398.082-.386.126-.191.062-.419.178-.399.221-.381.255-.354.289-.329.319-.125.134-.311.356-.275.387-.231.396h-.488l-.005.063-.002.142-.005.211-.006.278-.003.304h-.004l-.105.015-.039.016-.003 3.146h-2.109l-.056.771-.021.262-6.738 3.274-.319.156-.003.325.19.202.129.132-.023 6.033h-10.63l-.106.285-6.014.049.385-22.762.718-.003.441-.452.011-.638.021-1.232-.026-.612-1.099-.038h-.528l.034-1.936.272-1.444.408-.37.673-1.149-1.248-.529.167-.291-.376-.331.003-.318.265-.334.018-.916-.584-.188-.517.631-.008.466-.695.119-.582 1.1-.057 3.754.569.359-.569 1.393h-.274l-.9.115-.229.321-.058.987-.016.925-.007.628 1.089-.006-.35 22.775-6.636.052.025-1.938v-.023l.007-.599.252-.08.024-2.027.575-.278.048-.021.011-.873h-.575l-13.11-3.592-12.843 3.619h-.635v.868l.041.022.638.338.002 1.953.228.086v.201l-.073.067-.043.031-.071.096-.043.105-.015.11.015.116.041.106.067.09.093.068.031.017.003 1.362-5.897.047-.107-22.631 1.124-.002v-.625l-.005-1.209-.075-.756-.21-.332-.588-.021-.411-1.198.776-1.491.383-.244.375-.678-.003-.828-.252-.803-.636-.968-.645-.101-.39.324-.218.465.002.314-.432-.161v-.146l.17-.282-.003-.417-.187-.305-.242-.082.282-.219-.002-.351-.432-.165-.352.23-.227.517.005.845.186.363.002.232-.411.01-.233.378-.204.698-1.009.992-.448-.15-1.281-3.176.004.549 2.359 5.836h-.098l-.725.117-.091.252.011 1.312.004.834.396.45.667-.003.148 22.643-9.26.074h-14.773l-.123.123-8.666.005-1.753 2.097.017.738.379.021.194 7.873h-9.985l.029-.012.079-.06.06-.079.033-.09.008-.096-.021-.102-.041-.09-.063-.079-.084-.06-.1-.036-.1-.011-.021-.006-.015-.007-.016-.009-.012-.016-.011-.017-.002-.018.002-.015.008-.018.011-.01.012-.012.018-.012h.02l.037-.004.037-.017.027-.021.021-.024.013-.039.004-.035-.006-.037-.015-.037-.025-.027-.033-.021-.039-.019-.036-.004-.002-.043-.052-.004-.092-.007-.305-7.418-.996-17.858.032-.029.005-.176-.008-.188-.126-.089.041-.034.298-1.41.106.022.29-.141.188-.289.029-.345-.141-.286-.1-.054.17-.094h.198l-.004-.091.202-.09-.026-.533-.203.017-.061-1.267.481-.004.373-.35-.048-.996h-.046v-.367l.759-.004-.057-1.1-.424.002-.16-3.434-.019-.371 1.61-.01-.03-.619.1-.106h.271l-.021-.441 1.513-.013-32.744-7.604.245-.102.002-.029.201-.293.204-.002.175.111.004-.061.01-.064-.004-.26-.139-.158-.216.002.102-.1.233-.002.01-.061.007-.062-.141-.133-.186.002.054-.13.011-.061.005-.062-.005-.494-.146-.338-.146-.177h.013l.128-.062.104-.092.071-.115.039-.129.01-.092.013-.094-.002-.134-.036-.13-.078-.114-.002-.002.097-.062.09-.115.011-.064.005-.066-.003-.18-.041-.041.023-.025.057-.168.01-.067.007-.065v-.124l-.09-.062-.002-.326-.14.002V.837l-.138.003-.003-.336-.116-.144h-.165l-.069-.059-.137.002-.105-.169-.108.002-.117-.142-.229.002-.007.065-.005.069.17.216.071.312.006.191-.109.753-.191.002-.192.002-.137-.842V.612l.054-.26.165-.221.005-.069.01-.065-.231.002-.114.146h-.109l-.102.169h-.134l-.072.061-.165.004-.111.146-.005.068-.005.065.002.203h-.126l-.002.068-.005.034-.129.002-.005.067-.003.065v.199l-.076.056-.003.065-.003.063v.132l.059.166.041.041-.031.025-.003.066-.005.065v.181l.093.114.121.068-.064.106-.036.131-.007.094-.009.092.002.136.041.126.078.113.103.091.131.058.039.006-.137.172-.136.342-.007.062-.005.062.005.492.053.13h-.154l-.139.132-.003.064-.005.061.233-.002.102.098-.187.002-.137.158-.005.065-.003.061v.26l.17-.112h.203l.209.288-.002.027.259.104-29.404 7.53.008-.008.005-.18-.031-.055-.033-.051-.007-.006v-.017l.078-.071.062-.171.002-.127-.031-.053-.033-.05-.018-.016.006-.164.003-.104-.033-.05-.031-.053h-.068l-.029-.052-.031-.051h-.068l.007-.231-.032-.052-.029-.054-.107-.143h-.159l-.069-.06h-.13l-.033-.062-.032-.054-.034-.052h-.104l-.108-.143-.229.002.034.053.032.05.095.134.057.297-.005.232-.153.85h-.188l-.006.117.034.051.034.053.172-.002.051.065-.008.323-.254.124h-.062l.029.146-.891.229.966-.008.061.148.048.07.034.055-.003.157.133-.004.048.062.085.037.054.021-.017.598 1.853-.016-.013.363-.092 3.396-.472.005-.029 1.086.669-.004v.369l-.021.984.254.341.337-.003-.031 1.224h-.063l-.724-.026-.725-.045-.013.523.261.133-.196.133-.117.28.032.329.17.275.254.137.263-.039.149-.051.014.057-.028.1.006.301.095.191.06.008.195.887.002.006-.129.096-.043.169-.007.189.013.013-.604 17.751-.166 7.354-.067.004v.045h-.035l-.035.016-.028.021-.025.031-.016.031-.004.038.002.037.014.03.021.031.029.022.033.017.033.004.027.006h.009l.013.011.011.017.009.016v.018l-.003.016-.01.017-.009.016-.014.011-.016.006h-.019l-.097.016-.091.037-.079.059-.062.074-.041.092-.018.1.011.097.038.091.056.078.076.059h.005-17.011l-.141-8.275-1.457-.212-.236-14.408 1.664-.376.231-.999-1.568-.39-9.709-2.603-11.681 2.623-1.156.331-4.366 2.686-.011-1.84.852-.592.698-1.162-16.188-3.879-16.231 3.852.787 1.166.973.574-.011 1.373-4.477-2.219-1.164-.333-11.702-2.622-9.728 2.616-1.573.388.232 1.004 1.791.369-.119 6.656-4.901-1.096-11.062 1.004-.713.179-7.146 1.819.019.736.359-.004h-.021l.007.312h.022l.018.668-.132.006h-.021l.019.607-4.278.054-5.168.06-5.619.063-5.968.073-2.01.021-.017-.695h-.169l-.019-.8-.006-.338.458-.041-.021-.88v-.006l-.458.006-.063-2.805-.003-.213-.005-.252v-.02l-2.173.032-10.854.151-.392.004-2.721.039-.246.004-6.404.09-.007-.004.042-.043.031-.693.018-.051.135.047v.057l.086-.004-.002-.055-.242-.149-.002-.09-.038-.085-.098-.029v-.064l.038-.057-.002-.064-.059-.081-.069.003-.045.094.034.09v.086l-.147.045-.029.198.003.14.084.113.002.127-.026.45h-.078l-.007-.403-.036-.135-.08-.111-.04-.441h.035v-.08l-.062.004-.004-.072h.058v-.072h-.058l-.002-.1h.059v-.076l-.107.002-.002-.096.05-.002v-.064l-.08.002-.034-1.984.062-.052v-.064l-.186.002v.062l.048.062.008.351-.226.292v.062l-.562.604-.24.343-.056.222.076.077.087-.081.433-.006.215-.125.169-.227.139-.049.004.389-.147.021-.002-.138-.088.002.006.136-.114.062v-.056h-.078v.127l-.079-.026-.021.056.046.035.002.066h-.069v.061l.032.021.002.09h-.047l.002.074.069.009-.081.077.009.482-.127.192.011.511-.094.002-.009-.513.09-.218-.003-.104-.122-.19-.093-.054-.002-.1.028-.067-.098-.117-.082.123.055.101v.117h-.103l-.077.242-.143.079v.058l.101.056.104-.071.01.674-6.593.094-.464.008-2.718.036-.615.009-10.35.146-2.417.035v.018l.002.248.002.211.032 2.761-.453.004v.003l.01.867.453.027.006.339.009.784-.168.004.009.684-1.028.018-5.814.068-5.446.068-4.995.064-3.146.041-.005-.6h-.145l-.005-.645v-.305l.336-.005-.006-.715-7.271-1.739-10.932-.67-8.651 2.318v.859l.511.004V41.4l-.186.006v.722l.008 9.562-3.188-18.919.045-.021.371-.668 2.957-.362-.436-3.538 1.772-.251-.091-.717-1.976-.28-.294-2.425.776-.128 1.313-.212-.063-.441-.806-.096-.045-.368-1.607-.261 1.851-.324-.062-.515-1.01-.562-3.032-2.145-.609.121-.527-.295-3.141.631-1.288-.691.876-.177-.122-1.104-1.083-.195-1.74.367-2.519-1.352-2.102.465-.021.314.109 1.091-1.07.229.116 1.205-.32.066-.358-3.675-1.243-.226-1.103.254-1.338-.236-.148-1.624-2.437-.451-.196-2.226-11.567 1.268 1.162-.323-.058-.837-3.619.562-3.54 1.021.015.241-1.466.162.709-.199-.042-.739-3.021.037-.08-.49-5.806.059-2.903.898.178 1.159-10.202 3.136.026 1.103 1.16.159.045 1.781-6.453 1.795-2.177-.266-.902.273.011.859-.62.174.002.207-.526-.062-3.001.838v.268l-.693-.074-2.881.801v.545l-6.935-.721-2.355.709-.005.43-1.064-.107-1.168.351-.008.437-1.096-.104-2.441.733-.014.508-1.284-.118-1.016.306-.029 1.027 1.13.097-.037 1.25-.456.124-.006.165-2.362.63-.016.587.879.066v.004l-.021.729-2.288.566-.011.296-.482.118-.924-.064-1.022.254-.005.138-.251-.021.005-.118-1.735-.119.034-.863.035-.857-2.554-.188.011-.213-.968.142-2.828-.21-1.973.612-.016.3-2.262.333-1.33.415-.034.565.067-.025-.01.191-.092.026-.019.327.183.016.045-.019-.101 1.731-1.16.312-.027.459 8.551-2.226-.013.263-7.568 1.938-.141 2.329 3.6.175.006.006.023.016h.008l-.038.371-.008-.018-.065-.016-.117-.016-.159-.017-.193-.011-.209-.012-.217-.004-.207.004-.18.007-.144.012-.098.009-.045.018L6.62 52.712H0v21.637h753.156V55.341zm-9.651-4.461l-.058.619-1.705-.231-.008.231-.88-.125.012-.229-1.119-.153-.013.227-.68-.051-.496-.334-5.204-.42-5.021-.078.111-3.465.659-.562 14.402 4.571zm-33.481-20.219l4.539 1.881 4.413 2.012 4.277 2.132 4.135 2.256 3.99 2.371 3.831 2.479 3.677 2.584 3.507 2.683.305.255-.314-.102-12.137-7.369.009-.186-1.611-.558-4.08-.72-2.141-.318-7.149-1.059-3.055-.297-5.43-9.258 3.234 1.214zM723.578 45.2l-1.068.01-5.421.033-3.664.01.002-.163-.121.163-2.639.012-7.286.021-4.163.006v-.17l-.062.17h-.839l.031-.17.01-.26-.004-.218-.027-.175-.03-.129-.058-.146-.073-.115-.078-.055-4.408.006-.075.021-.066.09-.034.075-.007 1.08-3.637.006.016-.176.003-.254-.003-.224-.011-.175-.015-.134-.021-.147-.028-.115-.029-.049h-4.538l-.023.021-.021.096-.01.069.002 1.091h-1.341v-.174l-.006.174h-1.501l-.008-1.091-.004-.069-.011-.096-.014-.021h-4.561l-.017.049-.02.115-.013.147-.008.134-.005.182v.217l.003.261.01.174-5.822-.005-3.681-.006-.059-.17.003.17-4.215-.006-7.489-.016-2.781-.005-.119-.169.005.169-3.783-.017-5.702-.027-1.218-.01-.172-.17.004.17-2.054-.021.559-.132 1.789-.353 2.563-.495 2.715-.53 2.712-.333 2.899-.356 2.76-.344 2.879-.354.019.842 5.914-.37 5.765-.36 5.898-.059 6.056-.122 5.922.144 2.901.043 3.103.043 2.944.181 8.62.526.014-.83 2.711.322h.002l2.728.329h.002l2.726.328h.002l2.855.339.002.008v-.008l.006.008 2.83.539h.011l2.651.508H723.18l.317.062 1.728.415-1.475.015.008-.164-.18.164zm-22.976-17.891l4.771 1.604 1.174.443 5.47 9.33-6.877-.666-.433-.025-5.668-11.156 1.563.47zm-6.905-1.898l2.052.438 3.068.922 5.695 11.214-7.672-.479-4.014-12.245.871.15zm-6.349-.855l2.137.207 2.118.285 1.031.178 4.022 12.271-2.323-.146-5.747-.075-2.432-12.788 1.194.068zm-6.462-.143l2.155-.032 2.157.048.776.049 2.437 12.796-5.228-.067-5.291.092 1.966-12.828 1.028-.058zm-6.423.582l2.126-.272 2.144-.194.95-.049-1.964 12.821-5.73.098-2.192.116 3.29-12.291 1.376-.229zm-4.173.776l2.065-.426.54-.092-3.283 12.271-7.96.426 4.645-11.006 3.993-1.173zm-9.715 3.032l4.823-1.593.688-.2-4.619 10.95-.363.021-7.184.497 4.699-8.956 1.956-.719zm-37.921 20.356l3.627-2.746 3.793-2.631 3.947-2.519 4.104-2.403 4.238-2.279 4.374-2.146 4.498-2.018 4.616-1.881 2.53-.927-4.661 8.886-2.72.188-2.374.301-2.217.279-2.341.29-2.293.271-1.47.267-.023-.308-.008-.16-.119-1.283-.069-.359-.002-.003-.075-.03.008-.004h-.011l-.077.034-.046.358-.026 1.352v.09l-.003.334v.064l-1.586.27-1.933.285-.572.018.044-.207-13.448 8.933-.146.048.441-.364zm9.132-1.309l4.951-1.554.73.613.069 1.924-1.228 1.67-3.857.074-5.882.285-5.572.705-.036-.318 10.825-3.399zm101.427 4.705l2.786.085-.002.074h-6.443l3.659-.159zM553.037 34.362l.003.232v.104l.066 17.897-.069-18.233zm-15.885.336v-.334h.002l-.012 7.105.01-6.771zM384.934 52.003l.028.006h-.01l-.018-.006zm40.856-.006h-.031.031zm-8.941-26.268l.198-.93.016-.003.09-.187.002-.29.09.018.271-.137.18-.289.028-.345-.133-.288-.08-.046.07-.045 3.275-.021-.013.013-.286.178-.356.171.021.512.348-.021-.021.02-.106.321.054.304.196.189.415.096.14.017.305.978-.099.086.008.189.016.167.036.028.616 17.771.337 7.369-.054.004.004.044-.039.005-.032.01-.029.026-.021.026-.016.037-.006.037.011.037.015.031.024.031.031.021.033.017h.042l.015.004.018.007.017.01.011.012.006.021.004.019v.016l-.008.016-.011.01-.014.013-.015.01h-.019l-.101.013-.092.041-.075.059-.058.074-.036.09-.01.101.019.097.039.092.065.072.083.057.01.008h-3.956l.029-.012.075-.06.059-.079.034-.09.013-.095-.021-.103-.038-.09-.068-.078-.079-.06-.096-.037-.099-.01h-.034l.015-.007-.015-.006-.018-.01-.009-.016-.006-.016-.007-.019.004-.015.005-.018.01-.017.016-.004.013-.013h.019l.04-.004.033-.017.029-.021.021-.031.016-.032.004-.036-.01-.037-.016-.037-.022-.027-.032-.024-.034-.013-.041-.004v-.043l-.075-.004-.061-.008-.237-7.418-.826-17.842.059-.055-.005-.189-.038-.176-.115-.085.035-.035zm-7.424.018l.189-.89.151-.041.101-.187.011-.293-.003-.014.189-.104.167-.286.029-.344-.124-.286-.063-.038.037-.029 3.351-.021-.186.135-.313.169.019.516.305-.024-.02.021-.104.319.046.304.186.19.441.097.079.008.277.957-.002.002-.128.11.005.19.056.168.007.006.456 17.796.269 7.37-.027.006-.023.004.002.038-.012.006-.026.005-.033.01-.029.026-.024.026-.011.037-.004.037.008.037.012.031.023.031.031.021.037.017h.036l.019.004.014.007.017.01.011.012.007.021.003.019-.003.016-.005.016-.01.01-.015.013-.008.005-.092.01-.028.008-.091.036-.076.062-.06.074-.034.092-.013.095.021.103.037.09.065.072.078.059.012.007h-4.013l.029-.013.074-.059.059-.079.036-.09.01-.095-.018-.102-.038-.091-.062-.079-.079-.059-.094-.037-.099-.01-.018-.006-.015-.008-.016-.009-.012-.016-.008-.011V51.919l.008-.018.009-.01.011-.011h.008-.003.005-.002l.017-.007.036-.006-.029.006.007-.006.037-.004-.015.004.034-.01.015-.011.028-.021.021-.024.014-.039.002-.036-.004-.037-.02-.037-.019-.027-.031-.021-.04-.018-.033-.005v-.041l-.1-.004h-.036l-.167-7.418-.65-17.806.083-.077-.003-.193-.09-.174-.099-.078.033-.043zm-7.951.104l.182-.848.299-.084.115-.185.018-.295-.028-.097.025-.018.158-.287.026-.344-.116-.285-.039-.023.104-.102 3.92-.022-.123.106-.274.172.017.511.259-.019-.018.016-.101.32.037.305.172.189.473.096h.016l.259.939-.04.027-.129.109v.188l.08.128.291 17.83.197 7.363-.05.006-.003.004.003.038-.034.006-.033.01-.032.026-.021.025-.011.031-.004.043v.006l.004.037.013.031.023.031.029.021.033.016.042.005h.015l.016.007.014.01.013.018.006.015.002.019-.002.008-.006.018-.013.012-.012.01-.015.012h-.016l-.1.017-.09.031-.072.063-.059.072-.036.098-.01.095.012.095.005.008.039.09.061.078.077.06h.008-4.583l.011-.007.078-.059.056-.072.036-.098.01-.095-.015-.095-.036-.092-.062-.074-.078-.062-.09-.037-.019-.007-.095-.01h-.011l-.008-.006-.012-.012-.01-.01-.011-.016v-.031l.011-.015.01-.018.01-.01.018-.007.018-.005h.036l.033-.016.028-.021.021-.031.013-.031.005-.037-.005-.037-.013-.037-.023-.026-.031-.026-.018-.005-.034-.01-.02-.006v-.038l-.018-.004-.11-.006-.09-7.363-.477-17.756.104-.094-.003-.189-.135-.173-.086-.072.019-.046zm-9.114-.809l.398-.117.134-.188.022-.295-.09-.306-.009-.013.174.013-.002-.513-.18-.166-.046-.074.027-.04 5.511-.033-.077.065-.047.15-.157.119.005.512.211-.016-.012.012-.101.317.034.306.155.188.45.088.234.917-.082.059-.129.11.002.187.07.08.111 17.782.127 7.365-.055.004v.044l-.035.005-.034.017-.028.021-.023.027-.014.036-.002.037.004.037.016.031.021.031.029.021.036.017.028.004.031.007h.007l.014.01.012.018.005.015.002.019v.016l-.007.016-.012.01-.011.013-.02.01h-.015l-.096.017-.092.037-.073.059-.058.074-.034.091-.015.1.015.097.039.092.058.072.08.058.012.007h-6.054l.011-.007.073-.058.062-.072.036-.092.012-.102-.015-.095-.036-.091-.06-.074-.079-.062-.088-.037-.095-.012h-.019l-.014-.01-.017-.014-.01-.008-.003-.017-.008-.017.008-.018.003-.015.01-.017.017-.011.014-.007h.017l.036-.004.034-.016.028-.022.021-.031.015-.03.002-.037-.002-.039-.015-.035-.021-.027-.03-.025-.032-.01-.036-.006v-.044l-.051-.004-.078-.006-.004-7.363-.263-17.743.108-.103v-.19l-.188-.173-.023-.021.216-.914zm-7.318.012l.433-.137.144-.189.031-.288-.093-.313-.011-.01.217.014.003-.512-.22-.166-.051-.059 3.334-.021-.012.011-.098.28.028.332.145.277.11.072-.038.135.021.303.141.188.409.072.202.867-.071.059-.181.172-.003.189.062.057-.101 17.803.042 7.365h-.008l-.049.004v.044l-.035.005-.034.016-.027.021-.023.032-.012.03-.008.039.008.037.012.03.023.031.027.022.034.016.035.004h.018l.015.007.016.011.01.016.005.016.002.018-.002.017-.005.017-.01.008-.016.014-.013.01h.013-.033l-.095.016-.09.037-.075.06-.058.073-.04.092-.015.1.015.098.04.09.058.072.077.064h.006-4.06l.012-.007.08-.058.06-.072.036-.099.012-.095-.012-.096-.036-.09-.06-.074-.077-.062-.088-.037-.097-.012h-.033.018l-.018-.01-.012-.014-.011-.008-.01-.017v-.035l.01-.021.011-.01.012-.011.012-.007h.024l.034-.004.031-.016.03-.022.022-.031.015-.03.002-.037-.002-.039-.015-.035-.022-.027-.027-.025-.034-.011-.039-.005v-.044l-.075-.004-.044-.006.062-7.363-.096-17.729.113-.125v-.19l-.126-.11-.007-.002.007-.008-.051-.033.24-.937zm-7.574 19.138l.067-17.666.009-.011.109-.166.003-.192-.126-.11h-.003l.005-.005-.014-.008.247-.942.021-.003.441-.151.16-.188.032-.291-.092-.312-.015-.016.262.016.008-.511-.262-.167-.037-.031 3.06-.021-.087.236.029.328.15.278.229.142.059-.012-.023.079.02.304.124.186.339.06.188.842.002.005h-.002l-.116.094-.139.174-.003.191.049.049-.262 17.815-.029 7.365h-.033l-.021.004v.038l-.015.006-.021.005-.036.017-.025.021-.024.026-.012.037-.008.037.005.037.015.031.022.031.027.021.034.017.034.004h.017l.016.007.015.01.01.018.007.015v.035l-.007.016-.01.01-.015.013-.005.005h-.006l-.095.018h-.021l-.091.041-.077.059-.062.074-.036.09-.015.096.015.102.034.092.059.072.077.058.011.007h-4.019l.007-.007.078-.058.062-.072.035-.092.018-.102-.015-.096-.033-.09-.06-.074-.074-.059-.091-.041-.095-.013h-.017l-.016-.01-.015-.013-.01-.01-.005-.016-.003-.016.003-.019.008-.015.007-.012.012-.011.013-.005h.018l.036-.007.034-.017.029-.02.005-.006.024-.031.015-.031.006-.037-.004-.037-.015-.037-.022-.026-.029-.021-.031-.017-.037-.005v-.044l-.104-.004h-.014l.133-7.36zm-11.194 7.817h.027-.017l-.014.005.004-.005zm3.53.291l-.035-.085-.06-.08-.072-.058-.091-.037-.021-.006-.096-.017h-.012l-.013-.01-.009-.019-.005-.015-.002-.017.002-.016.005-.017.011-.017.014-.011.017-.005h.016l.038-.005.034-.011.029-.027.022-.025.017-.037.006-.031-.003-.037-.015-.037-.022-.025-.03-.021-.031-.016-.021-.012h-.015v-.037l-.021-.005-.093-.007.198-7.311.24-17.599.048-.041.062-.167.004-.188-.104-.09.272-.973.088-.006.408-.152.166-.187.046-.292-.096-.307-.017-.02.308.02.011-.512-.302-.164-.124-.093 3.365-.022-.08.213.03.332.161.273.239.139.243-.037-.028.105.009.303.112.19.201.032.19.861.002.008-.125.098-.092.172-.006.188.042.041-.429 17.785-.095 7.387h-.061l-.002.042-.034.006-.035.015-.03.021-.021.025-.016.037-.007.037.007.038.013.031.021.03.009.006.024.021.035.016.036.004h.019l.016.008.01.01.006.012.007.016.005.017-.005.015-.007.018-.011.016-.014.012-.017.006h-.016l-.099.017-.091.031-.076.063-.062.072-.036.098-.018.095.014.095.035.091.059.079.073.059.009.006h.005-4.425l.074-.055.062-.078.036-.09.017-.096V52.3zm-166.77-10.481l.021-.64 1.363-.019h.252l.048.637.309.552.013 9.595-.133.312h-.267l-.01-.29-.002-.007-1.522.012-.003-.005-.357-9.591.288-.556zm-3.184.037l.023-.635 1.21-.018h.054l.35-.004.048.635.308.552.006 9.584-.134.312-.369.006-.003-.012-.053-.115-1.293.01-.082-.182-.351-9.576.286-.557zm-3.175.039l.024-.636 1.609-.021.049.635.304.551-.002 9.58-.076.181-1.771.017-.084-.182-.341-9.568.288-.557zm-3.17.037l.027-.636 1.605-.021.048.637.304.553-.011 9.566-.077.18-1.764.017-.084-.181-.335-9.557.287-.558zm8.999 10.653l3.757-.025-18.798.154h-.034l15.075-.129zm-12.16-10.615l.025-.637 1.604-.016.048.637.302.543-.016 9.564-.07.163-.005.017-1.762.012-.083-.182-.326-9.547.283-.554zm-3.156.037l.025-.637.539-.006h.099l.961-.012.045.637.304.545-.02 9.555-.078.18-1.043.004-.09.123 1.072.018-1.072-.018-.004.005-.56.007-.143-.31-.321-9.535.286-.556zm-1.533-.616l.049.638.302.545-.028 9.543-.003.004-1.438.012-.175-10.723 1.293-.019zm-69.651-8.892l.567.062.454-.053.259.312-.084.031-.019.042.925 15.022-2.451-15.172.371-.045-.022-.199zm-5.134-.367l.003.016.047-.005 1.836.201-.005.016.009.122.053.985-.011.043h.014l.013.219 1.046 18.985h-.604l-2.991-19.657-.003-.017-.034-.221-.016-.119-.072-.459-.029-.191.744.082zm-4.602-.563l.653-.09.268.336.017.006.021.422.016.373.002.057.011.197.019.416.023.48.898 18.946h-1.406l-2.56-18.065-.026-.195-.119-.826-.021-.151-.062-.438-.005-.028-.014-.095-.037-.272-.032-.219-.008-.062-.053-.362v-.002l-.099-.703 2.514.275zm-4.374-.765h.002l-.01.005.008-.005zm-1.59.111l.385-.059.09.119.01.266.006.102.011.312.013.367v.02l.003.067.019.429.006.146.01.333.008.141.008.217.003.063.011.345.006.151.014.33.699 18.45H99.89l-2.456-18.778-.044-.342-.018-.116-.031-.248-.005-.038-.037-.288-.135-1.045-.021-.154-.047-.375-.012-.07-.092-.707 3.312.362zm-7.25-.955l.588-.094.284.373.019.024.013.011.017.604v.037l.01.379.003.088.008.258-.035.241.048.27.003.119.003.034.025.949.003.137.538 19.324h-2.032L90.18 32.853l-.012-.093-.105-.888-.066-.553-.045-.375v-.008l-.011-.078-.045-.391-.104-.87 3.262.363zm-6.388-.627l.014.793.005.392.015.922.01.539v.096l.02 1.176.002.091.329 19.373h-3.334l-1.968-18.666-.012-.089-.116-1.116-.01-.093-.045-.434-.014-.121-.002-.029-.124-1.164v-.014l-.037-.35-.003-.021v-.013l-.021-.194-.051-.465-.042-.402-.085-.811 5.469.6zm-8.78-.881l.105-.019.053.067.003.689v.264l.004.406v.195l.002.564.003.427v.268l.003.542v.21l.003.646.002.576v.09l.006 1.107v.086l.074 18.142h-1.539l-1.711-18.171v-.001l-.064-.676-.008-.084-.053-.556-.133-1.399-.029-.299-.102-1.058-.002-.042-.019-.204-.04-.424-.045-.47-.01-.121-.041-.414v-.003l-.068-.738 3.606.4zm-9.937.022l.755.079 2.355-.474-.008.946v.414l-.003.103-.076.047.008.076.065.098v.193l-.008 1.229-.003.387-.132 21.143h-.867l-1.791-21.338-.04-.461-.045-.559-.062-.752-.088-1.025-.088-.055h-.001l.029-.051zM61.376 30.1l.066-.05.164-.273.029-.048 1.476.146 1.857-.371-.012.705-.01.746v.017l-.003.172-.333 21.57h-1.616l-1.645-22.605.027-.009zm-6.558.952l1.355.121 2.295-.455-.557 21.996H56.27l-1.347-21.451-.014-.05-.103-.046-.055-.01.067-.105zm-5.197 1.312l.039-.043.152-.242 1.278.106 1.113-.221-.729 20.748h-.779L49.59 32.373l.031-.009zm-4.808.658l.63-.129.985.079.566-.112-.854 19.854h-.604l-.904-19.379.184-.038-.003-.275zm-4.745 1.295l.003-.328.545-.115.959.074.577-.115-.956 18.881h-.553l-.722-18.367.147-.03zm-4.105.822l.002-.317.386-.076 1.165.08.031-.004-1.032 17.894h-.271l-.569-17.521.288-.056zm-7.513 1.557l.011-.351.126-.024.898.057-1.084 15.488-.315-15.099.364-.071zm-2.66.475l.002-.159.201.014-1.091 14.458-.221-14.093 1.109-.22zm-3.123.568l-.614 7.625-.085-7.484.699-.141zm-3.634.678l.821-.166.005-.146.172.01-.965 11.414-.077-11.051.044-.061zm-2.207.543l.011-.252.289-.059-.944 10.624-.027-10.178.671-.135zm-3.168 1.722v-.104l.003-1.014.005-.007.012-.013.653-.135-.108 1.17-.011.117-.559 5.986.005-6zm-2.133-1.158l.4.022-.694 7.114.031-6.623-.008-.016-.061-.016.332-.481zm20.143-3.468l.625-.126.009-.364.053-.011 1.042.071-1.094 17.088h-.193l-.442-16.658z"/></svg>