<svg xmlns="http://www.w3.org/2000/svg" viewBox="0 0 359.891 72.309"><path d="M359.114 65.059v-.473h-.304l-.211.21h-.383v-1.679h.115v-1.102h-.268v-.817h.096v-.168h.099v-.157h-1.831v-4.604h.137v-1.836l.168-.138v-.156h.594l.011-.18.235-.125h.472v-.304h.117l.288-.336v-.156h-2.021v-.924l-.283-.241v-1.196h.152v-.252h-6.137v-.816h-.216v-.515h-.209v.954h-1.856v-.346l-.437-.23v-.189l.101-.021v-.104l.817-.304.23-.924.096-.096v-.377h-.703l-.481-.314.209-.293v-.16h-.619l-.33-.198h-.481l-.263.136h-.771v.21l.168.18v.346h-.342v-.325h-.151v.283h-.325l-.44-1.187h-.072v-.607h-.105v.565h-1.186V44.73h-.101v1.311h-3.094v-.335h-.499v-.326h-.089v.86l-3.812.304v-.808h-.138v.85l-.607 1.07h-.235l-.085-.189h-.355v-.671l.178-.198v-.588l.242-.409v-.188h-.3l-.12.126-.138-.146h-.204v-.335l.115-.042v-.283h-.472v.304l.142.062v.314h-.314l-.101-.073h-.325v.241l.284.503v.525l-.151.188-.133.923h-.701l-.314 1.019v.356l.094.125-.072.074-4.632.282v-3.513l.258-.21v-.21l-.421-.168v-.366l-.235-.147v-5.014l.221-.147v-.252h-.211l.09-.167v-.127h-.09v-.419l.541-.313v-.116l.105-.083v-.137h-1.423v-.168l-.942-.157v-1.416l.053-.231v-.295l-.09-.137v-.221l.271-.324v-.535l-.287-.776h-.296v-.147h.101v-.16l-.397-.209s.173-1.92-1.357-4.123c-1.103-1.573-2.832-2.35-2.832-2.35l-.013-.105.08-.084-.016-.104-.101-.096.015-.388-.135-.294.12-1.07.115-.262-.193-.378-.12-.346-.121-.222v-.24l-.273-.356.353-1.007.163-.86s-.163-.283-.223-.346c-.051-.053 0-.798 0-.798l-.313-.398v-.283l.195-.378v-.377l-.231-.23v-.283l-.157-.157-.162.157v.283l-.235.23v.377l.198.378v.283l-.313.398s.062.745 0 .798a3.542 3.542 0 0 0-.221.346l.163.86.355 1.007-.278.356v.24l-.12.222-.12.346-.193.378.119.262.116 1.07-.143.294.025.388-.104.096-.016.104.072.084-.004.105s-1.732.775-2.828 2.35c-1.537 2.203-1.357 4.123-1.357 4.123l-.398.209v.157h.089v.146h-.289l-.287.777v.535l.271.324v.221l-.094.137v.293l.053.231v1.416l-.944.157v.168H311v.137l.104.083v.116l.535.313v.419h-.089v.127l.089.167h-.211v.252l.221.147v5.014l-.239.147v.366l-.41.169v.21l.252.21v1.016l-1.405-.053-1.144-40.449.114-.063-.114-3.03.188-.283-.188-1.867h-.152L308.458 0l-.063 1.332h-.104l-.11 1.878.179.272-.048 3.104.147.054.142 40.406h-1.93V43.02h-.205v4.06h-5.602l-1.224-1.982h-.503v-.179h-.278v.252l-7.128.21-2.202 3.367-4.231.515h-1.6v-.817h.172v-.127l-1.344-1.824h-.48v-.871h-.152v-.514h.152v-1.123h-.152v-.503h.152V42.36h-.152v-.514h.152v-1.122h-.152v-.505h.152v-1.122h-.152v-.504h.152v-1.124h-.152v-.514h.152v-1.122h-.152v-.515h.152v-1.111h-.152v-.514h.152V32.57h-.152v-.503h.152v-1.123h-.152v-.514h.152v-1.123h-.152v-.503h.152v-1.123h-.152v-.501h.152v-1.123h-.152v-.515h.152V24.42h-.152v-.504h.152v-1.122h-.152v-.514h.152v-1.123h-.152v-.503h.152v-1.123h-.152v-.514h.152v-1.122h-.152v-.158h.209s.078-.22 0-.22h-.985v-.557h-1.789v.419s-.816.073-.816 0v-1.562h.514l.32-.252h1.336l.777-.734v-.271l-1.029.439-1.059-.126-.859-.42-.535.221h-2.239l-.325-.336-.971.283v-1.615h-.114v-.282l.233-.096v-.24L268.428 12v-.839h-.125v.871l-2.88.682v.348h.268v.293h-.115v.901h-.977l-.429.39h-1.062l-.534.367h-1.106l-.456.335h-1.027l-.608.481h-.887v.116l.688.355.824.21 1.314-.347v1.154l-2.447.535v.576l-.735.146v.168h.132v.786h-.115v1.123h.115v.503h-.115v1.123h.115v.514h-.115v1.122h.115v.504h-.115v1.122h.115v.515h-.115v1.122h.115v.504h-.115v1.123h.115v.503h-.115v1.123h.115v.514h-.115v1.123h.115v.503h-.115v1.123h.115v.514h-.115v1.111h.115v.515h-.115v1.122h.115v.514h-.115v1.123h.115v.503h-.115v1.123h.115v.505h-.115v1.121h.115v.515h-.115v1.123h.115v.503h-.115v1.123h.115v.514h-.115v1.122h.115v.504h-.115v1.122h.115v.514h-.115v1.112h.115v.514h-.115v1.123h.115v.504h-.115v.902h-5.444l-3.473.251v2.203h-.835v-2.098h-.76l-.33-.356h-.41v.178l-.225.126h-.252v2.508l-.252.198v.252h-.587v-.756h-1.979v-.355h-2.764s.073.252 0 .252h-1.112l-.462-.347h-1.315v.325h-.33l.156.251h.147v.504h-.588v-.42l.121-.104v-.137l-.181-.125v-.2l-.114-.23-.42-1.542-.556-.42v-.126l-.127-.104v-.482l-.119-.126-.109.126v.482l-.126.104v.126l-.558.42-.42 1.542-.115.23v.2l-.178.125v.137l.115.104v2.203h-.692v6.432h-.136l-49.477-32.258v.012a96.43 96.43 0 0 0-3.72-2.771c-11.832-8.476-14.737-10.028-14.737-10.028l-.479-1.469-.565.935.934 2.34s1.02.648 2.749 1.783l-40.219 26.749v-2.444h.397v-.358l.23-.095v-.397h-2.644v-1.479h-.479l-.24-.588h-.498v-.273h-6.336l-.252-.252h-11.719V42.58h.734v-.986l-5.947-1.553v-1.437l-6.39-4.112h-.466v5.119h-.4v-3.053l-6.792-4.332h-.342v6.304h-1.29v-.293h-1.249v-.294h-.911v-.367H82.3v-.252h-7.559l-2.713-1.73V28.48l-3.938-1.061-.42-1.018V25.28l-1.08-.473-.782-3v-.767l-.613-.64h-.472l-1.165-3.179v-1.019l-1.068-.782h-.85l-2.312.231-18.605 5.529v.45h-3.865l-.901 1.332-6.693.671v1.584l-4.998 1.94v.682l-8.13 2.623v17.791H14.61v-1.521l-1.27-.851h-1.36v.505H9.399l-.551-.295h-3.13L4.36 47.447v.556H2.198L.551 49.692v.975H0v2.497l.336.294V72.31h96.256l1.979-1.019v-.787l2.712-.514s27.493-.65 56.461-.65c28.969 0 44.295 1.019 44.295 1.019v1.101l.703.852h16.405l1.038-1.187 9.727.335v.852h129.811v-6.315h.168v-.283l-.777-.655zm-153.752-2.266l-5.569 3.703-3.604-.146 8.183-5.445c.372.702.702 1.331.99 1.888zm-9.536 3.546l-3.607-.146 11.021-7.332c.378.661.719 1.279 1.026 1.855l-8.44 5.623zm-3.965-.168l-1.902-.072v-1.207l12.12-8.057c.379.63.729 1.248 1.065 1.836l-11.283 7.5zm-1.903-1.531v-2.55l10.915-7.259c.389.619.75 1.229 1.102 1.814l-12.017 7.995zm0-2.802v-.66h.193v-.818h-.845l-.278-.283h-.262l10.867-7.228c.398.607.766 1.217 1.133 1.804l-10.808 7.185zm-12.227 4.06v-1.28l2.402-1.595v.221h-.313s.22 1.846.104 2.465l-.283.189h-1.91zm-.456-1.951v-.703h-.221v.305l-.65.767v.618h-.816v-.221h-1.243l-.593.599h-1.243v.42h-.655l10.37-6.894-.201 1.47-.618.252v1.362l-.439.294-.829.294v.264l-2.501 1.657-.361-.484zm8.844-3.588h-1.988l3.598-2.393v1.122l-1.61 1.271zm-3.163-.052v-1.963l.733-.492v2.455h-.733zm5.429-.231h-.152v-2.339h-.157l10.285-6.829c.399.598.786 1.186 1.164 1.762l-11.14 7.406zm-4.559.231v-2.538l13.213-8.791c.414.588.812 1.175 1.201 1.74l-14.414 9.589zm0-2.801v-1.824h-.137v1.92l-.733.492v-.072l.534-1.187v-.766l-1.212 2.35-.021.137-10.789 7.176h-3.834L195.68 47.08c.426.577.84 1.153 1.238 1.721l-13.092 8.705zm-16.568 8.224h-.09v-1.049h-1.662l-.262-.158 29.034-19.312a69.65 69.65 0 0 1 1.275 1.699l-28.295 18.82zm-2.208-1.332l-.362-.222h-.645l-.373.367v.535h-1.295v-1.102l-.306-.147 30.763-20.455c.451.557.887 1.112 1.315 1.668L165.05 64.398zm-3.21-.671l-.426-.199h-1.273v.504h-1.92l-.221-.295 33.332-22.165c.467.545.918 1.091 1.358 1.636l-30.85 20.519zm-3.965-.158l-.383-.524h-.483v-.481h-.394v-.252h-.688l33.847-22.513c.482.535.954 1.07 1.417 1.605l-33.316 22.165zm-2.329-1.258h-.515v-1.134h-.31v.367h-.562s.11-.504 0-.504h-.341c.025-.053.048-.115.072-.178l34.277-22.784c.492.514.985 1.038 1.463 1.562l-34.084 22.671zm-27.337-5.927v-.85l.576-.378h2.491v.892l-.509.336h-2.558zm22.983-6.031l.372-.379c.189.199.367.408.535.63l-2.065 1.374a8.042 8.042 0 0 0-1.316-1.248l.608-.839 1.265-.829c.162.126.319.271.477.42l-.373.367.497.504zm-17.885 6.031v-1.228h.409c-.069.398-.12.808-.142 1.228h-.267zm-2.03-3.577v.439l-1.957 1.29h-1.11v-1.729h3.067zm-2.25-.619l2.25-1.489v1.489h-2.25zm3.944-1.731v1.657l-.115.073h-.388v-1.73h.503zm9.189-3.546l.084.535.703-.115-.09-.523c.299-.032.599-.063.896-.074v.535h.267v.294l-2.354 1.572-.467-1.416.256-.084-.162-.514c.285-.073.579-.147.867-.21zm7.564 2.151l-.446.607-1.069.713a8.22 8.22 0 0 0-1.631-.774l.282-.871 1.554-1.038-.23.461.629.325.242-.472c.262.137.514.294.766.461l-.313.431.216.157zm.136.104l.083.063-.262.179.179-.242zm4.054 10.585l-.504-.168-.078.252-1.416-.451 1.776-1.186-.094.598.524.084a6.307 6.307 0 0 1-.208.871zm-19.055-7.134l.479.241.319-.629-.473-.241c.147-.262.294-.514.468-.766l.43.313.152-.221 1.027.745-2.299 1.531-.449-.146a16.2 16.2 0 0 1 .346-.827zm4.543-4.133l.636-.325-.189-.366.556-.368c.073-.03.143-.052.217-.083l.162.515.257-.084.478 1.458-1.957 1.301-1.063-1.469.221-.157-.174-.241.714-.472.142.291zm6.965 1.239l-.646 1.973a5.616 5.616 0 0 0-1.527-.252v-.936l1.464-.976c.242.054.479.117.709.191zm-.51-.315l.771-.525-.215.673a9.311 9.311 0 0 0-.556-.148zm.604 5.717l-1.271.912c-.057-.062-.125-.126-.188-.188l.383-.535.781-.515c.106.105.201.211.295.326zm4.411 1.898l-1.368.901c.052-.294.084-.598.088-.901h1.28zm-4.212 0l-.666.44-.529-.179c.021-.085.036-.179.042-.263l1.153.002zm.41 0a3.068 3.068 0 0 1-.115.745l-.702-.231.787-.514h.03zm-3.955-2.884l.481 1.489c-.09.031-.168.072-.247.125l-.917-1.269c.211-.146.442-.251.683-.345zm.906 4.448h-.225v-.284c.073.013.146.021.225.032v.252zm.793.136v-.222l.221-.146.269.367-.49.001zm-.089-.421l-.088-.021-.016-.042a.937.937 0 0 0 .239-.125l.048.062-.183.126zm.793.421l-.342-.461.32-.212.934.673h-.912zm-.467-.64l-.047-.062c.062-.063.131-.127.188-.199l.121.094-.262.167zm.236-.398a.756.756 0 0 0 .125-.241l.403.137-.352.23-.176-.126zm-2.015-3.598a2.98 2.98 0 0 1 .749-.115v1.562c-.088.01-.178.021-.267.042l-.482-1.489zm-.975.503l.918 1.26c-.062.062-.131.126-.184.188l-1.271-.912c.159-.2.338-.379.537-.536zm.629 1.584c-.047.084-.089.157-.125.241l-1.485-.481c.085-.241.2-.462.342-.673l1.268.913zm-.178.409c-.012.053-.025.104-.025.168h-1.58c.017-.221.06-.439.121-.649l1.484.481zm3.971 2.14l-.027-.011c.152-.23.279-.473.367-.733l1.585.522-.341.222h-1.584zm-.163-.116l-.907-.661.427-.282.827.272c-.085.241-.2.461-.347.671zm-1.763-2.895l.188-.125-.121.167c-.024-.01-.04-.031-.067-.042zm-.772-1.91c-.246 0-.492.042-.729.105l.729-.482v.377zm-.865-.062l-.613-1.889a5.291 5.291 0 0 1 1.479-.23v1.553l-.866.566zm-.145.104l-.703.463-1.249-1.71.398-.272c.294-.168.604-.305.93-.42l.624 1.939zm-2.12-1.142l.031-.011 1.243 1.71-.729.481-1.579-1.144a5.794 5.794 0 0 1 1.034-1.036zm.74 2.308l-.006.011.006-.011zm-.11.146c-.15.231-.271.473-.366.724l-.557-.179.875-.576.048.031zm-.42.892a2.963 2.963 0 0 0-.12.703h-1.189v-.367h-.216l.84-.565.685.229zm7.585 2.675l.215-.146.236.084c-.012.021-.016.042-.021.062h-.43zm.507-.231l-.114-.031.146-.095c-.01.042-.026.084-.032.126zm.132-.524h-.11l.037.126-.43.283-1.705-.556c.072-.252.12-.525.125-.798h2.178c0 .315-.031.641-.095.945zm-2.03-1.124l1.945-1.289c.109.408.18.85.18 1.289h-2.125zm-.063-.209a2.953 2.953 0 0 0-.114-.588l1.961-.64-1.847 1.228zm-.168.116l-.151.094h-1.405a1.434 1.434 0 0 0-.042-.262l1.489-.481c.063.198.1.419.109.649zm-1.652-.336a1.068 1.068 0 0 0-.125-.241l1.269-.913c.147.211.263.432.347.673l-1.491.481zm.33-1.595l.18-.23c.024.021.051.042.078.062l-.258.168zm-.398.274l-.697.462.461-1.416c.236.095.468.198.679.347l-.443.607zm-.887.482a1.952 1.952 0 0 0-.263-.042v-1.562c.259.011.515.042.744.115l-.481 1.489zm-.262-1.774v-.492l1.28-.851-.478 1.471a2.88 2.88 0 0 0-.802-.128zm0-.743v-1.438a5.348 5.348 0 0 1 1.479.23l-.095.283-1.384.925zm-.174-1.616a5.519 5.519 0 0 0-1.524.252l-.017-.053 1.541-1.019v.82zm-1.609 0l-.562-1.721a7.077 7.077 0 0 1 2.17-.348v.997l-1.608 1.072zm-.141.094l-1.338.881-1.196-1.646a7.384 7.384 0 0 1 1.951-.997l.583 1.762zm-2.675-.671l1.195 1.646-1.369.912-1.379-.997c.44-.596.965-1.12 1.553-1.561zm-1.69 1.458l-.31-.23 1.295-.859c-.36.333-.691.701-.985 1.089zm2.104.965c-.094.115-.194.23-.288.356l-.11-.084.398-.272zm-.389.493a5.464 5.464 0 0 0-.701 1.374l-1.154-.367 1.693-1.133.162.126zm.137.095l1.532 1.111-.955.63-1.259-.409c.168-.472.4-.923.682-1.332zm.398 1.867l-.966.64h-.372c.036-.347.104-.691.21-1.007l1.128.367zm9.284 3.01l1.218.399h-1.218v-.399zm1.767.399l-1.768-.577v-.356l1.814-1.195h.415a7.915 7.915 0 0 1-.33 2.13c-.041-.002-.088-.002-.131-.002zm.3-2.309l.157-.104a.672.672 0 0 1 .006.104h-.163zm-.378 0h-1.537a5.225 5.225 0 0 0-.203-1.384l.439-.294 1.5-.481c.179.575.295 1.186.325 1.813l-.524.346zm-.775-2.024l.828-.556c.031.084.062.168.09.252l-.918.304zm-.75.242l-.311.095a5.13 5.13 0 0 0-.703-1.374l1.68-1.217c.33.462.607.965.834 1.5l-1.5.996zm-.467.147l-2.078.671a3.379 3.379 0 0 0-.367-.724l1.764-1.279c.286.409.518.86.681 1.332zm-2.539-.189a2.644 2.644 0 0 0-.289-.314l1.842-1.217c.068.073.138.168.209.252l-1.762 1.279zm-.452-.461a.862.862 0 0 0-.131-.105l1.285-1.762c.252.188.487.397.703.629l-1.857 1.238zm-.267-.21a3.607 3.607 0 0 0-.719-.367l.54-1.668.437-.294c.367.157.707.336 1.021.565l-1.279 1.764zm-.078-2.371l.031-.073c.021.011.042.011.062.021l-.093.052zm.078-.231l.646-1.973c.54.179 1.055.421 1.526.714l-1.988 1.321c-.057-.02-.115-.041-.184-.062zm-1.684-1.489v-.882c.395 0 .781.042 1.164.105l-1.164.777zm-.174-1.049a7.31 7.31 0 0 0-2.217.347l-.074-.211 2.291-1.521v1.385zm-2.385.398c-.257.095-.514.188-.755.304l.703-.472.052.168zm-4.616.746l.504-.504-.304-.305.734-.482.184.263.22-.158 1.064 1.459-2.008 1.332-1.075-.775.157-.222-.432-.304c.189-.231.378-.461.588-.683l.368.379zm-2.077 3.502l2.502-1.657.361.262a8.072 8.072 0 0 0-1.027 2.004l-1.842-.598.006-.011zm3-1.29l1.332.965-1.771 1.164-.557-.178a7.424 7.424 0 0 1 .996-1.951zm-.619 2.255l-.576.389c.041-.179.089-.356.146-.523l.43.134zm.257.084l1.286.409c-.105.347-.18.703-.217 1.069h-2.081c.021-.294.062-.598.114-.882l.898-.596zm-1.18 1.48h-1.038l1.128-.744c-.048.24-.074.492-.09.744zm14.707 3.272v-.084h.084c-.005.021-.011.031-.017.043l-.067.041zm3.126-1.479l-.42-.062.457-.305a3.734 3.734 0 0 1-.037.367zm-2.559 1.112c.005-.084-.017-.136-.115-.136h-.048a8.03 8.03 0 0 0 .331-2.13h1.931v.263h.529c0 .084-.006.179-.01.251l-2.618 1.752zm2.098-2.706v.262h-1.931c-.011-.062-.011-.136-.011-.209l1.819-1.217.059.347.523-.073c.037.294.06.588.068.892l-.527-.002zm.084-1.553l-.258.042.017.115-1.8 1.207a7.289 7.289 0 0 0-.33-1.773l1.847-.598.078.263.504-.169c.073.253.137.493.193.745l-.251.168zm-.583-1.164l-1.841.598c-.031-.094-.073-.198-.104-.294l2.094-1.395c.1.22.193.439.277.671l-.509.168.083.252zm-.393-1.008l.131-.062-1.768 1.176a7.956 7.956 0 0 0-.834-1.512l1.567-1.144.158.221.43-.313c.162.252.32.504.468.766l-.479.241.327.627zm-1.096-1.803l.094.137-1.568 1.133c-.052-.062-.094-.126-.146-.188l1.62-1.082zm-1.61 1.374l-1.679 1.217a2.462 2.462 0 0 0-.209-.263l1.734-1.153c.053.063.102.125.154.199zm-2.025.798a5.064 5.064 0 0 0-.75-.672l1.224-1.688c.461.356.891.755 1.268 1.206l-1.742 1.154zm-.886-.777a5.637 5.637 0 0 0-.959-.546l1.945-1.29c.078.052.151.104.235.157l-1.221 1.679zm1.138-1.941l.521-.346-.342.472c-.059-.041-.116-.083-.179-.126zm-1.431-2.098l.204-.64.257.084.163-.515c.21.073.409.157.608.251l-1.232.82zm.047-.692l-.272.841-1.181.785a7.355 7.355 0 0 0-1.369-.136v-1.5l1.14-.756-.062.378.697.115.084-.535c.298.062.588.137.87.21l-.163.514.256.084zm-2.823-.262v-.188h.263v-.535c.252.011.499.032.74.053l-1.003.67zm-5.779 1.038l-.01-.021c.197-.137.401-.263.616-.377l-.606.398zm-4.521 5.812l-.356.229h-.23v-1.729h.425v-.619h-.425v-.042l2.435-1.615a10.415 10.415 0 0 0-1.849 3.776zm-.164.755v-.398l.096-.062a6.588 6.588 0 0 0-.096.46zm-.76-2.255v1.729h-.503v-1.729h.503zm-.362 2.349l-.142.104v-.104h.142zm-.991-2.349h.313l-.313.209v-.209zm-.341.692v1.038h-1.573l1.573-1.038zm.341-.221l.503-.346v1.604h-.503v-1.258zm.503 1.878v.325l-.503.336v-.661h.503zm0 .577v.649h-.503v-.313l.503-.336zm.347-.22l.503-.336v1.206h-.503v-.87zm1.515.178l.521.073.116-.692-.531-.084c.048-.221.1-.44.152-.66l.227-.158.34.116.084-.263 1.836.598a9.926 9.926 0 0 0-.179.724l-1.573 1.039h-1.059c.013-.232.034-.462.066-.693zm19.259 5.35h-.072l-.074.074-.215-.105-.115.221h-.246v-.408h-1.411v-.608c.063-.137.12-.272.18-.42l.444-.294 1.542.504-.083.251.509.169c-.054.146-.104.293-.168.431l-.291.185zm1.385-3.472l31.864-21.19c.519.516 1.027 1.019 1.525 1.542l-33.992 22.606c.336-.933.546-1.92.603-2.958zm.017-.262c0-.115.011-.252.011-.377 0-.692-.067-1.375-.204-2.035l30.295-20.151c.541.493 1.069.985 1.59 1.489l-31.692 21.074zm-.236-2.644a10.569 10.569 0 0 0-.698-2.077l29.204-19.427a63.31 63.31 0 0 1 1.662 1.438l-30.168 20.066zm-.787-2.276a10.492 10.492 0 0 0-1.107-1.805l28.48-18.944c.598.439 1.18.901 1.752 1.385l-29.125 19.364zm-3.295-3.409l.059-.083c.01.01.021.021.031.021l-.09.062zm-1.567-1.5l28.187-18.745c.604.419 1.228.858 1.856 1.301l-28.087 18.692a10.395 10.395 0 0 0-1.956-1.248zm-.22-.105a9.98 9.98 0 0 0-2.607-.817l28.952-19.261c.603.42 1.233.86 1.872 1.302l-28.217 18.776zm-2.912-.871a10.572 10.572 0 0 0-1.521-.114c-.918 0-1.804.114-2.653.346l31.359-20.854c.599.409 1.232.84 1.889 1.29l-29.074 19.332zm-4.872.44a10.525 10.525 0 0 0-4.553 3.021l-2.896 1.932v-1.438h.425v-.619h-1.169l38.157-25.375 1.903 1.279-31.867 21.2zm-8.634 3.515v1.73h-.503v-1.722l.021-.01.482.002zm-3.476 1.731h-.436v-1.73h3.047l-2.611 1.73zm-.436 2.968h.192l-.192.126v-.126zm3.068 1.144v.084h-.131l.131-.084zm49.538-24.798l-28.433 18.902a10.648 10.648 0 0 0-1.506-1.542l28.113-18.693c.294.21.588.42.887.642.322.218.63.449.939.691zm-10.279-7.165L132.18 49.838h-3.824l40.262-26.78c.565.387 1.21.807 1.918 1.279zm35.378 41.781c-1.062.263-3.467.493-3.467.493l-2.3-.095 5.31-3.524c.817 1.595 1.243 2.539 1.243 2.539s.273.335-.786.587zm3.607-5.843c-5.723-5.024-7.94-12.818-19.664-23.436l41.961 27.548h-2.297v-.986h-1.438v.325h-.168v1.656h-.893v1.28h-.42v-.63h-1.357v-.892h-.54v.892h-.348v-.576h.084v-1.73h-.084v-.104h-.975v2.969c-2.511-.252-8.233-1.364-13.861-6.316zM312.35 44.771h-.229v-4.89h.229v4.89zm13.636 0h-.24v-4.89h.24v4.89z"/></svg>