<svg xmlns="http://www.w3.org/2000/svg" viewBox="0 0 361.465 131.04"><path d="M360.264 103.654l.586-.345v-.4l.615-.349v-.507h-1.498v-.67h-.398v-.771l.593-.424v-.562l.187-.258h.151v-.959h-1.365v.225h-.635v-.225h-1.365v.225h-.627v-.225h-1.364v.225h-.636v-.225h-1.366v.225h-.634v-.225h-1.366v.225h-.634v-.225h-1.366v.225h-.627v-.225h-1.365v.225h-.635v-.225h-1.365v.225h-.627v-.225h-1.365v.225h-.635v-.225h-1.365v.225h-.993v.304h-.483v-.71l.483-.283v-1.902l.924-.959.587-.021.281-.373-.62-.518-1.172 1.086-.538-.782v-.746h.448v-.552h-.655l-.27-.266v-1.42h.27v-.445h-1.779c-.067 0 0 .406 0 .406h-1.049v.321h-5.227v-.328h-.904v-.221h-1.648v.221h-1.096l-.068-.345-.647-.109.469-1.339-.18-.559-.565-.414.125-.124.771.124.365-.203.545-.187.109-.312-.676-.375-.359-.638-.455-.158-.434.527-.365-.27.297-.793-.56-.229-.724 1.045-.648.076.035-.844-.477-.242.248-.985-.537-.4.398-.18-.097-.601.345-.394-.124-.213-1.055.544-.049-.27-.207-.121-.331.453-.145-.938-.455-.458v-.21l-.11-.076-.117.076v.21l-.449.458-.149.938-.324-.453-.207.121-.057.27-1.047-.544-.132.213.353.394-.104.601.4.18-.531.4.248.985-.481.242.041.844-.648-.076-.73-1.045-.559.229.303.793-.365.27-.435-.527-.462.158-.358.638-.677.375.117.312.545.187.365.203.772-.124.117.124-.565.414-.18.559.477 1.339-.647.109-.076.345h-1.09v-.221h-1.655v.221h-.902v.328h-5.221v-.321h-1.056s.075-.406 0-.406h-1.772v.445h.263v1.42l-.263.266h-.655v.552h.442v.745l-.531.783-1.172-1.086-.629.517.289.373.588.021.924.959v1.903l.476.283v.71h-.414v-.504h-1.364v.199h-.635v-.199h-1.357v.199h-.635v-.199h-1.365v.199h-.635v-.199h-1.132l.627-.627.056-.9-.254-.296v-.666h.992l.33-.255v-.372h-2.51v-.883h-1.146l-1.729-78.178-1.918-5.162.221-1.134.835-.811-.297-.667-.642-.241-.766-.986V6.221l.172-.394-.049-.91-.467-.417V2.362h1.677v-.589h-1.677V0h-.691v1.773h-1.668v.589h1.668V4.5l-.461.417-.057.91.18.394v1.034l-.767.986-.642.241-.297.666.843.811.221 1.134-1.917 5.162-1.738 78.178h-.744v-.911h.571v-.772h-.571v-.738h-.883l-.546-.524h-1.896v.718h-4.146l-.635-.606h-5.683v-2.114l-1.647-2.059h-3.903v-.824h-3.104v.879h-.82v.85h-3.074l-1.264 2.393h-1.951v-.387h-.406v.414l-3.711.521H245.7l-.85-.521h-1.233v-1.145h.346v-.873l-1.028-.361v-1.117h-.646v1.035l-5.166-1.986v-.643h-.283v-1.09h-1.033v-1.537l.281-.697v-.894l-.613-.81v-.422h-.812l-.139.67-.42.476V82l.31.535-.082.555-.421-.891h-.842l-.44.336-.869-.17-1.647-2.738v-.389l-.67-.617v-.281l-.812-.252-.586.211v.279l-.656.572v.463l-1.979 2.834v-1.925h.123v-.91h-1.116v-1.217h.331v-.894h.393v-.894l-.365-.334v-.668h.172v-.282l-.295-.291h-.234s.165-1.634-1.117-3.062c-1.29-1.425-2.124-1.647-2.124-1.647v-.283h-.229v-.945h-.248V68.06h.166v-.31l-.166-.248s.027-.572-.352-.979-.695-.824-.695-.824v-.21l-.151-.124v-.211l-.015-.169.109-.669h.276v-.251h-.276l-.109-1.045h-.317l-.103 1.045h-.276v.251h.276l.103.669-.006.169v.211l-.152.124v.21s-.323.417-.703.824c-.372.407-.346.979-.346.979l-.172.248v.311h.172v1.035h-.254v.945h-.222v.283s-.842.223-2.125 1.647c-1.282 1.428-1.116 3.062-1.116 3.062h-.234l-.296.291v.282h.165v.668l-.356.334v.894h.385v.894h.338v.562h-1.146v.752h-.338v-7.234h.228v-.559h-.336v-.814h.446v-.474h.166v-.334l-.422-.448h-.385v.166h-1.595v-.276h-.559v-2.431l.67-.673v-.303h-.477s-.779-8.441-5.082-12.687c-4.305-4.245-6.821-5.476-6.821-5.476v-1.204h-1.271V43.57l.257-.752v-.197l-.38-.168-.711-1.2h.111V38.75h-.787v.589s-1.041-1.245-1.406-2.221c-.365-.979-.448-1.382-.448-1.382v-.49h-.31v-.714s.469-.245.469-.852-.67-1.048-.67-1.048V31.06h.628v-.249h-.628v-.838h-.338v.838h-.627v.249h.627v1.572s-.668.441-.668 1.048.469.852.469.852v.714h-.305v.49s-.09.403-.455 1.382c-.357.976-1.406 2.221-1.406 2.221v-.589h-.779v2.503h.11l-.71 1.2-.379.168v.197l.248.752v3.393h-1.271v1.204s-2.51 1.231-6.82 5.476c-4.297 4.245-5.082 12.687-5.082 12.687h-.477v.303l.676.673v2.431h-.559v.276h-1.593v-.166h-.394l-.42.448v.334h.172v.474h.441v.814h-.331v.559h.221v7.234h-.331v-.752h-1.152v-.562h.338v-.894h.394v-.894l-.365-.334v-.668h.165v-.282l-.289-.291h-.242s.173-1.634-1.117-3.062c-1.282-1.425-2.117-1.647-2.117-1.647v-.283h-.227v-.945h-.248v-1.035h.165v-.311l-.165-.248s.027-.572-.353-.979a15.351 15.351 0 0 1-.696-.824v-.21l-.158-.124v-.211l-.007-.169.11-.669h.275v-.251h-.275l-.11-1.045h-.317l-.104 1.045h-.283v.251h.283l.104.669-.008.169v.211l-.15.124v.21s-.325.417-.697.824c-.386.407-.352.979-.352.979l-.172.248v.311h.172v1.035h-.256v.945h-.22v.283s-.835.223-2.124 1.647c-1.283 1.428-1.117 3.062-1.117 3.062h-.242l-.289.291v.282h.165v.668l-.358.334v.894h.387v.894h.338v1.217h-1.117v.91h.124v1.925l-1.979-2.835v-.462l-.662-.572V78.3l-.586-.211-.807.252v.279l-.67.617v.389l-1.648 2.738-.869.17-.447-.336h-.834l-.422.891-.082-.555.303-.535v-.642l-.414-.476-.145-.67h-.807v.422l-.613.81v.894l.275.697v1.537h-1.035v1.09h-.275v.643l-5.165 1.986v-1.035h-.642v1.117l-.462.157a34.585 34.585 0 0 0-3.883-1.909c-7.676-3.229-18.234-5.045-18.234-5.045v-.23s-4.985-.911-8.44-1.235c-3.463-.323-7.242-.146-7.242-.146v2.139l-.531.91h-2.488v-2.846h-1.436v1.143h-4.255v1.793h-6.213v-.973H88.84l-2.435-4.014h-7.647l-2.553-5.979-1.406-1.29v-.731l.51-.518v-6.393l-1.938-1.683-3.358.51-7.104-9.997-2.29-1.141S48.275 55.108 39.95 65.842c-4.834 6.245-4.923 12.051-4.923 12.051l.896.635v9.083l-1.173 3.696v1.29l.703 2.524v3.985l-1.406 3.634.82 2.877v6.33l-.234.704v1.466l-.586.469v1.934l.938 1.057v9.295h-.469l-.697-.854v-2.601l-.262-.258V111.19l.187-.18v-1.17l.304-.506v-.234h.255l.11-.373v-.186h-1.166v-.82h.09v-.387l-.31-.231h-.248v-2.872l.323-.593v-.242h.2v-.503h-.759v-.486h-.234v-.379h-.669v-.23h-1.393v.23H5.752v-.23H4.353v.23h-.669v.379h-.228v.486h-.759v.503h.199v.242l.324.593v2.872h-.247l-.311.231v.387h.09v.82H1.587v.186l.11.373h.256v.234l.303.506v1.17l.18.18v11.969l-.256.258v2.601l-.703.854H.125v.394h.124v1.097l-.249.429v1.429h.249v.821h5.73v-3.904l-.124-.346v-6.431s.449-2.028 2.027-2.028c1.587 0 1.85 1.705 1.85 1.705v6.838l-.262.584v3.58h3.966v-6.965l.172-.263v-.255h-.166v-5.59l.407-.362v-.224h.241v-.369h-.606s.241-1.579 1.296-2.896c1.056-1.32 2.89-1.345 2.89-1.345v.179h.655v-.179s1.835.024 2.89 1.345c1.056 1.317 1.297 2.896 1.297 2.896h-.606v.369h.24v.224l.407.362v5.59h-.165v.255l.165.263v6.965h3.973v-3.58l-.263-.586v-6.838s.263-1.703 1.849-1.703c1.579 0 2.028 2.027 2.028 2.027v6.432l-.125.344v3.904h331.451v-3.338l-.821-1.242.394-.358v-.496l-.876-1.353V107.44l.559-.24v-.855h-.586v-.614l.346-.183v-.348h-.455v-1.066l.237-.48zM48.586 65.979l1.932-1.29v3.399l-1.932 1v-3.109zm-8.448 8.093l.766-.762v2.813l-.766.647v-2.698zm-1.111 35.706v-5.714s-.269-2.844.669-3.461c.938-.614 1.028 1.935 1.028 1.935l.206 6.307-1.903.933zm2.248-22.22v5.472l-1.724 1.252v-4.865s-.352-3.031.744-3.541c1.098-.508.98 1.682.98 1.682zm3.759 19.847l-2.931 1.118v-6.338s.117-3.517 1.435-3.808c1.323-.297 1.496 2.256 1.496 2.256v6.772zm.614-17.385l-2.932 2.109v-5.59s.235-3.127 1.49-3.947c1.248-.821 1.441 1.916 1.441 1.916l.001 5.512zm4.987 15.482l-3.814 1.348v-6.514s0-3.924 1.876-4.338c1.883-.41 1.938 2.465 1.938 2.465v7.039zm.523-18.377l-3.669 2.19V83.22s.193-2.813 1.759-4.146c1.559-1.33 1.91 1.482 1.91 1.482v6.569zm7.511 16.674l-5.339 1.172v-7.098s.297-4.22 2.697-4.572c2.407-.352 2.642 2.76 2.642 2.76v7.738zm.469-19.8l-5.358 2.229v-6.604s.117-3.17 2.311-4.146c2.186-.979 3.048 1.485 3.048 1.485l-.001 7.036zm9.793 18.1l-6.979 1.176v-7.92s.523-3.634 3.399-4.583c2.876-.952 3.579 2.883 3.579 2.883l.001 8.444zm.372-20.99l-6.924 1.759v-6.766s.159-3.127 2.814-4.104c3.654-1.345 4.109 1.838 4.109 1.838v7.272h.001zm12.351 19.697l-8.447.883v-8.503s.413-4.396 4.165-4.749c3.751-.353 4.282 3.519 4.282 3.519v8.85zm15.242-5.197v4.183l-5 .276-1.8-5.241s.511-2.617 3.124-2.617c3.786-.001 3.676 3.399 3.676 3.399zm12.745 5.748h-8.717v-5.786s.311-4.221 4.379-4.104c4.062.117 4.338 3.906 4.338 3.906v5.984zm24.798-15.13l1.159.469v3.286l-1.173-.469.014-3.286zm-13.771-3.007l2.379.545v3.323l-2.379-.313V83.22zm4.02 16.885v4.045h-4.979v-4.278s0-3.521 2.635-3.521c2.641 0 2.344 3.754 2.344 3.754zm2.345-6.98s.068-1.828 2.316-1.609c1.525.145 1.85 2.052 1.85 2.052v3.486l-4.166-.938v-2.991zm4.406 15.157a162.367 162.367 0 0 0-4.055-.349v-7.679s-.406-2.317 1.938-2.317 2.11 2.813 2.11 2.813l.007 7.532zm5.567.681a104.511 104.511 0 0 0-3.469-.455v-7.352s-.352-2.314 1.654-2.314c2.014 0 1.814 2.818 1.814 2.818l.001 7.303zm4.53.805a71.908 71.908 0 0 0-2.696-.514v-7.043s-.276-2.192 1.289-2.192c1.56 0 1.407 2.666 1.407 2.666v7.083zm25.462-41.493h.475v1.759h-.475v-1.759zm1.324 13.475h-2.18v-2.627c0-1.008 1.09-1.117 1.09-1.117s1.09.109 1.09 1.117v2.627zm50.764-13.475h.476v1.759h-.476v-1.759zm1.325 13.475h-2.179v-2.627c0-1.008 1.088-1.117 1.088-1.117s1.091.109 1.091 1.117v2.627zm30.482 40.441v1.353h-5.379v-1.353h.49v-.713h-.248v-.494l-.173-.179-.179-22.766.6-.262v-.414l.33-.203v-.797h3.738v.797l.324.203v.414l.606.262-.18 22.766-.181.179v.494h-.248v.713h.5zm7.746 0v1.353h-5.387v-1.353h.496v-.713h-.248v-.494l-.172-.179-.188-22.766.606-.262v-.414l.332-.203v-.797h3.729v.797l.332.203v.414l.605.262-.18 22.766-.18.179v.494h-.246v.713h.501zm7.744 0v1.353h-5.387v-1.353h.497v-.713h-.248v-.494l-.179-.179-.18-22.766.605-.262v-.414l.331-.203v-.797h3.729v.797l.332.203v.414l.606.262-.179 22.766-.181.179v.494h-.247v.713h.501zm7.737 0v1.353h-5.379v-1.353h.497v-.713h-.25v-.494l-.178-.179-.18-22.765.606-.262v-.414l.33-.203v-.797h3.731v.797l.331.203v.414l.6.262-.18 22.766-.172.179v.494h-.248v.713h.492zm7.745 0v1.353h-5.379v-1.353h.496v-.713h-.248v-.494l-.18-.179-.181-22.766.606-.262v-.414l.324-.203v-.797h3.738v.797l.33.203v.414l.602.262-.18 22.766-.173.179v.494h-.249v.713h.494zm46.255 3.649h-2.731l.662-.715-.4-.812.248-.688-.145-1.138-.793-.683.166-.342-.49-.406-1.09-.234-.262-.986.152-.451-.43-1.283-.537-.729v-.666l.193-.32-.193-.514h-.785l-.242.385.132.342.11.127-.091.283-.304.104-1 .238-.752.662-.214 1.393.387.404.511.238-.256 1.414-1.24 1.5-.11.555-.234 1.436-.255.885h-1.939v-11.51l.408-.22v-.979l.545-.168v-.321h-.214s-.062-3.765 4.386-4.455v.151l.843.193.834-.193v-.151c4.454.69 4.387 4.455 4.387 4.455h-.214v.321l.544.168v.979l.415.22-.002 11.511z"/></svg>