<svg xmlns="http://www.w3.org/2000/svg" width="341.472" height="108.975" viewBox="0 0 341.472 108.975"><path d="M340.542 103.15h-2.162v-1.237h-7.422v-12.37h.618v-.928l-1.855-3.093h-1.547v-.618H315.8v.618l-.82.619v1.442h-2.786V86.04l-1.339-1.136v-1.442h-5.566v1.029h-2.783v.827l-2.165.307v1.083h-1.136v12.009h-2.575V82.326h-8.659v-2.37h-1.339v.824h-1.341v.93h-6.599v-1.754h-4.639v-2.784l1.237-.93v-2.781l-1.947-1.25v-.967h-.462v.889l-1.816 1.198v2.9l1.003.928v2.165h-2.048l-1.081-2.087V12.641h.367v-.366h.33v-1.372l-11.251-9.2-.194.231.194.231-.194.387L254.868 0h-.504v1.624h.426v.426s-3.132 10.9-4.525 24.585c-1.39 13.685-1.312 33.4-1.005 45.771h-1.237v.772h-3.555v-.85h.462v-.543h-11.44v.543h-1.625v2.012h-1.39v-2.321h-2.396v1.7h-2.399l-.619.621v.538h.619v.774h-12.989v.928h.618v1.777h-2.552v3.015h-9.2V71.4h-.541v2.706h-.772v5.411h-.93v-3.246h-.619v5.336h-3.324v.928h-1.081v-.85h-4.951v-4.951h-1.081v-1.156h-.925v.925H174.73v-2.937h-.929v-1.393h-.773V69.08h-.619v3.093h-3.71v1.778h-5.026v3.479h-1.857l-.926.928v8.316h-4.931v1.417h-.397v.397h-2.153V85.71h-.341v-4.764h.255v-.281l-1.189-.286v-.254h-1.503v.197h-.568v-.197h-3.881v-.226h-.993v-.481h-.878v.197h-.538v-.935h-.397v.878h-1.843v-1.104h-.226v.993h-.369v-6.234l.226-.4-.226-.223v-2.807h-1.133s-.114 1.757-1.248 1.897c0 0-.425-.424-.425-2.916h-.482v.198h-.736v-1.845h-.226v1.533h-1.248v-.483h-2.013v.426h-.311v-.455h-.228v.595h-.482v1.079h-.198v1.643s-1.417.397-1.615-1.557h-.879v2.718h-.256v.4h.199v5.525h-.199v.538h-1.076v1.447h-.426v4.73h-.255v-3.768h-.708v-.795h-.283v.2h-2.013v-.424h-2.721V79.9h-.708v.569h-1.501v1.133h-.483v-1.05l-.34-.312v-2.323l-.184-.185v3.386h-.439v1.871h-.256v-1.076l-.509-.398h-.454v-.935h-1.049v.34h-.907l-.283.424v.257h-1.077V78.88h-.284v3.911h-.936v-.369h-.652v.509h-.878v.229h.397v3.607h-1.813V69.459l-.454-.907h-1.588v-.377h-.681V53.003h-1.151v-1.786h-.936v-.397h-.567l-.565-.34h-.85l-.455.48h-4.592v-.226h-1.02v.341h-1.332v-.169h-6.718v.395h.171v2.269l-.595.171v14.99l-.157.156v.244h-1.855v10.512h-4.761v3.345h-.482v-.368h-3.855v-1.928h-.282v.824l-.541.255v1.136h-2.181v-.408h-.718v.491h-3.099v-.377h-.984v.452h-.642v-2.456h-.414v1.474h-.455v-.528h-.301v1.208h-.378v-2.835h-6.5v-.566h-.303v.301h-.567v-.868h-.303v.832h-1.17v.416H52.67v4.533h-.378v-.982h-.982v.759h-1.399v-4.61h-5.328v.452h-.416V78.87h-.491v.416h-2.42v-9.8l.156-.143v-.424h-.766v-1.46h-.169v1.388h-.127v-1.091h-.156v1.149h-.978v.184h-8.007v.892h.157v3.233h-1.46v6.227h-1.083v.525h.189v6.388h-6.689v.681l-.603.185v.418h-2.683l-.341.491v.358h-.832v2.058l-2.115 1.438v.341l-1.625.943v.938H10.98v-2.858h-.309v2.858h-.773v-2.858h-.464v2.858h-.775v-.769H7.423v.769h-.386v2.861H5.723v2.553H4.021v6.882H0v2.474h341.472v-4.277l-.93-1.548z"/></svg>