<svg xmlns="http://www.w3.org/2000/svg" width="386.181" height="98.449" viewBox="0 0 386.181 98.449"><path d="M385.382 97.708v-.915h-2.722v.37h-2.803l-1.459-.776v-1.743h-1.772v.596h-.486v.689h-.886v-1.372h-4.232v-.771h.572v-.376h-.805v-.284l-1.807.052-.631-18.472h.267l.115-.272h.313v-.562l.973-.44-.041-.336a7.238 7.238 0 0 0 3.672-6.294c0-.55-.07-1.094-.186-1.61h.289a.428.428 0 1 0 0-.857h-.544a7.31 7.31 0 0 0-4.198-4.291l.035-.359-.389-.301h-.283l-.215-.382h-.342l-.242-7.14.324-.014v-.258l.556-.258-.203-.295a4.188 4.188 0 0 0 2.334-3.746 4.182 4.182 0 0 0-2.704-3.909l-.018-.374-.215-.064-.115-.203h-.272l-.688-20.2-.174-.229-.174.229-.689 20.2h-.271l-.116.203-.214.064-.018.374a4.185 4.185 0 0 0-2.699 3.909c0 1.645.95 3.06 2.328 3.746l-.202.295.556.258v.258l.33.014-.243 7.14h-.348l-.214.382h-.284l-.388.301.035.359a7.285 7.285 0 0 0-4.193 4.291h-.602a.433.433 0 0 0-.435.428c0 .238.197.429.435.429h.348a7.022 7.022 0 0 0-.186 1.61 7.234 7.234 0 0 0 3.665 6.294l-.04.336.973.44v.562h.318l.11.272h.267l-.568 16.503h-4.076v1.031h-1.054v-1.633h-.405v.429h-.771v-.429h-.603v.429h-.799v-.429h-.255v1.662h-5.646l-.689-16.839.272-.041v-.399l.585-.186-.162-.428a5.717 5.717 0 0 0 3.277-5.166 5.713 5.713 0 0 0-3.729-5.356l.07-.579h-.342l-.098-.186h-.382l-.914-22.439-.324-.599-.319.599-.92 22.441h-.376l-.099.186h-.347l.07.579a5.711 5.711 0 0 0-3.729 5.356 5.72 5.72 0 0 0 3.277 5.166l-.162.428.591.186v.399l.272.041-.707 17.181h-2.716v1.691h1.604v1.17l-.284.289v.452c0 .092.371 0 .371 0v.747h-.857v-1.199h-.434v1.482h-1.314c-.115 0 0-.451 0-.451h-.428V83.706h-.684v-.463h-4.806v-4.285h-.805v.394h-4.574v-9.439c0-6.404 1.656-14.531 1.656-14.531v-1.717h-1.025V48.06h-1.488l-8.414 5.206v26.087h-1.031v-1.314h-3.028v2.809h-.973V67.567h-1.662v.573h-4.806v-.457h-1.656v2.345h-2.976v2.004h-.516v14.586h-6.862v-.799h-4.239v-1.088h-10.064v3.949H280v-.631h-8.066v-5.032h.509v-1.488h-3.486V65.854h-.516v.399h-1.662v-.457h-.805v-7.082l-.776-.771h-.469l-3.069.666V47.515l.255.023v-1.095h-.215v-1.007h.435v-2.942h-1.506v-.258h-1.714v-1.908h-.388v.773h-.319v.492h-.452v-1.566h-.856V38.31h-.197v1.74h-.405v.536h-.603v-.408h-.666v-2.681h-.318v3.688h-.475v.345l-1.263.301v.536h-1.505v.301h.174v.449h-.347v1.479l.208.238v20.215h-1.685v13.22h-.8v-.516h-.544l-.261-.312h-.654v.84h-4.481V60.347h-3.388v-.475h-2.316v.475h-1.633v.643h-1.071v-.301h-1.929l-1.077 1.245h-3.046v-.475h-2.42V82.08h-1.077V68.523h-.66v-5.385l-.261-.44h-1.864l-3.243-2.756V57h-.341v.475h-1.633v1.083h1.633v1.372l-2.918 2.768h-1.228v-7.774h-.429v.287h-.921V43.939h.435v-6.407l-.29-.287h-1.888v-12.1h-4.436l-5.86.828v6.494l-.29.432v4.319h-.544v-.344h-.226l-.632.773h-2.345l-.66-1.002v-2.947h-.226v2.661h-.602l-.312-.429h-2.033v-3.805h-.255v8.208h-.544v-.284h-3.347v20.024h-.544v.371h-1.175v-.486h-2.432v-.284h-.683l-.458-.544h-2.003v9.41h-.66v.573h-.741v-.683h-.603v1.019l-.458.44h-.573v-.603h-.371v-.289h-2.2v.892h-2.809l-.156-8.188 2.884-2.287h.718v-1.118h.272v-.684l-2.473-1.23-1.616-.286v-3.917h1.146l1.262-1.601h.84v-.631h-.915v-.944h.492v-.6h-.544v-.66h.77v-.628h-.781v-3.732l-.122-.272h-1.558v-.315h-.434v-1.373l.29-.174v-.643h.145v-.643h-.892l-.069-1.459h.295v-.686h-.411l-.145-1.931h.371v-.515h-.556L171.227.457 171.031 0l-.197.458-1.077 34.915h-.556v.515h.371l-.151 1.931h-.405v.686h.295l-.075 1.459h-.886v.643h.145v.643l.289.174v1.373h-.434v.315h-1.558l-.127.272v3.732h-.776v.628h.764v.66h-.544v.6h.498v.944h-.915v.631h.84l1.262 1.601h1.146v3.917l-1.615.286-2.473 1.23v.684h.272v1.118h.718l2.884 2.287-.168 8.79h-1.21v1.714h.15v5.536h-1.332v-.336h-.348v-.973h.238v-.429l-.278-1.031h-.578v.371h-.278v-6.265l-.237-.475h-.921v-.428h-1.673v.173h-3.498v2.189h-.857v-.579h-.475v-.237H152.2V70h-1.847v1.737h.15v5.148h-1.928v-.382l-.301-.127V70.04h-1.459v-.382l-.301-.209V61.03l-.237-.359v7.4h-.15v1.778h-.278v7.962h-3.156v-9.867h-.643v.984h-.515v-9.635l-.771-.232v-.776h-1.181v-3.109l-.515-.709v-4.548h-.469v5.6l-2.768 2.895v.648h-.625v2.096l-.47.88v3.393h-1.007V54.788l-.214-.385h-.926v-8.367h-.596v.345h-2.148v-.324h-7.766v-.278h-.388v5.58l-.301.257v1.416h-.516v1.737h-.62l-.428.666v7.722h-.238l-.237-.429v-1.459h-.341v2.102l-.255.429v1.054h-.903v-2.339h.191v-1.222h-.168v-.62h.168v-.926h-.214v-.342h.214v-4.036h-.62v-.556h-.666v.428h-.365V54.04h-.492v-.924h-2.339v-.492h-.539v-3.133h-.382v.559h-.301v1.865h-1.437V49.92l-.301-.321v-.709h-.324v3.691h-1.772v.915h-.602v-.342H106.9v-7.583h-.342v-.516h-.516v.402h-.942v.657h-1.749v.915h-.741v-.57l-.399-.2h-3.063v-7.612h-.544v1.317h-.284v.773l-1.858 1.572v1.917h-.312v.486l-.603.715v.944h-.857v.657l-.602.486v11.413h-.29v.573h-1.771v-2.516h-1.656v-.374H88.88v-4.32l-.371-1.086v-3.005h.342v-1.028h.313v-.859h-.4v-2.517l-1.001-1.546h-.886v-2.944h-.243v2.974h-1.181v.388h-1.071v.472l-.388.278v.579H83.5v1.416h.214v.516h-.404v2.082h.168v2.725c-.718.718-.556 2.125-.556 2.125v5.727l-.452.382v.324h-.66v5.559l-.348.301v6.52l-.428.753v6.416h-.77v-.753h-.15v2.27h-.429v-.446l-.324-.324v-.342h-.318v1.332h-.903v-9.01h-.197v-.625h.197v-.405h-1.332v-1.76h-.857v1.349h-1.696v-.318l-.237-.388h-1.39v.388h-2.577v5.466H67.9v.475h-.277v-.492h-1.135v-.602h-.707v-1.349h-.301v.254h-2.016v-.579h-.903v.301h-.706v-1.228h-.324v.585h-.643v.446h-1.332v-.278h-1.5v3.347h-.255v1.332h.255v2.49h-1.563v-.324h-3.996v.22h-.492v-.301h-2.49v11.176h-.342v-11.65H47.35v.278h-3.99v.238h-.342v-.455h-2.681v4.528H39.11v-.538h-1.262v.214H37.5v2.229h-1.841v-.429l-.365-.127v-3.839h.127v-.318h-3.005l-.318-.347h-1.054v.301h-1.222v-1.008h-.406v-1.112l-.324-.562v-.492h-.602v3.26l-.191.365v1.54h.191v1.228h-.579v1.112l-.516.093.063-10.603h.301v-.84h-.88v-.486h-.318v-.88l-.967-1.309h-.834l-.348.405v.492h-.318v.469h-.452l-.469.371v.73h-1.1v.856h.22v3.816l-.324.365v1.459h-.324v.254h.324v1.83h-1.401v.428h.544v.579h-1.088v1.963H16.48v-1.256h-2.12v-.311h-.544v.313h-1.06v1.146h-.741v-1.853H8.177l-.388.255v.498h-.707v.984H5.148l-.596.365v1.025H.579l-.29.603v.411l.29.127v1.419l-.191.127v.88h.191v5.814l-.191.342v1.071L0 97.632v.816h386.181v-.741h-.799z"/></svg>