<svg xmlns="http://www.w3.org/2000/svg" width="1196" height="427.119" viewBox="0 0 1196 427.119"><g fill-rule="evenodd" clip-rule="evenodd"><path d="M432.898 185.119h-.732.294l-.004-5H432v.106c0-.051.476-.296.476-.589-.001-.293-.476-.537-.476-.587v-.36c0-.051.403-.25.403-.496a.502.502 0 0 0-.389-.497l-.002-5.858c.08.011.159.023.239.023.957 0 1.733-.742 1.732-1.654 0-.047-.002-.091-.007-.138-.072.695-.686 1.24-1.435 1.24-.795 0-1.443-.615-1.443-1.374 0-.714.569-1.302 1.298-1.374-.05-.002-.097-.005-.145-.005-.958 0-1.731.739-1.731 1.653.001.765.549 1.4 1.288 1.588l.003 5.897a.507.507 0 0 0-.394.496c0 .247.171.444.394.496l.001.361c-.269.051-.379.294-.379.586 0 .294.567.538.567.589v-.106h-.625l.003 5h-.435l.002 2h1.956l-.003-1.997zM648.465 185.119h-.729.294l-.004-5H648v.106c0-.051.476-.296.476-.589-.001-.293-.476-.537-.476-.587v-.36c0-.051.188-.25.188-.496 0-.248-.276-.446-.499-.497l-.056-5.858c.08.011.132.023.212.023.957 0 1.72-.742 1.718-1.654 0-.047-.009-.091-.013-.138-.071.695-.689 1.24-1.438 1.24-.797 0-1.443-.615-1.443-1.374-.002-.714.567-1.302 1.295-1.374-.048-.002-.097-.005-.145-.005-.957 0-1.731.739-1.731 1.653.002.765.549 1.4 1.287 1.588l.005 5.897c-.224.051-.583.249-.583.496s.204.444.204.496v.361c0 .051-.474.294-.474.586 0 .294.474.538.474.589v-.106h-.058l.002 5h-.435l.002 2h1.955l-.002-1.997zM541.233 229.119h.414l-.001-2h-.878l-.002-3h.464l-.002-.522-.849.079-.003-2.557H539v3h1.026l-2.026-.285v.285h1.688-1.069l.003 3h-.878l.002 2h1.006H538v1.88l3.154.192zM539.186 218.276l.002 1.843h.49l-1.525.164.002.836 3.072-.122-.002-.878H540v-1.642c2-.159 3.165-1.594 3.164-3.355 0-.095.042-.189.035-.281a2.796 2.796 0 0 1-2.781 2.538 2.81 2.81 0 0 1-2.812-2.816 2.827 2.827 0 0 1 2.542-2.808c-.093-.008-.184-.016-.279-.016-1.867.002-3.382 1.438-3.378 3.308.001 1.631 1.158 2.911 2.695 3.229z"/><path d="M1196 327.119v2h-26v-2h-1v7h1V338.82l-1-.397v-.803l-.5-1.439-.5 1.439v.803l-.999.429-1.001-.429v-.803l-.501-1.439-.499 1.439v.803l-.5.429-.5-.429v-.803l-1-1.439-1 1.439v.803l-.499.429-.501-.429v-.803l-1.002-1.439-.998 1.439v.803l-.5.429-.5-.429v-.803l-1.001-1.439-.999 1.439v.803l-.5.429-.5-.429v-.803l-.5-1.439-.5 1.439v.803l-1 .429-1-.429v-.803l-.5-1.439-.5 1.439v.803l-1 .429-1-.429v-.803l-.5-1.439-.5 1.439v.803l-.499.429-.501-.429v-.803l-.999-1.439-1.001 1.439v.803l-.499.429-.501-.429v-.803l-1.001-1.439-.999 1.439v.803l-.5.429-.5-.429v-.803l-1-1.439-1 1.439v.803l-.501.429-.499-.429v-.803l-.5-1.439-.5 1.439v.803l-1.001.429-.999-.429v-.803l-.501-1.439-.499 1.439v.803l-.999.429-1.001-.429v-.803l-.499-1.439-.501 1.439v.803l-.499.429-.501-.429v-.803l-1-1.439-1 1.439v.803l-.501.429-.499-.429v-.803l-1.001-1.439-.999 1.439v.803l-.5.429-.5-.429v-.803l-1-1.439-1 1.439v.803l-.499.429-.501-.429v-.803l-.498-1.439-.502 1.439v.803l-1 .429v-1.732h1v-1h-1V329.12h-2v2h-37v-4h1v-9h-1v4h-26v-4h-1v13h-37v-2h-2v9.732-1.232l-.998-1.439-1.002 1.439v.803l-.5.429-.5-.429v-.803l-.498-1.439-.502 1.439v.803l-1 .429-1-.429v-.803l-.5-1.439-.5 1.439v.803l-1 .429-1-.429v-.803l-.501-1.439-.499 1.439v.803l-1 .429-1-.429v-.803l-.5-1.439-.5 1.439v.803l-.5.429-.5-.429V276.12h-12v-4h-17v4h-23v-4h-17v4h-11v3h-1v-6h12v-6h-12v-5h12v-5h-12v-6h12v-6h-12v-5h12v-6h-12v-5.083.083h12v-6h-12v-5h12v-6h-12v-4.961c-12-1.597-60-15.559-72-44.483V144.12h-3v166.001h-18v-132H798.535S757 182.504 745 195.759v175.363-2h-2v2h-2v-2h-4s2 2 0 2h-4v13h-1v-203h-4v-27h-8v10h-30v-10h-8v27h-4v174h-3v2h-2.068s-.271-.755-.74-2H656v-24h1v-6h1v-5h-2v-35h1v-5h1v-5h-3v-38.743l-6.138-49.257h-2.77L640 236.376v38.743h-3v5h1v5h1v35h-2v5h1v6h1v24h-18v-14h2v-2h2v-1h-4v-12h1v-1h-4.021s-6.079-15-25.477-17H587v-22.601l-4-4.72v-16.68h1v-1h-5.413s-7.583-20.902-31.773-23.885c0-1.938-1.05-4.59-2.736-5.463s-2.789-2.652-2.789-2.652h-3.191s-1.104 1.781-2.79 2.654c-1.687.873-2.736 3.553-2.736 5.491-24.192 2.982-31.774 23.854-31.774 23.854H496v17.68l-3 4.72v22.601H486.883c-19.397 2-25.478 17-25.478 17H457v1h1v12h-3v1h1v2h2v10.108l-18 4.23v-24.339h1v-6h1v-5h-2v-35h1v-5h1v-5h-3v-38.743l-5.706-49.257H430.523L425 236.376v38.743h-3v10h1v35h-1v11h1v21h-14.709l-1.554-3H407v-113h2v-2h1v-1h-54v1h1v2h3v8h-82v-8h2v-2h1v-1h-53v1h1v2h2v46.076c-2-1.84-4.376-3.743-5.82-5.584-5.596-7.149-11.795-9.666-11.795-9.666s.771-6.95-1.747-7.729c-2.506-.766-8.114-4.05-8.114-4.05s-7.148-6.766-10.242-8.32c-3.08-1.542-4.827-1.72-6.944-2.888-2.131-1.168-3.095-4.838-6.959-5.023-3.863-.185-7.532 0-7.532 0s-7.922-11.982-8.7-14.495c-.774-2.493-.57-4.044-2.698-6.176-2.13-2.116-5.028-4.633-6.956-7.919-1.928-3.28-7.526-13.709-10.422-16.223-2.898-2.513-15.849-6.949-15.849-6.949s1.754-13.312 0-17.186a28.143 28.143 0 0 1-1.079-2.869h2.76l1.539-39.116-.777-5.341 2.204-1.8c1.061-.457 2.305-.774 2.808-1.752 1.053-2.046 1.417-4.587 1.037-6.856l-5.132-30.623-1.069-.117 4.214.428 1.658 3.327 1.296 1.382-.043 1.856.734 2.419 1.814 1.643c.312.282 1.166.585 1.253.173.204-.959-.981-1.698-1.253-1.901l-.433-1.512.303-2.376.173 1.944.907 1.641 2.592 2.377c.79.838 2.008.582 1.513-.433 1.392.902 2.155-.048 1.297-1.123l-2.161-2.679.043-1.641.562 1.598 2.116 2.592c.26.317.846.404 1.21.216.289-.148.341-.65.217-.95-.48-1.152-1.297-2.132-1.945-3.197l-2.635-5.401 1.556.756c.606.294 1.704 1.486 2.376 1.534.405.029.835-.058 1.123-.475l-2.074-2.895c-2.792-1.999-3.417-2.851-6.669-3.847l-7.82-7.798a34.244 34.244 0 0 0-1.127-1.093c-.156-.145-.314-.286-.473-.429-.242-.22-.482-.286-.729-.503-.013-.011-.024.122-.036.122h-.001c-2.208-2.124-4.488-4.011-6.017-6.497-3.236-5.264-4.924-14.559-7.345-17.1l-3.5-3.711c-1.296-1.872-3.116-3.494-3.889-5.636-.693-1.927-.567-4.108-.346-6.145.133-1.207 1.196-2.175 1.383-3.375.369-2.363 1.447-5.098.26-7.174l-3.333-5.823c2.35-2.617 2.523-1.604 2.5-4.586l.515.795.546-1.332 1.473-.277-1.187-1.006.078-1.46-1.279.709-1.424-.625.396 1.445-.958 1.074.637.077c-1.316.463-2.504-.024-2.22-2.159l.761.622.11-1.435 1.316-.715-1.438-.594-.374-1.414-.999 1.068-1.548-.158.82 1.254-.583 1.315 1.113-.216c-1.629 1.458-3.037 1.973-4.955-.805l.995.288-.463-1.363.929-1.175-1.555.019L98.593 0l-.499 1.374-1.485.463 1.246.831-.018 1.439.768-.521c-1.427 2.355-3.345 3.42-6.685 1.8l1.012-.022-.849-1.162.535-1.399-1.478.482-1.203-.831-.065 1.46-1.279.886 1.438.42.412 1.378.733-.924c.123 2.803 1.162 3.122-3.914 2.692l1.116-.195-1.013-1.021.319-1.464-1.39.7-1.314-.64.155 1.454-1.131 1.068 1.484.199.615 1.301.654-1.141c.562 2.069.72 2.838-1.848 2.624l1.009-.375-1.182-.82.047-1.498-1.239.94-1.408-.391.416 1.401-.918 1.256 1.497-.075.841 1.167.396-1.126c1.713 4.021.34 2.544 4.968 5.472-.396 1.075-.793 2.15-.976 3.276-.277 1.706.432 3.536-.086 5.185l-2.307 7.347-.026-.002c-4.037-.282-5.148-.73-9.548 5.487-1.309 1.849-2.501 3.777-3.702 5.699l.095-.069c-.962 1.539-1.926 3.076-2.96 4.566a102.765 102.765 0 0 0-1.763 2.601l-.007.011c-.093.145-.499.274-.581.407-.047.081-.475.168-.475.244v.002c-1 1.929-.614 3.163-.573 5.163h.051c.004 0 .033.121.037.323.002.162.017.205.019.382 0 .075.007.09.007.168.001.247.005.472.001.753-1.385 1.741-1.874 1.629-3.738 2.902.571.611.931 1.099 1.42 1.124l-.012.347h.105c.105 0 .222-.348.344-.352l1.211-.182-1.642 3.153-.075 5.249c.367-.001-.155-.028.845-.405v-.023c0-.169.512-.405.762-.76l-.247 2.396.026.013c.334.052.511.055.671-.007-.314 5.892-1.059 9.998-3.308 20.583l4.066-.173a185.453 185.453 0 0 1-.788 5.196c-.416 2.164-.957 3.874-2.233 7.332l5.012 8.381 4.493 2.938c.691 3.053 1.078 6.192 2.075 9.159l1.731 5.153.301-9.13-1.261 38.664c-1.349 1.061-2.213 1.752-2.213 1.752s-40.958 28.972-57.952 34.376c-4.527 1.44-10.18 3.568-16.136 5.997v224.689H1196V327.119zM67.534 54.426l-.003.012.05-.216c.622-2.695 2.614-5.098 4.839-6.74a15.246 15.246 0 0 1 2.104-1.281c-3.438 1.811-5.679 4.44-6.99 8.225zm14.501 3.939l.003-.009c-.01.022-.022.042-.033.064l.097-.218c-.023.054-.042.11-.067.163zm32.792-5.102l.108.214h-.001l-.107-.214zm.109.216l.178.353-.178-.353zm1.17 2.529l.021.05-.021-.05zm1.172 3.066l-.001-.004.008.021-.007-.017zm1.43 3.208a5.965 5.965 0 0 1-.386-.602c.104.185.221.362.344.536l.042.066.007.01c.017.023.028.049.046.071-.02-.025-.033-.054-.053-.081zm4.172 3.423c-.868-.352-1.67-.876-2.393-1.498.63.496 1.411.987 2.401 1.502l-.008-.004zM787 183.512c1-.247 3-.471 4-.683v18.29h-4v-17.607zm-7 1.419c1-.328 3-.644 4-.938v17.126h-4v-16.188zm-7 1.851c1-.417 3-.824 4-1.215v15.553h-4v-14.338zm-7 2.364c1-.521 3-1.041 4-1.552v13.525h-4v-11.973zm-7 3.001c1-.637 3-1.299 5-1.967v10.938h-5v-8.971zm-9 5.419s2-1.745 7-4.091v7.644h-7v-3.553zm49 3.553h-5v-18.631c1-.183 3-.354 5-.496v19.127zm5-19h17v19h-17v-19zm115 102h1v6h-1v-6zm0 11.452v-.452h1v6h-1v-5.548zm0 11.548h1v5h-1v-5zm0 10.63v-.63h1v6h-1v-5.37zm.634 11.09v.94h-.566v-.94h.566z"/></g></svg>