<svg xmlns="http://www.w3.org/2000/svg" width="1158.989" height="273" viewBox="0 0 1158.989 273"><path d="M1152.232 211.166v-6.191h.475v-.461h-40.643v-.186h.689l.205.084.035-.084h.152v-.373l.947-2.307 1.004.412.256-.625-.33-.135v-.488l.404-.984 1.061.438.303-.738 1.178.484.652-1.59-.439-.182.26.107 1.654.68.645-1.57-1.289-.531 2.746 1.131.305-.742-17.645-7.252v-4.943h-.719v-.807h.719v-.58h-2.445s-.209-1.658.912-3.109c1.119-1.449 1.865-2.775 2.486-4.145s4.52-3.65-.498-3.65c-5.016 0-2.32-.994-2.238-2.361.084-1.367-.871-3.15-1.574-3.15-.648 0 1.242-4.021-1.162-4.021-2.402 0-1.947 3.027-.826 3.773-1.701 0-1.617.705-2.199 1.574-.58.871-1.16 1.494-.414 2.693.746 1.203 1.41 1.037.83 3.359s-1.658 2.859-.416 4.062c1.246 1.203.996 2.818 1.121 3.73s.125 1.244.125 1.244h-1.246v.58h.719v.807h-.719v1.842l-51.021-20.973v-3.527h-.719v-.807h.719v-.58h-2.445s-.207-1.658.912-3.109a20.225 20.225 0 0 0 2.486-4.145c.623-1.369 4.52-3.648-.496-3.648-5.018 0-2.322-.996-2.238-2.363.082-1.367-.871-3.15-1.576-3.15-.648 0 1.244-4.02-1.16-4.02-.99 0-1.49.516-1.664 1.172V128.69h6.701v-1.428h-6.701v-6.791h-1.426v6.791h-6.701v1.428h6.701v17.385c-.557.822-1.07 1.445-.352 2.604.746 1.203 1.408 1.035.828 3.357s-1.658 2.861-.414 4.064c1.244 1.199.994 2.818 1.119 3.73.125.91.125 1.242.125 1.242h-1.244v.58h.719v.807h-.719v3.445l-51.223 21.055v-1.842h-.719v-.807h.719v-.58h-1.242s0-.332.123-1.244c.125-.912-.123-2.527 1.119-3.73 1.244-1.203.168-1.74-.412-4.062-.582-2.322.082-2.156.828-3.359.746-1.201.166-1.822-.416-2.693-.578-.869-.496-1.574-2.195-1.574 1.119-.746 1.574-3.773-.83-3.773s-.512 4.021-1.16 4.021c-.705 0-1.658 1.783-1.576 3.15.084 1.367 2.779 2.361-2.238 2.361-5.016 0-1.119 2.281-.498 3.65.623 1.367 1.369 2.693 2.488 4.145s.912 3.109.912 3.109h-2.445v.58h.719v.807h-.719v4.943l-17.646 7.252.303.742 1.457-.6.646 1.57 1.473-.605.652 1.588 1.18-.484.303.738 1.059-.436.406.984v.486l-.33.137.256.623 1.002-.412.949 2.309v.371h.152l.035.086.203-.086h.691v.186h-22.77V202h-1v1.988l-.436.521h-16.438v.461h.473V209h-4.6v-1h-2v-3h-1v-3h-1v3h-2v4h-1v-4h-2v-3h-2v3h-2v-1h-3v-3h-1v-4.539l-3 1.541V201h-1v5.039l-2 1.363V209h-1v3h-9.396l-1.592 1.891v-25.814h-4.043V154.93h-2.691v-9.739h-41.037V120.63c1.809.936 3.701 1.637 5.537 1.441 1.885-.201 3.688-1.244 5.537-2.199 1.809-.934 3.699-1.637 5.535-1.439 1.887.201 3.689 1.242 5.537 2.197v-12.018c-1.85-.953-3.65-1.996-5.537-2.197-1.836-.195-3.729.506-5.535 1.439-1.85.955-3.652 1.998-5.537 2.199-1.836.195-3.73-.506-5.537-1.441v-2.607h-.48v39.186h-41.039v9.739h-2.689V188.077h-4.043V209h-.988v5h-5v-2h-2v2h-5.9l-4.1 4.693V216h-11v1h-10.891l-2.311-2h-3.799v-6h1v-.607l-3-1.025V204h.986s.178-.672-.252-.715c-.43-.037-1.117-.523-1.117-.523s-.25-1.438-.549-2.338c-.303-.9-2.068-1.918-2.068-1.918s-1.701.988-2.002 1.891c-.295.898-.416 2.309-.416 2.309s-.713.543-1.143.58c-.43.043-.293.715-.293.715h.854v3.367l-2 1.025V215h-2v1h1v5.771l-2.99-5.771h-2.223l-1.119 2.908-2.303-58.77h.232l10.012-9.08v-1.33l-10.012-9.082h-.041v-6.091h.982v-6.423h-.982v-6.036h1.379v-2.547h-2.457l-.098-4.653h2.357v-1.217h-2.383l-.111-5.204h2.494v-1.219h-2.52l-2.096-99.23-2.098 99.23h-2.518v1.219H726l-.109 5.204h-2.383v1.217h2.357l-.1 4.653h-2.455v2.547h1.379v6.036h-.986v6.423h.986v6.091h-.045l-10.008 9.082v1.33l10.008 9.08h.234L722.459 222h-17.458v-1h1v-4h-1v-1h1v-3h-1v-2h1v-3h-1v-2h1v-3h-1v-2h1v-4h-1v-2h1v-3h-1v-2h1v-3h-1v-2h1v-3h-1v-2h1v-4h-1v-1h1v-4h-1v-2h1v-3h-1v-25h-82v2h4v1h-2v1h1v19.742l-9-4.754V158h-4.619l-5.5-2.809V153.5h.506v-.363h-2.18v-.508h-.148v-.336h.066v-.393h-.146l-.215-16.173a.472.472 0 0 0 .467-.477.473.473 0 0 0-.469-.479h.162v-.119h-.08v-.602h-.08v-.381h.15v-.295h.014v-.232h.012v-.221h.197v-.43h-.375v-7.986h.541v-.453h.156v-.287h-.307v-.221h.148v-.176h.33v-.166h.332v-.322h-1.27v-.312h-.896c0-5.982-11.553-6.822-11.553-6.822v-.879h.43v-.234h-.43v-1.176a3.542 3.542 0 0 0 1.147-4.674l-2.268-8.746a.832.832 0 0 0-.625-.805v-6.674h4.795v-.418H590.5v-6.516h-.418v6.516h-4.795v.418h4.795v6.674a.835.835 0 0 0-.625.805v.002l-2.266 8.744a3.542 3.542 0 0 0 1.145 4.674v1.176h-.43v.234h.43v.879s-11.554.84-11.554 6.822h-.896v.312h-1.269v.322h.332v.166h.328v.176h.149v.221h-.306v.287h.155v.453h.541v7.986h-.374v.43h.195v.221h.015v.232h.014v.295h.15v.381h-.081v.602h-.079v.119h.162a.473.473 0 0 0-.469.479c0 .264.209.477.467.477l-.066 4.905-32.879-14.432-.045-3.482c.266 0 .479-.229.479-.508a.496.496 0 0 0-.48-.508h.167v-.127h.385v-.42h.504v-.332h-.227v-.312h.383v-1.062h-.339v-.672h.629v-.521h.062v-.412h.051v-.389h.827v-.76h.354v-.141h-1.758l.062-.143-12.8-5.619v-.727h.221v-.219h-1.508v-6.35h1.591v-.168h-1.591v-1.518h-.166v1.518h-1.59v.168h1.59v6.35h-1.506v.219h.22v.727l-12.799 5.619.062.143h-1.758v.141h.354v.76h.826v.389h.052v.412h.062v.521h.629v.672h-.338v1.062h.382v.312h-.229v.332h.506v.42h.384v.127h.166c-.265 0-.479.227-.479.508 0 .279.213.508.478.508l-.045 3.482-32.878 14.433-.064-4.905a.472.472 0 0 0 .468-.477.474.474 0 0 0-.469-.479h.162v-.119h-.08v-.602h-.081v-.381h.148v-.295h.016v-.232h.013v-.221h.196v-.43h-.374v-7.986h.541v-.453h.156v-.287h-.308v-.221h.15v-.176h.33v-.166h.332v-.322h-1.271v-.312h-.896c0-5.982-11.556-6.822-11.556-6.822v-.879h.431v-.234h-.431v-1.176a3.547 3.547 0 0 0 1.148-4.674l-2.267-8.746a.834.834 0 0 0-.627-.805v-6.674h4.796v-.418h-4.796v-6.516h-.416v6.516h-4.795v.418h4.795v6.674a.834.834 0 0 0-.625.805h-.002l-2.265 8.746a3.543 3.543 0 0 0 1.147 4.674v1.176h-.432v.234h.432v.879s-11.554.84-11.554 6.822h-.897v.312h-1.27v.322h.331v.166h.33v.176h.15v.221h-.307v.287h.155v.453h.541v7.986h-.374v.43h.196v.221h.012v.232h.017v.295h.149v.381h-.082v.602h-.08v.119h.163a.473.473 0 0 0-.469.479c0 .264.209.477.468.477l-.217 16.173h-.146v.393h.066v.336h-.148v.508h-2.179v.363h.505v3.031h36.506v.008h-37.011v.359h.51v.867h-1.895v.76h.827v.389h.052v.412h.061v.521h.63v.672h-.34v1.061h1.88v.219h.354c-.562 0-1.02.396-1.02.887 0 .484.455.881 1.016.883l-.44 27.947h-.931v-.564h-.193v-.594h-.299v-.586h.596v-.572h-1.475v-.008h.474v-.576h-1.734v.584h-.547v-.008h.473v-.576h-1.526v-26.15h1.453V161h.518v-.609h-1.181v-.354h-.188v-.369h-.284v-.367h.569v-.355h-1.292v-.004h.333v-.361h.973v-.381h-1.306v-2.693h1.116V152.915c1.041.389 1.988.568 2.058.582l.036-.811c.002 0 .007 0 .009.002v-.221l-.035-.01.025-.562h.01v-.234c-.4-.109-1.431-.455-2.102-1.252v-.072h-.06a2.557 2.557 0 0 1-.557-1.627v-.111h-3.257c-.389-.447-3.225-3.492-8.206-3.562-.06-.002-.116-.004-.178-.004-.06 0-.116.002-.176.004a11.733 11.733 0 0 0-3.654.635v-.479h1.16v-.361h-.766v-.592h-.724v-.609h-1.121v-1.891c1.004-.574 1.414-1.66 1.02-1.924-.395-.262-1.102-1.02-1.102-1.02v-1.738h-.46v1.738s-.707.758-1.102 1.02c-.396.264.016 1.35 1.019 1.924v1.891h-1.121v.609h-.724v.592h-.767v.361h1.16v.592h-.312v.51h.596s-.034 2.369-3.01 2.369c-2.938 0-4.604-3.559-4.643-3.643v-9.266h1.484v-4.549c1.384.682 2.642.996 2.73 1.021l.048-1.426a.029.029 0 0 0 .014.004v-.385a1.247 1.247 0 0 0-.048-.018l.033-.992c.004 0 .01.004.015.004v-.416c-.532-.189-1.9-.797-2.792-2.197v-.125h-.077c-.437-.73-.741-1.664-.741-2.859v-.197h-4.325c-.516-.783-4.283-6.133-10.899-6.258v-1.029c.991-.154 1.764-1.279 1.764-2.643 0-1.314-.713-2.402-1.65-2.621v-8.068h5.816v-.695h-5.816v-4.844h-.693v4.844h-5.817v.695h5.817v8.068c-.938.219-1.651 1.307-1.651 2.621 0 1.363.771 2.488 1.765 2.643v1.029c-6.619.125-10.386 5.475-10.9 6.258h-4.325v.197c0 1.195-.306 2.129-.741 2.859h-.076v.123c-.892 1.402-2.26 2.01-2.792 2.199v.416c.004 0 .01-.004.013-.004l.033.992a1.115 1.115 0 0 0-.046.018v.385a.034.034 0 0 0 .012-.004l.047 1.426c.091-.025 1.349-.34 2.733-1.021v4.549h1.484v9.266c-.04.084-1.705 3.643-4.644 3.643-2.975 0-3.01-2.369-3.01-2.369h.597v-.51h-.312v-.592h1.159v-.361h-.765v-.592h-.725v-.609h-1.12v-1.891c1.002-.574 1.413-1.66 1.02-1.924-.396-.262-1.102-1.02-1.102-1.02v-1.738h-.459v1.738s-.707.758-1.102 1.02c-.395.264.016 1.35 1.02 1.924v1.891h-1.123v.609h-.723v.592h-.766v.361h1.161v.48a11.674 11.674 0 0 0-3.655-.637c-.059-.002-.116-.004-.176-.004s-.118.002-.176.004c-4.983.07-7.818 3.115-8.207 3.562h-3.257v.109c0 .684-.229 1.211-.558 1.627h-.058v.072c-.671.797-1.7 1.143-2.102 1.252v.234h.01l.026.564c-.014.004-.026.006-.036.01v.219c.003-.002.007-.002.009-.002l.036.811c.067-.014 1.016-.193 2.057-.582V155.504h1.118v2.693h-1.307v.381h.973v.361h.334v.004h-1.293v.357h.57v.367h-.285v.369h-.186v.352h-1.182v.611h.517v1.467h.388v26.15h-.46v.576h.46v.008h-.534v-.584h-1.735v.576h.474v.008h-1.476v.572h.596v.586h-.298v.594h-.194v.564h-1.234v.979h.541v2.35h1.519v6.633h-1.633v.574h.492v.01h-1.531v.57h.617V203h-12.008v3h-4v-50.586L340.332 137h-14.331v2h-9v-2h-5V67.686s-4.241-1.369-8.858-1.535c-4.615-.172-7.142 0-7.142 0v-1.879l-5-4.279V41.859l-3-1.708V8h-1v31.3l-2-1.032V0h-1v38.955l-5 1.707V44h-8v6h-10v169h-3v-3h-4v-1h-6v-3h-2v2h-4v-2h-3.595l-2.405.879V215h-7.685l-2.309-2h-2.963v-37.684h.763v-6.405h-.763v-10.6h.755v-1.758h3.055l-3.468-3.494h-.857c-.001-.186-.01-.396-.023-.619v-22.169h2.667v-3.825l-2.644-2.334h-1.06V78.928l-.488-2.495V71.83h.132v-.465h-.26l-.131-1.26.259-.041-.066-.63-.258.04-.131-1.26.259-.041-.067-.63-.258.04-.131-1.261.258-.04-.066-.631-.258.041-.131-1.261.258-.04-.066-.631-.258.041-.131-1.262.257-.039-.065-.631-.258.04-.131-1.261.258-.04-.066-.63-.257.039-.131-1.26-.463-.615h-.02v-4.254l1.979-1.389H218.92v5.643h-.003l-.464.615-.132 1.263-.274-.042-.064.63.273.042-.131 1.262-.273-.043-.067.631.274.042-.131 1.261-.274-.043-.066.631.274.043-.131 1.26-.274-.043-.066.631.274.043-.131 1.26-.274-.042-.066.63.275.043-.131 1.26-.274-.042-.066.63.274.043-.131 1.258h-.276v.465h.133v4.603h-.652V65.914h-9.111v10.519h-.652V71.83h.132v-.465h-.26l-.131-1.26.258-.041-.065-.63-.259.04-.131-1.26.257-.041-.065-.63-.258.04-.131-1.261.257-.04-.065-.631-.258.041-.131-1.261.257-.04-.064-.631-.259.041-.131-1.262.257-.039-.064-.631-.258.04-.131-1.261.258-.04-.066-.63-.257.039-.132-1.26-.464-.615h-.018v-4.254l1.979-1.389h-2.119v5.643h-.002l-.464.615-.131 1.263-.274-.042-.065.63.273.042-.131 1.262-.274-.043-.066.631.274.042-.131 1.261-.274-.043-.065.631.274.043-.132 1.26-.274-.043-.065.631.274.043-.131 1.26-.274-.042-.066.63.275.043-.132 1.26-.274-.042-.066.63.274.043-.131 1.258h-.275v.465h.132v4.603l-.488 2.495v45.189h-1.06l-2.643 2.334v3.181h-2.423v-2.217h.362v-1.522h.537v-1.646h-.537v-1.451h.537v-1.645h-1.133v-6.677h.234v-.675h-.458l-.233-1.829.457-.058-.117-.914-.457.057-.232-1.828.457-.059-.117-.915-.456.059-.233-1.829.456-.058-.116-.915-.457.059-.232-1.829.456-.059-.117-.914-.455.059-.233-1.828.456-.059-.116-.915-.456.059-.233-1.829.456-.059-.117-.914-.455.059-.233-1.829-.82-.894h-.034v-6.171l3.505-2.016h-3.753v8.187h-.004l-.82.894-.233 1.833-.485-.062-.116.914.485.062-.232 1.829-.486-.062-.115.915.478.06-.233 1.828-.486-.062-.115.914.485.062-.232 1.829-.486-.062-.116.915.486.062-.233 1.829-.484-.062-.117.915.485.062-.233 1.828-.485-.061-.116.914.485.061-.231 1.826h-.489v.675h.235v6.677h-1.134v1.645h.538v1.451h-.538v1.646h.538v1.522h.361v.969l-5.51-4.947v-4.114h-.149v3.979l-10.863-9.756h-3.362v-.017h2.38v-.438h.709v-1.392h-.504v-.601h.777v-1.394h-1.333V80.696h.351v-.436h.709v-1.393h-.504v-.602h.777v-1.393h-2.584V63.955h.37V62.65h-.722l-.367-3.539.717-.111-.183-1.77-.719.112-.367-3.539.719-.112-.184-1.77-.719.113-.367-3.539.719-.111-.183-1.771-.719.112-.367-3.538.719-.112-.183-1.77-.719.113-.367-3.539.719-.112-.181-1.767-.719.111-.367-3.538.719-.112-.183-1.77-.72.112-.366-3.538-1.292-1.729v-2.437c.569-.13 1.001-.741 1.001-1.479 0-.739-.435-1.352-1.008-1.479V9.83h4.02v-.536h-4.02V1.953h-.436v7.342h-4.02v.535h4.02v10.312c-.573.127-1.008.74-1.008 1.479 0 .737.432 1.349 1.001 1.479v2.437l-1.292 1.729-.367 3.545-.764-.119-.183 1.77.764.119-.367 3.539-.765-.12-.183 1.769.765.119-.367 3.538-.764-.119-.183 1.77.764.119-.367 3.539-.764-.12-.184 1.771.764.119-.367 3.537-.764-.119-.184 1.77.764.119-.367 3.539-.764-.119-.181 1.768.764.119-.366 3.531h-.769v1.305h.37v12.918h-2.584v1.393h.776v.602h-.504v1.393h.709v.438h.352V109.707h-1.333v1.394h.776v.601h-.504v1.392h.709v.438h2.381v.017h-3.09l-11.134 9.851v-4.074h-.15v4.207l-5.51 4.874v-.988h.361v-1.522h.537v-1.646h-.537V122.8h.537v-1.645h-1.132v-6.677h.234v-.675h-.459l-.233-1.829.458-.058-.117-.916-.457.057-.232-1.828.457-.059-.117-.915-.456.059-.233-1.829.457-.058-.116-.915-.457.059-.233-1.829.458-.059-.117-.914-.456.059-.233-1.828.457-.059-.116-.915-.457.059-.232-1.829.457-.059-.117-.914-.456.059-.232-1.829-.821-.894h-.034v-6.171l3.506-2.016H135.241v8.187h-.005l-.82.894-.233 1.833-.484-.062-.117.914.485.062-.233 1.828-.485-.062-.116.915.484.062-.232 1.829-.485-.061-.116.914.484.062-.232 1.829-.485-.062-.116.915.485.062-.233 1.829-.485-.062-.116.915.485.062-.232 1.828-.485-.061-.117.914.485.061-.232 1.826h-.488v.675h.235v6.677h-1.133v1.645h.537v1.451h-.537v1.646h.537v1.522h.361v2.217h-2.422v-3.181l-2.643-2.334h-1.059V78.928l-.489-2.495V71.83h.133v-.465h-.26l-.132-1.26.259-.041-.066-.63-.258.04-.131-1.26.259-.041-.067-.63-.257.04-.131-1.261.258-.04-.066-.631-.257.041-.132-1.261.259-.04-.067-.631-.258.041-.131-1.262.258-.039-.066-.631-.258.04-.131-1.261.254-.038-.067-.63-.257.039-.131-1.26-.464-.615h-.019V53.89l1.98-1.389h-2.12v5.643h-.003l-.464.615-.131 1.263-.274-.042-.065.63.273.042-.131 1.262-.273-.043-.065.631.273.042-.132 1.261-.274-.043-.066.631.274.043-.131 1.26-.274-.043-.066.631.274.043-.131 1.26-.274-.042-.066.63.275.043-.131 1.26-.274-.042-.066.63.275.043-.131 1.258h-.276v.465h.132v4.603h-.652V65.914h-9.111v10.519h-.653V71.83h.133v-.465h-.26l-.132-1.26.258-.041-.066-.63-.258.04-.131-1.26.258-.041-.066-.63-.258.04-.131-1.261.258-.04-.065-.631-.258.041-.131-1.261.258-.04-.065-.631-.258.041-.131-1.262.258-.039-.064-.631-.259.04-.131-1.261.258-.04-.065-.63-.259.039-.131-1.26-.464-.615h-.018v-4.254l1.98-1.389h-2.12v5.643h-.002l-.464.615-.132 1.263-.274-.042-.065.63.274.042-.131 1.262-.274-.043-.065.631.273.042-.131 1.261-.274-.043-.065.631.274.043-.132 1.26-.273-.043-.066.631.274.043-.131 1.26-.274-.042-.065.63.273.043-.131 1.26-.274-.042-.066.63.275.043-.131 1.258h-.275v.465h.132v4.603l-.488 2.495v45.189h-1.06l-2.643 2.334V130.276h2.666v22.168c-.014.225-.022.434-.024.619h-.856l-3.468 3.494h3.056v1.758h.763v10.6h-.763V175.32h.763V213h-.904l-4.646 4.668V220h-6v-13h-11v-2h-8v-2h-3v3h-1.543v-23.323h.559v-.756h.411v-.652h1.014v-.703h-2.433V154.17h.54v-.742h.402v-.639h.993v-.688h-4.901v-19.57h.462v-.634h.345v-.547h.851v-.591h-7.195c0-7.604-9.12-12.152-9.12-12.152v-1.993h-.614v-.957h-.468l-.141-13.241-1.724-2.992a1.25 1.25 0 0 0 1.062-1.234c0-.635-.472-1.152-1.082-1.236v-5.413h.585v-.751h-.447v-1.612h1.612v.447h.743V88.11h-.743v.448h-1.612v-1.613h.447v-.742h-1.515v.742h.448v1.613h-1.613v-.448h-.743v1.514h.743v-.447h1.613v1.612h-.448v.743H48.075v5.413a1.25 1.25 0 0 0-1.083 1.236 1.25 1.25 0 0 0 1.062 1.234l-1.723 2.992-.14 13.243h-.467v.957h-.614v1.993s-9.12 4.548-9.12 12.152h-7.196v.591h.851v.547h.345v.634h.463v19.57h-4.9v.688h.993v.639h.402v.742h.539v26.391h-2.433v.703h1.014v.652h.411v.756h.559v29.442h-1.984v.705h1.014v.65h.411v.758h.344l-.43 4.78h-9.392v1H3.343l-3.342 3.74V273H392.47v-1.32h3.488v.15h4.822v-.15h9.998v-2.703H400.241c.006-.203.008-.412.006-.629.281-.033.717-.15 1.26-.521.973-.662-.076-.854 1.924-1.146 2.002-.291 3.732-.193 3.83-.408.006-.014 0-.029-.018-.043.225-.035.432-.137.598-.285.084.029.172.055.266.062a1.125 1.125 0 0 0 1.229-1.012c.006-.061.002-.121 0-.182a1.122 1.122 0 0 0 .086-2.114c0-.01.004-.02.006-.031a1.12 1.12 0 0 0-.422-.979h11.115v3.754a34.16 34.16 0 0 0-1.555-.061c-3.644-.045-6.191.707-6.191.707l-.25.008.008.832s-.518.045-.518 1.447c0 1.406.135 4.623.135 4.623h.322l-.119-3.043.311-.006.08 2.398h.281l-.064-2.389 7.562-.02v1.303h-1.713v.434h3.705v-.434h-1.713v-1.303l1.055-.004 2.046-.029v.922h-.296V273H1153.845v-5.1h.57v-.459h-.482v-2.033h.482v-.459h-1.848v-.373h.129v-.869h-.129v-.373h.129v-.602h-.486v-.742h-.59v-40.219h.807v-.871h-.275v-2.334h1.277v-.459h-1.193v-2.033h1.193v-.461h-.598v-1.031H1154.092v-.545h1.404v-1.17h1.756v-1.156h1.736v-.545h-6.756zm-34.826-13.244h.002l.109.047-.111-.047zm-145.463-1.856l-2.572 1.057.6-.248 1.973-.811v.002zM48.229 88.85h.037v.029h-.037v-.029zm117.551 24.676h.616v.017h-.144v-.01h-.472v-.007zm-3.817 81.365v-9.642h.001V207h-.001v-12.109zm-.78-81.365h.616v.007h-.471v.01h-.145v-.017zm250.74 155.673s-.088-1.678.25-1.832l.047 1.684-.297.148zm8.193-.166l-7.646.006-.004-.439 7.65-.006v.439zm0-.687l-7.652-.004-.02-.605h7.672v.609zm0-.858l-7.691-.021-.025-.689s3.629-.346 6.135-.346c.502 0 1.039.018 1.582.045v1.011zm3.386.01l-3.106-.008v-.998c1.192.07 2.344.186 3.106.271v.735zm0 .24v.609l-3.106-.002v-.607h3.106zm0-1.867a24.773 24.773 0 0 0-3.101-.408v-3.773h3.101v4.181zm-.521-9.937h.521v.174h-.161v-.002l-.36-.172zm3.609-97.362c.004.002.01.004.015.004h.143v.361h.452v.004h-.622l.012-.369zm-38.722.366h.451v-.361h.145c.004 0 .01-.002.013-.004l.013.369h-.622v-.004zm4.621 110.039h-.316v-2.881c.854.119 1.268.391 2.22 1.053 1.219.844 1.441 1.289 1.51 1.828h-3.414zm23.99-13.043h1.048l-.359.172h-.453l-8.012 4.127v1.289c-.031-.012-.053-.031-.082-.039a1.122 1.122 0 0 0-1.004-.965c-.084-.01-.166 0-.246.01a1.123 1.123 0 0 0-.738-.719 1.125 1.125 0 0 0-1.004-.967 1.14 1.14 0 0 0-.58.104 1.134 1.134 0 0 0-.611-.254 1.136 1.136 0 0 0-1.008.451 1.074 1.074 0 0 0-.469-.16 1.12 1.12 0 0 0-.861.289 1.122 1.122 0 0 0-.717-.668 1.12 1.12 0 0 0-1.002-.965 1.103 1.103 0 0 0-.58.104 1.109 1.109 0 0 0-.611-.256c-.047-.004-.09.004-.137.004v-15.494h.93v-.367h-.116l2.33-5.951-2.375-2.518s-.513-.439-1.248-.514c-.004-.168-.021-.664-.021-.854 0-.209.062-.219.189-.332-.267 0-.373-.504-.373-.504s-.107.504-.371.504c.123.113.188.123.188.332 0 .189-.016.689-.021.857-.732.072-1.271.51-1.271.51l-2.354 2.502 2.328 5.967h-.113v.367h.928v15.781a1.129 1.129 0 0 0-1.137.748 1.084 1.084 0 0 0-.814-.379c-.209 0-.402.059-.57.158a1.123 1.123 0 0 0-1.592.35 1.094 1.094 0 0 0-.484-.113c-.385 0-.709.205-.912.502v-22.516h.165v-.439h.256v-.502h.189v-.438h-.189v-.502h.189v-.439h-.61s.043-11.658 14.94-16.453l.119.289H408.444l.118-.289c14.898 4.795 14.939 16.453 14.939 16.453h-.608v.439h.188v.502h-.188v.438h.188v.502h.257v.439h.163v19.148l-3.246-1.566-3.776 1.825zm-19.771-20.745l3.336-.025-.738 6.332h-1.871l-.727-6.307zm.535 6.311l-.252.002-2.195-5.812 1.697-.475.75 6.285zm3.022-6.311l1.674.5-2.223 5.807h-.234l.783-6.307zm20.131 33.842v-.438l3.106-.002v.438l-3.106.002zm33.761-65.81h-.102v-.59h.102v.59zm-.414-10.727l-.015.949h-.207v-.949h.222zm-.189 1.67v.623h-.033v-.623h.033zm-1.551.682h1.228v.887h-1.104v.359h.505v3.031h1.526v2.939h-1.015v-.012h.492v-.572h-1.632v-6.632zm8.207-34.653v.326h-.062v-.672h.062v.346zm28.154-7.056h-4.225v-.508h-.147v-.336h.064v-.393h-.146l-.117-8.812h1.881v.869h.129v.924h.151v1.166h1.562v1.506h-.84v2.375h.949v.699h-.564v.744h1.256v.938h.557v.219h.297a.853.853 0 0 0-.807.609zm-2.738-12.063l30.996-13.61-30.996 13.61zm44.463-30.233h.002l13.014 5.713-13.016-5.713zm40.549 41.686v-.219h.558v-.938h1.256v-.744h-.565v-.699h.949v-2.375h-.838v-1.506h1.561v-1.166h.151v-.924h.128v-.869h1.882l-.118 8.812h-.145v.393h.063v.336h-.147v.508h-4.223a.856.856 0 0 0-.808-.609h.296zm-.26 4.012l-.001-.008h16.625v.008h-16.624zm301.809-3.527V151.751h7.375v-.555h-7.375v-1.533h7.375v-.555h-7.375v-1.533h7.375v-.555h-7.375v-1.23h7.377v7.533h-7.377v-.311zm-26.945-7.221h4.443v1.231h-4.443v-1.231zm0 1.785h4.443v1.533h-4.443v-1.533zm0 2.088h4.443v1.533h-4.443v-1.533zm-.002 2.088h4.443v.061h.002v1.51H845.239v-1.571zm-4.922-5.41v-.553h4.443v1.232h-4.443v-.679zm0 2.494v-1.26h4.443v1.533h-4.443v-.273zm0 2.242v-1.414h4.443v1.533h-4.443v-.119zm0 1.936V151.751h4.441v1.572h-4.442v-.309zm-29.881-1.2V145.793h7.379v1.229h-7.371v.555h7.371v1.533h-7.371v.555h7.371v1.533h-7.371v.555h7.371v1.572h-7.38v-1.511zm162.307 43.922l2.482-1.021.264-.107-2.746 1.128zm2.773-1.14l1.973-.811-1.973.812v-.001zm2.775-1.139l1.969-.811-2.232.92.263-.109zm.399 1.691l-.008.002.607-.248-.599.246zm4.346-3.642l.041-.018-2.012.826 1.971-.808zm42.892-15.776l-.878.359.886-.363-.008.004zm.686-.281l1.039-.43-.002.002-1.037.428zm13.492-32.441c.135.596.441 1.139.834 1.398-.346 0-.615.031-.834.084v-1.482zm-15.352 31.349l.691-.285 2.543-1.045.105-.043-5.422 2.229 2.083-.856zm-1.453 2.454l-1.025.424h-.002l1.027-.424zm-6.494.814l2.287-.939-2.438 1.002.151-.063zm-21.504 10.693l-.027.014-1.023.42 1.05-.434zm-7.781 1.344l1.061-.436.562-.23-1.623.666zm2.086 7.461h-.002l6.957-2.857-6.955 2.857zm7.236-2.975h-.002l1.83-.752h.002l-1.83.752zm3.639-9.816l2.652-1.09.121-.049 1.969-.809-4.742 1.949v-.001zm2.473.842l-1.236.51-.01.004 1.258-.52-.012.006zm.548 6.236h-.002l1.836-.756h.002l-1.836.756zm3.1-7.736l-.701.289.705-.291-.004.002zm3.562 4.998h-.002l1.832-.754h.003l-1.833.754zm1.875-7.233l-.01.002.088-.035-.078.033zm-3.984-.216l.746-.309 1.971-.811.053-.021 2.719-1.119h.002l-5.491 2.26zm8.774 4.711h-.002l1.826-.75-1.824.75zm2.617-7.539l2.559-1.053-2.547 1.049-.012.004zm1.941 5.666l3.918-1.611h.002l-3.92 1.611zm74.336 3.113l-1.24-.51 1.24.51zm-17.885-7.354l1.244.512-1.244-.51v-.002zm-9.851-4.049l-2.541-1.045-.063-.027 2.604 1.072zm-10.61-4.361l-.168-.068-1.561-.641 1.729.709zm-2.666-1.096l-.59-.242-1.246-.512 1.836.754zm1.899 2.62l.022.01-12.337-5.07 12.315 5.06zm4.281-.079l-.164-.068 1.713.703-1.549-.635zm1.756 2.559l.086.035 12.188 5.01-12.274-5.045zm11.248 2.785l-1.602-.658 4.016 1.65-1.242-.51-1.172-.482zm16.564 8.649l.238.098h.002l4.469 1.838-15.564-6.398 10.855 4.462zm6.797.957l-.211-.088.264.107-.053-.019zm2.162 2.724h.002l1.57.646-1.572-.646zm2.205.909l.17.068 1.971.811-2.141-.879zm6.089.664l-.155-.064-1.979-.812 2.134.876zm-3.143.544l1.969.809.51.211-2.479-1.02zm4.783 1.967l.037.014 5.484 2.254.588.242h-.002l-6.107-2.51z"/><path d="M216.647 64.852h-.594l-.3-2.881.589-.092-.151-1.44-.589.091-.3-2.881.588-.091-.149-1.44-.589.092-.3-2.883.589-.091-.15-1.44-.59.092-.3-2.881.589-.092-.149-1.441-.59.092-.3-2.881.589-.092-.15-1.439-.589.091-.3-2.882.589-.092-.15-1.439-.589.092-.301-2.881-1.061-1.408V32.65c.468-.105.822-.603.822-1.203 0-.604-.357-1.101-.827-1.203v-8.398h3.294v-.436h-3.294v-5.98h-.357v5.979h-3.295v.436h3.295v8.398c-.47.103-.826.601-.826 1.203 0 .601.353 1.098.821 1.203v1.984l-1.06 1.408-.3 2.887-.627-.098-.149 1.439.626.098-.3 2.882-.627-.097-.151 1.439.627.098-.301 2.881-.626-.098-.15 1.441.627.098-.301 2.881-.628-.098-.148 1.44.627.097-.301 2.882-.627-.097-.151 1.44.627.097-.3 2.881-.627-.097-.15 1.44.627.098-.299 2.875h-.631v1.062h9.718v-1.06zM120.656 64.852h-.598l-.3-2.881.588-.092-.15-1.44-.589.091-.301-2.881.589-.091-.15-1.44-.588.091-.3-2.882.589-.091-.15-1.44-.589.092-.301-2.881.59-.092-.15-1.441-.589.092-.3-2.881.589-.092-.149-1.439-.59.091-.3-2.882.589-.092-.149-1.439-.589.092-.301-2.881-1.06-1.408h-.001V32.65c.467-.105.822-.603.822-1.203 0-.604-.357-1.101-.827-1.203v-8.398h3.296v-.436h-3.296v-5.98h-.357v5.979h-3.294v.436h3.294v8.398c-.469.103-.826.601-.826 1.203 0 .601.354 1.098.821 1.203v1.984l-1.06 1.408-.301 2.887-.626-.098-.15 1.439.627.098-.3 2.882-.626-.097-.15 1.439.626.098-.3 2.881-.626-.098-.15 1.441.626.098-.3 2.881-.627-.098-.148 1.44.626.097-.3 2.882-.627-.097-.15 1.44.626.097-.3 2.881-.626-.097-.151 1.44.627.098-.3 2.875h-.63v1.062h9.717v-1.06zM747.001 197.672v-.42l-1-.387-1 .387v.42l1 .25zM747.001 196v-1h-2v1h1zM148.001 111h1v2h-1z"/></svg>