<svg xmlns="http://www.w3.org/2000/svg" width="420.643" height="111.521" viewBox="0 0 420.643 111.521"><path d="M419.209 86.797v-.831l-.515-.401v-1.458h-2.405v-3.753h-.861v.371h-2.06l-1.32 1.547v.802h-.658v-.514h.202v-1.09h-.688v-.43h-.373v.631h-2.721v.858h-1.777v1.29h-1.56v.502h-.581V82.84l-.817-.432v-4.447l.323-.152v-.512h-.409v-1.873h.303v-.472l-.28-.192s.301-.343.28-.924c-.024-.581-1.271-1.096-1.271-1.096v-2.019l.217-.151v-.967l-.495-.28v-1.03l-.343-.28v-2.148l-.192-.3-.194.3v2.148l-.346.28v1.03l-.492.28v.967l.215.151v2.019s-1.247.515-1.267 1.096c-.021.581.277.924.277.924l-.277.192v.472h.303v1.873h-.409v.512l.32.152v4.447l-.815.432v1.481h-1.87l-1.158-1.118h-2.15v-1.891l-.516-.257v-1.161l.495-.106v-.346l-.787-.396v-.396l.32-.346v-.815h-.296v-7.02l.296-.371v-.545l-.543-1.346v-.487s.126-.947.102-2.721c-.025-1.777-1.086-3.41-1.086-3.41v-.717l-.222-.286v-4.268h.394v-.458l-.642-.717s.2-1.517.124-2.776c-.073-1.259-1.305-2.524-1.305-2.524l.272-.313v-.343h-.349v-3.582h.495v-.371l-.565-.889s.121-1.09.197-1.805c.072-.717-.962-1.878-.962-1.878V36.71h.26v-.429l-.482-.775.482-.772v-.343l-.666-.687-1.257-16.475.234-.343v-.371l-.303-.23v-2.65l.166-.099v-.661l-.33-.212-.334.212v.661l.167.099v2.65l-.303.23v.371l.232.343-1.257 16.475-.664.687v.343l.482.772-.482.775v.429h.26v3.953s-1.035 1.161-.962 1.878c.073.714.197 1.805.197 1.805l-.568.889v.371h.495v3.582h-.346v.343l.27.313s-1.231 1.265-1.305 2.524c-.073 1.26.124 2.776.124 2.776l-.642.717v.459h.395v4.268l-.223.286v.717s-1.061 1.633-1.083 3.41c-.022 1.774.099 2.721.099 2.721v.487l-.545 1.346v.545l.298.371v3.143l-11.467.641V71.79h-.401v2.807l-4.756 6.3h-.515v.919h-1.262v-1.55h-.515v.631h-.745v-.401h-.916v1.32h-4.097v-1.09h-.889v.631h-.86v-1.002h-.715v.889h-.688v-.947h-.313v-2.148h.258v-.545l-1.317-7.562v-.83l-.344-.315-.343.315v.83l-1.317 7.562v.545h.257v2.148h-1.317v-.772h-.401v.858h-2.264v-.545l-.46-.542v-3.438h-.227v3.208h-.43v-2.779h-.172v2.865h-.603v1.403h-.43v-4.096h-.287v3.008h-.745v-4.354h-.172v4.412h-1.69v1.232h-.46v.916h-.515v.745h-.457v-.601h-.888v.772h-1.547V75.54h-.601v5.96h-.545v.487l-.745-.946-.371.229v-.974h-1.029v.689h-1.492v-.803h-.974v1.232h-1.603v-1.232h-.918v.917h-1.833l-1.403-1.403-.747.601h-1.03v.601h-.803v-2.749h-2.446V57.15l.555-.371v-.631h-.29v-3.64h-.318v1.691h-.639s.078-2.004-.396-5.558c-.479-3.551-1.926-4.841-2.287-5.527-.358-.689-.237-.99-.237-.99h.237v-.429h-.217V40.6l.217-.366v-.538h-.237v-.987l-.358-.303V33.53c0-1.159.596-1.181.596-1.181v-.429c-.874-.452-1.55-1.739-1.55-2.814s.495-2.17.474-3.523c-.018-1.353-.822-2.623-1.327-3.153-.505-.527-1.207-1.501-1.207-1.501v-.659l.411-.301v-.358l-.134-.3h-.383v-.573h.237v-.245h-.197v-.429l.252-.215v-.603l-.838-.889v-.387l-.171-.085-.111-3.107.229-.229v-.489l-.331-.27V7.562l-.134-.157-.134.157v4.228l-.331.27v.487l.232.229-.114 3.107-.171.085v.386l-.838.889v.603l.252.215v.429h-.197v.245h.237v.573h-.384l-.131.3v.358l.409.301v.659s-.702.974-1.207 1.501c-.505.53-1.308 1.8-1.328 3.153-.021 1.353.477 2.448.477 3.523s-.676 2.363-1.552 2.814v.429s.596.022.596 1.181v4.876l-.358.303v.987h-.237v.538l.22.366v1.096h-.22v.429h.237s.121.3-.237.99c-.358.687-1.807 1.976-2.284 5.527-.477 3.554-.396 5.558-.396 5.558h-.639v-1.691h-.32v3.64h-.288v.631l.556.371v16.987h-.041l-1.148.401v.628s.098 2.322-1.918 2.322v.772h-.515v-.386h-.515v1.633h-1.719v1.676l-3.953-3.652v-1.418h-1.159v.517h-1.333v-.818h-1.07l-.081-.214v-.285h.328v-.432h-.578v-.257l.225-.401v-.515h-.49v-8.594h.227v-.881h-.28l-.209-2.277-.149 2.277h-.32v.838h.227v1.57l-1.11-1.721-.677-7.54v-1.461h-.28l-.826-10.174v-.192l-.126-.914h.277v-.613h-.277v-1.482l.277-.214v-.442h-.323v-.419l-.232-.149-.237.149v.419H286v.442l.278.214v1.482H286v.613h.278l-.126.914v.192l-.828 10.174h-.283v1.461l-.676 7.54-1.108 1.721v-1.57h.225v-.838h-.318l-.151-2.277-.207 2.277h-.28v.881h.225v8.594h-.49v.515l.227.401v.257h-.575v.432h.323v.285l-.126.343v1.06h-10.309v-1.032h-.747v-6.416h-.398v7.62h-1.722l-.343.288v-1.434h-1.201v1.146h-1.148l-1.375 1.146h-1.088v-4.011h-.286v3.609h-1.204V76.83l-.457-1.26v-2.234h-.515v3.837h-.975l-2.751-2.234h-1.204V71.33h-.518v2.577h-.8v1.088h-1.719v-1.26h-1.489v.518h-.631v-1.204h-2.231l-1.32-1.204v-1.489h-1.317v.975h-3.324v-.689h-1.431v1.032l-.861.573h-.742v-.573h-.919v.803l-1.146-.745h-.745l-1.489-1.146h-.917l-1.89 1.489h-.573v-.861h-1.605v.745h-6.187v-.974h-1.088v.974h-5.099V70.7h.343v-.745h-1.661v.803h.285v1.489l-.689.745v4.697h-.57v-1.143h-.518l-.687.398v.689h-2.979v-7.391h-2.405v6.989h-5.043v-5.616h-.573v4.525l-1.374.404v.858h-5.788l-.515-2.35-.973 3.438h-1.171l-.964-1.088v-1.504l-.515-.386v-.818h-.388l-2.378-12.703v-.288s.388-.27.388-.616c0-.343-.501-.472-.501-.472V58.74h.685v-.444h-.7v-.788h-.402v.788h-.702v.444h.688v1.875s-.501.129-.501.472c0 .346.386.616.386.616v.288l-2.376 12.703h-.389v.818l-.515.386v1.504l-.963 1.088h-3.748V68.438h.915v-.26s-2.061-1.547-3.035-2.893c-.974-1.348-1.89-3.953-1.89-3.953v-.515l-.544-.803-.173-1.661v-2.178l-.171-.228-.173.228v2.178l-.173 1.661-.545.803v.515s-.915 2.605-1.89 3.953c-.973 1.346-3.036 2.893-3.036 2.893v.26h.916v2.789l-8.048-6.113h-2.837V63.91h-2.493v.861h-3.179l-.946-.861v-1.461h-1.803v1.805h-2.236v-.944h-2.233v.858h-3.352v-.772h-1.29v.515H141.8l-6.646-3.98v-2.004h-.516v2.06l-4.583 2.521-1.146-11.628v-3.554h-.458v3.496l-.895 6.937c-1.109-.237-1.101-1.191-1.025-1.774.086-.664.794-1.007.794-2.491 0-1.482-1.051-2.148-1.051-2.148v-.86h-.322l-4.449-43.492v-2.64s.458-.113.458-.487c0-.371-.471-.444-.471-.444V1.79l.471-.5V.932l-.386-.729-.342-.203-.344.202-.387.729v.359l.472.5v1.633s-.472.073-.472.444c0 .374.458.487.458.487v2.635l-4.448 43.492h-.323v.86s-1.051.667-1.051 2.148c0 1.484.708 1.827.795 2.491.086.666.086 1.827-1.591 1.827v.581h.495v4.306l-1.568-.076v-.972h-1.661V56.95h-2.35v1.144h-1.742V56.95h-.436V39.532h-.343V56.95h-1.57v1.144h-1.742V56.95h-2.35v1.144h-.698V46.077c2.02 1.033 3.803 3.289 3.803 3.289v-1.977c-.472-2.17-3.803-3.932-3.803-3.932v-3.925h-.345v18.562h-.698V56.95h-2.35v1.144h-.789V41.882c1.001.417 1.796 2.241 1.796 2.241.129-1.461 1.311-1.87 1.311-1.87-.239-2.411-2.474-3.652-3.107-3.96V36.44h-.343v21.654h-.609V56.95h-2.349v1.144h-1.742V56.95h-2.349v3.896h-.804v1.89h-1.316v-1.89h-1.375v.401h-.628v1.948h-.802v-1.204h-.631v-.917h-1.088v2.176H80.44v-2.062h-1.203v1.547h-.746v.803l-12.418.487V62.62l.387-.298v-.689c-3.996-2.577-5.585-8.178-5.585-8.178v-1.719l-.315-.477-.314.477v1.719s-1.591 5.601-5.587 8.178v.689l.387.298v.638l-14.867-.441V55.06h.517v-.689h-.56l-.516-.775h-1.16V51.88l.386-.344v-.603h.988v-.643c-1.589 0-2.105-1.247-2.105-1.247l.602-.475v-.426h-.515v-.26s.988-.429.988-2.319-1.676-2.751-1.676-2.751v-.858l.944-.558v-.429l-.645-.604v-.901h-.601l-.259-5.757.259-2.365-.474-.944-.471-10.186.472-.601v-.689h-.858l-.516-3.395s.773.215.773-1.501c0-1.719-1.438-2.108-1.438-2.108v-1.158h.493v-.475l-.493-.598v-4.47l.493-.518V3.453l-.988-1.247-.988 1.247v1.244l.493.518v4.47l-.493.598v.475h.493v1.158s-1.438.389-1.438 2.108c0 1.716.773 1.501.773 1.501l-.516 3.395h-.859v.689l.473.601-.473 10.185-.472.944.257 2.365-.257 5.757h-.602v.901l-.645.604v.429l.946.558v.858s-1.677.861-1.677 2.751.99 2.319.99 2.319v.26h-.517v.426l.602.475s-.517 1.247-2.106 1.247v.644h.988v.603l.386.344v1.716h-1.16l-.515.775h-.559v.689h.516v7.158l-2.363-.111-2.406 1.833h-4.585v2.062l-8.478 3.665v-.972H9.11v-.858h-.916v2.519l-4.297 2.062v.803h.744l.231.802h.515v7.333l-.861.573v.573h.919l-.057 12.316L0 95.563v1.032h.518l.687.745v4.871l-.4.398v8.91H418.61v-.315l-.258-.258v-1.317l-.227-.288V94.133l.484-.43v-.661l.441-.429v-3.666h.333v-.745l.487-.489h.543l.229-.401v-.515h-1.433zM310.382 38.191h-.812v-4.23h.812v4.23zm3.069-.106h-1.954v-4.232h1.954v4.232zm1.113-4.124h.815v4.23h-.815v-4.23zm69.818 26.705h-1.015V57.12h1.015v3.546zm1.903 0h-1.02V57.12h1.02v3.546zm1.139-11.28h-1.109v-3.221h1.109v3.221zm1.047 11.28h-1.017V57.12h1.017v3.546zm1.898 0h-1.015V57.12h1.015v3.546z"/></svg>