<svg xmlns="http://www.w3.org/2000/svg" width="459.598" height="134.414" viewBox="0 0 459.598 134.414"><path fill="#22120D" d="M457.338 70.461v-5.492h-14.325l-1.696 5.492v17.68h-6.533v7.812h-1.76v-13.18h-4.254l-3.099-13.117H423.6l-8.295 10.088v3.029h-4.146v13.18h-4.523v-7.812h-9.424V24.435h-3.959v-1.516h2.639v-2.273h-6.785v-2.462h3.394v-2.651h-8.104V0h-.941v15.532h-5.09V1.516h-.941v14.017h-1.887v2.651h.754v6.251h-3.77V91.17h-1.885V75.197h-3.581v-.854h-8.858v.854h-4.146v8.245h-7.227v17.515h-4.545V22.166h-3.383v-9.679H334.2v1.76h-3.568V7.43l-5.102 14.736h-2.412v47.723l-7.891-4.397v23.154h-.008v6.062h-16.021v-3.221h-4.91l-2.566-21.843c.588-.082 1.006-.179 1.188-.287h.123l.664-5.809h-.064c.041-.04.064-.083.064-.132v-.454c0-.172-.303-.311-.674-.311h-.713c.247-.304.412-.804.412-1.367 0-.928-.438-1.68-.977-1.68-.536 0-.975.752-.975 1.68 0 .563.164 1.063.414 1.367h-.287l-.433-3.69h.257l3.428-1.986v-.523h-1.83c.195-.338.318-.838.318-1.397 0-1.011-.398-1.829-.893-1.829-.443 0-.812.668-.879 1.541-.092-.7-.514-1.267-1.066-1.464-.041-.337-.078-.673-.119-1.011l4.469-1.981v-.524h-1.91a4.17 4.17 0 0 0 .248-1.007c.129-1.1-.16-2.041-.647-2.099-.338-.041-.685.348-.906.955-.229-.394-.583-.648-.983-.648-.322 0-.617.17-.84.443l-.203-1.732h.199l5.045-1.984v-.525h-1.795c-.007-.377-.179-.861-.496-1.326-.541-.778-1.293-1.192-1.683-.92-.131.09-.201.245-.222.442-.113-.7-.45-1.208-.852-1.208-.182 0-.353.107-.492.289v-2.295h-.592c-.008-.068-.017-.137-.021-.204V26.914h-.356v11.052c-.009.067-.016.136-.024.204h-.582v4.96l-.008.058h-.83c.232-.315.383-.775.383-1.29 0-.95-.506-1.722-1.127-1.722-.432 0-.807.372-.996.914-.107-.542-.317-.914-.561-.914-.352 0-.636.771-.636 1.722 0 .515.082.975.215 1.29h-1.983v.525l5.242 1.984c-.16 1.361-.322 2.725-.48 4.088h-.546c.161-.3.258-.686.258-1.113 0-.93-.464-1.686-1.034-1.686-.523 0-.953.635-1.025 1.455-.02-.82-.15-1.455-.312-1.455-.176 0-.317.756-.317 1.686 0 .428.029.813.08 1.113h-1.863v.524l4.468 1.981c-.037.317-.075.634-.114.949-.054-.008-.107-.016-.166-.016-.453 0-.857.304-1.102.767-.15-.463-.393-.767-.668-.767-.452 0-.819.818-.819 1.829 0 .56.114 1.06.294 1.397h-1.893v.523l3.685 1.97c-.032.289-.067.576-.101.864-.582.164-1.016.761-1.016 1.476 0 .571.276 1.066.686 1.327-.004.015-.004.026-.004.04h-2.125c-.371 0-.672.139-.672.311v.454a.18.18 0 0 0 .062.132h-.062l.664 5.809h.121c.184.108.602.205 1.188.287-.928 7.914-1.857 15.825-2.787 23.737h-1.912v3.787h-3.582v3.789h-6.553V44.726h.438v-3.189h-.914v-.91c.063.02.129.034.197.034.396 0 .717-.341.717-.759s-.321-.757-.717-.757c-.394 0-.713.339-.713.757 0 .071.013.136.028.2h-.584V37.71h-.635v-2.712h-1.49l-.888-7.254h-1.733l-.303-3.109h-.863v-2.312h.557v-.558h-.557V11.321h-.415V1.516h-.992v9.805h-.417v10.444h-.555v.558h.555v2.312h-.86l-.304 3.109h-1.733l-.885 7.254h-1.492v2.712h-.635v2.392h-.507a.691.691 0 0 0 .031-.2.755.755 0 0 0-1.508 0 .757.757 0 0 0 .912.741v.894h-.912v3.189h.436v43.92h-3.188v1.138h-4.053v11.174h-4.336v-8.713h-2.449v-3.6h-3.661v-1.389h-.593V74.801l.672-.536h-.672v-.038h-.108c.069-.322.108-.706.108-1.117 0-1.142-.31-2.064-.688-2.064a.293.293 0 0 0-.18.068v-9.03l.395-.32h-1.696v-.835h-.134c.068-.302.109-.66.109-1.042 0-1.098-.327-1.988-.726-1.988-.219 0-.415.265-.548.682h-.697a6.31 6.31 0 0 1-.798-3.484.503.503 0 0 0 .503-.493.503.503 0 0 0-.515-.492h-.137a2.572 2.572 0 0 0-2.409-2.269v-.431a.874.874 0 0 0 .612-.823.871.871 0 0 0-.612-.822v-1.489h.612v-.454h-.612v-.833h-.572v.833h-.633v.454h.633v1.48a.875.875 0 0 0-.633.83c0 .388.266.717.633.829v.458a2.57 2.57 0 0 0-2.113 2.235h-.215a.503.503 0 0 0-.513.492c0 .27.225.487.503.493a6.345 6.345 0 0 1-.798 3.484h-.729c-.123-.415-.308-.682-.517-.682-.37 0-.671.849-.671 1.894 0 .427.05.82.136 1.137h-.136v.835h-1.734l.433.354v9.132c-.303.334-.512 1.041-.512 1.859 0 .411.053.795.144 1.117h-.5v.038h-.67l.67.536v12.457h-.592v2.16h-4.708c.032-.293.051-.613.051-.947 0-1.403-.317-2.539-.711-2.539-.37 0-.672 1.003-.707 2.287a22.556 22.556 0 0 1-1.015-2.438h.654v-2.197h-1.216a4.62 4.62 0 0 0 .072-.834c0-.961-.265-1.742-.592-1.742s-.592.781-.592 1.742c0 .303.026.586.071.834h-2.932c.062-.315.097-.692.097-1.1 0-1.107-.265-2.007-.592-2.007s-.592.899-.592 2.007c0 .238.012.469.035.68-.854-.598-1.961-1.078-3.233-1.387v-5.089h.355v-.526h-.71v-1.095c.23-.221.395-.751.395-1.368 0-.816-.283-1.479-.633-1.479-.348 0-.63.661-.63 1.479 0 .396.065.756.175 1.021h-1.044v-1.439h-.889c.156-.357.257-.91.257-1.533 0-1.078-.3-1.951-.67-1.951-.372 0-.671.873-.671 1.951 0 .623.101 1.176.256 1.533h-.966v1.439h-1.136c.116-.266.187-.626.187-1.021 0-.816-.299-1.479-.67-1.479-.37 0-.671.661-.671 1.479 0 .727.237 1.328.552 1.452v1.011h-.946v.528h.749v5.088c-1 .242-1.896.593-2.65 1.021.005-.102.007-.204.007-.311 0-1.107-.23-2.008-.514-2.008s-.513.898-.513 2.008c0 .352.023.68.063.967a3.997 3.997 0 0 0-.156.131h-3.686c.043-.246.067-.53.067-.832 0-.963-.247-1.744-.552-1.744-.306 0-.554.781-.554 1.744 0 .302.024.586.068.832h-1.055v2.197h.658a22.755 22.755 0 0 1-1.253 2.912c.003-.074.004-.146.004-.222 0-1.403-.335-2.539-.749-2.539-.416 0-.75 1.136-.75 2.539 0 .334.019.653.054.946h-5.738v-2.16h-.592V74.801l.671-.536h-.671v-.038h-.109a5.36 5.36 0 0 0 .109-1.117c0-1.142-.309-2.064-.691-2.064a.283.283 0 0 0-.177.068v-9.03l.396-.32h-1.697v-.835h-.133c.068-.302.106-.66.106-1.042 0-1.098-.324-1.988-.724-1.988-.219 0-.414.265-.547.682h-.699a6.327 6.327 0 0 1-.797-3.484.503.503 0 0 0 .503-.493.502.502 0 0 0-.512-.492h-.138a2.57 2.57 0 0 0-2.409-2.269v-.431a.875.875 0 0 0 .611-.823.871.871 0 0 0-.611-.822v-1.489h.611v-.454h-.611v-.833h-.572v.833h-.631v.454h.631v1.48a.873.873 0 0 0-.631.83c0 .388.265.717.631.829v.458a2.572 2.572 0 0 0-2.113 2.235h-.215a.503.503 0 0 0-.514.492c0 .27.224.487.503.493a6.353 6.353 0 0 1-.797 3.484h-.729c-.124-.415-.309-.682-.516-.682-.37 0-.671.849-.671 1.894 0 .427.051.82.135 1.137h-.135v.835h-1.736l.435.354v9.132c-.304.334-.513 1.041-.513 1.859 0 .411.053.795.144 1.117h-.5v.038h-.67l.67.536v12.457h-.592v.883h-10.999v5.24h-3.267v-1.895h-8.042v2.715h-2.767V61.434h-30.668v41.703h-4.521v-7.168h-1.76v-6.188H88.966v6.188h-7.791v7.168h-19.1v-11.65h-9.048v-4.609H37.195v6.504h-2.514V83.343h-19.1l2.262 3.408v16.387h-4.774V95.97H6.283v-2.588H0v30.873h.12v10.16h459.479V70.461h-2.261zM289.995 41.897l-.002-.04c.072.31.225.655.455.988.088.121.177.238.271.342h-1.027c.186-.315.303-.775.303-1.29zm-5.684 1.291c.059-.135.107-.299.143-.481.064.183.148.347.25.481h-.393zm-.48 6.597c.037-.243.064-.548.072-.881.031.333.119.638.248.881h-.32zm.605 6.666c.051-.1.098-.213.139-.338.064.125.144.238.23.338h-.369zm9.069 35.035h-1.212l-.126-1.557h1.176l.162 1.557zm-.254-2.47h-1.158c-.137-1.668-.272-3.34-.405-5.008h1.043c.174 1.668.348 3.34.52 5.008zm-.621-5.994h-1.024c-.125-1.534-.25-3.071-.373-4.604h.924c.154 1.533.314 3.068.473 4.604zm-.577-5.593h-.902c-.125-1.521-.248-3.04-.371-4.562h.802c.155 1.522.311 3.041.471 4.562zm-.799-7.73c.074.729.148 1.455.225 2.182h-.777a901.44 901.44 0 0 1-.174-2.115c.256-.022.498-.041.726-.067zm-1.21 8.717c.08 1.535.162 3.07.244 4.605h-1.466c-.03-1.535-.066-3.07-.1-4.605h1.322zm-1.34-.987c-.032-1.521-.067-3.04-.1-4.562h1.146c.078 1.521.16 3.041.24 4.562h-1.286zm1.636 6.579c.087 1.668.178 3.34.266 5.008h-1.654c-.034-1.668-.071-3.34-.104-5.008h1.492zm.315 5.922l.08 1.557h-1.729c-.012-.52-.021-1.037-.034-1.557h1.683zm.209-34.591c.037.442.146.835.307 1.111h-.827c.274-.276.463-.668.52-1.111zm-.721 3.621c.129 1.229.256 2.461.381 3.69h-.574c-.102-1.229-.202-2.461-.301-3.69h.494zm-.447 12.921h-1.112c-.015-.678-.029-1.354-.045-2.03.362-.006.715-.017 1.049-.03.037.685.073 1.374.108 2.06zm-1.315-15.43h-.133c-.001-.054-.001-.105-.004-.158.047.054.089.11.137.158zm-.187-2.57c-.013-.529-.021-1.062-.033-1.591h.496l.062 1.108a1.622 1.622 0 0 0-.525.483zm.818 5.079c.062 1.229.129 2.461.195 3.69h-.825l-.079-3.69h.709zm.445-6.669c.03.317.062.634.097.949a1.46 1.46 0 0 0-.189-.016c-.062 0-.119.008-.18.016-.025-.317-.052-.632-.078-.949h.35zm-.556-2.506l-.019-.238c.038.084.079.162.13.238h-.111zm-.127-4.088c.064.644.131 1.286.197 1.927a2.009 2.009 0 0 0-.205.506c-.064-.81-.131-1.621-.197-2.433h.205zm-.468 0l.218 4.088h-.42c-.027-1.363-.057-2.727-.088-4.088h.29zm-.979 0h.299c-.028 1.361-.059 2.725-.088 4.088h-.428l.217-4.088zm-.785 14.799c.024-.51.056-1.023.082-1.535h.726c-.025 1.229-.054 2.461-.078 3.69h-.845c.007-.144.017-.286.024-.431.177-.259.283-.581.283-.937a1.678 1.678 0 0 0-.192-.787zm.214-4.045l.018-.327c.16-.302.258-.671.258-1.07 0-.309-.059-.6-.155-.854l.101-1.908h.512c-.031 1.388-.059 2.773-.086 4.16l-.648-.001zm.104-10.754h.205c-.11 1.361-.225 2.725-.332 4.088h-.291c.137-1.364.279-2.726.418-4.088zm-.682 6.594h.352c-.035.414-.067.827-.104 1.24a1.21 1.21 0 0 0-.352-.227c.034-.335.071-.673.104-1.013zm.942 17.56c-.012.677-.025 1.354-.041 2.03h-1.141c.034-.688.07-1.375.107-2.061.344.014.705.025 1.075.031zm-.063 3.016a6941.7 6941.7 0 0 1-.094 4.562h-1.32c.08-1.521.16-3.04.242-4.562h1.172zm-1.566-13.907h.494c-.023.305-.049.61-.074.916a1.229 1.229 0 0 0-.506-.117c.031-.266.059-.53.086-.799zm.099 19.456h1.354c-.033 1.535-.063 3.07-.098 4.605h-1.5c.083-1.535.162-3.07.244-4.605zm-.294 5.592h1.528c-.034 1.668-.066 3.34-.103 5.008h-1.694l.269-5.008zm1.406 5.922c-.01.52-.021 1.037-.03 1.557h-.104v1.895h-1.77l.184-3.45 1.72-.002zm-2.322-20.231c.228.024.47.045.728.065l-.172 2.116h-.779c.072-.726.148-1.452.223-2.181zm-.328 3.168h.804c-.127 1.521-.25 3.041-.373 4.562h-.899c.155-1.521.311-3.04.468-4.562zm-.573 5.549h.926l-.377 4.605h-1.023c.156-1.535.316-3.07.474-4.605zm-.576 5.592h1.045l-.405 5.008h-1.156c.169-1.668.344-3.34.516-5.008zm-.612 5.922h1.177l-.281 3.451h-1.252c.117-1.151.236-2.303.356-3.451zm-165.68-17.891h9.551v31.098h-3.517l-5.979-.068-.055-4.193V72.039z"/></svg>