<svg xmlns="http://www.w3.org/2000/svg" width="1200" height="560" viewBox="0 0 1200 560"><path d="M1198.312 501.94v-15.862l-.959-.979v-8.04h-.516v-6.531h.516v-.708l-3.777-3.832h-2.396v-.922l-.505-.904h-2.154v-1.721h1.132v-1.457l-5.525-2.677v-4.15h.254v-.556l-2.161-1.799v-.808h.25v-1.368h-.608v-.775l-.813-.206s.654-2.382-1.02-4.16c-1.694-1.774-3.135-.766-3.135-.766l-.649 1.846-.542.908s-2.409.071-3.784-3.411c-1.362-3.5-1.582-6.848-1.582-6.848l.45-.752-.055-.664h.213V433.7h.215v-.398l.494-.542v-.488h-1.925s-1.608-3.466-6.609-3.466c-4.997 0-6.601 3.466-6.601 3.466h-1.924v.488l.494.542v.398h.21v1.099h.224l-.054.664.45.752s-.23 3.344-1.599 6.848c-1.358 3.482-3.769 3.411-3.769 3.411l-.542-.908-.675-1.846s-1.419-1.015-3.116.766c-1.667 1.775-1.014 4.16-1.014 4.16l-.816.206v.775h-.605v1.368h.244v.808l-2.158 1.799v.556h.254v5.373c-.007-.663-.213-3.282-2.717-3.144-1.766.092-1.948 1.437-1.948 1.437l-.646.298h-.424l-.143.244h-.39l-.277-.819-.417.089-.901-.922-.63.029-.276.481s-.591-.071-1.35-1.172c-.778-1.129-1.626-3.405-1.626-3.405h.187l-.033-.512-.285-.431.285-.697-.641-.742.11-1.091-.681-2.644.166-.305-.302-.675-.177-2.588.244-.396-.244-.749v-.769l.462-1.008-3.471-.202s-1.416-4.432-7.246-4.432c-5.816 0-7.239 4.432-7.239 4.432l-3.459.202.471 1.008v.769l-.269.749.269.396-.193 2.588-.302.675.163.305-.674 2.644.11 1.091-.649.742.291.697-.291.431-.03.512h.196s-.854 2.276-1.63 3.405c-.767 1.098-1.342 1.172-1.342 1.172l-.273-.481-.637-.029-.912.922-.435-.089-.276.819h-.387l-.133-.244h-.431l-.637-.298s-.207-1.342-1.973-1.437c-2.836-.146-2.704 3.283-2.704 3.283l-.493.541v.723l-.35-.095v-.347h-.443v-1.271s.549-.278.227-.827c-.312-.569-1.358-.379-1.358-.379v-1.301l-.521-1.015s1.44-1.284.274-3.591c-1.148-2.314-4.946-1.928-4.946-1.928v.918l-1.265.491s-1.916-.189-3.012-3.564c-1.062-3.395-1.423-8.134-1.423-8.134l-.807-5.665s1.132-.027 1.166-1.216c.025-1.199-1.756-1.332-1.756-1.332v-1.224h.483v-.515l-.276-.312v-2.692h.952v-1.951h.597v-.952l-12.441-5.719-12.427 5.719v.952h.593v1.951h.942v2.692l-.285.312v.515h.491v1.224s-1.771.133-1.741 1.332c.027 1.194 1.152 1.216 1.152 1.216l-.808 5.665s-.346 4.739-1.423 8.134c-1.077 3.375-3.012 3.564-3.012 3.564l-1.254-.491v-.918s-3.809-.376-4.956 1.928c-1.149 2.304.273 3.591.273 3.591l-.521 1.015v1.301s-1.054-.19-1.361.379c-.317.549.25.827.25.827v1.271h-.464v.35l-1.297.417-1.583 1.479a2.218 2.218 0 0 0-.474-1.728c-.937-1.218-1.955-1.015-1.955-1.015v-.501s.742-.451.637-.959c-.088-.505-1.203-1.416-1.203-1.416l-.945.701s-.707.041-.991-.569c-.325-.612-.347-1.084-.347-1.084s1.438-.449 1.173-1.408c-.25-.949-1.527-1.889-1.527-1.889l.098-1.714h-.313v-2.896l.572-.425v-1.29h-.384V444.7l-.188-.173v-.39s-.705.151-1.22-.354c-.521-.471-.867-1.069-.867-1.069h-.667s.146-.842-.624-1.576c-.779-.731-2.039-.833-2.039-.833v-.493s.637-.203.637-.87c0-.637-.495-1.118-.976-1.118-.491 0-.938.207-.938.598v.7s-.766-.427-.979-.888c-.207-.478-.271-1.264-.271-1.264l.623-.491v-2.958h-.859v.644l-1.018.196s-.752-.229-.718-.84c.026-.606.907-.277.907-1.342 0-1.063-1.765-1.216-1.765-1.216v-1.203h-.325v-2.305h.778v-.752h.521v-.644h.403v-.79h-4.855s.468-4.244-4.506-5.82v-.789h-.494l-.38-.353v-.491s1.722-.515 1.766-1.904c.037-1.401-1.766-1.795-1.766-1.795v-.265s.505 0 .38-.295c-.108-.305-.895-1.202-.895-1.202s-.771.908-.886 1.202c-.135.295.381.295.381.295v.265s-1.8.394-1.748 1.795c.033 1.391 1.748 1.904 1.748 1.904v.491l-.381.353h-.486v.789c-4.965 1.576-4.496 5.82-4.496 5.82h-4.872v.79h.394v.644h.542v.752h.767v2.305h-.306v1.203s-1.766.151-1.766 1.216c0 1.063.888.739.918 1.342.031.61-.725.84-.725.84l-1.017-.196v-.644h-.878v2.958l.638.491s-.062.786-.271 1.264c-.217.461-.979.888-.979.888v-.7c0-.391-.444-.598-.933-.598-.483 0-.976.481-.976 1.118 0 .667.637.87.637.87v.495s-1.28.102-2.043.833c-.771.734-.62 1.576-.62 1.576h-.674s-.346.603-.867 1.069c-.532.501-1.213.354-1.213.354v.39l-.19.173v1.847h-.386v1.291l.576.424v2.894h-.315l.105 1.714s-1.277.933-1.535 1.888c-.258.959 1.169 1.409 1.169 1.409s-.03.479-.335 1.085c-.292.608-.986.567-.986.567l-.973-.701s-1.104.912-1.199 1.416c-.104.51.631.959.631.959v.502s-1.007-.207-1.938 1.014c-1.35 1.748.443 3.459.443 3.459h-2.397v-4.713h-.41v-1.494h.474v-1.582h-1.902v1.058h-.369v4.709h-14.87l-.217 1.804h-8.06l-6.498-12.838v-22.835h-1.688v22.709l-4.872 10.138h-14.312v-4.797h-7.756v-10.99h-2.104v-8.172h-4.373v6.342l-1.973 1.972v6.062h-17.285v-5.36h3.032v-1.619h1.139v-2.534h-4.167v-9.949h1.854v-2.32h-1.854v-2.257h-2.151v-53.17l3.282-2.969v-2.748h-2.124l-1.582-2.75v-4.658l1.582-1.483v-2.733h-1.999v-5.824l.949-.861v-3.794l-2.029-5.394-2.423 5.18v3.812l1.271.948v5.929h-4.118v-8.681h1.479v-2.222h-3.073v-5.072h1.062v-2.009s-1.904-.634-3.91-2.125c-2.012-1.478-1.482-6.856-1.482-6.856l.637-.861v-3.584h-1.264s.099-3.178-.638-6.03c-.737-2.863-5.394-4.869-5.394-4.869v-3.076l-2.331-.948v-4.529s4.444-2.766 4.757-5.717c.325-2.967-4.554-6.139-6.407-8.896-1.88-2.748-2.401-8.555-2.401-8.555v-1.267l.775-.848v-2.693l-1.477-.346-.292-1.128s1.409-1.199 1.349-2.32c-.078-1.139-1.765-1.565-1.765-1.565v-6.62h3.811v-1.904h-3.882v-3.737l-.918-1.413-.919 1.413v3.737h-3.879v1.904h3.817v6.62s-1.707.427-1.771 1.565c-.071 1.118 1.335 2.32 1.335 2.32l-.278 1.128-1.474.346v2.693l.766.848v1.267s-.524 5.811-2.389 8.555c-1.87 2.754-6.735 5.929-6.423 8.896.317 2.949 4.76 5.717 4.76 5.717v4.529l-2.32.948v3.076s-4.654 2.006-5.395 4.869c-.741 2.853-.638 6.03-.638 6.03h-1.279v3.584l.637.861s.528 5.383-1.478 6.856c-2.017 1.491-3.916 2.125-3.916 2.125v2.009h1.057v5.072h-3.062v2.222h1.49v8.681h-4.137v-5.929l1.271-.948V346.6l-2.439-5.18-1.996 5.394v3.794l.945.861v5.824h-2.025v2.733l1.604 1.483v4.658l-1.604 2.75h-2.104v2.748l3.274 2.969v34.447l-9.621-14.695v-4.729h-1.058v-2.745l-4.214-4.306v-5.431h-2.196v5.35l-4.44 4.561v2.209h-5.292v-11.834l3.283-2.969v-2.75h-2.104l-1.604-2.748v-4.65l1.604-1.484v-2.758h-2.021v-5.805l.938-.854v-3.794l-2.003-5.394-2.425 5.177v3.805l1.264.958v5.909h-4.137v-8.664h1.489v-2.222h-3.071v-5.072h1.057v-2.02s-1.904-.623-3.917-2.114c-2.012-1.478-1.477-6.867-1.477-6.867l.644-.844v-3.605h-1.277s.089-3.167-.637-6.022c-.742-2.854-5.396-4.862-5.396-4.862v-3.062l-2.327-.953v-4.56s4.444-2.737 4.764-5.702c.312-2.957-4.547-6.139-6.424-8.886-1.87-2.737-2.412-8.571-2.412-8.571v-1.261l.779-.847v-2.684l-1.479-.353-.281-1.118s1.41-1.199 1.336-2.338c-.067-1.118-1.763-1.535-1.763-1.535v-6.64h3.812v-1.901h-3.884v-3.733l-.906-1.413-.925 1.413v3.733h-3.884v1.901h3.812v6.64s-1.688.417-1.766 1.535c-.064 1.139 1.346 2.338 1.346 2.338l-.292 1.118-1.48.353v2.684l.779.847v1.261s-.535 5.836-2.408 8.571c-1.854 2.748-6.723 5.929-6.407 8.886.312 2.965 4.765 5.702 4.765 5.702v4.56l-2.334.953v3.062s-4.659 2.009-5.395 4.862c-.753 2.859-.627 6.022-.627 6.022h-1.284v3.605l.638.844s.519 5.394-1.48 6.867a15.383 15.383 0 0 1-3.913 2.114v2.02h1.062v5.072h-3.076v2.222h1.479v8.664h-4.115v-5.909l1.271-.958v-3.805l-2.446-5.177-2.006 5.394v3.802l.942.854v5.804h-1.999v2.759l1.582 1.482v4.652l-1.582 2.746h-2.124v2.752l3.282 2.968v6.985l-7.844.008v-11.573h-2.219V323.66h1.81v-2.104l1.664-.705v-4.947h-4.308v-9.303h.974v-2.246h1.538v-2.408h-2.796c-.409-3.66-4.723-13.807-4.723-13.807v-12.988h-7.65c-5.979-10.854-17.56-17.732-17.56-17.732v-6.024l-1.264-1.382v-3.273l-3.652-2.32v-13.654l1.681-1.165.203-2.426h2.29v-2.125l-6.862-3.479-3.755-6.508v-1.42l-2.724-1.216v-1.389l1.416-1.26 1.091-1.745-.903-2.334-1.391-1.166V193.27l.661-1.047h4.543v-1.637h-4.628l-.576-1.599v-3.801l-1.386-1.264-1.402 1.264v3.801l-.568 1.599h-4.639v1.637h4.54l.667 1.047v11.265l-1.396 1.166-.898 2.334 1.091 1.745 1.41 1.26v1.386l-2.704 1.216v1.42l-3.754 6.508-6.884 3.479v2.125h2.297l.196 2.426 1.677 1.166v13.653l-3.647 2.32v3.273l-1.261 1.382v6.023s-11.569 6.878-17.562 17.732h-7.65v12.982s-4.302 10.146-4.723 13.807h-2.781v2.409h1.531v2.245h.966v9.304h-4.306v4.946l1.658.705v2.104h1.804v49.216h-2.212v11.78h-1.516v1.107h-11.362v-1.387l1.947-1.943v-3.171l-3.688-3.076-.059-1.477 1.582-.056v-1.793h-1.323v-3.869h-2.39v3.968h-1.896v1.483l1.896.267v1.791l-4.333 3.289.104 2.847 2.441 2.11v2.127l-8.893 19.948-2.521-3.181v-1.438l-1.227-.609v-11.753h-.949v7h-7.545v-4.289h-.603v4.289h-12.593v-6.325h-.753v6.589l-7.542 2.235v-5.229h-.744v10.126l-.926.812v1.402l-10.496 16.558-.826-1.501v-1.834l-.531-.605v-6.268h-.691v2.998h-5.365v-2.371h-1.206v2.707h-4.232v-3.117h-.708v7.11l-.447.438v1.423l-8.279 20.876v1.84h-.391v-1.213h-4.702v1.213h-3.331v-1.213h-4.682v1.213h-3.337v-1.213h-4.687v1.213h-3.341v-1.213h-4.686v1.213h-1.179v-3.263h1.688v-2.426h-1.413s-1.24-6.143-3.669-8.361c-2.443-2.223-4.333-3.282-4.333-3.282l-1.166-3.595v-2.125l1-.305v-2.114l-1.525-2.113v-14.324h-1.482v14.324l-1.538 2.113v2.125l1.013.305v2.124l-1.172 3.599s-1.904 1.058-4.326 3.279c-2.442 2.209-3.68 8.364-3.68 8.364h-1.402v2.423h1.688v2.046h-2.568v1.213h-3.32v-1.213h-4.701v1.213h-3.338v-1.213h-4.686v1.213h-1.715v-23.391h.681v-5.101l-1.589-1.424v-11.214h1.064v-22.588h-.604v8.851H481.1l-.863-3.405h1.869l-1.139-2.371v-2.799h-.464v2.799h-1.006l-2.531-8.988v-4.069H475.9l-5.115-17.334v-1.03l-1.084-.806v-2.515h2.012v-.674l-1.795-2.457v-1.829h-.543v1.145h-1.253l-3.938-16.783v-1.772l-.866-1.43v-12.776l-.466-.81v-10.812l-.603-1.08-.59 1.08v10.812l-.481.81v12.776l-.854 1.43v1.772l-3.935 16.783h-1.27v-1.145h-.536v1.829l-1.792 2.457v.674h1.992v2.515l-1.058.806v1.03l-5.13 17.334h-1.069v4.07l-2.534 8.987h-1.003v-2.799h-.454v2.799l-1.14 2.371h1.878l-.874 3.405h-6.528v-8.851h-.596v22.588h1.057v11.214l-1.6 1.424v3.208H402.37l-.719-.973v-3.433l-.731-1.331v-5.675l.213-.645v-.844l.517-.516v-.641l-.454-.641.264-1.07-.21-.464 1.118-3.053-.247-.857-2.148 2.792-.498-.568-.519.568-2.138-2.792-.269.857 1.129 3.053-.207.464.262 1.07-.438.641v.641l.494.516v.844l.221.645v5.675l-.719 1.335v3.429l-.749.973h-36.25v-3.286h.759l1.297-1.221v-2.028l-.718-1.102h-2.578l-1.166-3.188v-11.424l.39-1.562v-.944h-.776v-1.851l.447-1.073v-3.883h-1.227v2.656h-.647l-2.246-6.193v-5.97h-.647v5.97h-2.196l-3.032-10.669h2.124l-1.809-4.008v-2.866h-.641v2.866h-.897l-2.247-8.724 1.108-2.346v-1.367h-1.79v-8.824h1.792v-1.324l-3.438-7.596v-5.666h-.62v5.397h-3.103l-2.579-11.766v-8.778l-.42-.664v-7.748l-.488-.406v-8.914l-.4-.568-.379.568v8.912l-.491.405v7.748l-.434.664v8.778l-2.562 11.766h-3.1v-5.396h-.634v5.664l-3.438 7.597v1.323h1.795v8.822h-1.795v1.372l1.121 2.341-2.243 8.726h-.871v-2.863h-.63v2.866l-1.822 4.008h2.131l-3.029 10.669h-2.188v-5.97h-.647v5.97l-2.256 6.193h-.657v-2.656h-1.216v3.883l.444 1.073v1.851h-.772v.948l.379 1.56v11.421l-1.162 3.188h-2.565l-.708 1.103v2.028l1.288 1.221h.833v4.562l.505 1.091v19.162l-.958.686v3.064h-.762v-1.213h-4.692v1.217h-2.656v-1.217h-4.703v1.217h-2.646v-1.217h-4.682v1.217h-2.649v-1.217h-4.699v1.217h-2.646v-1.217h-4.692v1.217H271v-1.217h-4.686v1.217h-2.656v-1.217h-4.692v1.217h-2.656v-1.217h-4.682v1.217h-2.646v-1.217h-4.699v1.217h-2.646v-1.217h-4.686v1.217h-.647v-1.847l-8.297-20.877v-1.423l-.437-.431v-7.114h-.708v3.116h-4.221v-2.707h-1.227v2.368h-5.376v-2.99h-.664v6.264l-.559.605v1.837l-.8 1.502-10.516-16.555v-1.401l-.908-.816v-10.127h-.755v5.23l-7.548-2.239v-6.589h-.756v6.324H180.97v-4.285h-.613v4.285h-7.562v-6.995h-.938v11.753l-1.216.605v1.442l-16.712 21.146v-42.133h.976v-5.14h-4.435l-6.014-4.872v-29.577l2.914-1.823v-1.408h-2.649l-5.763-6.293h-1.335v-2.531l-.976-1.612v-7.372h-1.582v7.372l-.81 1.612-1.989-3.598v-30.195l1.599-.739v-2.179l3.459-3.356v-2.354l-1.138-.871v-7.082l.329-.799v-1.379l-.657-.62v-9.012h-1.332v7.152s-.532-1.551-2.06-2.748c-1.528-1.172-4.723-1.057-4.723-1.057v-1.742l.935-1.175v-2.043h-3.459v-2.182h-1.463v-29.14l.501-.799v-1.148l-.501-.481v-1.101l1.995-.817v-1.108l1.328-.437v-1.253l-2.792-2.304v-9.256h-1.325v7.152s-.339-1.172-1.924-4.164c-1.596-2.988-5.123-4.591-5.123-4.591v-.552l-1.457-1.057v-2.493h.604v-1.237s3.11-3.045 3.865-5.783c.759-2.727-1.552-5.4-3.54-7.267-2.002-1.86-2.392-4.791-2.392-4.791v-7.081s2.053 0 2.256-2.968c.196-2.995-3.147-3.544-3.147-3.544v-8.372h6.823v-.986h-7.081v-15.245l-.81-1.572-.79 1.572v15.249h-7.084v.986h6.816v8.372s-3.348.549-3.144 3.544c.196 2.968 2.263 2.968 2.263 2.968v7.081s-.407 2.931-2.396 4.791c-2.002 1.867-4.303 4.54-3.54 7.267.749 2.738 3.869 5.783 3.869 5.783v1.237h.603v2.493l-1.467 1.057v.552s-3.517 1.606-5.116 4.591c-1.592 2.995-1.928 4.164-1.928 4.164v-7.152h-1.335v9.256l-2.788 2.304v1.254l1.332.437v1.107l1.995.817v1.101l-.491.481v1.148l.491.8v29.139h-1.46v2.182h-3.462v2.043l.938 1.175v1.742s-3.198-.115-4.709 1.057c-1.545 1.196-2.08 2.748-2.08 2.748v-7.152h-1.318v9.012l-.674.62v1.379l.332.8v7.081l-1.118.871v2.354l3.449 3.357v2.178l1.609.739v30.195l-1.992 3.599-.807-1.613v-7.372h-1.599v7.372l-.969 1.613v2.53h-1.335l-5.756 6.293H74.71v1.408l2.931 1.823v29.577l-6.014 4.872h-4.452v5.14h.979v72.347h-8.717v-4.68l-.817-.565v-6.387l.817-1.486v-3.562l-2.321-2.812.579-1.409v-4.723h-1.03v-5.812l.698-1.066v-1.541l-4.343-2.402v-.701l1.244-.528s1.45-2.283 1.413-3.473c-.054-1.203-3.022-2.903-3.022-2.903v-3.577l.738-.945v-1.155l-1.135-1.829v-2.792l.396-.556v-.779l-.549-.575v-3.687h1.582v-.641h-1.62v-3.448l-.447-.749-.424.749v3.448h-1.619v.641h1.582v3.687l-.552.575v.779l.39.556v2.792l-1.128 1.829v1.148l.739.949v3.576s-2.964 1.694-3.022 2.9c-.044 1.195 1.416 3.469 1.416 3.469l1.233.535v.702l-4.337 2.395v1.545l.691 1.067v5.811h-1.04v4.721l.579 1.416-2.304 2.805v3.562l.82 1.49v6.384l-.818.562v4.686h-2.761l-1.609 10.248-1.439 1.058h-6.58s-.068.985 0 1.984c.068.986-1.369 2.184-1.369 2.184v2.913l1.166.062v5.048l-1.823 1.146-.18 1.254h-3.794s-.918 1.393-1.003 2.477c-.074 1.062-2.646 2.562-2.646 2.562h-7.704v1.903H9.605l-5.959 1.829v1.321h.657v4.89H1.335v9.378L0 507.148V560h1200v-56.637l-1.688-1.423z"/><path d="M1193.859 380.168l.737.596.402-.496-.737-.598.521-.644-.538-.437-.521.646-5.174-4.182.521-.646-.536-.434-.521.645-7.392-5.973.521-.645-.537-.437-.521.646-8.193-6.621.521-.646-.537-.434-.521.643-8.14-6.575.521-.646-.537-.435-.521.645-8.193-6.622.521-.646-.538-.435-.521.646-8.6-6.949.521-.645-.539-.436-.521.645-8.193-6.621.521-.646-.538-.437-.521.646-8.138-6.577.521-.646-.538-.435-.521.646-8.162-6.596.011-.08.479-.592-.363-.291c.263-1.974.451-3.154.451-3.154-2.814-2.446-8.175-3.293-12.061-3.577.002-.048.007-.093.007-.14a4.1 4.1 0 0 0-.659-2.228l8.652-8.651 13.813 12.953.237-.252-.002-.002c2.985-3.249 62.49-68.051 63.389-71.809 0 0-6.538-6.211-9.763-8.566l1.151-1.152-1.455-1.456-1.225 1.225-.429-.427.672-.671-.453-.452-.671.67-.586-.585-.489.489.587.585-4.704 4.705-.586-.587-.487.489.586.586-6.721 6.719-.586-.586-.488.488.587.586-7.45 7.45-.587-.586-.487.489.585.586-7.397 7.399-.587-.586-.487.488.585.587-7.45 7.45-.585-.586-.489.489.586.586-7.818 7.818-.585-.586-.489.489.586.586-7.45 7.449-.585-.586-.488.49.584.586-7.397 7.398-.586-.587-.488.489.586.586-7.448 7.449-.588-.586-.488.488.587.586-1.158 1.159.451.452 1.159-1.158.428.428-7.587 7.586a4.09 4.09 0 0 0-1.936-.483c-.911 0-1.752.301-2.434.804l-9.008-9.008 12.954-13.812-.251-.238-.002.002c-3.25-2.986-68.053-62.49-71.811-63.388 0 0-6.211 6.538-8.564 9.763l-1.154-1.153-1.455 1.456 1.226 1.225-.428.427-.671-.67-.452.453.67.67-.586.586.489.488.586-.585 4.704 4.704-.587.586.489.489.587-.586 6.718 6.719-.585.586.488.489.586-.586 7.451 7.45-.587.586.487.489.587-.587 7.397 7.399-.585.586.488.489.586-.586 7.451 7.45-.587.586.488.489.587-.585 7.817 7.819-.586.586.488.488.586-.585 7.45 7.451-.585.586.487.488.586-.586 7.398 7.398-.586.587.489.489.586-.588 7.45 7.45-.588.587.489.487.587-.586 1.158 1.159.453-.453-1.159-1.158.428-.428 8.034 8.033a4.127 4.127 0 0 0-.37 1.699c0 .045.005.092.007.139-3.886.283-9.246 1.131-12.061 3.578 0 0 .3 1.893.673 4.89l-11.19-11.556-.248.24h.002c-3.14 3.104-65.693 64.967-66.771 68.678 0 0 6.23 6.518 9.339 9.024l-1.206 1.097 1.383 1.522 1.283-1.164.405.447-.701.637.431.476.702-.638.558.613.512-.465-.557-.613 4.925-4.473.557.613.513-.466-.558-.612 7.034-6.388.558.613.512-.465-.558-.613 7.801-7.084.558.613.512-.463-.558-.615 7.747-7.033.557.613.512-.465-.557-.613 7.799-7.083.557.613.514-.466-.559-.611 8.188-7.436.557.615.51-.466-.556-.612 7.8-7.084.559.613.512-.465-.559-.613 7.746-7.033.558.612.513-.465-.558-.612 3.73-3.389c.456 5.266.77 11.427.469 16.881-4.123.688-8.155 1.812-10.781 3.65 0 0 5.725 28.941 1.969 44.985h-7.539l-32.151 131.925H1017.7l-1.304 5.713-3.321 16.465h177.912l-5.06-22.178h-17.654l-32.141-131.877h-8.555c-2.748-11.658-.466-30.168.983-39.405 22.247 16.284 53.7 39.032 56.221 39.357 0 0 5.485-7.155 7.487-10.61l1.269 1.022 1.294-1.602-1.348-1.089.376-.452zm-77.863-80.084l1.049-1.049 1.149 1.077-.968 1.126-1.23-1.154zm1.294-1.293l.9-.901c.322.164.771.399 1.303.713l-1.072 1.248-1.131-1.06zm.19 2.686l.968-1.127 1.319 1.234-.969 1.129-1.318-1.236zm1.573 1.472l.969-1.129 1.426 1.333-.971 1.132-1.424-1.336zm8.904 5.824l-1.321-1.236 1.034-1.203c.327.555.625 1.136.886 1.742l-.599.697zm.747-.338c.194.489.367.993.509 1.517l-1.004-.939.495-.578zm-2.321-1.133l-1.348-1.261 1.128-1.314 1.215 1.136.104.161-1.099 1.278zm-.246-3.074l-1.194-1.118.135-.156c.374.392.74.805 1.093 1.238l-.034.036zm-.226.261l-1.128 1.314-1.195-1.119 1.129-1.313 1.194 1.118zm-1.222-1.616l-1.412-1.32.142-.164c.474.406.948.845 1.415 1.316l-.145.168zm-.225.263l-1.129 1.312-1.411-1.319 1.129-1.314 1.411 1.321zm-1.439-1.821l-1.426-1.333.009-.01c.5.355 1.021.755 1.547 1.191l-.13.152zm-.225.263l-1.128 1.313-1.425-1.333 1.128-1.314 1.425 1.334zm-2.071 2.943l.972-1.13 1.411 1.32-.974 1.131-1.409-1.321zm1.662 1.559l.974-1.133 1.193 1.118-.974 1.134-1.193-1.119zm1.446 1.358l.974-1.134 1.348 1.261-.975 1.135-1.347-1.262zm1.599 1.499l.976-1.138 1.321 1.238-.978 1.137-1.319-1.237zm1.571 1.473l.978-1.139 1.38 1.291c.167.75.273 1.532.311 2.348l-2.669-2.5zm53.975-79.078l.428.428-4.704 4.704-.427-.427 4.703-4.705zm-5.192 5.192l.428.428-6.72 6.719-.427-.427 6.719-6.72zm-7.208 7.208l.428.428-7.449 7.45-.429-.428 7.45-7.45zm-7.939 7.939l.43.427-7.399 7.399-.428-.427 7.397-7.399zm-7.888 7.889l.429.428-7.449 7.45-.428-.427 7.448-7.451zm-7.939 7.938l.428.428-7.818 7.819-.428-.428 7.818-7.819zm-8.306 8.308l.428.428-7.449 7.45-.428-.428 7.449-7.45zm-7.94 7.938l.428.428-7.398 7.398-.429-.428 7.399-7.398zm-8.576 17.578l-1.321-1.236 1.121-1.306c.016.009.029.019.044.026l1.284 1.201-1.128 1.315zm.689-9.691l.429.429-7.449 7.45-.429-.428 7.449-7.451zm-27.328 5.537l-1.127-.969 1.236-1.32 1.128.97-1.237 1.319zm1.416-4.19l-1.332 1.424-1.313-1.128 1.332-1.425 1.313 1.129zm-1.077-1.382l1.32-1.411 1.315 1.129-1.322 1.411-1.313-1.129zm1.136 4l-1.129-.969 1.333-1.424 1.13.969-1.334 1.424zm1.571-1.676l-1.13-.972 1.319-1.411 1.132.974-1.321 1.409zm1.559-1.662l-1.132-.973 1.118-1.195 1.134.975-1.12 1.193zm1.357-1.446l-1.136-.974 1.264-1.348 1.134.975-1.262 1.347zm1.497-1.599l-1.135-.976 1.236-1.321 1.136.976-1.237 1.321zm3.976-4.238l-2.5 2.666-1.137-.977 1.29-1.379c.75-.166 1.533-.273 2.347-.31zm-2.961.461l-.938 1.003-.576-.495c.488-.194.993-.366 1.514-.508zm-1.872.656l.697.6-1.236 1.321-1.203-1.034a15.557 15.557 0 0 1 1.742-.887zm-2.216 1.179l.162-.104 1.278 1.099-1.262 1.347-1.314-1.128 1.136-1.214zm-.055 2.594l-1.118 1.195-1.314-1.128 1.119-1.196 1.313 1.129zm-1.615-1.386l.036.032-1.118 1.195-.156-.135a21.24 21.24 0 0 1 1.238-1.092zm-1.486 1.335l.168.145-1.32 1.412-.163-.141c.406-.474.843-.95 1.315-1.416zm-1.539 1.68l.15.129-1.332 1.424-.011-.008c.358-.498.755-1.019 1.193-1.545zm-2.358 3.317l1.201-1.284 1.313 1.128-1.236 1.321-1.306-1.121c.011-.015.02-.031.028-.044zm-.206.344l1.248 1.071-1.06 1.132-.901-.901c.165-.322.401-.769.713-1.302zm-62.565-56.785l-4.705-4.704.428-.427 4.704 4.703-.427.428zm7.206 7.208l-6.719-6.719.428-.428 6.721 6.719-.43.428zm7.939 7.939l-7.45-7.45.428-.428 7.45 7.45-.428.428zm7.889 7.886l-7.399-7.399.429-.428 7.397 7.399-.427.428zm7.938 7.939l-7.448-7.45.428-.427 7.45 7.45-.43.427zm8.308 8.307l-7.818-7.819.426-.427 7.82 7.819-.428.427zm7.939 7.939l-7.45-7.449.429-.428 7.448 7.452-.427.425zm7.887 7.89l-7.399-7.399.428-.428 7.398 7.398-.427.429zm7.939 7.938l-7.45-7.451.429-.428 7.449 7.449-.428.43zm-.046-3.812l1.077-1.15 1.127.967-1.156 1.232-1.048-1.049zm-12.554 15.236l1.26 1.299-1.09 1.152c-.3-.569-.569-1.164-.802-1.783l.632-.668zm-.762.305a14.13 14.13 0 0 1-.436-1.539l.957.986-.521.553zm2.263 1.243l1.285 1.323-1.191 1.259-1.156-1.191a5.883 5.883 0 0 0-.096-.167l1.158-1.224zm.098 3.082l1.141 1.174-.142.149a20.362 20.362 0 0 1-1.033-1.289l.034-.034zm.237-.251l1.19-1.26 1.141 1.176-1.191 1.258-1.14-1.174zm1.145 1.674l1.345 1.387-.146.157c-.454-.429-.908-.89-1.351-1.383l.152-.161zm.236-.252l1.189-1.258 1.347 1.388-1.189 1.258-1.347-1.388zm1.35 1.886l1.359 1.399-.009.01a26.764 26.764 0 0 1-1.486-1.267l.136-.142zm.238-.252l1.19-1.258 1.357 1.4-1.189 1.256-1.358-1.398zm2.79.391l1.26 1.299-1.183 1.25c-.015-.01-.028-.02-.042-.028l-1.227-1.263 1.192-1.258zm1.501 1.547l1.079 1.111-.944.857a26.99 26.99 0 0 1-1.267-.774l1.132-1.194zm1.054.591l-.814-.843.644-.681c.054.489.112.995.17 1.524zm-.282-2.419c.021.146.036.298.057.449l-.833.879-1.259-1.297 1.021-1.082 1.014 1.051zm-1.254-1.299l-1.021 1.08-1.358-1.398 1.022-1.082 1.357 1.4zm-1.598-1.649l-1.022 1.082-1.349-1.388 1.025-1.084 1.346 1.39zm-1.586-1.638l-1.025 1.084-1.141-1.174 1.028-1.086 1.138 1.176zm-1.38-1.424l-1.025 1.084-1.286-1.323 1.029-1.087 1.282 1.326zm-1.523-1.574l-1.028 1.087-1.261-1.298 1.029-1.09 1.26 1.301zm-1.5-1.549l-1.028 1.09-1.315-1.355c-.131-.757-.2-1.544-.197-2.359l2.54 2.624zm-57.718 76.389l-.406-.447 4.925-4.473.405.449-4.924 4.471zm5.436-4.938l-.406-.447 7.034-6.387.407.447-7.035 6.387zm7.547-6.851l-.407-.447 7.801-7.084.406.449-7.8 7.082zm8.311-7.547l-.406-.449 7.747-7.033.406.447-7.747 7.035zm8.259-7.5l-.405-.447 7.8-7.083.407.447-7.802 7.083zm8.311-7.547l-.406-.448 8.188-7.433.405.445-8.187 7.436zm8.698-7.9l-.407-.446 7.801-7.084.405.447-7.799 7.083zm8.312-7.546l-.407-.448 7.746-7.034.407.448-7.746 7.034zm8.257-7.5l-.405-.448 4.428-4.02c.021.247.047.499.068.753l-4.091 3.715zm33.974-7.394l.472.381-.597.791c.042-.401.083-.791.125-1.172zm-.458 4.687l.184.127-.218.29.034-.417zm-.106 1.317l.02-.256.557-.736.01.008c-.183.318-.379.648-.587.984zm1.559-2.868l-1.061 1.403-.358-.246c.062-.707.128-1.396.192-2.063l1.246.858a.533.533 0 0 0-.019.048zm.167-.366l-1.354-.936.934-1.236.992.802c-.13.337-.319.807-.572 1.37zm6.677.917l-7.561-6.109c.028-.242.059-.478.086-.707l7.854 6.347-.379.469zm8.676 7.012l-8.139-6.576.38-.472 8.139 6.576-.38.472zm8.73 7.057l-8.193-6.623.38-.471 8.195 6.623-.382.471zm9.139 7.384l-8.6-6.949.381-.471 8.6 6.95-.381.47zm8.735 7.055l-8.195-6.621.381-.471 8.194 6.622-.38.47zm8.675 7.012l-8.141-6.578.38-.469 8.141 6.575-.38.472zm8.732 7.057l-8.194-6.621.381-.471 8.195 6.621-.382.471zm7.928 6.406l-7.393-5.971.381-.472 7.393 5.974-.381.469zm5.711 4.615l-5.174-4.18.381-.471 5.174 4.182-.381.469z"/></svg>