<svg xmlns="http://www.w3.org/2000/svg" width="454.875" height="73.381" viewBox="0 4.907 454.875 73.381"><path fill="none" d="M256.748 20.49h2.368v2.771h-2.368zM250.239 20.49h2.364v2.771h-2.364zM230.711 20.49h2.368v2.771h-2.368zM237.221 20.49h2.368v2.771h-2.368zM217.695 20.49h2.366v2.771h-2.366zM224.205 20.49h2.366v2.771h-2.366zM243.729 20.49h2.367v2.771h-2.367zM359.964 13.446h-.014a.479.479 0 0 0-.466.447h-.004v1.037h.959v-1.037h-.004a.476.476 0 0 0-.471-.447zM361.285 13.444a.484.484 0 0 0-.477.449v1.037h.955v-1.037a.479.479 0 0 0-.478-.449zM263.257 20.49h2.365v2.771h-2.365zM358.634 13.444a.479.479 0 0 0-.475.449h-.004v1.037h.961v-1.037h-.007a.477.477 0 0 0-.475-.449z"/><path d="M448.538 65.811l-9.769-2.152-4.303-.882-2.396-.01-7.844-1.457-.072-.399-.92-4.942-.156-.839-.006-.234-18.809.423-.156-5.124-1.35-.885-13.976.549-.207 5.346-1.375-.258-.371-.047-17.021.061-.004 2.309-8.896.013-.008 3.106h1.301v.424l-9.52-.018v5.02h-3.223l.213-22.979.006-.27 7.047-10.295 1.031-1.966.008-.311-5.213-1.152-5.137 1.581-.008.304.729 1.862-.012.001-.037.062-.57-.561-.086.015-1.84 3.084-1.348 2.036-1.439 1.965-1.531 1.896-1.623 1.819-1.715 1.74-1.805 1.655-1.896 1.571-1.983 1.479-2.072 1.387-2.158 1.286-2.213 1.165-3.031 1.168-3.184.889-.49.08-.549.086-.555.078-.558.074-.561.068-.562.063-.564.054-.566.051-.572.044-.574.039-.575.031-.582.029-2.332.095.006 1.133h-.017l.017 2.695-.717.165-1.396.396-1.473.448-1.467.523-1.447.597-1.428.67-.727.384-.681.359-1.377.812-1.349.884-.979.707h-5.621l-.106-33.869-.019-4.476-.026-9.183h-6.193l-.242.473H283.9v-.475h-6.193l-1.76 6.276.015 11.137.006 5.68h-.625v-.489h-6.006l-.05.489h-5.748l-.209-.489h-6.006v.489h-.246l.009-5.68.018-11.138-2.52-6.277-6.193-.001-.002.474h-1.351l-.301-.474-6.193-.002-.035 9.188-.018 4.475-.127 33.873H236.8l.975-.391.008-3.22.707-.257.066-.051-.004-.003.004-.008-3.803-4.549v-.225l.617-.159.001-.146.024-.073-3.354-7.209-5.815-.28-.767-.889.006-3.879-1.399-.037-.425.034-.004 2.972-8.767.993v-.087l.512-.062-1.117-.838.001-3.229.044-.004.138-.013.054-.016-.074-.271-.146-.21-.159-.14-.126-.197-.076-.315-.094-.389-.072-.089-.088-.111-.104-.051h-.008l.09.056-.098-.052-.322-2.862-.003-.014-.005.011-.001.013v-.724c.09-.003.163-.078.163-.171s-.073-.165-.163-.171v-.004h.001l.006-.654.062.078.021-.024-.065-.082h.005l.225-.002h.022v-.037h-.022l-.225.002h-.005l.065-.086-.021-.025-.054.066v-.28l-.009.292-.001.002.01-.294-.021-.001-.007.001h-.022V37.738l-.058-.071h-.022v.025l.066.084.012-.016v.016h-.258v.037h.259v.014l-.012-.014-.066.084.021.022.058-.07v.007l.01.641h.008v.004c-.093.006-.164.078-.164.171s.071.168.164.172v.706l-.003-.006h-.005l-.005.021-.306 2.856h-.005l-.016-.006-.01.004-.104.044-.087.11-.074.09-.094.387-.076.317-.126.197-.158.136-.147.21-.073.271.029.016.115.012.082.007-.001 3.262-1.123.873.52.021v.168l-4.509-.215-.013-4.515.282-.02v-.093l-.282-.009-.01-4.248.54-.012-1.117-.705-2.068-.006-.044-.033-.544-.438-.58-.508-.345-.343-.343-.414-.188-.369-.037-.1-.023-.101-.021-.139.003-.528v-.001h.02l.268.006v-.244l-.062-.002-.001-3.085.312-.023.022-.419-.754-3.576.002 1.093-.562-.008-.281-1.279-.104 1.122-.214.011-.153-.773-.169.789-.067.003-.023-.025-.139-.146-.051-.062-.024-.052-.018-.052-.014-.076-.009-.08-.021-1.435-.016-3.836.067-.015.217-.092.015-.038-.001-.602-.071-.021-.394-1.197.089-.074v-1.466l-.048-.861-.306-.008-.014-.052-.001-3.156.048-.007.127-.043.178-.115.012-.05v-.408l-.063-.029-.301-.754-.002-1.631-.032-.165-.091-.135-.138-.091-.022-.013-.411-.122-.023-.005-.002-.2-.037-1.014-.015-.164-.05-.516-.157-.562-.012-.025-.339-.843-.021-.046a.414.414 0 0 0-.001-.811v-.007a.153.153 0 0 0 .084-.136.158.158 0 0 0-.084-.137l-.001-1.882.135.156.055-.011.015.005v-.075l-.137-.161a.128.128 0 0 0 .014-.047l.612-.12-.61.108.001-.001.609-.107V5.74l-.072-.019-.58.115.163-.259v-.076l-.016-.004-.055.013-.134.212-.001-.796-.073-.019-.077.016.001.835-.135-.156-.014-.003-.056.011v.076l.151.178c-.005.01-.011.016-.017.025l-.619.124v.105l.073.02.561-.111c.002.001.004.006.006.009l-.155.245v.076l.057-.014.014.006.134-.211.002 1.847.003-.001.008-.005.019-.005h.001l.003-.001.005-.001h.001l.007-.001h.011a.156.156 0 0 0-.137.151c0 .06.034.108.081.136v.009a.413.413 0 0 0 .001.815v.006l-.016.034-.337.846-.012.027-.156.604-.047.508-.016.16-.034 1.027-.003.153-.22.021-.046.008-.025.011-.136.085-.188.156-.019.016-.053.068-.027.056-.009.02-.021.077-.007.067.002 1.662-.258.66-.134.102v.408l.393.098.004 3.19-.295-.008-.036.952.002 1.465.102.001-.411 1.271-.135.067v.6l.374.062-.007 2.781-.003 1.143-.015 1.441-.009.077-.007.03-.008.043-.019.049-.021.041-.004.006-.049.062-.043.047-.202-.017-.239-1.109-.209 1.085-.074-.723-.211.897-.765-.008.018-1.079-.773 3.574.024.425.359-.003.003 3.163-.068.014v.244l.29.008H194.452l.006.541-.02.141-.009.036-.014.062-.035.098-.119.232-.068.133-.317.413-.227.233-.103.105-.031.03-.524.468-.526.429-.114.087H192.377h-.026v.03l-2.294-.006-1.428.731.835.007.018 4.335-.319.017v.096l.319.009.066 15.409.027 6.418h-5.127l.809-20.561.026-.68.081-2.079-1.69.251-.065 1.732-4.328-.409.053-1.523-1.72.007.018-.543-1.086.218-.011.327h-.246l-.039 1.229h-.018l-1.113.15.047-1.533-.635.127-.042 1.377h-.285l.037-1.224-.871.173-.029 1.055-2.495.006-1.249-.127.032-1.248-1.012.244-.023.897-1.8-.188-4.567.014-.045-.024-.041.024-2.836.006-15.321-2.502.014-2.749 2.285.098.013-1.895-2.29-.113-.005-.004-.011-.003-.019-.004-.023-.001h-.081l-.027.001-.021.002-.018.004-.011.002-.003.003-.021 4.661-15.29 2.573-6.636.013-2.721.293-.018-.979-1.15-.232.023 1.33-.104.011-2.047.007-.02-1.022-.918-.165.023 1.19h-.356l-.027-1.34-.669-.12.032 1.566-1.393-.18-.034-1.55-1.138-.2.012.521-2.153.006.037 1.47-4.23.406-.048-1.66-1.751-.231.062 1.996.019.654.613 20.442H94.51l.119-6.955-3.089-.298.022-1.633-.06-4.175-1.198-4.018-2.243-3.54-3.105-2.79-3.717-1.826-.231-.109-.505-.099-.75-.083-.669-.039-.021-2.729-.336.02-.235-.05-.326-.043-.395-.026-.435-.012-.444.005-.421.022-.145-.05.001.062-.226.021-.289.049-.189.059-.081.061.033.062.144.057-.324.021-.029 2.478-.732.051-.74.087-.494.104-3.578 1.781-.337.168-3.074 2.781-2.218 3.514-1.188 3.971-.045 2.447-1.291.854.003.268-1.297-.127.015 1.178-5.054.354.04-5.933-5.696-.01.039-7.037h-.277l.013-2.358-1.184-.089-3.744.006-2.175.124-.861.406-.009 2.279-.189.061-.014 3.844-22.699.008-.005-3.822-.104-.061-.002-2.266-.451-.406-1.534-.086-3.676.006-1.646.121.005 2.302-.239.004.018 7.012-1.854-.038-9.092.1.065 13.968H0v12.477h454.875V65.811h-6.337zM213.215 37.765l.003-.013v.027h-.003v-.014zm0 .052h.003v.024l-.003-.01v-.014zm1.034 6.56l.002-.016.003.016h-.005zm-.003.058v-.003l.011.003-.011.004v-.004zm-.002.086v-.004l.014.004-.014.006v-.006zm-.001.1l.016.006h-.016v-.006zm-.544-.224l.096.021-.103-.02.007-.001zm-.201-1.968l.008-.005.01-.002.079.054-.1-.047h.003zm-.131 2.26l.083-.003.016-.094.05-.002.019-.104-.017.01.006-.01.005-.003.014-.014.062-.048.084-.019.032.01.043.025.038.03.03.046.021.047.015.051.006.057.073.004h.08v1.584l-.66-.024v-1.543zm-.981-.021h.021l.083-.006.009-.057h.041l.005-.056.014-.051.023-.051h.001l.054-.041.033-.006.068.016.076.063.052.092.019.111.149.003v1.546l-.649.017.001-1.58zM201.8 32.305l.002 3.162-.502-.013h-.107l-.002-3.258.609.109zm-2.428-7.194l.014-.493.067.001.002.004-.069-.006.072.027.042.244.001-.03.007-.175.001-.021v-.003l.004.006.004.005.065.098.054.112.025.101v.001l.002.033.004.046V25.174l.002 2.89-.296-.028-.001-2.865v-.06zm-.533-.015l.024-.171.015-.059.027-.106.054-.135.034-.062.011.019.015.037.032.103.021.108.009.09.001.011.001.047.002 3.046-.229-.005-.014-.417-.012-2.333.009-.173zm.043 7.085l.62.044.002 3.208-.033-.001-1.215-.003-.087.001-.003-3.312.716.063zm-.553-24.208l.006.001h.004l.006.001c-.006 0-.011 0-.016-.002zm-.058 1.113v.015h-.001l.001-.015zm-.038-.819h.003s-.004 0-.005.002l.002-.002zm-.22 16.486l.03-.167.051-.159.03-.057.057.006.041.017.025.008.041.021.076.057.009.008.043.044.075.102.051.1.007.014.044.116.03.122.022.142.004.089.003.058.004 2.744-.651-.012V26.16l-.002-1.233.01-.174zm-.861.31l.014-.476.029-.04.06-.057v.256l.021-.114-.017-.004-.002-.141.001-.001.003.103.016.043.134-.332.033-.035.144.021.005.008.056.133.043.162.025.171.007.175-.01 2.391-.018.682-.49.024v.003l-.049.003-.004-2.917-.001-.058zm-1.67 7.146l.827.022.003 3.205h-.108l-.801.01-.003-3.253.082.016zm162.122-1.8l-.912 1.736-.661-.043.436-1.776 1.137.083zm-1.318-.094l-.435 1.776-1.187-.075.435-1.789 1.187.088zm-1.367-.108l-.432 1.801-1.211-.077.432-1.812 1.211.088zm-1.368-.118l-.437 1.849-.791-.052-.004-1.887 1.232.09zm-1.388-.068l.004 1.859-.088.015-.539-.547-.096.014-.082.14-.283-1.297 1.084-.184zm-1.231.217l.315 1.457-.203.344-.799.119-.383-1.738 1.07-.182zm-1.226.212l.381 1.729-1.036.155-.379-1.709 1.034-.175zm-2.181.366l.994-.17.381 1.716-.729.109-.646-1.655zm-17.92 27.855l.138-.054.491-.213.484-.229.477-.248.472-.264 1.145-.682 1.125-.705 1.104-.725 1.084-.745 1.062-.766 1.041-.787 1.02-.804 1-.822.978-.841.959-.86.342-.312.343-.308.307-.276-.062 16.776h-13.676l-.867-5.394 1.041-.564.002-.45.006-.519-.016-.208zm-2.78 7.14h-.367l.158-1.152.209 1.152zm-13.596-2.433l.058-2.277h.01v-.365l.037.009 1.631.111 1.613.045 1.598-.021 1.576-.089 1.557-.148 1.537-.209 1.512-.273.279-.062-.746 5.714h-10.54l-.122-2.435z"/></svg>