<svg xmlns="http://www.w3.org/2000/svg" width="327.006" height="48.045" viewBox="0 0 327.006 48.045"><path d="M325.889 45.085v-.612l-.52-.309v-2.71h-.328v-9.757h-.348v-.676l-.506-.265v-.48h-.259v.309h-.5v-8.601l-.245-.132v-.48h-.98a32.548 32.548 0 0 0-1.059-3.295l.794-.196v-.437l-6.797 1.409.196.294h.294v8.578c-.611-7.336-1.631-8.892-1.631-8.892l.906-.336v-.377l-2.562.48v-.64h.392v-.424h-.318l-4.175 1.019v-.321h-1.211v-.204l-.406-.625h-1.427v-.885h-.157v.61h-.205l-.187.38h-.607v.326l-.226.226v.654h-.774v.453h.108v.958h-.147v.335h.147v1.311h-.672v.204h.226v7.152l-.167.167v8.38l-.465.524v1.69h-.451V19.982h-.568v.248h-.716l-.48.306h-2.411v-5.427h.128v-.801l.146-.145v-1.034h.118v-.203h-6.68v.232h.103v1.076l.172.162v.813h.118v6.635l-.26.365v.728h-.421v-3.783h-2.029v-.176h-1.161l-.201-.189h-.338v1.485h-.172v.363h-.19v.248h.19v12.979h-.176v-2.381h-1.284v-.76h-1.304v.26h-.559v-.348h-.901v.73h-2.632v1.539l-.221.221v.26h-.578v-.99c0-.77-.657-1.5-.657-1.5h-.51v-.157h-.421v.377h-1.396v-1.132h-.162v-1.049h.162v-1.267h-.25v.174h-5.484v1.049h.103v.681h-.118l-.265-.843v-1.512h-.083v-.292h.083v-.189h-.754v.277c-.902.13-1.206.407-1.206.407-.99-.568-1.803-.598-1.803-.598l-.147-.174v-.262h-.774v-.51l-.171-1.12h-.206v1.848h-.363l-.171.438v2.049c-1.529.323-1.441 1.225-1.441 1.225h-.46v.662l-.128.289h-.127v.809h.103v8.924h-.76v-7.302l-1.215-1.107v-.162h-.152v.642h.098v.23h-.083v.417h-.504v-.687h-.701v-9.65l-.235-.164v-1.365h-.471v-.271h-.221v.142h-.25v-.688l-.304-.142v-.708l-.146-.088v1.987s-1.529-.154-2.656.671c-1.162.855-1.226 1.995-1.226 1.995h-.137v.414h.137v5.555l-.186.147V32h-1.015v-.304h-.187v.382h-.122v6.141l-.118.112v3.127h-.931v-7.332h-.26s-.348-3.205-1.515-8.238c-1.161-5.033-2.078-6.102-2.078-6.102v-.642h-.333v1.024h-.146v1.769h-.446l-.544 2.14v-.605h-.549l-.147-.252v-1.61h.289l.407-.196v-.319h-.441v.123h-.539v.152h-.451v-.24h.294l.107-.122v-.255l-.559-.182v-.101h-.853v.096h-2.088v.646l.245.137v.329l.274.073v1.301h-.813l-.098-.196v-1.105h.25v-.436l-1.367-1.1h-.344v.292h-1.225l-3.744-.835v-.48h-.647v.676h-.171l-.113.5h-.226v.515h.285v2.815l-.755-.187v-.534h-.216v-.174h-.578v.142h-.196v.414l-2.734-.61h-.588v2.901h-1.412v-8.853h-.608v-.598h-1.558v.248h-.524v-.145h-1.298v-.48h-.623v.931l-.73 1.149h-.51l-1.235 1.862v-1.075l-.377-.351v-.654h-.392v-.975l-.818-.451v-.495l-.26-.307v-.48h-.465v.292h-.206l-.118.421h-.201v.613h-.113s-.309-1.252-1.46-1.252c-1.146 0-1.431 1.433-1.431 1.433h-.623v.84l-.603.262v.546h-.26l-.524 1.015v1.22l-.26.328v11.198h-.265l-.304.632v3.19h-1.573v2.705h-.46V15.544h-.627s.02-.524 0-.743c-.024-.218-.441-.458-3.102-.48-2.661-.022-6.278.451-6.278.451 1.108 4.134 1.451 9.75 1.451 12.923v8.726h-.853v-4.543c0-9.82-1.107-15.672-1.431-17.446-.318-1.776-2.95-2.629-2.95-2.629v-.737l-.088-.024-.088-4.046-.147-.262-.147.261-.083 4.046-.093.024v.737s-2.627.853-2.95 2.629c-.304 1.706-1.343 7.182-1.421 16.333h-.638l-.196-.304h-.436l-.417.652v.593l-.216.147v4.303h-2.558V33.23l.593-3.95h-.48v-5.435l.48-4.17h-.348v-4.32l.348-2.686h-.309V5.621h-.651v-.285h-.456l-1.705 2.357V5.947h-.329v-.392h.196V5.16h-1.289v-.238l-.216-.154v-.304h-.897v.632h-.436v.151h-1.833v7.16h-.373l.245 3.668v3.384h-.368v2.029h-1.818v2.664h-.931v-.13h-.235v.537h-.289v1.747h-.392v1.426h.142v3.724h-.637v-.363l-.539-.48h-.176v.956h-2.725v1.456h-2.12v-.142h-.73l-.297.588h-.14v-.137h-.351v.48h-.284v-3.539l.076-.186v-.676h-.108v-9.257l-.118-.326v-6.591h-.188v-.459h.188V9.382h-.145v-.436h.145V5.947c-1.017.188-1.313 1.441-1.313 1.441V5.729h-1.122v-.446h-.438v-.667h.098v-.622h-.151V.12L163.68 0v2.553h-.118v1.419h-.142v.645h.142v.632h-.404v.524h-1.276v2.343h-.103c-1.134-2.198-2.416-2.198-2.416-2.198v2.054l-.167.137v4.825h-.24v6.787h-.218v9.409h-.292v3.725h-.159l-.132.362h-.306V33h-.596v.421h-.351v-.191h-1.279s.262-6.4.348-10.039c.088-3.639.387-9.21.387-9.627 0-.414-.328-2.029-3.864-2.029s-5.66 1.527-5.893 2.021c-.232.495.466 3.872.96 8.674.495 4.8.554 11.671.554 11.671h-.583v.887h-.218v-.946h-.421v-.206h-.89v.441h-.987v.171h-.204v-2.151h-1.384v-.216h-.378v-1.107h-.262v-.191h-.698v.142h-1.906v.162h-1.312v-.23l-.348-.206v-1.936h-.188v3.2h-.365v-.127h-.421v.294l-.321.143v2.965h-.596v-.172h-.355v8.846h-.581V28.747h-.206v.235h-.828v-.657l-.643-.375v-3.261h-.115l-1.149-1.73h-.787v-.191h-.159v.176h-.975v-.38h-.262v.409l-.262.274h-.363v.816h-.48l-.365.103v1.468h-2.007l-.162-.218h-1.745v.684l-.24.191v15.893h-.437v.279h-.721v-.215h-1.252v-8.027h.071v-.24h-.063v-.245h.063v-.441h-.086v-.465h.187l.174-.25v-.284h-.218v-.157h-.285v-1.176h.12l.165-.196v-.392h-.437v-6.309h-.176v.306h-.62l-.11-.196h-1.792V23.9h-1.024v.252h-2.664l-.098.184h-2.007v5.4h-.132v-2.901h-1.965v-.556l-.458-.36V24.74h-.49v.382h-.492l-.687.152v.645l-.524.274v.302h-.247l-.336-.336h-.843v.218h-1.762v-.465h-2.168v.684h.118v.466H102.2l-.219-.218v-.625l-.22-.335H99.74v.975h-.218v.159h-.35v-.13h-.262l-.466.218h-.536l-.104-.262h-.757v-.145h-.813v.115h-.772l-.625-.304h-1.208v.262h-.583l-.596-.539h-.395l-.437.466h-1.034v-.132h-.233v.162h-.96v-.174h-.566v.174h-1.593v8.424l-.176.098v4.4h-1.921v-.221h-.894v.221h-1.309v4.562h-.329v-.328h-1.7v-6.768l-.24-.215V29.62h-.303v.265h-.321v-1.978l-.188-.188v-1.98h-.218v.902h-1.049v.35h-3.342v-.831l.13-.088h.218v-.556l.101-.108v-.809h-.603v-.709h-.708l-.13-3.438-.132-.034v3.46h-.588l-.235.187v.698h-.451v.742l.118.115v.451h.218l.211.074v1.74h-.263v.333l.14.051v.213l.174.059v1.195h-.612v-.544h-.304v.544h-.502l-.24.441v7.944h-1.179V27.776h-1.091v-.328h-.72l-.199.284h-1.09v.196h-2.728l-.198-.24h-.326v9.449l-.262.372h-.329v1.46h-.59v.245h-.238v-.309h-.72V29.28h-.395v-2.16h-.61v.196h-4.955l-.328-.588h-.294v-9.77l-2.433-1.232H52.06v.11h-.26v-.11h-.711v1.965H49.32v9.34h-1.068v2.862l-4.061 1.049h-1.703v.48h-.284l-.24.715h-.385v2.009h-.451v-.289h-.713l-.104.201h-2.386v-.171h-.858v.171h-1.179v-.23h-.158v1.093h-1.892v10.331h-.568v-7.929h-.262v.157h-.321v-.568h-.159v.176h-1.526v-.215h-.832l-.321-.25h-2.72v.176h-.568v-.176h-.304v.524h-.409v.215H25.5l-.307.176v6.856h-2.239V43.36h-.133V30.295h-.188v.171h-.407v-.671H20.9v-1.583h.118v-.335H18.44v.292h-.857v.157h-.806v5.371h-1.654v-.108h-.174v2.333h-.801v7.645h-.289v.579h-.289V28.898l.057-.206v-1.125h-.329v.326H12.11v.22h-.426v-.208H9.86v.262H8.583s-.338-.218-1.112-.897c-.777-.676-2.132-.938-2.132-.938l-.066-.174H5.07l-.162-3.514-.159-.088v3.617l-.107.147-.476 17.579h-.16v1.117h-.798v1.196h-.263v-.407h-.203v.387h-.27v.196h-.894v.377H.902l-.235.338H.502l-.049.167H.29v.519H.103l-.103.05v.206h327.006v-2.283l-1.117-.677z"/></svg>