<svg xmlns="http://www.w3.org/2000/svg" width="271" height="58.882" viewBox="0 0 271 58.882"><path fill="none" d="M114.22 26.718l-.37.003-.002.003.033-.003zM89.104 48.733l.045.149h-.027l-.039-.308-.071-.213-.052-.098-.014.022h-.035l.065.061-.07.265-.126.143-.045.014-.123-.146-.06-.467.079-.273h-.057l-.037.057-.065-.018-.096.06-.109.066-.125.095-.103.116-.076.135-.045.145-.046.015.066.066-.074.279-.131.151-.049.013-.126-.151-.063-.115.081.086h-.047l-.039-.31-.051-.177-.003.094-.173.219-.004.174h.17l-.002.181-.173.021-.018.798h.11l-.002.181-.111.104-.002.128-.017.867.059.165-.01.555h.059H87v.222l1.958.009.104-.363.112-.134-.023-.999-.151-.04v-.08l.179-.044.037-.217.028-.691-.166-.104.007-.175.179-.06.004-.177-.168-.167zM85 52.495l-.167.041-.697.021-.988-.009-.909-.033-.357.095v.272h3.032l.007-.211.079-.159v-.034.004zM113.899 26.196v.001l.001-.005zM103.478 27.673l-.009-.146.002.052zM129.529 50.399l-.091-.246-.003-.271h.091l-.01-.244-.012-.381-.144-.072-.004-.147.142.015-.006-.208-.144-.009-.006.046h.003l-.034-.377-.046-.213-.011-.057-.108.055-.085.095-.061.242-.033.255h-.04l.07-.034-.054.223-.109.124-.028-.027-.118-.161-.064-.17.056.045h-.012l-.028-.129-.04-.205-.069-.162-.09-.126-.06-.055-.031.3-.032.377h-.05l.068-.16-.051.154-.105.09-.03-.043-.11-.163-.062-.042.055.164h-.004l-.027-.249-.037-.261-.055-.164-.051-.009-.105.071-.087.103-.062.248-.033.261h-.023l.025-.107.006.156-.139.22.003.152.148.065.004.173-.144.105.004.159.016.748.094.055.002.08-.092.041.021 1.012.054.135-.197.404 1.646.008v-.406h.473-.007.05l-.012-.451.048-.089zM114.586 27.739l-.022-.154.002-.017.17-.02-.006-.819-.349.003.009 1.167.137-.016.018.136-.002.014-.152.019.005.753.019.003.056.026.005-.035.052-.109.085-.086.108-.052.025-.006-.008-.825zM114.727 26.209l-.352.002.002.077.111-.001.002.139-.003.015h-.109l.001.124.35-.003zM114.041 28.934l.074-.076.096-.046.023-.006-.006-.732-.136.017-.019-.138.003-.013.151-.019-.011-1.188-.368.002-.311.002.041.284.234.24.261.266-.076.523-.157.251.018 2.472.005-.003.142-.142.011-.028.103-.467.093-.657-.083-.042-.072-.074-.014-.017-.049-.098-.016-.108.015-.107zM98.186 20.746h.001"/><path d="M270.648 52.882l-.021-7h-.003l.376-.527v-.56l-.195-.053-.099-.045-.052-.036-.026-.025.186-.017.186-.01v-.364l-.412-.364h-.055l-.002.143-.004.022-.005.001-.003.004-.002-.016-.002-.031-.002-.04.243-.05.244-.057v-.545l-3.038-.233-.266-3.196h.028l.275.45v-.153l-.453-.006.028-.088.044-.102.044-.117.035-.124.021-.126.007-.13-.01-.129-.027-.127-.042-.122-.058-.117-.074-.108-.084-.098-.086-.07-.084-.073-.081-.077-.079-.079-.078-.08-.076-.082-.071-.086-.071-.088-.066-.089-.064-.091-.063-.093-.06-.094-.002-.259.017-.006.04-.029.029-.037.02-.043.009-.048-.005-.049-.017-.045-.028-.04-.037-.178-.045-.168H267v.273-.089l-.217-.004-.1-.007-.043-.01-.011-.012v-.014l.008-.018.008-.019.009-.021.006-.022.17-.021.17-.023v-.015h-.338l-.008.012-.006.013-.01.014-.01.014-.012.011-.012.012-.014.01-.015.008-.015.007-.015-.048-.015-.051h.47v-.152l-.443.152H267V36.505l-.211.195-.212.181h.054l.044-.244-.041.093-.007.151H266.57h.43v-.494l-.449.494H267v-1h-.428l.082.251.201.087.145-.038v-.299.296l-.258-.296H267v.367l-.066.062.009.002.058-.06v-.372h-.1.078l.047.076-.048-.067-.007-.009h-.051l.08.097v-.022l-.125-.086.085-.003.04.061v-.046h-.393l-.002.023.062-.054-.006-.021-.078.051H267h-.472.041l.099-.136-.1.027-.007.108H267v-.297l-.293-.06-.33-.004-.377.062v.301h.366l-.098-.043.099.072.008-.029H266.43h-.078l-.074-.029-.174.014-.104.108v-.093.097l.197-.097H266v.05l.035-.062.016-.004-.051.086v.022l.018-.093h-.056l-.048.131.05-.041.007-.09h.049l.022.02.008-.02H266v.367l.088.061-.064.004-.024-.059v-.372.296l.117.122.09-.163.168-.255H266v1h.373l-.023-.01-.007.01h-.032l-.038-.181.042.122.007.059h.056L266 36.51v.372-.121l.395.121h.035-.016l-.016.051-.01.022-.012.007-.016-.001-.014-.007-.012-.009-.011-.012-.012-.014-.009-.015-.007-.012-.008-.012H266v.013l.146.022.077.022.044.021.026.021.022.02.019.017.018.015.018.011.019.011.021.007-.207.002-.203.003v-.184h.424l-.001.146-.044.095-.037.067-.028.059-.016.055-.004.052.008.052.021.044.031.037-.165.03-.189.006v.259l.148.094.04.093-.012.091-.04.089-.038.064-.027-.038-.077-.102-.078-.104-.074-.105-.072-.108-.068-.108.139-.302.16-.006v-.002l-.096-.031-.035-.044-.012-.051-.009-.057-.016-.055-.024-.053-.035-.047-.044-.067-.052-.053H266v.037-.104l-.141-.004-.06-.009-.021-.011-.001-.014.009-.017.011-.02.012-.021.01-.024.009-.024.088-.027.084-.026v-.026l-.09-.004-.049.02-.029.019-.021.019-.016.016-.015.014-.018.014-.015.012-.018.01-.017.008-.018.084-.017.082H266v-.419.002-.04l-.294.457H266V36.169l-.135-.136-.135-.148h.063l.049.076-.045-.074-.009-.002h-.067.279v.146l-.301-.146h-.035.059l.096.07.124-.009.057-.16v.096-.1l-.079.1h.034l.002.032.054.046.009-.008.066-.028-.002-.042h.111l.056-.134-.057.032-.01.102h-.058l-.126-.331v-.024l-.035-.1.042-.006-.007.071v.39-.331l-.046-.104-.067.178-.15.257h-.084l-.002-1H265.722l.112.12-.115-.106-.009-.014h.29v.211l-.23-.066.144-.006.086.067v-.206h-.516l-.113.229.115.188.009-.208.048-.21H266v1h-.531l-.088-.253-.232-.097-.149.015v.336h.299l-.002-.025-.009.025H265v-.385l.071-.07.001-.006-.072.1v.024l.08.336h-.064l-.056-.07.056.063.01.007h.057l.026.022.009-.022H265v-.016l.131.07-.088.004-.043-.069v.012-.1l.168.143.119.032.208-.075H266h-.492.002-.016l-.028-.012-.008.012h-.038l-.044.148.049-.038.01-.11h.063l.502.288v.032l-.279.061.109.051.17.068v.5-.421l-.482.421h.042-.02l-.019-.082-.008-.043-.018-.027-.016-.019-.015-.017-.015-.016-.014-.016-.012-.017-.011-.019-.01-.018-.202-.02-.2-.001v.028l.199.026.104.026.059.025.036.023.026.021.023.02.021.019.021.014.022.01.022.008.01.004.014.003.002.127-.007-.04-.05-.02h-.002l-.042.078-.032.068-.02.062-.005.061.011.059.022.053.036.044.047.032.02.008.002.302-.068.108-.07.107-.075.106-.077.104-.078.102-.084.099-.087.096-.088.094-.091.091-.094.089-.097.085-.098.084-.098.113-.082.124-.066.136-.046.143-.028.148-.008.148.01.151.031.147.049.143.068.134.08.118.088.104-.289.004-.171.026.003.181.133.004.045 2.022-.251-.013V41.738l-.032-.17-.048-3.675.184-.008.032-.017.042-.874-.178-.024v-.062l-.06-.767-.169-.021-.008-.034.021-.251v-.309l-.028-.308-.058-.304-.09-.297-.117-.287-.146-.273-.173-.259-.196-.24-.221-.219-.24-.196-.276-.211-.269-.22-.264-.228-.255-.238-.247-.245-.239-.254-.231-.263-.223-.27-.214-.276-.663-.872-.006-.501.069-.032.057-.049.042-.062.023-.072.006-.077-.002-.008-.016-.076-.034-.069-.05-.06-.064-.042.193-.004.148-.02V28.852l-.181-.006-.079-.009-.029-.012-.006-.014.007-.019.011-.021.011-.023.011-.024.009-.026.124-.028.122-.028v-.028l-.137-.015-.067.021-.038.02-.025.019-.02.018-.018.016-.017.013-.018.013-.019.009-.018.01-.018.074-.019.073h-.005.419v-.445l-.385.445H260V28.169l-.184-.148-.168-.138h.066l.051.073-.049-.067-.018-.006h-.07.372v.135l-.393-.135h-.031.064l.09.055.018-.005-.061-.069-.002.02H260v-.133l-.155.133H260v-.045l-.005.075-.015.016.054-.016-.019-.03h.116l.059-.151-.06.045-.017.105h-.061l-.052-.368v-.027l-.074-.105.061-.016.013.074v.44-.369l-.086-.107-.098.19-.174.286h-.08l-.003-1h.075l.117.09-.018-.001-.121-.089h-.033l-.002.054-.068-.025-.229.008-.28.096v-.132h.374l-.116.198.12-.042.019-.156h.05H259v1h.355l-.266-.287-.089-.097v.384-.369l.172.369H259v-.426l.013-.074.028-.016-.041.105v.027l-.047.384h-.068l-.057-.089.059.069.02.02h.057l.021.012.019-.012H259v-.046l.074.076.02.015.058-.017-.003-.028H259v-.135l.111.15.102.053.186-.069h.053H259h.387H259.313l-.048.143.053-.038.019-.105H259v.428l.253.302.188.271H259v-.418l.427.418H259.463h-.02l-.02-.073-.018-.041-.018.057-.018.057h-.004l-.01-.095-.014-.058-.014-.038-.012-.028-.008-.026-.15-.023-.157-.016v.029l.146.028.079.028.046.026.029.025.024.023.021.021.021.018.02.013.021.016.023.012.023.009.007.002.003.144-.06.018-.008.004-.063.042-.05.057-.032.069-.137.076-.113.074v.009l.148.074.106.063.088.051.085.033.015.502-.641.855-.206.271-.217.265-.227.259-.237.249-.244.242-.253.233-.262.225-.27.216-.278.206-.241.194-.22.218-.196.237-.17.261-.142.274-.113.289-.083.299-.052.307-.02.312.012.312.037.26.004.026-.146.022.013.76.002.023h-.003l-.051.033-.182.035.017.893.083.021.152.008.013.739-.052-.044-.082-.079-.08-.08-.077-.084-.074-.086-.073-.086-.07-.091-.068-.091-.063-.093-.063-.095-.004-.26.017-.006.04-.028.031-.037.02-.044.008-.047-.007-.05-.017-.045-.029-.041.163-.03.159-.02V37.06l-.184-.003-.081-.008-.032-.01-.01-.013.003-.014.007-.012.009-.019.009-.021.007-.021.137-.023.135-.023v-.023l-.152-.003-.073.017-.04.016-.024.016-.019.014-.017.013-.014.011-.014.01-.015.008-.016.007-.015.005-.011.063-.004-.163H255h-.399l.172-.111.227-.14v-.115l-.361.363h.056l.041-.246-.04.094-.021.152h-.031l.356-.467v-.032l-.4-.5h-.022.039l.084.25.019.085-.05-.203-.002-.132H255v.291l-.2-.291h.2v.362l-.042.062.003.002.039-.06v-.366h-.041.078l.047.072-.049-.066-.02-.006h-.039l.024.091v-.021l-.098-.086.064-.004.034.061v-.041h-.223.223v.091l-.107-.09-.105-.034-.161.033h-.064.061l.097-.14-.099.029-.021.11h.4v-.304l-.269-.06-.349-.004-.383.061v.308h.403l-.097-.045.101.072.021-.027H254.471h-.064l-.076-.031-.02.012.064.028.002-.009H254v.09l.238-.09H254v.043l.061-.061-.005-.003-.056.086v.021l.059-.087h-.055l-.047.129.049-.039.02-.09h.037l-.028.167-.035.127v.069l.111.062-.068.002-.043-.06v-.366.291l.141.123.113-.162.178-.252h.039H254v.533l.193.224.195.243h-.031l-.037-.184.043.124.02.06H254v-.348.348-.125l.457.125H254.482h-.012l-.015.045-.015.021-.014.005-.013-.005-.013-.007-.012-.012-.012-.013-.01-.014-.007-.016-.175-.017-.184-.002v.023l.172.022.091.023.05.021.031.02.023.02.02.017.018.015.021.013.018.009.021.008.02-.142.002-.034h-.003l-.044.165-.038.104-.028.076-.017.062-.004.059.011.052.02.048.033.038.041.028.016.008.006.26-.058.094-.063.092-.062.092-.068.089-.07.087-.071.086-.074.083-.077.08-.08.078-.082.077-.086.073-.086.072-.086.098-.072.109-.057.117-.041.122-.023.129-.005.13.011.13.027.129.046.122.062.117.072.102.081.091-.134.002-.335.018-.128.156-.021.001v.069l-.121.454h-.08l.088-.334.08-.233.063-.193.047-.169.026-.163.008-.158-.013-.152-.033-.149-.053-.143-.069-.137-.089-.124-.103-.113-.104-.084-.101-.085-.1-.089-.096-.091-.094-.094-.092-.097-.088-.1-.086-.102-.082-.104-.08-.105-.076-.107-.072-.11-.007-.303.021-.007.047-.032.035-.043.023-.051.008-.057-.006-.055-.022-.055-.034-.046-.045-.036.127-.021.173-.026v-.103l-.15-.005-.066-.008-.022-.012-.003-.015.007-.017.013-.019.01-.022.01-.024.007-.024.1-.027.094-.026v-.027l-.119-.004-.055.021-.031.019-.022.018-.017.016-.017.016-.015.013-.017.012-.018.009-.016.091-.019.09h-.015.048l-.002-.018-.025.018h-.004l-.002-.27.062-.186.156-.109.128-.122v-.021l-.299-.295h.063l.048.072-.047-.072h-.064l.299.17v-.033l-.35-.137H251.628h.043l.097.066.159-.011.073-.159v.104h-.142l.003.025.025-.025h.018l.002.027.056.047.026-.011.064-.024-.002-.039h.111l.056-.139-.058.035-.026.104h-.041l-.092-.34v-.025l-.055-.101.044-.004.011.071v.398-.34l-.066-.104-.094.183-.158.262h-.068l-.003-1H251.682l.111.115-.117-.105-.027-.01h-.02l-.002.076-.066-.005-.027.026-.064-.044.002-.054h-.049l-.112.223.117-.052.026-.171h.044l.003 1h-.072l-.088-.258-.026-.099.075.2.002.156h-.131l-.002-.025-.027.025h-.006l-.002-.223-.062-.157-.052-.047-.11.058v.026l.021.345h-.064l-.055-.074.057.064.027.01h.04l.026-.03.02-.035.003.061.067.062.027-.002.053-.021-.002-.034H251v-.108l.142.143.124.036.194-.07H251.501h-.044l.002.105-.025-.062-.026-.043h-.037l-.044.145.05-.034.027-.11H251v1-.429l.491.429h.021l.005.049-.009-.107-.018-.059-.017-.034-.018-.022-.016-.019-.014-.017-.014-.016-.014-.017-.01-.02-.011-.018-.007-.021-.027-.003.002.028.004.027.007.025.011.025.011.023.015.021.017.02.019.019.021.014.02.012.023.008.023-.023.003.103h-.003l-.053.051-.043.05-.033.053-.019.056-.006.058.012.058.024.052.039.044.047.032.021.008.006.301-.068.11-.071.108-.076.105-.079.104-.08.102-.086.099-.087.097-.09.094-.094.092-.096.089-.101.084-.1.084-.101.114-.085.126-.065.137-.048.143-.027.149-.006.15.014.152.033.147.055.143.072.137.083.118.095.102-.112.002-.45.025.004.182.137-.218.061 2.463h-1.232l.09.442V43.496l-.056.088-.032.085-.022.082-.021.077-.017.072-.019.066-.02.061-.021.052-.021.045-.023.036-.023.026-.05.06-.041.067-.008.012-.045.095-.043.246-.024.216h-.541.027v-.201l-.023.061-.016.057-.011.056-.013.053-.011.049-.011.043-.014.04-.015.035-.007.015-.008.016-.017.024-.017.017-.031.034-.028.042-.028.054-.026.062-.025.071-.023.079-.019.089-.017.092-.016.1-.012.104-.008.107-.007.109.006.181-.048.013.035 1.414-4.133-.011-4.205-.884-.17-4.58-1.082-.026v-.032l-.08-.044-.24-.02-4.776-1.581.214-2.24-.118-.006v-.042l-.279-.006-.205-.004-.419.032-.02-.759.074.184.087.202h.097l.093-.199.08-.067.021-.033-.009-.012-.289.053-.231.159v.268l.303-.067.169-.078.091-.088.035-.088.003-.142-.004-.141-.009-.149-.014-.085-.035-.081-.052-.073-.071-.064-.082-.049-.093-.04-.098-.023H232.004l-.001.008-.003 1.364-.488-.203-.09-.169h-.004l-.418.35v.043l-.046.005.073 2.129-4.779 1.473h-.049l-.32.141.121.143v.038l-.776.021-.114 4.578-4.08.883-3.003.008.022-1.021-1.334.005.051-1.662.006-.297-3.595.024-4.789.401-.005.263-.039 1.46-1.022.039-.053 2.061-.88-.002-.422-.007-8.788.237.03-1.314h-.562l.017-1.185.004-.292-1.941-.054-1.591.103-.002.139-.014.855-.485.016-.02 1.233-.227-.005-3.251-.004.06-4.3-.843.008.052-3.909-.2-.055-.33.046-.127.003.013-1.076-1.206.021-.398.229-.039.856-.119.015v.117l-.203.117-.29.043-.034 3.699-.22.059-1.187.009-.474.135.021-2.066-.166.096-.221.148h-.066l.008-.896-.867-.052-.211.09-.006.632-.152.01-.002.081-.076.038-.206.021.041 2.231-3.689.024v-.016l-.299.002-.024-.942-.751.01.074.082v.128l-.379.002-.203.075-.055.674-.68.005.018-5.635-.779.016v-.463l-1.426.028-.022.077-.212-5.355-1.262.032v-.579l.199-.121-.003-.112-.11-.078.034-1.91-.013-.104-.083-.095-.025-.08.001-.038v-.384l-.306-.064-.694-.472v-.003l.307-1.146.074-.034.014-.031-.024-.025-.034-.016-.138-3.931.073.002.104.012.006.002.484-.075.39-.315.198-.368.042-.357-.057-.381-.067-.366-.264-.365-.242-.047.28.669.055.479-.074.414-.324.335-.602.062-.601-.072-.057-.059.659-.465.626.475-.243-.718.555-.351-.674-.007-.262-.768-.276.764-.642-.004.497.397-.24.675-.267-.278-.072-.417.057-.479.283-.664-.242.043-.266.361-.068.365-.059.381.039.359.197.37.39.32.482.084.007.159.103.151h.062l-.16 3.783-.045-.063-.045-.009-.027.013-.028.024.116 1.125v.002l-.386.504-.009.064.003.385-.12.045-.151.091-.093.102-.025.105-.004 1.906-.165.086-.121.119-.034.122-.002.577-1.146.035-.244 5.225-1.503.025v.455l-.514.014.077 5.525-.563.005v-.659l-.003.395H166v-.591l-.141-.079-.859.008v.931l-3.74.024-.086-2.133-.147-.017-.027-.035v-.082l-.223-.014-.042-.619-.211-.109-.796-.005-.007.721h-.059l-.197-.002-.153.039.011 1.952-.382-.107-1.061.009-.201-.053-.021-3.48-.363-.03-.295-.104v-.111l.014-.01.042-.785-.321-.199-1.043.02.012.981-.106.003-.284-.034-.174.059.029 3.637-.725.005.033 3.986-2.823-.002-.191.004-.013-1.131-.423-.015-.027-.788v-.142l-1.291-.11-1.577.006.006.355.015 1.047h-.453l.017 1.201-6.803-.109-.316-.092h-.663l-.032-1.786-.759-.031-.022-1.258-.003-.226-3.468-.294-2.54.018.007.249.029 1.388-.92.132.126 5.809h-1.146l-.005-.312-.053-.095-.013-.551-.057-.153-.026-1.021.096-.045-.002-.081-.098-.048-.018-.723-.006-.196.148-.107-.005-.177-.15-.062-.005-.178.141-.25-.005-.072-.181.072h-.049l-.039-2h.34l-.008-.211-1.037-.538-1.766-5.251h.097l-.034-2H128v.191l.05.007-.087.153.129 1.648h.096v-.154l-1.485 5.262-.923.593-.178-.063-1.081-.353-.033-1.844.158-.007-.005-.274-.607-.403.164-.257-.18-.567.36-.605.335-.137-.643-.121-.255-.068h-.592l-.085-5.186.391-.588-.562-.227h.008l.025-.661v-.04l-.08-.343-.098.042h-.414l-.096-.273-.055-3.521.296-.082.21-.239-.008-.448-.271-.066.069-.13.242-.167.091-.094.202-.287.113-.622-.134-.866-.731-1.137-.967-.918-.115-.139-.204-.243-.014-.017-.001-.001-.016-.019-.419-.503-.373-.725-.186-.848-.06-.621.038-.019.076-.078.051-.101.016-.111-.004-.039-.02-.112-.051-.098-.08-.074-.098-.044-.02-.004-.011-.786.155-.019.009-.021-.021-.145-.146.019-.017-1.22.767-.006-.003-.021.014-.002v-.001l-.002-.159-.778.068-.003-.063h.111l.008.062-.002-.062H119.679l.321-.371v.373h-.436l-.008-.061.002.061H120v.004l-.931.006-.087-.062-.078.053H119v.165-.165.191l.721-.006-.002 1.241-.164.021-.013.021.017.145.143-.019.012.765-.023.005-.098.049-.078.078-.049.101-.016.113.006.037.018.111.051.099.079.074.036.016-.043.629-.159.857-.339.71-.469.601-.367.153-.263.016v.002l.232.019.016.14-.854.926-.651 1.143-.028.114-.099.863.131.608.207.274.31.198.073.127-.102.026-.102.217.005.426.387.036.104.121.029 2.277-.177.474h-.287l-.002 1h-.07l-.03.049-.013.498.002.189-.004.264h-.143l-.053-1.305.119-.133v-.002l.049.002.039-.294-.088-.05v-.003l-.118-.01-.11-.091.225-.14.188-.233.122-.48.046-.549-.113-.444-.282-.442-.033-.04-.413-.409-.343-.265-.059-.044-.016-.013-.016-.012-.24-.186-.381-.366-.013-.015-.015-.014-.006-.005-.027-.04-.016-.022-.014-.021-.024-.036-.058-.099-.052-.093-.045-.086-.049-.067-.005-.006-.067-.066-.053-.527.054-.026.086-.085.052-.108.019-.121-.021-.121-.054-.11-.014-.023-.082-.081-.104-.051-.02-.002-.008-.85.171-.022.004-.015-.021-.156-.156.097-.008-.718h.189-.187l-.003-.515.816-.235-.002-.25H116v.133l-1 .005v-.138h.031l-.031-.022v.02h-.275l.275-.273v.273h-.277l.002.138-.825.007-.003.017.002.154h.051l.05-.002v-.315.332-.332h.104l-.104.425v.576-.315l-.34.003-.202.002-.163-1.315-.23-.142-.25-1.636-.199-.119-.23-1.501-.192-.117-.087-1.657.141-.301.168-.356.359-.166-.369-.32.392-.337-.773-.091-.012-1.968-.385-.11-.033-.12.049-.03-.255-.829.027.02-.003-.12-.071-.052-.574-1.872-.714-2.496.161.115-.008-.141-.202-.145-.075-.259-.054.015-.081-.264-.131.089.148-.331-.003-.716-.01-.345-.107.002-.077-.074.2-1.708.078-.033.105-.145-.056-.095.009-.003.146-.1.108-.139.135-.186.086-.213.025-.24-.026-.229-.112-.285-.105-.19-.113-.162-.145-.136-.176-.114-.236-.119-.213-.14-.189-.191-.136-.216-.068-.29-.045-.688.047-.028.073-.073.049-.095.016-.106-.017-.108-.023-.067-.043-.091-.07-.066.006-.035.075-.007v-.683l.057-.022-.049-.037-.039-.138-.142.019.228-1.149.945-.013V.409l-.146-.039-.854.012V.142l.051-.04-.051.002V.039L108.902 0l-.205.002.207.104.096.002v.139l-.05.04.05-.002v.1l-1 .013V.55l.148.039.852-.013v1.171l-.32.021-.084.038.146.139.258-.019v.658l-.229.022-.145.037-.116.073-.07.094-.025.107.009.109.022.066.043.091.066.066.033.013-.041.686-.068.296-.133.216-.184.188-.21.141-.232.119-.173.115-.143.137-.113.164-.118.19-.111.286-.025.23.025.239.088.212.123.186.108.138.147.099.025.011-.06.089.096.144.11.05.198 1.61-.118.076h-.078l.299.199v.719l-.123.24.102.401-.364-.081-.166.483-.146.101.018.141.049-.039-1.618 5.344.271.068-.489.151-.074 1.957-.791.11.401.271.045.102-.235.279.35.162.164.35-.098 1.955-.196.119-.228 1.5-.207.122-.254 1.634-.247.143-.252 1.52-.286.046H104v.512l-.254.26-.224.229H103v-.383l.221.028.133.146.055-.094.029-.052-.043.061.076.112.07.05-.541.004v.151h-.005l.005.002v.012l.551-.004.039 1.191-.131.014.01.138.004.012.099-.013.024.438-.004.29-.019.004-.042-.033-.455-.546-.156-.447.08-.021v-.003l-.104-.02-.06-.025-.034-.021-.014-.003-.01-.006-.008-.022-.129-.545-.116-.776.089-.043.086-.085.055-.107.021-.119-.019-.121-.056-.11-.085-.088-.024.032-.097.003h-.013l.004-.896.174-.049-.02-.167-.011-.023-.143.017.006-1.31.799.221-.002.208h.014l-.303-.457v-.151l-.099-.019-.901.006v-.381h1v.088l-.39-.088H102v-.027l.086-.02-.086.003v.272l.189-.228H102v.382l-.668.007.074.39.076.221h.014l-.002-.203.809-.116-.006 1.275-.171-.006.019.141.011.012.142-.023-.004.817-.024.005-.109.052-.087.083-.056.108-.02.119.019.122.055.109.086.089.025.019.063.031-.122.782-.139.569-.308.549-.438.525-.066.053-.015.013-.001.001-.015.012-.218.176-.032.027-.528.432-.438.41-.091.09-.299.418.005-.745.099-.115.396-.044.002-.422-.144-.137.03-.008.355-.284.235-.353.112-.409.036-.416-.03-.358-.147-.443-.206-.376-.163-.195-.266-.318-.427-.359-.515-.332-.26-.188-.014-.012-.003-.002-.013-.009-.029-.021-.182-.19-.03-.029-.048-.051-.193-.249-.189-.339-.043-.049-.127-.061-.183-.684-.118-.796.039-.018.083-.078.053-.1.02-.111-.017-.112-.052-.103-.08-.083-.028-.036-.088-.058h-.007l.007-.766.163-.016-.019-.139-.014-.019-.129.018-.067-1.208.66-.002v-.028l.171.161h.013L98 20.737v-.149l.078-.021-.703.222.049.094h.115l.002-.561-.015-.439H97v.316l.411-.316H97.127l-.003.561.015.439H97v-.307l-1 .007v.3-.127l.484.127h.006l.001-.06v-.031l.747-.022-.013 1.224-.159.017.016.142.016.019.127-.017-.008.754-.022.007-.103.049-.081.079-.054.099-.019.112.017.111.052.104.08.082.028.021.01.005-.133.781-.203.697-.166.076-.196.326-.208.248-.015.018-.003.002-.006.009-.006.006-.307.294-.002.008-.029.017-.326.225-.557.337-.463.362-.292.321-.218.368-.159.442-.038.36.027.425.108.418.233.368.358.304.035.023-.174.038-.005.43.341.214.165.013-.046 3.952-.116.225h-.331l-.109.025-.077.399-.015.575h.003l-.566.192.393.699-.062 5.108h-.592l-.254.064-.641.216.336.087.361.571-.176.548.163.244-.607.397-.004.269.157.002-.025 1.744-1.258.397-1.133-.48-1.76-5.06H89h-.407l.027-1.615-.317-.071-.303-.082v.008l.083.148.122 1.611h.062l-2.003 5.174-1.33.65-.006.176h.409l-.032 1.549-.278.101-.004.225.172.254-.004.187-.183.055-.004.175.179.105-.019.88-.001.033-.116.037-.003.08.115.04-.021.997-.068.135-.007.327-.236-.203-.062-.258-.18.154-.011-.025-.312-.259-.212-.883-.169-.307-.288-.291-.132-.107H83.383l-.016-1H83v.386l.056.002-.063-.005-.008.552.015.001v.007l-.044.003.037.244-.116.004-.267.186-.146.304-.003.018-.16.858-.29.183-.132.258h-.013l-.249-9.43-1.14.016-.228-8.763-.454-.023-.063-2.415-.274-1.896-.077-2.951-.054-.005.013-.019-.346-.406.417-.531.041-.063.081-.673-.389-.596-.829-.472-.523-.494-.327-1.212-.264 1.229-.484.514-.783.507-.347.609-.027.068.112.658.475.546-.291.384-.007.019-.064.009.072 2.938-.168 1.796-.342-.401-.787-.343-.497-.359-.304-.873-.259.882-.471.372-.758.365-.338.438-.011.04.102.475.449.391-.291.286v.001l-.171.016.076 3.228-.214.014.034 1.458-.238-.562-.366.982-.985-2.74.108-.002-.018-.895-.179-.115h-.031l-.026-1.01-.199.068.026 1.13-.21.017.017.796.11.011-.768 2.751-.148-.566v-.099l-.129.002-.241-.295-.63 1.386v.015l-.212.194.009.043-.317-.221-.312-.11.329-.658-.064-.742-.571-.734-.786-.422-.5-.561-.204-.771-.01-.487-.157.022.009.465-.172.772-.477.563-.764.426-.542.736-.032.739.153.287.004.207.058-.004-.495.174-.374.255-.228-.15-.485-.168-.479.169-.4.271-.256.403-.075.474.123.465-.163.232.034 1.921h-1.852l-.011-1h-.166l.01 1h-.981l-.012-1h-.161l.009 1h-.936l-.012-1h-.164l-.024-1.42-.213.035.025 1.385h-.163l.013 1h-.412l-.149.111-.024-.111h-.453l-.021-1.067-.16.017.019 1.051h-.125l.011.589-.021.091-.114.025-.195.213-.223-.235-.339-.101-.336.098-.164.148-.032-1.828h-.173l.165-.444-.007-.483-.193-.491-.381-.395-.53-.307-.25-.307-.017-.968-.126.012.017.957-.241.31-.52.311-.12.132-.068-.071-.512-.299-.243-.302-.017-.935-.118.011.017.924-.235.303-.504.302-.144.156-.01-.594-.343-.554-.6-.484-.447-.232-.355-.551h.008l-.016-1.207-.112.119.016 1.088h.001l-.324.545-.431.344-.584.433-.327.525.009.584-.211-.229-.53-.314-.26-.323-.016-.956-.105.008.015.944-.251.324-.521.311-.023.025-.449-.263-.253-.314-.014-.923-.099.009.014.912-.245.316-.505.302-.356.387-.168.482.006.447.175.425h-.168l.028 2.038-.505.05-.068-.175-.201-.179-.305-.292-.089-.442h.013l-.01-.611-.085-.085.01.696h.014l-.082.445-.224.178-.286-.235-.087-.388h.013-.097l.01.539.013-.111-.081.217-.296.095-.191.166-.001-.004-.068-.028-.002-.223.232-.438-.009-.604-.391-.454-.522-.204-.211-.315-.011-.908-.094.004.012.904-.202.315-.519.204-.376.454-.076.604.155.433v.352h-.213l-.226-.24-.09-.353.011-.034-.012-.798-.075-.178.009.603h.01l-.082.445-.188.162-.25-.219-.087-.389h.009H35.733h.018l-.081.578-.282.422H33h.207l-.139-.447-.068-.227v-.101l-.274-.113-.146-1.111h-.146l.012 1.107-.268.046-.009-.734-6.755-3.054-.006-.723-13.142-.124-.002-.519h-.822l-.17-.08-.01-1.993-.114.105.002.449-.815.01-.425-.52-.773-.626-.765-.346h-.49l-.006-1.03-.48-.415-.882-.29-.002-.44-.372.177h-.173l.322-.697-.379-1.155-.045-6.148H5.82l.18-.477v.008l-.182.469h-.046l.001 6.062-.366 1.163.321.775h-.134l-.396-.164-.014-.068.001.567-.843.288-.462.453-.036-.041.003.965h-.404l-.733.351-.735.585-.168.546-.807.027v-.433l-.245-.07-.113 2.131-.121-.137H0v22h271v-6h-.352zM85 52.512l-.079.159-.007.211h-3.032l-.004-.271.353-.031.902.001.971-.008.729-.028.167-.05v-.018.035zm4.266-3.306l-.177.06-.003.176.174.104-.012.691-.069.217-.179.043v.08l.176.04.014.999-.048.134-.192.363-1.95-.009v-.223h.322-.059l.01-.548-.06-.14.017-.863.002-.106.111-.159.001-.184h-.109l.018-.791.173-.08.002-.129h-.17l.004-.195.172-.245.004-.133.05.262.04.312h.046l-.081-.086.063.197.126.11.049-.034.131-.16.074-.285-.066-.067.046-.016.045-.145.076-.133.103-.109.125-.083.109-.04.096-.012.064-.08.038-.058h.057l-.079.273.06.367.123.194.045.012.126-.133.07-.261-.064-.062.035-.01.014-.042.052.06.072.294.039.308h.027l-.045-.148-.004.129.168.207-.002.137zm24.584-22.485l.37-.003-.339.003-.033.003.002-.003zm.144 2.524l.049.098.014.018.072.073.083.042-.093.657-.104.467-.011.028-.142.142-.005.004-.019-2.473.157-.251.076-.522-.261-.267-.234-.239-.041-.284.311-.002.368-.002.011 1.188-.15.02-.003.013.019.138.136-.017.007.731-.023.006-.096.047-.074.075-.048.097-.016.106.017.107zm.384-2.804h.109l.003-.016-.002-.139-.111.001-.002-.077.352-.002.002.354-.35.003-.001-.124zm.343 2.111l-.107.053-.085.086-.053.108-.005.035-.056-.026-.019-.003-.006-.753.152-.019.002-.015-.018-.136-.138.017-.009-1.167.35-.003.006.818-.17.021-.002.017.021.154.152-.019.008.825-.023.007zm14.795 23.33h-.05.007H129v.406l-1.646-.008.094-.404-.002-.135.004-1.013.106-.041.004-.079-.091-.056-.015-.749-.003-.159.145-.107-.004-.177-.147-.072-.003-.166.139-.251-.006-.096-.025.106h.023l.033-.265.062-.192.087-.141.105-.1.051-.028.055.102.037.377.027.247h.004l-.056-.172.062.154.11.089.029-.018.105-.163.051-.043-.068.152h.051l.031-.381.031-.185.061-.012.09.081.068.119.04.256.028.121h.012l-.056-.049.064.225.117.125.028-.002.109-.161.054-.168-.07.03h.04l.035-.26.061-.192.086-.139.107-.1.011-.013.046.333.034.373h-.003l.006-.043.145.135.006.152-.142-.032.004.155.144.112.012.279.011.241h-.092l.003.271.092.149.022 1.023-.048.08.011.479z"/></svg>