<svg xmlns="http://www.w3.org/2000/svg" width="403.893" height="101.748" viewBox="0 0 403.893 101.748"><path d="M402.314 98.625v-7.721h-2.251l-1.307-.617h-.418v.315h-4.424v-.254l-2.293-.605v-.526h-.968v-3.413l-.448-.442h-.901v-2.378l-.424-.357v-.932h-.799v-2.457h-.188v-.654h-.151v-.381h.151v-.696h-.139v-.387h.139v-.569h-.139v-.375h.139v-.654h-.121v-.351h.121v-.593h-.108v-.267h.108v-.774h-.121v-.387h.121v-.642h-.127v-.302h.127v-.654h-.121v-.362h.121v-.884h-.139v.218l-1.955-1.21v-.399h-.169v.073h-.133c.048-1.942.665-4.2.665-4.2l-.061-.084c-.521 1.131-.992 4.151-.992 4.151l-.061.012c0-.908.515-2.941.515-2.941l-.055-.036c-.532 1.386-.793 3.298-.793 3.298l-.151.151c-.508 1.246-.992 3.957-.992 3.957h-.75v5.374c-.163 1.004-.218 2.299-.218 2.299h.218v.339h-.236c-.345 2.287-.212 6.62-.212 6.62h-.799v-.436h-.551v-.121h-.296l-.261.145h-.356v.363h.115v.218l-.17.157v.763h-.557l-.43.314h-1.761l-.411.212v.333h.127v1.017h-.509v.375l-1.089.696v2.681h-1.102v-1.041h-.127v.521h-.932v-2.142h-.345v-.157h-.363v.139h-.478v.272l-.502-.545h-.399v.242h-.296v-7.709h-.569v-.157h-.296v.127h-.666l-.146-.139h-.188v.139h-2.904v-.236h1.107v-.157h-2.578v.188h.775v.236h-1.894v-.206h-.224v.224h-.278v-8.296l-.352-.339v-3.746h.146v-.206h-.841v-.539l.175-.145v-.218h-.224v-.157l.224-.194v-.218h-.206v-.169l.206-.121v-.17h-.285v-1.682h-.345v-.908h-.411v.157h-1.156v-.932l-1.591-4.78v-6.632h-.302v6.596l-1.676 3.498v2.112h-.423v.175h-1.107v-.109h-.218v.363l-.085.139v1.228h-.254v.303h.193v.266h-.193v.321h.193v.284h-.206v.267h.206v1.216h-.521l-.266.429v3.407h-.133l-.229.369v7.757l-.109.109-.859.671v.484h-.381v-2.693h-.399v-1.416l-.236-.182v-1.5l-.188-.103v2.989h-.865V80.58h-.169v.78l-.418-.236h-1.349c-.024-1.809-.084-3.498-.182-4.816-.448-5.706-2.523-18.843-2.747-20.256-.218-1.413-1.283-7.031-2.208-11.01-.926-3.981-2.3-8.965-2.3-8.965V32.48l-.115-.175-.121.175v3.597s-1.368 4.983-2.299 8.965c-.932 3.979-1.991 9.597-2.215 11.01-.218 1.413-2.299 14.55-2.735 20.256-.181 2.299-.218 5.712-.194 8.967h-2.965v2.33h-.932l-.774 1.785h-5.434v1.089h-2.638l-.774-1.089h-3.256v5.276h-.853v1.628h-.798V65.333l.181-4.98h-.599v-.296h-.629s-1.507-7.071-5.065-12.804c-2.596-4.188-6.922-7.025-9.071-8.253v-1.334h-.066v-1.888h-.066l-.012 1.891h-.127v.484l-.073.06v.59c-.587-.324-.944-.493-.944-.493v-2.999l-.109-.166v-1.613h-.042l-.024 1.61-.085.078v1.916l-.411.511v.408h-.176v.157h.176v.182h-.176v.154h.176v.182h-.176v.157h.176v.182h-.176v.157h.176v.182h-.176v.157h.176v.182h-.176v.157h.176v.182h-.176v.157h.176v.182h-.176v.154h.176v.185h-.176v.154h.176v.182h-.176v.157h.176v.182h-.176v.157h.176v.182h-.176v.157h.176v.182h-.176v.157h.176v.179h-.176v.157h.176v.182h-.176v.157h.176v.182h-.176v.157h.176v.182h-.176v.157h.176v.182h-.176v.157h.176v.182h-.176v.157h.176v.178h-.176v.158h.176v.181h-.176v.158h.176v.181h-.176v.157h.176v.182h-.176v.157h.176v.182h-.176v.157h.176v.182h-.176v.154h.176v.182h-.176v.157h.176v.182h-.176v.157h.176v.182h-.176v.157h.176v.182h-.176v.157h.176v.182h-.176v.157h.176v.182h-.176v.154h.176v.181h-.176v.158h.176v.181h-.176v.158h.176v.181h-.176v.158h.176v.181h-.176v.158h.176v.402h-.896v-4.602l-.605-.919h-.944v-2.505h-.472s-3.183 1.395-7.733 6.771c-6.244 7.385-6.801 16.326-6.801 16.326h-.248v-.212h-.454v24.49h-.629v5.271h-1.9v2.523h-.278v-8.84h-4.926v2.989h-.345v5.851h-.932v-3.509h-.769V10.986l-.253-.236h-.375v-.07h-.399v.069h-7.212v-.139h-.194v.139h-7.212v-.069h-.399v.069h-.375l-.26.236v73.208h-1.083v9.603h-.993v-.992h-1.162v.992h-.714v-52.8l-3.146-2.883h-.509v-4.626l-4.623-6.453v-11.77l-.218-.423-.206.423v11.77l-4.629 6.453v4.626h-.502l-3.146 2.883V97.15l-1.21-1.634h-7.286v-9.161l.472-.327h.896l.956-1.331h-2.324V68.564l.315-.544h1.755v-.714l-.352-.406h-1.694v-1.749h.436v-1.725l.575-.284v-.896l2.608-2.554v-.69l-1.029-.799v-.52l-1.809-1.894v-1.694h-.345l-.23-.433h-.345l-.176.433h-1.428V34.572l-.23-.372-.23.372v19.524h-1.44l-.169-.433h-.345l-.23.433h-.345v1.694l-1.81 1.894v.52l-1.034.799v.69l2.614 2.554v.896l.575.284v1.725h.43V66.9h-1.694l-.345.406v.714h1.749l.321.544v16.132h-2.687l-1.755-1.507h.115l-1.562-1.216h-10.081l-2.003-1.404-.568-.732s-.735-.103-3.038-.236c-2.302-.133-4.838-2.335-7.307-4.066-2.472-1.743-5.633-1.755-5.633-1.755v-.23l-.091-.097s-.033-.199-.033-.738c0-.532-1.053-.702-1.053-.702l.036-.084v-.236l-.285-.115-.284.115v.236l.033.084s-1.05.169-1.05.702c0 .539-.036.738-.036.738l-.091.097v.23s-3.162.012-5.63 1.755c-2.469 1.73-5.007 3.933-7.31 4.066s-3.038.236-3.038.236l-.566.732-2.003 1.404h-10.078l-1.57 1.216h.118l-1.752 1.507h-8.91l.95 1.331h.901l1.301.92v.532l.851.799h.853l1.223 1.222v.363l1.138.774h.526l1.525 1.004v.629l1.252.847h.626l1.177.871v.557l1.174.799h3.28v2.614h-2.46l-1.4 1.265v.32l-.642-.381v-1.857h-6.284V95.83h-2.792l-.542.617h-2.484v-1.004h-4.808v-7.056h-1.627v-1.319l-.391-.587h-1.64V70.67l-4.248-57.951-4.108-3.691-2.962.575V3.11h-.521v6.65l-2.666.505V.495L118.667 0h-.369v10.375h-.487v34.312s-1.186 2.856-1.186 4.808c0 1.949 1.022 5.503 1.022 5.503v14.135l.511.629v4.974h-1.546v.351h-1.552v1.198h-.357v-2.572h-.533v.266h-.399v-1.688h-1.02v.357h-1.64v1.598l-3.104-.708h-1.997v.799h.886V76.2h-.886l-.62.267v15.254h-2.263v-.309h-2.26v-8.066l3.806-21.584h.309l.663-2.759h-7.177v.387h-1.395v-.46l9.618-2.484v-.33H91.159L87.783 58.5v-2.599h-.291v1.824h-.23v-.562h-.175l-.233.659h-2.151v-2.774l-.291-3.044v-1.707h.424V46.73h-.348v-1.688l-.148-.95v-2.811l.229-.233V39.09l-.436-1.262v-6.287l.146-.103v-.188l.29-.19v-.318h-.457V25.56l-.124-.124-.124.124v5.186h-.457v.318l.291.19v.188l.146.103v6.287l-.436 1.262v1.958l.233.233v2.811l-.151.95v1.688h-.348v3.567h.424v1.707l-.291 3.044v2.774h-2.151l-.233-.659h-.176v.562h-.229v-1.824h-.294v2.599l-3.373-2.384h-15.53v.33l9.618 2.484v.46H69.51v-.387h-7.174l.657 2.759h.312l6.3 35.734h-.642l-.565.89h-1.11v-.351h-1.746v.586h-1.047l-1.627.636v.581h-.718v-.732h-.466l.291-.544h.484v-.642l-1.803-.242c.562-2.638 3.588-4.175 3.588-4.175v-.236c-3.821-1.688-4.444-4.29-4.444-4.29v-.466h-.221l-.203-2.898h-.115l-.161 1.935-.29-.291-.118-2.965h-.13l-.146 2.922-.26.115v-.436h-.191v.424l-.175.085v.278l-.929.786c-.642-.829-.699-1.597-.699-1.597v-.363l-.321-.399-.203-3.183h-.19l-.115 3.128-.554.26v.302c-1.135 1.368-3.053 2.384-3.053 2.384-1.104-1.113-1.279-2.904-1.279-2.904v-.611l-.321-.345-.202-3.498h-.191l-.161 3.425-.493.327v.339c-1.948 3.183-5.062 4.115-5.062 4.115-1.643-1.991-1.7-4.768-1.7-4.768v-.291l-.378-.526-.191-3.576h-.188l-.067 3.558-.444.448v.229c-1.162 3.401-4.535 5.579-4.535 5.579-2.938-2.323-3.752-5.7-3.752-5.7v-.26l-.538-.381v-3.546l-.104-.145-.103.145v3.546l-.535.381v.26s-.817 3.376-3.752 5.7c0 0-3.376-2.178-4.538-5.579v-.229l-.445-.448-.064-3.558h-.19l-.19 3.576-.375.526v.291s-.061 2.777-1.704 4.768c0 0-3.113-.932-5.062-4.115v-.339l-.493-.327-.161-3.425h-.188l-.206 3.498-.321.345v.613s-.172 1.791-1.276 2.904c0 0-1.922-1.017-3.056-2.384v-.302l-.554-.26-.115-3.128h-.19l-.203 3.183-.32.399v.363s-.058.769-.696 1.597l-.932-.786v-.278l-.176-.085v-.424H6.09v.436l-.263-.115-.145-2.922h-.13l-.115 2.965-.293.291-.158-1.937h-.118l-.203 2.898h-.217v.466S3.822 91.583 0 93.271v.236s3.026 1.537 3.588 4.175l-1.803.242v.642h.484l.291.544h-.463v2.639h401.796v-2.275l-1.579-.849zm-182.571-3.11h-.914v.847h-2.734v.399h-1.768l-1.319 1.779h-.714l-.641-.581h-2.469v-2.614h3.28l1.18-.799v-.556l1.18-.871h.617l1.258-.847v-.629l1.525-1.004h.521l.998-.678v5.554zm23.738-52.719h-5.712v-7.697l2.632-2.024v1.043h.454v-1.043l2.626 2.024v7.697zm17.935-8.13s-2.699-1.612-3.485-5.957c0 0 1.21 4.145 3.485 5.095 2.275-.95 3.485-5.095 3.485-5.095-.786 4.345-3.485 5.957-3.485 5.957zm0-3.285c-1.525 0-4.647-4.672-5.912-18.062 0 0 2.717-.496 5.912-.496s5.912.496 5.912.496c-1.265 13.39-4.387 18.062-5.912 18.062zm40.82 17.438a1.72 1.72 0 0 1-1.718-1.724 1.724 1.724 0 1 1 3.449 0c0 .953-.775 1.724-1.731 1.724zm36.869 5.223v.333h-2.299s.514-3.013 1.204-6.423l2.378.427c-.768.112-2.354.608-2.705 2.78-.333 2.05 1.422 2.883 1.422 2.883zm1.301-6.245h-2.359c.103-.514.205-1.035.32-1.555l2.039.348v1.207zm0-1.67h-2.015c.079-.348.151-.696.224-1.041.042-.178.079-.345.121-.508l1.67.339v1.21zm0-1.667h-1.646c.133-.617.254-1.135.357-1.57l1.289.251v1.319zm0-1.67h-1.265c.502-2.124.581-2.19.581-2.19l.684 1.279v.911zm.811-.911l.69-1.279s.079.066.581 2.19h-1.271v-.911zm0 1.262l1.295-.251c.097.436.218.953.357 1.57h-1.652v-1.319zm0 1.776l1.682-.339c.036.163.073.33.109.508.079.345.158.693.23 1.041h-2.021v-1.21zm0 1.673l2.045-.348c.108.52.218 1.041.327 1.555h-2.372V46.59zm1.307 7.785v-.333s1.755-.832 1.422-2.883c-.357-2.172-1.93-2.668-2.705-2.78l2.372-.427c.696 3.41 1.21 6.423 1.21 6.423h-2.299z"/></svg>