<svg xmlns="http://www.w3.org/2000/svg" width="361.463" height="158.08" viewBox="0 0 361.463 158.08"><path fill="#231F20" d="M360.95 155.845v-1.297l-.435-.584v-4.942h.281v-.432h-.392v-16.235h-.439v-1.728h.519v-.352h.783v-1.257l-4.355-4.353v-1.373h.509v-.548l-3.806-2.432v-.981h-2.55v-.865h-.778l-5.139-4.744h-.476v-.9h-1.683v-1.571l-.471-.471v-.624h-.631v.585h-.369v2.122h-3.34v-1.004l-.641-1.028h-1.734v.558h-.398v-.542h-.57v.5l-.429.161v1.178h-1.017l-1.121 1.158v-.438h-.233v-.397h.322v-.5h-1.412v.5h.37v.32h-.17v1.26h-1.217v-1.062h-1.297l-.703.667v.9h-.746v-4.742h-.238v4.823h-.899v-.706h-1.138l-.275-.59h-1.492v.511h-.35l-2.164-3.059.614-.826v-1.143h-.201v-.503l-1.212-1.469v-1.529h-1.148v1.379h-.466v.502l-.831.882v.706h-1.613v-3.297h.328v-.349h-.413v-.942h-1.09v.472h-1.116v.675h-.387v.381h-.35v-1.939h-2.175c-.915-2.382-4.302-2.472-4.302-2.472v-.373h-1.472v.354s-1.534.117-2.672.942c-1.138.82-1.497 1.756-1.614 2.342-.121.589.879.589.879.589s.561 1.824-.144 4.234c-.708 2.413-2.09 2.09-2.09 2.09s-2.497-.059-3.271 1.029c-.762 1.088-.232 2.175-.232 2.175l.592.532v.643h-.471v.622h-.502v.675l-2.557-2.557v-.735h1.376v-1.944l-1.2-1.678h-6.06v-1.395h-.297v1.368h-.497l-.678-.913v-1.471h-1.794v-1.265h-2.169v2.359l-.212-.211v.412h-1.535v-1.884h-.412v.352h-.73l-.947-.734h-1.497v-.381h-1.207l-.471.471v.438h-.641v-.352h-1.032l-1.794.648v.439h.382v.722h-1.916v.307h-1.762l-.472-.307v-1.955h-.174v-.325h.381v-.41h-2.091v.35h.53v.327h-.292v2.014h-.65v.987h-.382l-.381-.387v-.601h-.619v-2.341h.302v-.35h-3.063c-.122 0 0 .323 0 .323h.259v2.558h-.55v.781h-1.154l-1.82 1.72h-.618v-.588h-9.854l-.534-.354v-.381h-1.795v-1.029h.329v-.294h-2.027v.381h.265v.805l-1.037-.86v-1.118h-.291v.875l-7.53-6.281v-1.293h-.741l-.296-.741v-.257l-.339-.238v-.862l.217-.098v-.236l.317-.214v-.899h-.291l-.243-.373h-1.64l-.238.373h-.295v.899l.317.214v.236l.217.098v.862l-.338.238v.257l-.291.741h-.746v1.293l-11.531 9.62v-.899h.201v-.563h-1.794v.36h.418v1.794h-.857l-3.376-1.741v-.627h-.688v-.314h-.587v-.684l-.338-.137v-2.964h.237s-.079-.333 0-.333h.292v-.511l-.154-.156h-.138s-.508-2.373-2.079-2.373v-1.606l-.117-.235v-1.45h-.317v1.45l-.116.235v1.606c-1.566 0-2.08 2.373-2.08 2.373h-.132l-.159.156v.511h.291c.08 0 0 .333 0 .333h.238v2.964l-.333.137v.684h-.587v.314h-.688v.627l-1.481.762h-1.127v-2.913h-2.249v-.566l-3.641-1.587v-.72h-1.747v.565h-1.534v-1.28h-.614v-2.611h-.307v2.665h-.921v1.177h-.819v-.77h-1.636v2.918h-.207v.463h-.618v-.847h.28v-1h-.28V97.278h.359v-.616h.424v-.921h.847v-1.114h.381v-1.15h-1.418l-.52-.523h-1.671v-1.207h-.541v-1.268h-.344V84.87l.768-.576v-.387h-.461l-.307-.844v-.844l-.805-.807h-.312v-1.848h.577v-.884h-.577l-.646-9.525.201-.386-.333-.458-.224-6.53-.227 6.604-.286.444.271.42-.557 8.319-2.232-4.493v-.54h-.275v-.344h.317v-.386h-.317v-.845h-.413v-1.998h-.884v-5.649l.694-.458v-.307h.761v-.386l-.804-.381v-.309h-.841v-6.493h-.312v3.805h-.635v-.667l-.244-.249-2.122-33.047h.218v-.481l-.175-.172v-1.347h.175v-.844h-.218v-1.074h.196v-.77h-.498v-.976h.19v-.735h-.19v-1.247h.148v-.77h-.228v-1.13h.133v-.54h-.424v-3.514l.487-.847-.487-.804V6.11l.255-.574-.646-.81V1.921l.254-.804L174.628 0h-.274l-.52 1.117.26.804v2.805l-.65.81.243.574v3.461l-.477.804.477.847v3.514h-.418v.54h.137v1.13h-.232v.77h.153v1.247h-.19v.735h.19v.976h-.503v.77h.196v1.074h-.212v.844h.169v1.347l-.169.172v.481h.212l-2.117 33.047-.248.249v.667h-.63V54.98h-.312v6.493h-.841v.309l-.805.381v.386h.762v.307l.693.458v5.649h-.879v1.998h-.429v.847h-.307v.386h.307v.344h-.27v.54l-2.228 4.493-.556-8.319.271-.42-.287-.444-.232-6.604-.223 6.53-.327.458.201.386-.656 9.525h-.571v.884h.571v1.848h-.302l-.811.807v.844l-.306.844h-.461v.387l.767.576v5.609h-.343v1.268h-.54v1.207h-1.672l-.519.523h-1.419v1.15h.387v1.114h.847v.921h.418v.616h.359v10.798h-1.719v.466h-.82v-.516h-1.481v.669h-15.118v2.408h-2.297v-2.614l.456-.718v-.41l-.456-.05v-.82l-1.079-1.13v-1.381l-.562-.704-.195-2.997-.228.039v2.845l-.519.844v1.344l-1.037 1.096v.746l-.365.061v.439l.381.537v2.408h-1.085v-1.688h-.285v-.997h.438v-.873l-.206-.204v-1.048l.127-.13v-.558l-.254-.257-.772-1.22-.111-2.752-.196-.053v2.765l-.825 1.209-.285.154v.804l.19.138v.842l-.19.172v.868h.344v1.113h-.556v1.768h-.651v.19h-3.302v-3.609h-.794v-.502h-1.031v-3.379h-.196v1.69h-.729v1.924h-3.953v1.344h-1.08V111h-.994v-.728h-1.424v-.963h-4.805v-.357h-1.334v.461h-2.455V109h-5.482v.41H100.1v-.768h-.667v.664h-.667v-2.969h-.613v-2.768h-.254v-3.738h-.176v3.73h-.502v2.865h-.519v2.977h-2.111v-5.82h.344v-1.305h.576v-.73h.313v-.73l-.656-.884v-1.27h-.577v-1.19l-.175-.172v-6.279l1.021-1.119-.042-2.074h-1.339v-2.958l.232-.421v-.96h-1.037v1.767h-.428l-.652-.957v-.773l.498-.383.042-.617-.19-.113V80.38h-.619v-5.032l.577-1.037v-2.765l-.577-1.807h-.27v2.458h-.614l-1.228-1.842v-1.077h-.603v-.794l.406-.413v-.688l-.418-.423-.216-.81v-2.945l.386-.381-.699-1.156-.068.063-.693 1.154.392.386v2.945l-.222.807-.424.42v.694l.407.41v.793h-.598v1.077l-1.228 1.841H85.6v-2.456h-.27l-.582 1.802v2.768l.582 1.038v5.033h-.619v2.034l-.19.113.037.62.497.381v.77l-.65.961h-.425v-1.766h-1.037v.958l.233.426v2.958h-1.345l-.042 2.072 1.026 1.116v6.279l-.18.174v1.191h-.572v1.265l-.655.883v.733h.306v.73h.578v1.305h.344v5.82h-1.588l-.322-.317v-.158h-.101v-.879h.143v-.259h-.274v-.39h-.318v-1.378l-.079-.071-.106-3.191-.101 3.191-.073.071v1.378h-.323v.39h-.275v.259h.149v.879h-.108v.158l-.613.611V110.422h.059v.192l-.534-.429-.308-1.646h-1.641v.794H72.26v-.662h-1.572v.924l-6.477.156c0-.031.006-.062.006-.09 0-1.728-1.06-3.173-2.493-3.631v-.846h.466v-.543h-.74v-.842h-.424v-3.161h-.381v3.161h-.557v.842h-.74v.543h.561v.819c-1.477.421-2.577 1.89-2.577 3.657 0 .088.017.169.022.251l-.032.006-.964-25.202.328-.302v-.294h.758v-.095h.205v-.138l-1.582-.342V82.9h.08v-.262h-.144L55.86 77.3l-.212 5.31h-.101v.29l.043-.041v.655s-1.159-.169-1.772-.45c-1.281-.584-1.461-1.127-1.461-1.127v-.521l.429-.296.275-.374v-.325h-.111v-.429h.111v-.421h-.196l-.074-.981h-.158v.053h-.159v-.185h-.308v-.736h-.105v-1.354l-.174-.275V77.4h-.249v-6.501l.222-.315.958-.288s.625-.233.271-.711c-.36-.484-1.201-.608-1.201-.608v-.281h-.291v-.336l-.202-.198v-1.35l-.296.294v.908l-.249.136v.156h-.207v.177h-.285l-1.111-1.672v-.971l.672-.648h.096l.206-.333-.085-.151-.006-.455-1.021-1.32v-.357h-.232v-.857l.18-.278v-.471l-.18-.209v-2.18l1.555-1.029.317-.471.445-.132.37-.59h-.212l-.163.066-.111.135-.133-.016-.09-.338h-.185l-.123.354-.185-.028-.048-.13-.143-.14h-.158l.259.762h.254l-.201.498-1.449.892v-.397l.296-.108.359-.516-.18-.026-.195.116-.111.145-.096-.026-.073-.5h-.238l-.08.5-.095.026-.106-.145-.2-.116-.181.026.365.516.297.108v.397l-1.444-.892-.213-.498h.255l.264-.764h-.159l-.147.14-.049.13-.185.028-.128-.354h-.18l-.084.338-.139.016-.116-.135-.158-.066h-.212l.37.59.45.132.312.471 1.562 1.029v2.18l-.181.209v.471l.181.278v.857h-.239v.357l-1.021 1.32-.004.455-.085.151.206.333h.096l.683.648v.971l-1.122 1.672h-.28v-.177h-.206v-.154l-.26-.137v-.908l-.291-.294v1.35l-.201.198v.336h-.286v.281s-.847.124-1.206.608c-.355.479.274.711.274.711l.953.288.222.315V77.4h-.243v-1.307l-.18.275v1.354h-.105v.736h-.308v.185h-.147v-.053h-.175l-.068.981h-.191v.421h.105v.429h-.105v.325l.275.374.429.296v.521s-.175.543-1.466 1.127c-.604.281-1.773.45-1.773.45v-.655l.038.041v-.291h-.09l-.218-5.31-.143 5.339h-.143v.262h.079v.648l-1.571.342v.138h.195v.095h.757v.294l.327.302-.729 27.156-.191.064h-.566v-1.215h-.82v-1.653h.498v-.622l-.344-.344v-.196h-.328l-.011-1.892c0-.018.011-.036.011-.061 0-.023-.011-.048-.011-.071v-.18h-.017c-.095-2.011-1.344-3.671-3.048-4.207v-1.046h.583v-.669h-.922v-1.037h-.528l-.111-6.329h-.212l-.105 6.329h-.704v1.037h-.916v.669h.698v1.006c-1.751.498-3.053 2.188-3.158 4.247h-.021l-.005 2.203h-.323v.196l-.35.344v.622h.493v1.653h-.81v1.215h-1.287v.939h.599v.844h.339v5.781h-.757v1.683l-1.138.262v11.296h.101l-4.339 2.272v3.871h-1.514l-1.397.986h-.693v-.201h-.566v.148h-.16c-.18-.611-.387-1.347-.387-1.468 0-.21.116-.723 0-.794-.11-.071-.709-.405-.767-.503-.053-.098-.751-.895-.683-1.032.073-.138.476-1.188.45-1.659-.027-.477-.249-1.873-.249-1.873l-.313-.418.366-.365.349.323.212-.026.254.141.233-.088.18.405.264-.066.223.347.281-.122.375.68.291-.265s.143.585.238.771c.101.177.604 1.045.604 1.045l.539.669s.229.654.371.921c.138.265.805.784 1.17.696.359-.082.101-.307.101-.307l-.176-.432s-.025-.322-.121-.432c-.101-.111-.212-.502-.196-.685.017-.181-.042-.556-.127-.853-.084-.291-.392-1.897-.417-2.077-.026-.18-.233-1.701-1.551-1.87-1.312-.17-2.646.24-3.181.559-.529.322-.921.234-.979.225a34.677 34.677 0 0 0-2.259-.127c-.598 0-.889-.027-.889-.027l-1.006-1.203v-.442s.344-1.005.376-1.523c.026-.516 0-1.029 0-1.029s.164-.299.164-.405c.005-.121-.111-.346-.138-.465-.011-.045 0-.151-.026-.191-.063-.087-.308-.121-.376-.198-.116-.116-.249-.426-.286-.585-.01-.047.016-.153 0-.195-.021-.098-.153-.257-.19-.35-.111-.272-.28-.963-.418-1.088-.138-.126-.477-.24-.825 0-.35.236-.534.488-.698.557-.164.071-.557.28-.492.378.074.099.449.235.534.349.09.112.042.448.095.586.074.174.439.37.503.547a.404.404 0 0 1 0 .236c-.005.031-.074.076-.079.108-.021.061.016.183 0 .24-.021.071-.154.178-.17.246-.01.056.016.23.016.23l-.349.344-.085.35s-.391 0-.604-.053c-.205-.062-.92-.337-.92-.337s-.068-.124-.334-.105c-.259.021-1.201.014-1.201.014l-.762-.566-.212.146.694.566.016.137.254.02.116.095-.091.068.049.119.29.082.376.221.524.324.159-.124-.017-.148.55.376.291.188.62.032.042.396-.074.106-.042.104s-.148 0-.329.085c-.18.082-.804.627-.804.627l-.624.503-.445-.489-.518-1.114-.811-.95-.321-.432-.794-.447-.587-.223-.461-.124-.619.011-.105-.482-.096.011-.175.566-.153.032-.222-.22-.312.101-.059.232-.302-.095-.053.138.096.429.011.438s-.302.532-.333.693c-.032.153-.043.479-.117.593-.068.116-.641 1.153-.641 1.153s-.18.418-.047.63c.121.209.228.347.364.35.074 0 .159-.096.207-.132.053-.038.158-.154.217-.128.063.035-.026.228.005.294.021.048.112.135.164.146.111.024.265-.068.402-.188.133-.113.625-.688.656-.772.032-.084.424-.573.545-.573.128 0 .218.002.291.05a.57.57 0 0 1 .201.188c.154.39-.105 1.456-.042 1.667.063.209.148.857.148.982 0 .126-.175.994-.222 1.118-.044.128-.075.591.01.818.084.232.328.825.285.899-.042.074-.703.703-.703.703s-.873.628-1.069.688c-.19.053-.386.151-.46.288-.069.144-.232.405-.291.435-.053.026-.121.195-.121.349s-.128.81-.224.989c-.101.181-.339.755-.285.908.058.153.127.267.116.35-.016.081.105.711.105.711s.128.698.196.712c.069.016.683-.767.683-.767v-.362c0-.043-.18-.196-.18-.196l-.164-.053v-.154l.121-.061.218-1.853.523-.476s1.566-.389 1.788-.503c.223-.111.498-.209.557-.195.059.016.57.042.613-.04.042-.082.312-.18.312-.18l.232.415.238.17s1.074 2.508 1.19 2.635c.106.125.402 1.077.371 1.201a43.958 43.958 0 0 0-.096 1.188l-.212.137-.084.223-3.43.196-.148.551-.09.062h-.88v.105l.218.252v.146h.169l.138.151-.223 3.138-.396.172v10.39h359.451v-1.886l-.513-.349zM8.288 130.783s.386-.164.317-.486c0 0 .37-.228.423-.196.048.034 0 .449 0 .449l-.265.519-.317.072-.243-.09-.19-.186.275-.082zm-.767-.421s.153-.065.175-.031c.031.039-.148.322-.148.322l-.312-.071.285-.22zm-.503 7.317s.201-.071.254-.08c.064-.005.153-.647.153-.647h.354c.027 0-.016.656-.105.896-.096.235-.608.402-.608.402-.123-.223-.048-.571-.048-.571zm9.652 3.407l-.275.273v.996l.18.178-9.06.342s-.042-.389-.036-.452c.021-.064.259-.162.328-.23.068-.069.031-.587-.016-.67-.038-.082-.238-.46-.276-.616-.042-.148-.243-.902-.211-1.045.032-.141-.069-.963-.069-.963l.54.013.11.114.355.093.301-.326-.068-.177s.492-1.545.588-1.609c.09-.063 1.243-.023 1.513.02.275.045 1.171-.482 1.308-.546.148-.063.99 0 .99 0s.322.772.322.955c0 .18.26.617.312.659.053.039.068.794.068.918 0 .127-1.523 1.297-1.672 1.384-.144.082-.27.209-.281.334-.011.127-.164.471-.228.579-.068.1-.1.563-.1.646-.011.085-.112.397-.09.46.021.063.814-.344.814-.344s.223-.396.169-.492c-.053-.095-.212-.251-.228-.293-.026-.04.133-.029.175-.009.042.019.195-.063.206-.118.017-.051.772-.85.853-.919.079-.071 1.232-.692 1.486-.817a.55.55 0 0 0 .297-.439c0-.063-.138-.314-.212-.429-.074-.113-.074-.817-.085-1.108-.01-.293.498-.558.498-.558s.148.126.201.232.666.514.725.545c.047.032.593.429.613.524.021.092.546.658.604.689.031.02.232.676.386 1.168l-1.035 1.038zm33.01-63.85h-1.63v-4.035h.271l.025-.211-.137-.017v-.25l.28.079.121.113-.265.53v.235h1.038v-.235l-.264-.53.127-.113.274-.079v.25l-.138.017.032.211h.265v4.035z"/></svg>