<svg xmlns="http://www.w3.org/2000/svg" width="361.464" height="88.686" viewBox="0 0 361.464 88.686"><path fill="#231F20" d="M361.464 69.03v-1.513h-.381v-.793h-.283v-.36h.283v-.402h-.246v-1.067h.246v-1.016l-.333-.233h-.516v-.296h.299v-.181l-.341-.264v-.413h-.213v-.37l-.152-.899-.129.889v.371h-.146v.327l-.357.233v.327h.229v.254h-.577V63h-.479v-.709h.294v-1.195h-.368v-.423h-.622v-.497l-.354-.254v-.762h-.283v-1.037h-.221v1.016h-.213v.74l-.283.074s-.92-1.364-2.334-2.412c-1.715-1.27-4.233-1.618-4.233-1.618v-.55h-.325v-.466h-.254v-.878l-.257-.159v-.825h-.267v-1.29h-.211v1.321h-.173v.794l-.298.159v.909h-.258v.423h-.471v.381s-2.457.413-4.182 1.831a13.881 13.881 0 0 0-2.557 2.835l-1.81 1.101.373.37-.105.518-.241.243v.699l-.73.729h-.38v-1.322h.38v-1.237h-1.113v-1.006l-.246-.232v-.307l-.203-.032-.061-1.248-.143.021-.08 1.237-.09.021v.381l-.328.19v1.026h-1.092v1.195h.344v1.195h-.328v1.64l-.526.307v1.217l.526.529v.793h-.26v.434h.26v1.641h-.13v.539l.13.127v1.746h-3.02l-.236-17.646.154-.138v-1.016l.525-.497v-.593l.318-.307v-1.354l-.998-.413v-6.178h.088V43.5l-.822-.708v-.54l.232-.031v-1.703h-.232v-.582l.07-.063v-.899l-.209-2.021h-.211l-.203 2.021v.899l.065.063v.582h-.23v1.703l.23.031v.54l-.819.708v1.281h.084v6.178l-1 .413v1.354l.324.307v.593l.525.497v1.016l.15.138-.235 17.646h-.78l-1.305 1.301h-1.334l-.4-.613-.283-22.492.154-.158v-1.068l.526-.529v-.624l.319-.328v-1.438l-1-.444v-6.549h.088v-1.354l-.822-.752v-.571l.232-.031v-1.809h-.232v-.625l.068-.063v-.962l-.206-2.138h-.212l-.203 2.138v.962l.071.063v.625h-.233v1.809l.233.031v.571l-.823.752v1.354h.085v6.549l-.999.444v1.438l.32.328v.624l.525.529v1.068l.153.158-.283 22.492h-2.005v.296h-.57v-8.622h-.523v.921h-2.09l-1.174-2.285v-3.27h-.521v-.518h-1.635l-.389.518h-2.743v5.417h-.653v-7.184h-3.07v-.772h-4.11v-.528h-.59l-.265-.529-1.234 1.058h-2.711v-7.416h.195v-.423h-2.254V47.84l.072-.074v-1.174h-.063v-.138h-.636l-2.094 1.27v-2.708h-.084v2.793l-1.029.688v1.565h-1.37v-.444h-.542v.782l-2.84.74v-.836h-2.4v-.243h-.734l-1.664 1.079v.54l-.979.434v2.401h-.732V36.689l-4.411-3.671v-1.322h-1.37v.592l-1.322.19v5.682l-4.454 4.157v9.85h-.247V27.581h-.782v-2.646l1.029-.782v-.286h-1.322l-.932-.74v-1.121h-.491v.285h-2.35v-.285h-2.887v.434h-1.371l-.542 1.132h-.784v18.704h-1.612v-.296h-.64v5.987h-.392l-.632 1.206h-2.209v-1.206h.785V40.17h-2.792V29.294h-.733v.635h-1.324v-3.185h-2.347v-1.121h.489v-.593h-1.861v.646h.637v1.27h-2.403v8.125h-.976v-.297h-1.666v13.235h-.834v-1.524h.244v-.349l-1.463-.392V44.57h-2.307v-4.94h-.881v-.741h-.293v.783h-.982c-.095 0 0-3.174 0-3.174l.293-.646V33.07h-.34V31.6h-1.322l-.244-.497h-1.47v-1.322h.296v-.434h-1.271v.582h.341v1.132h-1.566l-.687.486v2.401h-2.059v.879h.473v9.892h-1.436l-2.414 1.185v1.629h-.916v4.041l-.59.593v1.364h-.454V47.85h-1.37v-2.02h-.849l-.656-.455v-.783h-3.134v-2.676c0-3.27-1.629-3.27-1.629-3.27h-3.201c-2.414 0-2.414 3.533-2.414 3.533v2.412h-3.137c-.584 0 0 .455 0 .455l-2.023.656v1.692l-1.24.392v15.668l-2.545-1.819h-2.679v-.466h-.976v8.559h-1.375v1.121h-.162l-.174.053h-.297V58.091h.188v-.582h.109v-.359h.438v-.688s.133-.201.197-.201c.057 0 0-.528 0-.528l.225-.223v-1.344l-.41-.476h-.908v-8.484h.205v-.561h.44v-.868h.263v-.846l.242-.487v-1.65h-1.266v-7.923l.137-.138v-.445h.365v-.836h.302v-.962h.276v-2.053h-1.345v-9.014l.185-.189v-.529h-.301l-1.6-14.61v-.741h.224v-.339l-.267-.265v-.443h.164v-.392h-.164v-.338h.145V.868h-.25V.529h.115V.084L191.263 0l-.084.084V.54h.121v.329h-.252v.708h.146v.338h-.167v.392h.167v.443l-.268.275v.328h.22v.751l-1.595 14.61h-.302v.519l.183.189v9.014h-1.35v2.053h.283v.973h.302v.825h.362v.445l.141.138v7.923h-1.268v1.661l.238.477v.846h.265v.878h.442v.562h.203v8.484h-.91l-.407.465v1.354l.228.222s-.059.529 0 .529c.063 0 .195.201.195.201v.678h.439v.359h.105v.582h.191v2.231l-.41.085-.785 1.396v1.005h-.766v-1.555h.199v-.646h-.384L185.703 59h-1.095v-1.968h.169v-.529h.098v-.327h.392v-.614s.122-.169.178-.169c.055 0 0-.486 0-.486l.209-.201v-1.217l-.371-.423h-.819v-7.648h.185v-.509h.396v-.793h.238v-.762l.217-.434v-1.492h-1.148v-7.151l.131-.127v-.392h.328v-.751h.272v-.867h.251v-1.862h-1.217v-8.125l.17-.169v-.477h-.27L182.57 8.326v-.677h.203v-.296l-.242-.243v-.402h.15v-.36h-.15v-.296h.135v-.646h-.229v-.307h.105v-.391l-.188-.073-.079.073v.402h.11v.306h-.229v.646h.13v.296h-.148v.35h.148v.412l-.238.233v.307h.201v.677l-1.441 13.17h-.275v.477l.167.169v8.136h-1.216v1.852h.25v.867h.275v.751h.325v.402l.13.127v7.151h-1.146v1.492l.22.434v.762h.235v.782h.401v.509h.181v7.658h-.817l-.367.424v1.217l.203.201s-.056.476 0 .476.178.18.178.18v.613h.396v.328h.093v.529h.169v1.777h-.439l-1.798-.413V56.43l.147-.148v-.624l.195-.19v-.519h-.634s-1.439-.042-2.087-.571c-.65-.529-1.767-2.518-3.613-3.343-2.01-.899-3.419-.762-3.419-.762v-2.264h.161v-.381h-.322s-.36-3.005-3.062-3.534v-.296h-.442v-.592h.198v-.393h-.198v-.423l.105-.106-.105-.296-.103-.095.195-.201-.365-.359-.322.307.225.222-.204.212v.211l.095.096v.434h-.208v.413h.193v.582h-.524v.401h-.254l-.928-.349v-1.238h.25v-.57s-.914-.021-1.562-.255c-.643-.232-.592-1.164-2.74-3.522-2.146-2.358-5.111-4.781-9.891-5.903 0 0-.4-.392-.421-.666-.019-.265.026-.921-.737-1.333-.765-.413-.818-.729-.818-.984v-.825s.334.096.334 0v-.592h-.334v-.519l.104-.106v-.285l-.082-.085v-.328h.172v-.581h-.373v-.604h.18v-.592h-.18v-.339h.294v-.509h-.294v-.476l-.129-1.069-.135 1.069v.475h-.292v.509h.292v.339h-.18v.592h.18v.604h-.373v.581h.174v.328l-.082.085v.285l.102.106v.519h-.334v.592c0 .096.334 0 .334 0v.825c0 .255-.051.571-.818.984-.764.412-.715 1.068-.732 1.333-.021.274-.426.666-.426.666-4.779 1.122-7.742 3.545-9.887 5.903-2.146 2.358-2.102 3.29-2.744 3.522-.644.233-1.563.255-1.563.255v.57h.257v1.238l-.932.349h-.251v-.401h-.523v-.582h.19v-.413h-.207v-.434l.091-.096v-.211l-.204-.212.225-.222-.316-.307-.371.359.201.201-.104.095-.105.296.105.106v.423h-.198v.393h.198v.592h-.443v.296c-2.701.529-3.066 3.534-3.066 3.534h-.322v.381h.161v2.264s-1.403-.138-3.417.762c-1.844.825-2.965 2.813-3.613 3.343-.65.529-2.086.571-2.086.571h-.635v.519l.198.19v.624l.148.148v1.978l-1.799.413h-.439v-1.777h.169v-.529h.094v-.328h.394v-.613s.124-.18.181-.18c.049 0 0-.476 0-.476l.203-.201V53.5l-.367-.424h-.818v-7.658h.18v-.509h.402v-.782h.236v-.762l.213-.434v-1.492h-1.143v-7.151l.127-.127v-.402h.326v-.751h.275v-.868h.256v-1.852h-1.219v-8.136l.166-.169v-.477h-.271l-1.442-13.17V7.66h.2v-.307l-.242-.233v-.412h.153v-.35h-.153v-.296h.132v-.645h-.228V5.11h.111v-.402l-.079-.073-.19.073V5.1h.107v.307h-.227v.646h.129v.296h-.147v.36h.147v.402l-.24.243v.296h.201v.677l-1.441 13.181h-.27v.477l.164.169v8.125h-1.217v1.862h.254v.867h.272v.751h.331v.392l.123.127v7.151h-1.143v1.492l.217.434v.762h.236v.793h.398v.509h.186v7.648h-.82l-.369.423v1.217l.203.201s-.051.486 0 .486c.056 0 .178.169.178.169v.614h.396v.327h.098v.529h.164V59h-1.09l-1.049 1.608h-.385v.646h.204v1.555h-.765v-1.005l-.791-1.396-.404-.085v-2.231h.188v-.582h.107v-.36h.436v-.678s.137-.201.195-.201c.063 0 0-.529 0-.529l.23-.222v-1.354l-.41-.465h-.907v-8.484h.201v-.562h.444v-.878h.262v-.846l.243-.477v-1.661h-1.272V32.87l.143-.138v-.445h.365v-.825h.301v-.972h.283v-2.053H103.5v-9.014l.188-.189v-.519h-.301l-1.601-14.61v-.751h.226v-.328l-.268-.275v-.444h.164v-.392h-.164v-.338h.145V.868h-.256V.54h.125V.084L101.67 0l-.216.084v.445h.123v.339h-.251v.708h.146v.338h-.17v.392h.17v.444l-.268.265v.338h.219v.741l-1.594 14.61h-.307v.529l.188.189v9.014h-1.35v2.053h.283v.962h.302v.836h.362v.445l.141.138v7.923H98.18v1.65l.243.487v.846h.259v.868h.442v.561h.204v8.484h-.905l-.411.476v1.344l.227.223s-.059.528 0 .528c.062 0 .195.201.195.201v.688h.439v.359h.105v.582h.186v14.112h-.16v.561h.16v1.576l-3.126 1.259v-26.14h-1.876V48.23l-2.436-3.29-2.053 2.973v1.513h-2.541v17.572h-4.221v-1.079h-2v-3.618h-1.029v-.814h-.756v-8.009l-1.623-3.025V41.47h-.213v3.523h-3.354v.646h-.648v-.593h-2.219v3.999h-.812v2.603l-.217.212-.537 1.301v15.901h-1.57V52.177h-.379v-1.016h-.756V49.86h-1.732v-1.143h-1.57v-2.433h-.487v2.433h-2.105l-.679.677h-2.408v2.254h-2.973v10.865s-1.409.328-1.409 0v-5.247h-1.458v-.382h-2.702v-.698H47.11v3.947h-.977v1.84h-1.066l-.115-13.668.312-.265v-.698l2.083-2.581H48.7v-1.513h-.31v.275h-.889v-1.588l-.31-1.079h-.267v.35H44.76V39.09h-.465l-.326.317-.29-.285v-.847l1.272-.508v-.381h-3.549v.381l1.272.508v.847l-.291.285-.325-.317h-.464v2.116h-.542v-8.442h-.145v8.442h-1.476v-.35h-.268l-.31 1.079v1.588h-.89v-.275h-.309v1.513h1.349l2.087 2.581v.698l.31.265-.23 28.12h-.465l.06 1.047-.348 1.101h-.405v.677l-.169.201v3.491h-.541v-1.683h.129v-.232L38.1 79.165h-.8v.148h-2.764v-.92l.074-.075v-.137h-.087v-1.387h.058l.029-.084h.061v-.043l-.592-.909v-.307l-.035-.063v-.116l-.079-1.164-.031-.053-.032.053-.076 1.164v.116l-.037.063v.307l-.592.909v.043h.062l.027.084h.061v1.387h-.088v.137l.074.075v.92H29.67v-.508h-.169v-2.169h.113v-.243h-.113v-1.672l.891-.846h.139v-.116h-.114v-1.418h-.083v.084h-.191v-.285h-.141v.285h-1.02V69.96l.139-.212v-.18h-.074V69.4l.223-.096v-.147h-.312v-.107l-.186-.105s.026-.296-.195-1.079c-.225-.782-1.059-1.375-1.059-1.375v-.868l-.359-.168v-.085l.09-.116v-.148h-.079v-.117l.241-.423V63.35h-.096v.074h-.898v-.074h-.109c-.039 0 0 .074 0 .074h-.391v-.498h.07v-.137l-.146-.149v-.528l-.083-.19-.063-8.315.082-.127v-.16l.087-.116v-.265l-.228-.392v-.137l.106-.095v-.36l-.096-.053v-4.2l-.063-.147-.053-1.481-.061 1.481-.061.147v4.2l-.096.053v.36l.111.095v.138l-.23.392v.265l.082.116v.158l.085.127-.006.646c-.312.074-1.15.243-1.15.243v.772l1.147-.042-.055 6.696-.082.19v.528l-.15.149v.137h.07v.498h-.389s.039-.074 0-.074h-.111v.074h-.898v-.074h-.09v1.216l.24.423v.117h-.082v.148l.09.116v.085l-.361.168v.868s-.832.593-1.057 1.375c-.219.783-.193 1.079-.193 1.079l-.185.105v.106h-.312v.147l.219.096v.169h-.074v.18l.139.212v2.465h-1.02v-.284h-.137v.285h-.196v-.084h-.081v1.418h-.115v.116h.142l.888.846v1.672h-.11v.243h.11v2.169h-.166v.55h.098v1.841l-1.508.232v-.116l-.722.116v3.058h-.407v.699h.183v.539l-.732.189-.077.308h-1.346v.37h-.311l-.129-.497h-.875l-.381.2-.04.275h-.29v-.401h-.238l-.096.2h-1.42v.085h-.6v-.307h-.312l-.455.772h-.764v-.604h-.496v.18h-.546v-.201h-.854l-.971.73v.381h-.527v-.127h-.564v.232H5.793v-.57l-.67-.667-.78.116v-.275l-.259-.401v-.37l-.692-.392-.019.18H1.058v-.539H.911v.593l-.527.401v.159H.53v.973l-.53.212v1.757h361.464v-3.734l-.455-.053-.195-.423v-6.338l.396-.401-.031-.402-.305-.307v-1.894h.256v-.477h-.187v-2.042h.235v-.519l-.15-.147v-2.582l.436-.337z"/></svg>