<svg xmlns="http://www.w3.org/2000/svg" viewBox="0 0 361.463 130.555"><path d="M361.463 127.388h-1.987v-26.131h-10.303v-5.959h-9.807V82.574h-.373V79.47h-.372v-1.303l-2.483-6.332v-1.862h-.684V67.49l-.559-1.116-.496 1.116v2.482h-.496v1.862l-2.607 6.27h-1.551v-1.428h-.396v-.402h-.58v.402h-.547v-.402h-.58v.402h-.549v-.402h-.58v.402h-.548v-.402h-.579v.402h-.547v-.402h-.582v.402h-.547v-.402h-.58v.402h-.547v-.402h-.579v.402h-.548v-.402h-.58v.402h-.548v-.402h-.58v.402h-.548v-.402h-.579v.402h-.548v-.402h-.58v.402h-.549v-.402h-.579v.402h-.548v-.402h-.58v.402h-.547v-.402h-.582v.402h-.547v-.402h-.58v.402h-.545v-.402h-.582v.402h-.549v-.402h-.58v.402h-.657v14.586h-5.399v8.07h-1.615v-2.235h-.807v1.365h-.684v6.021h-1.055v7.324h-.621V82.046h-5.059l-.466.466H284.12v-.931h-1.304v1.054h-2.234v13.097h-2.172v2.297h-1.678v2.174h-.868v.93h-2.917v.56h-2.171v-.808h-1.306v-6.207l-.621-1.552h-2.42v-3.539h-2.73c-.31 0 0-12.909 0-12.909h-17.628l-4.904.931v24.271h-.744v-.404h-.59v-.435h-4.873v.526h-.401V102h.401v2.606h-.806v.851h-1.172v-3.318h-.777V88.153h-1.191v-4.145h-2.592v-1.347h-2.693v1.555h-3.055v4.092h-.779v3.006h-.467v13.521l-.258.26v-.831h-.777v.52h-.776v1.502h-.828v-.986h-.829v1.087h-.777v-.518h-2.435v-.039h.451v-1.013h-.451v-.426h.451v-1.011h-.451v-.427h.451v-1.012h-.451v-.428h.451v-1.01h-.451v-.427h.451v-1.011h-.451v-.429h.451V97.63h-.451v-.428h.451V96.19h-.451v-.427h.451v-1.01h-.451v-.428h.451v-1.011h-.451v-.424h.451v-1.01h-.451v-.428h.451v-1.011h-.451v-.476h-2.784V57.948h-.604V47.595h-.422v-.387h-1.157v-1.261h-.455v-4.815h-.808V39.09h-1.336l-1.512-3.705v-2.294h-.402v-2.37h-.463v-7.865h-.504v-.772h.537v-.74h-.738v-.976h.302v-.975h-1.244v-6.418h-.336V7.563h-.269L202.323 0h-.209l-.232 7.562h-.27v5.412h-.336v6.418h-1.242v.975h.302v.976h-.739v.74h.538v.772h-.504v7.865h-.461v2.37h-.403v2.294l-1.515 3.705h-1.335v2.042h-.807v4.815h-.454v1.261h-1.159v.387h-.421v10.354h-.604v32.07l-5.13 1.116v.271h-.141v1.002h.141v.427h-.141v1.001h.141v.427h-.141v1.002h.141v.428h-.141v.283h-1.827v2.071l-.675.416v8.133h-.88V88.931l-1.606-7.962v-3.831h-4.093v-1.503h-.882v-1.399h-.776v-3.627h.776v-.828h-.828v-8.134h.828v-1.089h-.881v-4.869l-4.558-.26h-9.74v-4.352h-.466v-4.096h-1.037V36.466h-.415v18.287l-.57.935h-2.901v5.297l-1.552 1.244v4.156l-.594.169v18.721h-.496V64.677h-4.197v-.661h-.816v-1.398h-1.01V61.18h-1.477v1.438h-2.37l-1.206.698v.896h-.388v-.622h-.699v-1.905h-.505v-1.049h-.816v1.128h-5.053v-.584h-.388v.62h-9.831v.662h-1.062v7.914h-1.346v-.467h-.571l-1.035 1.062v2.667h-1.528l-.673.597v6.294h-.311v.751h-.328v11.092h-.917V76.93l-1.269-1.141h-1.839l-.467.518h-1.114v-6.968h-.206v-1.167h1.32v-6.216h-4.196v-.726h-.777v-4.663h-1.113v-.957h-.959v-3.757h-.324v-8.042h-.168v-3.899h-.169v-2.654h-.154v-.584h.154v-2.525h-.167l-.257-4.299-.026 4.325h-.134v2.517h.16v.612h-.159v2.661h-.104v3.861h-.175v8.049h-.291v3.809h-1.4v.758h-.27l-.506.68v4.733H98.28v6.27h.906v.882h-.516v.593h-.286v1.242l-.467.415v1.84h-1.14l-1.036.984v10.414h-.363V80.53h-.258v-.751h-.828v-5.412h-.467V72.63h-.375v-1.814h-.37V69.36h-.39v-1.497h-.349v-1.378h-.409v-2.118l-.193-.33-.564-7.752-.135 5.362-.263.542v1.953l-.263.262V66.6h-.328v1.243h-.293v1.477h-.349v1.478h-.33v1.865h-.232v1.631h-.816v5.557h-.855v-1.495h-.545v-.312h-1.767v-.776h-6.101v.659h-2.176v.698h-.895v14.979h-.602v-.388h-.312v.369h-1.3v-1.302h-1.187V88.65h-.464V69.287h-.208V67.94h-1.271v-8.756l-4.17 2.954h-.493v-3.782h-.336v2.331l-1.322 1.348h-3.549v-.597h.207V58.95h-.207l-.174-1.683h-.375l-.175 1.709h-.179v2.436h.182v.647l-2.747-2.746v2.798h-.727l-3.161-1.864v21.609h-.945v3.379H50.68v.623h-1.439v.688h-.581v.867h-.312v1.67h.312v.7h-.312v1.67h.312v.7h-.312v1.671h.312v.698h-.312v1.67h.312v.7h-.312v1.671h.312v.7h-.312v1.67h.312v.701h-.312v1.671h.312v.698h-.312v1.67h.312v.17h-2.396v-1.713l-.675-.796-.074-.987.555-.409.025-.94-.531-.049-.074-1.495-1.109.098c-1.036-.386-1.237-3.288-1.237-3.288l-.088-5.488.146-1.062-.153-3.574.402-.628-.016-.257-.427-.699-.387-3.929-.603-3.667.786-.239 1.77-1.882.82-.146s1.674-1.807 1.7-2.12c.023-.313-.351-.699-.351-.699l.869-1.568-3.907-2.137-2.258 2.521c0-.305-.104-1.269-.314-1.591-.208-.322-.479-1.254-.577-2.057-.099-.805-.449-1.543-.724-1.85-.273-.305-1.19-.818-1.222-1.14-.032-.322-.306-1.046-.481-1.255a.683.683 0 0 1-.112-.691c.08-.225.126-.836.136-1.027.008-.193-.049-.296-.096-.33-.05-.032-.104-.467-.121-.651s.213-.358.267-.563c.054-.204-.113-.423-.156-.481-.041-.061-.036-.23-.036-.23.223-.228.367-.697.367-.697l3.02-.024.006-.103-2.99-.297c.073-.252-.047-.596-.047-.596l3.14-1.194-.019-.119-3.423.795c-.109-.259-.498-.522-.498-.522l2.322-2.46-.089-.13-2.7 2.333c-.465-.301-1.084-.271-1.084-.271l-.194-3.423-.144.01-.247 3.39c-.548-.024-1.025.106-1.025.106l-2.623-2.042-.064.072 2.213 2.298c-.308.155-.688.682-.688.682l-2.4-.623c-.043-.484-.083-1.045-.074-1.357.017-.625-.675-3.583-.788-4.001-.112-.419-.193-.69.016-.853.209-.16.337-.45.337-.579s-.161-.386-.256-.481c-.098-.097-.017-.273.031-.321.048-.048.161-.483.144-1.238s-.851-2.016-.948-2.091c-.096-.071-.089-.2-.024-.296a.567.567 0 0 1 .201-.162l.085-.662c.276-.108.916-.553.951-.928.037-.375-.457-.699-.457-.699l.023-.639-.397-.025.036-.375c.288-.239.179-1.131.167-1.542-.01-.41-.662-1.472-.614-1.098.049.375-.446.905-.41.833.037-.073.06-.436 0-.904-.06-.469-.506-1.146-.663-.929-.155.217-1.049 1.555-1.35 1.988-.301.436-.109 1.157-.06 1.352.048.192.204.312.204.312v.374l-.374.099s.061.554-.06.626-.52.336-.446.833c.072.492 1.048.767 1.048.767s-.048.658.065.723c.113.062.128.127.016.241-.112.11-.112.674-.146.805-.031.128.113.916.178 1.251.065.339.466 1.069.575 1.19s.18.302.037.421c-.146.121-.254.41-.169.711.083.302.41.523.41.523s.159 5.143.192 5.883c.031.74.579 1.994.579 1.994s-.065.353-.676 1.188c-.609.837-.867 2.122-.834 3.247.031 1.126.708 1.352.932 1.352.224 0 .353-.259.128.48-.226.74.579 1.286.804 1.511.226.227-.096 1.222-.353 1.834-.258.611.868 1.896 1.158 3.021.288 1.125-.837 3.15-1.158 3.89-.321.741.257 1.384.74 1.479.482.098.45.771.514 1.223.065.45-.257 1.093-.644 1.769-.385.675-.192 1.639-.192 1.639s.514 3.729.579 4.563c.063.837-.032 1.833-.192 2.059-.162.225-.194.644-.064.932.128.289.031 1.575-.097 2.024-.129.45-.096 1.834-.033 2.219.065.387-.289.901-.45 1.157-.16.257.323.964.323.964s0 .547-.162 2.187c-.161 1.639-1.735 2.86-1.735 2.86l-1.511.097-.064 1.413-.514.065-.065.805.546.546v1.222l-.706.643-.064 1.608-.668.045V95.185h-.397v-2.068h-.926v-1.4h-.266v-.247h-.454v-.415h-.864v-1.811h-.226v-.482h-.511v-.652h-.17v1.12h-.383v-4.579h-.623v-2.226h-.326v2.226h-.512v2.084h-1.488v1.361h-.68v1.274h-.624v-.396h-.539v2.211h-.424v.539H13.95v1.333h-.567v2.097h-1.389v.229h-.624v15.875h-.219v-6.106h-.226v-2.502H8.677v5.974h-.512v6.378h-.85v-8.988h.226v-.672h-.226v-.773h-.481l-.907-1.417h-.512v-.198h-.992v.283h-.482l-.821 1.02v.481h-.398v-.282h-.255v.282H1.418v10.832h-.283v2.211H.908v1.247H.652v1.277H.454v1.389H.199v1.391H0v7.47h361.463v-3.167zM31.782 57.781c-.107-.424-.855-.882-.855-.882s-.038-.341-.075-.771c.545.195 2.253.814 2.222.906-.035.107-.091.692-.091.692l-1.163.178c-.013-.044-.027-.084-.038-.123zm1.328 1.734c-.062.445-.339.881-.592.953-.197.057-.528-.242-.457-.988.056-.582-.078-1.029-.19-1.401l1.094.039.193.181-.048 1.216z"/></svg>